<svg id="Layer_1" data-name="Layer 1" xmlns="http://www.w3.org/2000/svg" viewBox="0 0 2000 2000"><defs><style>.cls-1{opacity:0.5;}.cls-2{fill:#fffbd4;}.cls-3{fill:#e7e7e7;}.cls-4{fill:#9b9b9b;}.cls-5{fill:#00a84b;}.cls-15,.cls-6{fill:#fff;}.cls-7{fill:#bfbfbf;}.cls-8{fill:#d5d5d5;}.cls-9{fill:#212c31;}.cls-10{opacity:0.1;}.cls-10,.cls-15,.cls-16,.cls-19,.cls-20,.cls-22{isolation:isolate;}.cls-11{fill:#3b5059;}.cls-12{fill:#ffc9ad;}.cls-13{fill:#ff8fb3;}.cls-14{opacity:0.8;}.cls-15{opacity:0.6;}.cls-16{opacity:0.2;}.cls-17{opacity:0.9;}.cls-18{fill:#2f3e45;}.cls-19,.cls-21{opacity:0.4;}.cls-20{opacity:0.3;}.cls-23{fill:none;stroke:#212c31;stroke-linecap:round;stroke-miterlimit:10;stroke-width:2px;}</style></defs><g class="cls-1"><path class="cls-2" d="M1543.69,1298.13c0,88.18-81.09,168.9-169.27,168.9s-191.17-80.72-191.17-168.9,103-182.3,191.17-182.3S1543.69,1210,1543.69,1298.13Z"/></g><g class="cls-1"><path class="cls-2" d="M460.37,466.58C715.23,211.72,1066.32,230,1227.65,391.35s153.88,486.67-101,741.53-588.49,270.61-749.82,109.28S205.51,721.44,460.37,466.58Z"/></g><g id="freepik--background-complete--inject-353"><path class="cls-3" d="M1514.59,986.68h-230V829.31h230Zm-228.21-1.81h226.4V831.12H1286.4Z"/><path class="cls-4" d="M1302.55,839.46a4.58,4.58,0,1,1-4.58-4.58h0A4.58,4.58,0,0,1,1302.55,839.46Z"/><path class="cls-3" d="M1321.24,839.46a4.58,4.58,0,1,1-4.58-4.58h0A4.58,4.58,0,0,1,1321.24,839.46Z"/><path class="cls-5" d="M1339.93,839.46a4.58,4.58,0,1,1-4.58-4.58h.09A4.59,4.59,0,0,1,1339.93,839.46Z"/><rect class="cls-3" x="1285.47" y="847.51" width="228.21" height="1.82"/><path class="cls-3" d="M720.53,1308.31h-230V1150.94h230Zm-228.21-1.81h226.4V1152.76H492.32Z"/><path class="cls-4" d="M508.48,1161.08a4.58,4.58,0,1,1-4.58-4.58h0A4.58,4.58,0,0,1,508.48,1161.08Z"/><path class="cls-3" d="M527.14,1161.08a4.58,4.58,0,1,1-4.58-4.58h0A4.58,4.58,0,0,1,527.14,1161.08Z"/><path class="cls-5" d="M545.88,1161.08a4.6,4.6,0,1,1-4.62-4.58h0a4.58,4.58,0,0,1,4.57,4.58Z"/><rect class="cls-3" x="491.41" y="1169.14" width="228.21" height="1.82"/><rect class="cls-6" x="671.47" y="837.66" width="439.83" height="278.49"/><path class="cls-7" d="M1111.3,1116.16l-439.83.67h-.67v-.67l-.16-278.49v-.85h.91l439.83.38h.53v.53Zm0,0-.54-278.49.54.54-439.83.42.91-.91-.24,278.49-.67-.67Z"/><rect class="cls-7" x="671.47" y="837.66" width="439.83" height="10.72"/><path class="cls-7" d="M682.26,843a2.31,2.31,0,1,1-2.31-2.31h0A2.3,2.3,0,0,1,682.26,843Z"/><path class="cls-6" d="M691.69,843a2.31,2.31,0,1,1-2.31-2.31h0A2.3,2.3,0,0,1,691.69,843Z"/><path class="cls-5" d="M701.13,843a2.33,2.33,0,1,1-2.35-2.31h0a2.3,2.3,0,0,1,2.32,2.28h0Z"/><rect class="cls-3" x="671.47" y="848.38" width="439.83" height="42.03"/><rect class="cls-6" x="721.86" y="863.84" width="362.37" height="10.24"/><path class="cls-7" d="M1084.34,874.19H721.75V863.73h362.59ZM722,874h362.16V864H722Z"/><path class="cls-3" d="M729.78,871.18l-.73.54-1.11-1.47-.24-.31-.24-.33h0a.92.92,0,0,0,.27-.16h0a1.57,1.57,0,0,0,.35-.42h0l.25.33.24.33Z"/><path class="cls-3" d="M728.63,869.65l-.24-.33a1.58,1.58,0,0,0,.2-.36l-.27-.36h0a1.17,1.17,0,0,1-.09.24.54.54,0,0,1,0,.18,1.18,1.18,0,0,1-.35.42H728l.24.31.24.31.87,1.14h-.11l-.85-1.14-.24-.31-.24-.31h0a.74.74,0,0,1-.27.16h-.38l.25.33.38-.15.24.31,1.11,1.47L730,871Z"/><path class="cls-3" d="M728.34,867a2,2,0,1,0-3.22,2.42h0a2,2,0,0,0,2.13.69l.38-.15.27-.18h0l.09-.09a2,2,0,0,0,.27-.31,1.58,1.58,0,0,0,.2-.36A2,2,0,0,0,728.34,867Zm-.13,1.82a.54.54,0,0,1,0,.18,1.18,1.18,0,0,1-.35.42h0a.74.74,0,0,1-.27.16h-.67a1.57,1.57,0,1,1,1.24-2.53,1.52,1.52,0,0,1,.29,1.33.89.89,0,0,1-.24.42Z"/><path class="cls-3" d="M728.6,869a2,2,0,1,0-1.26,1.13l.38-.15.24.31.27-.18h0l.09-.09a1.24,1.24,0,0,0,.27-.29l-.24-.33A2.06,2.06,0,0,0,728.6,869Zm-.53.16a1.12,1.12,0,0,1-.18.2h-.09l-.22.15h0a1.14,1.14,0,0,1-.4.15,1.59,1.59,0,0,1-1.56-.6,1.61,1.61,0,0,1-.33-1.18,1.68,1.68,0,0,1,.62-1,1.64,1.64,0,0,1,1-.33,1.58,1.58,0,0,1,1.25.62,1.66,1.66,0,0,1,.29,1.38,2.87,2.87,0,0,1-.18.4Z"/><polygon class="cls-6" points="685.07 872.47 681.35 869.03 685.07 865.45 685.66 866.07 682.57 869.01 685.64 871.85 685.07 872.47"/><polygon class="cls-6" points="694.08 865.45 697.83 868.89 694.08 872.47 693.52 871.87 696.59 868.91 693.52 866.07 694.08 865.45"/><path class="cls-8" d="M1099.07,873.14a4.62,4.62,0,0,1-1.43.6,4.92,4.92,0,0,1-3.78-.6,4.85,4.85,0,0,1-2.2-3,4.94,4.94,0,1,1,7.41,3Z"/><path class="cls-6" d="M1098,868.4a1.51,1.51,0,1,1-1.51-1.51h0a1.5,1.5,0,0,1,1.51,1.49Z"/><path class="cls-6" d="M1099.07,872.54v.6a4.62,4.62,0,0,1-1.43.6,4.92,4.92,0,0,1-3.78-.6v-.62a2.6,2.6,0,0,1,5.2,0h0Z"/><path class="cls-6" d="M708.94,873.43a4.87,4.87,0,1,1,4.81-5.45l-.87.11a4,4,0,1,0-1,3.17l.65.58A4.85,4.85,0,0,1,708.94,873.43Z"/><polygon class="cls-6" points="710.72 866.78 711.01 866.34 713.19 867.8 714.48 865.53 714.95 865.8 713.36 868.56 710.72 866.78"/><rect class="cls-6" x="811.75" y="980.62" width="167.2" height="22.81"/><path class="cls-7" d="M979.42,1003.92H811.3V980.16H979.43v23.76Zm-167.2-.91H978.51V981.07H812.21Z"/><rect class="cls-4" x="956.14" y="980.62" width="22.81" height="22.81"/><path class="cls-6" d="M974.77,998.47l-2.11,1.58-3.91-5.21L967.32,993a3.85,3.85,0,0,0,.84-.47,3.22,3.22,0,0,0,1.07-1.4l1.53,2Z"/><path class="cls-6" d="M970.63,986.26a5.76,5.76,0,1,0-1.82,8.59,7.39,7.39,0,0,0,.8-.53,5.88,5.88,0,0,0,1.2-1.24A5.75,5.75,0,0,0,970.63,986.26Zm-2.47,6.23a3.85,3.85,0,0,1-.84.47,3.43,3.43,0,1,1,1.94-4.45,3.49,3.49,0,0,1,0,2.58,3.22,3.22,0,0,1-1.07,1.4Z"/><rect class="cls-9" x="816.51" y="985.08" width="1.22" height="13.84"/><rect class="cls-7" x="811.75" y="1012.31" width="38.62" height="12.24"/><rect class="cls-4" x="876.03" y="1012.31" width="38.62" height="12.24"/><rect class="cls-7" x="940.81" y="1012.31" width="38.62" height="12.24"/><rect class="cls-3" x="842.01" y="955.89" width="106.66" height="7.41"/><path class="cls-3" d="M1541.4,1240.45l-23.83.51-12.1.2c-4,.09-8.1,0-12.17.11h-.8v-.82l-.11-20.38v-.91h.91l24,.11c8,0,16,.2,24,.29h.51v.51c0,3.45-.16,6.88-.24,10.28Zm0,0-.25-10.26c0-3.38-.2-6.72-.24-10.06l.49.51c-8,.09-16,.29-24.05.29l-24,.11.91-.91v20.33l-.82-.8c4,0,7.92,0,11.9.09l11.79.31Z"/><path class="cls-3" d="M1514.57,1266.08l-23.83.51-12.1.2c-4.05,0-8.12,0-12.17.11h-.8v-.82l-.11-20.33v-.91h.91l24,.13c8,0,16,.2,24,.29h.51v.49c0,3.45-.16,6.88-.25,10.28Zm0,0-.25-10.26c0-3.38-.2-6.72-.24-10.06l.49.51c-8,.09-16,.29-24,.29l-24,.11.91-.91v20.33l-.82-.8c4,0,7.92,0,11.9.09l12,.22Z"/><path class="cls-3" d="M472.81,1240.45,449,1241l-12.1.2c-4,.09-8.1,0-12.15.11H424v-22.06h.93l24.05.11c8,0,16,.2,24,.29h.49v.45c0,3.45-.16,6.88-.24,10.28Zm0,0-.27-10.26c0-3.38-.2-6.72-.24-10.06l.51.51c-8,.09-16,.29-24.05.29l-24.05.11.89-.91v20.33l-.8-.8c4,0,7.9,0,11.88.09l11.95.22Z"/><path class="cls-3" d="M446,1266.08l-23.83.51-12.1.2c-4,0-8.1,0-12.17.11h-.8v-.82l-.11-20.33v-.91h.91L422,1245c8,0,16,.2,24,.29h.51v.49c0,3.45-.16,6.88-.24,10.28Zm0,0-.25-10.26c0-3.38-.2-6.72-.24-10.06l.49.51c-8,.09-16,.29-24,.29l-24.05.11.91-.91v20.33l-.82-.8c4,0,7.92,0,11.9.09l11.95.22Z"/><path class="cls-3" d="M1568.25,1266.08l-23.85.51-12.1.2c-4,0-8.1,0-12.15.11h-.82v-22.06h.93l24,.13c8,0,16,.2,24,.29h.49v.49c0,3.45-.16,6.88-.24,10.28Zm0,0-.27-10.26c0-3.38-.2-6.72-.24-10.06l.51.51c-8,.09-16,.29-24,.29l-24,.11.91-.91-.11,20.33-.8-.8c4,0,7.9,0,11.88.09l12,.22Z"/><path class="cls-3" d="M770.36,1165.82l-23.85.51-12.1.2c-4,.09-8.1,0-12.15.11h-.76v-.82l-.09-20.33v-.91h.91l24,.13c8,0,16,.2,24,.29h.49v.49c0,3.45-.15,6.88-.24,10.28Zm0,0-.25-10.26c-.09-3.38-.22-6.74-.24-10.06l.49.51c-8,.09-16,.29-24.05.29l-24,.11.91-.91-.11,20.33-.8-.8c4,0,7.92,0,11.88.09l12,.2Z"/><path class="cls-3" d="M743.53,1191.45l-23.85.51-12.1.2c-4,.09-8.1,0-12.15.11h-.82v-22.06h.93l24.05.13c8,0,16,.2,24,.29h.49v.49c0,3.45-.16,6.88-.24,10.28Zm0,0-.27-10.26c0-3.38-.2-6.74-.24-10.06l.51.51c-8,.09-16,.27-24,.29l-24,.11.91-.91-.11,20.33-.8-.8c4,0,7.9,0,11.88.09l12,.2Z"/><path class="cls-3" d="M797.18,1191.45l-23.83.51-12.12.2c-4,.09-8.1,0-12.15.11h-.8v-.82l-.09-20.33v-.91h.91l24,.13c8,0,16,.2,24,.29h.58v.49c0,3.45-.15,6.88-.24,10.28Zm0,0-.25-10.26c0-3.38-.2-6.74-.24-10.06l.49.51c-8,.09-16,.27-24,.29l-24,.11.91-.91-.09,20.33-.82-.8c4,0,7.92,0,11.9.09l11.93.2Z"/><path class="cls-3" d="M1297.08,998.58l-23.83.51-12.1.2c-4.05.09-8.1,0-12.17.09h-.73v-.82l-.11-20.33v-.91h.91l24,.11c8,0,16,.22,24,.31h.51v.49c0,3.45-.16,6.88-.24,10.26Zm0,0-.25-10.26c0-3.4-.2-6.74-.24-10.06l.49.49c-8,.09-16,.29-24,.31l-24,.11.91-.91v20.33l-.82-.82c4,0,7.92,0,11.9.11l12,.2Z"/><path class="cls-3" d="M1538.62,801.17l-23.83.51-12.1.2c-4,0-8.12,0-12.17.11h-.8v-.82l-.11-20.33v-.91h.91l24,.11c8,0,16,.22,24,.31h.51v.49c0,3.45-.16,6.88-.24,10.26Zm0,0-.25-10.26c0-3.4-.2-6.74-.24-10.06l.49.49c-8,0-16,.29-24,.31l-24,.11.91-.91v20.33l-.82-.82c4,0,7.92,0,11.9.11l12,.2Z"/><path class="cls-3" d="M1565.45,826.8l-23.83.51-12.1.2c-4,.09-8.1,0-12.17.09h-.8v-.82l-.11-20.33v-.91h.91l24.05.11c8,0,16,.22,24,.31h.51v.49c0,3.45-.16,6.88-.24,10.26Zm0,0-.25-10.26c0-3.4-.2-6.74-.24-10.06l.49.49c-8,0-16,.29-24,.31l-24,.11.91-.91v20.33l-.82-.82c4,0,7.92,0,11.9.11l12,.2Z"/><path class="cls-3" d="M446.05,801.19l-23.85.51-12.1.2c-4,0-8.1,0-12.15.11h-.8V780h.91l24.05.13c8,0,16,.2,24.05.29h.49v.49c0,3.45-.15,6.88-.24,10.28Zm0,0-.25-10.26c0-3.4-.2-6.74-.24-10.06l.49.49c-8,.11-16,.29-24.05.31l-24.05.11.91-.91-.11,20.33-.8-.71h11.88l11.95.2Z"/><rect class="cls-3" x="1277.93" y="1229.01" width="177.63" height="221.37"/><rect class="cls-8" x="1269.32" y="1219.87" width="194.83" height="9.12"/><rect class="cls-3" x="1464.15" y="1219.87" width="61.27" height="9.12"/><rect class="cls-8" x="1455.54" y="1229.01" width="60.18" height="221.37"/><path class="cls-7" d="M1436.43,1332.69H1297V1254h139.39Zm-138.93-.45H1436v-77.82H1297.5Z"/><rect class="cls-7" x="1347.28" y="1277" width="27.14" height="15.6"/><path class="cls-7" d="M1382.67,1291.64h-27.59v-13.7h27.59Zm-27.14-.45h26.68v-12.71h-26.68Z"/><path class="cls-7" d="M1436.43,1431.7H1297v-78.78h139.39Zm-138.93-.45H1436v-77.87H1297.5Z"/><rect class="cls-7" x="1347.28" y="1375.96" width="27.14" height="15.6"/><path class="cls-7" d="M1382.67,1390.6h-27.59v-13.7h27.59Zm-27.14-.46h26.68v-12.71h-26.68Z"/></g><g id="freepik--Shadow--inject-353"><ellipse class="cls-3" cx="983.06" cy="1519.64" rx="278.82" ry="33.51"/></g><g id="freepik--Floor--inject-353"><polygon class="cls-9" points="408.85 1450.38 552.4 1449.92 695.96 1449.76 983.06 1449.47 1270.16 1449.76 1413.71 1449.92 1557.26 1450.38 1413.71 1450.81 1270.16 1450.97 983.06 1451.27 695.96 1450.97 552.4 1450.81 408.85 1450.38"/></g><g id="freepik--Lines--inject-353"><path class="cls-9" d="M760.09,869.67a16.75,16.75,0,0,1-.91-5.74,16.35,16.35,0,0,1,.91-5.76,16.35,16.35,0,0,1,.91,5.76A17,17,0,0,1,760.09,869.67Z"/><path class="cls-9" d="M748.38,873.14a16.45,16.45,0,0,1-3.63-4.54,16.14,16.14,0,0,1-2.09-5.45A18.88,18.88,0,0,1,748.38,873.14Z"/><path class="cls-9" d="M739.93,881.82a17,17,0,0,1-5.45-2.09A16.71,16.71,0,0,1,730,876.1a16.22,16.22,0,0,1,5.45,2.09A17.06,17.06,0,0,1,739.93,881.82Z"/><path class="cls-9" d="M737,893.65a16.73,16.73,0,0,1-5.74.89,16.35,16.35,0,0,1-5.76-.91,17.07,17.07,0,0,1,5.76-.91A16.49,16.49,0,0,1,737,893.65Z"/><path class="cls-9" d="M740.37,905.34a17.24,17.24,0,0,1-4.52,3.63,16.62,16.62,0,0,1-5.45,2,16.36,16.36,0,0,1,4.52-3.63A17.17,17.17,0,0,1,740.37,905.34Z"/><path class="cls-9" d="M749.14,913.81a17.3,17.3,0,0,1-2.09,5.45,16.79,16.79,0,0,1-3.63,4.5,18.44,18.44,0,0,1,5.76-9.94Z"/><path class="cls-9" d="M761,916.73a17.07,17.07,0,0,1,.91,5.76,16.49,16.49,0,0,1-.93,5.74,18.82,18.82,0,0,1,0-11.5Z"/><path class="cls-9" d="M772.68,913.35a17,17,0,0,1,3.63,4.54,16.4,16.4,0,0,1,2.07,5.45,18.48,18.48,0,0,1-5.72-10Z"/><path class="cls-9" d="M781.13,904.58a19,19,0,0,1,10,5.74A18.64,18.64,0,0,1,781.13,904.58Z"/><path class="cls-9" d="M784.05,892.76a16.81,16.81,0,0,1,5.76-.89,16,16,0,0,1,5.74.91,18.52,18.52,0,0,1-11.5,0Z"/><path class="cls-9" d="M780.69,881.06a18.67,18.67,0,0,1,9.95-5.74A19.11,19.11,0,0,1,780.69,881.06Z"/><path class="cls-9" d="M771.92,872.61a18.61,18.61,0,0,1,5.76-10,16.7,16.7,0,0,1-2.11,5.45A17.25,17.25,0,0,1,771.92,872.61Z"/><path class="cls-9" d="M1136.11,1032.64a16.81,16.81,0,0,1-.89-5.76,16,16,0,0,1,.91-5.74,18.38,18.38,0,0,1,0,11.5Z"/><path class="cls-9" d="M1124.41,1036a18.71,18.71,0,0,1-5.74-10,16.36,16.36,0,0,1,3.63,4.52A16.86,16.86,0,0,1,1124.41,1036Z"/><path class="cls-9" d="M1116,1044.77a18.69,18.69,0,0,1-10-5.77A18.89,18.89,0,0,1,1116,1044.77Z"/><path class="cls-9" d="M1113,1056.6a16.75,16.75,0,0,1-5.74.91,17.07,17.07,0,0,1-5.76-.91,16.35,16.35,0,0,1,5.76-.91A17,17,0,0,1,1113,1056.6Z"/><path class="cls-9" d="M1116.4,1068.31a16.45,16.45,0,0,1-4.54,3.63,17,17,0,0,1-5.45,2.09,18.51,18.51,0,0,1,10-5.74Z"/><path class="cls-9" d="M1125.17,1076.76a18.61,18.61,0,0,1-5.76,10,16.22,16.22,0,0,1,2.09-5.45A17.17,17.17,0,0,1,1125.17,1076.76Z"/><path class="cls-9" d="M1137,1079.7a16.73,16.73,0,0,1,.89,5.74,16,16,0,0,1-.91,5.74,17,17,0,0,1-.91-5.74A16.49,16.49,0,0,1,1137,1079.7Z"/><path class="cls-9" d="M1148.7,1076.32a17.24,17.24,0,0,1,3.63,4.52,16.4,16.4,0,0,1,2.07,5.45,16.36,16.36,0,0,1-3.63-4.52A16.93,16.93,0,0,1,1148.7,1076.32Z"/><path class="cls-9" d="M1157.16,1067.49a17,17,0,0,1,5.45,2.09,16.36,16.36,0,0,1,4.52,3.63,18.44,18.44,0,0,1-9.94-5.76Z"/><path class="cls-9" d="M1160.08,1055.72a18.67,18.67,0,0,1,11.5,0,16.35,16.35,0,0,1-5.76.91A17,17,0,0,1,1160.08,1055.72Z"/><path class="cls-9" d="M1156.71,1044a18.84,18.84,0,0,1,10-5.74A18.64,18.64,0,0,1,1156.71,1044Z"/><path class="cls-9" d="M1147.93,1035.56a19,19,0,0,1,5.74-10,16.22,16.22,0,0,1-2.09,5.45A16.56,16.56,0,0,1,1147.93,1035.56Z"/></g><g id="freepik--Plant--inject-353"><path class="cls-5" d="M478.19,1166.11s-40-5.59-30.57-53.77C447.62,1112.34,492.19,1122.35,478.19,1166.11Z"/><path class="cls-10" d="M478.19,1166.11s-40-5.59-30.57-53.77C447.62,1112.34,492.19,1122.35,478.19,1166.11Z"/><path class="cls-9" d="M476.17,1156c-.78-2.43-1.71-4.83-2.72-7.17V1148c0-.67-.13-1.33-.16-2-.13-1.43-.22-2.87-.29-4.3-.18-2.89-.36-5.76-.4-8.65,0-.16-.24-.15-.25,0v8.66c0,1.43.13,2.87.24,4.3v1a84.34,84.34,0,0,0-8-13.68c-1.36-1.93-2.82-3.76-4.36-5.54s-3.27-3.54-4.89-5.36c-.11-.11-.27,0-.16.18a72.1,72.1,0,0,1,7.68,10.23c1.22,1.82,2.36,3.72,3.45,5.63l-.36-.15-1.43-.58-3.23-1.16c-2.14-.78-4.29-1.56-6.41-2.38-.13,0-.22.18,0,.22,2.13.85,4.21,1.82,6.32,2.65l3.09,1.33,1.54.65a6.41,6.41,0,0,0,1.07.36c.8,1.45,1.6,2.89,2.33,4.38a103.87,103.87,0,0,1,4.89,11.5,2.59,2.59,0,0,0,.29.82,24.5,24.5,0,0,0-3.27-1.56l-4.14-1.82c-2.8-1.29-5.58-2.6-8.26-4.11-.13,0-.25.15-.11.22,2.74,1.49,5.45,3.09,8.17,4.58,1.38.74,2.76,1.47,4.16,2.14a13.23,13.23,0,0,0,3.74,1.51,46.8,46.8,0,0,1,2.62,11.32c.45,5.45.4,10.9.53,16.35m.11,0c.4-5,.62-10,.65-14.93a43.53,43.53,0,0,0-2.45-13.7Z"/><path class="cls-9" d="M470,1127.73a45.4,45.4,0,0,0-.4,8.48h.11c.16-2.82.2-5.63.53-8.43A.12.12,0,1,0,470,1127.73Z"/><path class="cls-9" d="M458.62,1130.12a31.34,31.34,0,0,1-5.14-2.51c-.13,0-.25.13-.11.2a18.9,18.9,0,0,0,5.18,2.49.1.1,0,0,0,.11-.09A.11.11,0,0,0,458.62,1130.12Z"/><path class="cls-9" d="M479.46,1242.58c0-4.41-.11-8.83-.16-13.22,0-14.66-.2-29.3-.47-43.94q-.29-17.43-.82-34.88a.19.19,0,0,0,0-.15v-9.52c0-.09-.09-.13-.18-.13s-.2,0-.2.13v9.54a.2.2,0,0,0,0,.15c-.58,20.69-1.11,41.38-1.24,62.07v12.71q-.22,20.23-.16,40.47v6.45c0,12.35.13,24.69.13,37,0,.65.74,1,1.53,1s1.82-.31,1.82-1.07c0-13.62.11-27.25.11-40.83C479.49,1259.72,479.53,1251.15,479.46,1242.58Z"/><path class="cls-5" d="M462.8,1229.15s-19.22-14.2-37.38-4.6-21.07,46.65-21.07,46.65,26.76,3.83,43.59-12.21C464.14,1243.56,462.8,1229.15,462.8,1229.15Z"/><path class="cls-9" d="M468,1230.06a22.59,22.59,0,0,0-11.12-1.45,15.6,15.6,0,0,0-2.36-.24l-2.71-.2-5.59-.4c-3.78-.29-7.57-.51-11.35-.89a.12.12,0,0,0,0,.24c3.74.47,7.47,1,11.23,1.4,1.93.18,3.85.38,5.78.53l1.42.13c-.58.13-1.14.27-1.71.44a45.56,45.56,0,0,0-8.7,3.52c-1.51.27-3,.69-4.49,1-2.38.54-4.74,1.16-7.1,1.82-4.67,1.22-9.28,2.6-13.9,3.94-.16,0,0,.27,0,.24,4.61-1.14,9.26-2.18,13.9-3.27l6.74-1.62,1.82-.42a56.64,56.64,0,0,0-13.64,11.86,75.33,75.33,0,0,0-9.48,15c0,.15.13.27.22.15a72.74,72.74,0,0,1,11.46-15.06,2.59,2.59,0,0,1-.24.76c-.36,1.13-.73,2.25-1.07,3.38-.71,2.27-1.43,4.52-2.11,6.79,0,.16.18.2.24,0,.8-2.18,1.58-4.4,2.34-6.59l1.14-3.23.58-1.69a1.55,1.55,0,0,1,.18-.51,66.1,66.1,0,0,1,6.81-5.81,50.55,50.55,0,0,1,10.17-5.83,5.67,5.67,0,0,1-.18,1c-.2.87-.38,1.82-.56,2.62-.38,1.82-.73,3.63-1.09,5.45-.73,3.63-1.16,7.47-1.82,11.19,0,.15.2.22.24,0,.87-3.72,2-7.41,2.82-11.15.4-1.82.84-3.74,1.22-5.61.18-.89.36-1.82.53-2.63a12.25,12.25,0,0,0,.27-1.47c.36-.15.69-.31,1.05-.44a30.35,30.35,0,0,1,16-2.18,15.72,15.72,0,0,1,11.48,9.26c.16.42.84.16.73-.27A14.87,14.87,0,0,0,468,1230.06Z"/><path class="cls-9" d="M438.64,1245.87c-.54,2.43-1.07,4.87-1.62,7.27a55.5,55.5,0,0,0-1.34,7.1c0,.09.13.09.16,0a54.94,54.94,0,0,0,1.63-7.16c.47-2.4.93-4.8,1.4-7.27C438.91,1245.77,438.68,1245.72,438.64,1245.87Z"/><path class="cls-9" d="M420.08,1252.06c-2.43,1.24-4.81,2.63-7.36,3.63-.16,0,0,.31.09.22a75.85,75.85,0,0,0,7.27-3.78S420.15,1252,420.08,1252.06Z"/><path class="cls-5" d="M467.2,1203.07s-23.61,1.49-34.51-14-8.46-37.55-8.46-37.55,24.65,3,34.42,14.1S467.2,1203.07,467.2,1203.07Z"/><path class="cls-9" d="M478.09,1226.21c-.8-2.52-1.82-5-2.76-7.47s-1.82-4.7-2.92-7a143.21,143.21,0,0,0-7-13.82c-1.65-2.85-3.41-5.61-5.25-8.36,0-.42-.1-.83-.18-1.24l-.33-2.18c-.24-1.49-.49-3-.74-4.45-.54-3.25-1.2-6.47-1.82-9.7,0-.16-.25-.15-.24,0,.47,3.2.8,6.43,1.24,9.63.22,1.58.44,3.14.67,4.72L459,1188a170,170,0,0,0-11.61-15c-.56-.65-1.14-1.29-1.71-1.93a4.93,4.93,0,0,1-.22-.53l-.53-1.34-1-2.8c-.67-1.82-1.25-3.63-1.82-5.58a.11.11,0,1,0-.22,0c.47,1.93,1,3.85,1.53,5.74.27.93.58,1.82.89,2.72,0,.16.13.31.18.45-3-3.27-6.14-6.41-9.28-9.52a.13.13,0,0,0-.18,0,.16.16,0,0,0,0,.14h0a167.22,167.22,0,0,1,16.62,20.36,16.62,16.62,0,0,0-1.82-.44c-1.82-.35-3.63-.6-5.45-.84-3.83-.49-7.65-1-11.44-1.58-.16,0-.22.22,0,.24,3.63.73,7.27,1.54,10.9,2.36,1.71.4,3.41.73,5.12,1.07a30.78,30.78,0,0,1,4.12,1.18l1.14,1.62c1.82,2.51,3.38,5.07,5,7.63l-2.4-.45c-1.82-.36-3.63-.69-5.45-1-3.63-.6-7.16-1.22-10.7-2a.12.12,0,0,0-.08.15v0a.12.12,0,0,0,.07.07c3.63.84,7.14,1.82,10.7,2.78,1.71.45,3.45.87,5.18,1.25l2.62.56a6.23,6.23,0,0,0,1.05.18q5.16,8.34,9.63,17,2,3.86,3.78,7.74c1.25,2.65,2.32,5.45,3.49,8.08C477.46,1227,478.31,1226.79,478.09,1226.21Z"/><path class="cls-9" d="M454.12,1172.3c-.45-2.23-.92-4.47-1.42-6.7,0-.15-.27,0-.24,0,.44,2.2.87,4.4,1.27,6.61a61.32,61.32,0,0,0,1.33,6.58h0A49,49,0,0,0,454.12,1172.3Z"/><path class="cls-9" d="M440.42,1171.65a35.2,35.2,0,0,0-3.36-1.42l-1.82-.71-.91-.35a6,6,0,0,1-1-.44c-.16-.15-.29.16-.11.2a3.66,3.66,0,0,1,1,.42l.89.38,1.71.76a31.32,31.32,0,0,0,3.47,1.38.13.13,0,0,0,.18,0,.11.11,0,0,0,.09-.13A.12.12,0,0,0,440.42,1171.65Z"/><path class="cls-5" d="M491.12,1184.62s14.2-26.52,35.8-30.62,34.8,18.16,34.8,18.16-15.75,20.11-35.57,23.61S491.12,1184.62,491.12,1184.62Z"/><path class="cls-9" d="M541.38,1165.89a57.53,57.53,0,0,0-16.93.2l1-.53,4.8-2.47a109.06,109.06,0,0,1,10.14-4.94c.16,0,0-.31-.09-.22-3.38,1.56-6.88,2.89-10.28,4.45q-2.55,1.14-5,2.45c-1.13.55-2.22,1.16-3.29,1.82a61,61,0,0,0-13.73,4.56l2.71-2.94c2-2.2,4-4.52,6.21-6.52.11-.11,0-.27-.18-.16-2.27,2.05-4.65,3.94-6.85,6.09q-1.58,1.56-3.07,3.21c-.49.54-1,1.11-1.45,1.71a57,57,0,0,0-29,39.05.12.12,0,0,0,.15.08h0a.12.12,0,0,0,.07-.07,65.12,65.12,0,0,1,15.88-26.86,62.47,62.47,0,0,1,28.92-16.73,63.85,63.85,0,0,1,20-1.82.22.22,0,0,0,.13-.28Z"/><path class="cls-10" d="M561.74,1172.12s-15.77,20.11-35.58,23.61c-15.13,2.69-27.55-5.19-32.6-9.08l-1.09-1.82s10.23-8.63,29.55-13.6S561.74,1172.12,561.74,1172.12Z"/><path class="cls-9" d="M528.85,1156.5c-1.65,1-3.25,2-4.8,3.16a31.29,31.29,0,0,0-4.16,3.81c-.13.13,0,.29.18.18,1.43-1.25,2.87-2.49,4.36-3.63a44.44,44.44,0,0,1,4.54-3.29C529.1,1156.5,529,1156.35,528.85,1156.5Z"/><path class="cls-9" d="M540.69,1160.91c-.8.35-1.62.62-2.42,1l-2.4,1c-.16,0-.09.35.09.27l2.4-1c.82-.33,1.6-.69,2.4-1C540.91,1161.09,540.83,1160.86,540.69,1160.91Z"/><path class="cls-5" d="M488.28,1218s3.8,26.32,23.61,35.51,43.88,0,43.88,0S546.26,1196.59,488.28,1218Z"/><path class="cls-9" d="M542.12,1236.42c-1.82-.2-3.63-.51-5.45-.85l-2.65-.49-1.38-.29c-.54-.49-1.07-1-1.62-1.47a78.36,78.36,0,0,0-12.1-8.77,65.46,65.46,0,0,0-7.27-3.72H512l6.5.27c4.34.2,8.68.31,13,.58a.12.12,0,0,0,0-.24c-4.36-.29-8.7-.78-13-1.14l-6.32-.56-3.27-.29-.84-.09c-1.13-.42-2.25-.82-3.4-1.18a30.87,30.87,0,0,0-16.77-.91c-5,1.27-9.94,4.52-11.23,9.77,0,.18.24.31.31.13,1.82-4.4,6.72-6.59,11.12-7.5a26.37,26.37,0,0,1,8.95-.18,22.09,22.09,0,0,0,1,4c.54,1.82,1.09,3.63,1.65,5.56,1.13,3.63,2.36,7.27,3.45,11,0,.16.27.09.24,0-.93-3.63-1.71-7.41-2.6-11.12-.44-1.82-.89-3.63-1.34-5.45a29.86,29.86,0,0,0-1-3.74,47.05,47.05,0,0,1,5.12,1.22,79.93,79.93,0,0,1,9,3.27c.29,1.82.71,3.74,1.13,5.59.54,2.33,1.14,4.61,1.82,6.88a.11.11,0,0,0,.22,0,.83.83,0,0,0-.09-.44h0c-.44-2.16-.93-4.3-1.38-6.45-.36-1.82-.69-3.47-1.07-5.21,2.45,1.11,4.87,2.33,7.27,3.63a12.08,12.08,0,0,0,.25,1.58c.15.91.31,1.82.47,2.71.38,2,.78,4,1.27,6a93.27,93.27,0,0,0,3.4,11.44.11.11,0,0,0,0,.15l.11.13a.11.11,0,0,0,.2-.1c-.91-3.91-2-7.77-2.82-11.68-.42-2-.85-3.91-1.25-5.87-.2-1-.36-2-.56-2.94a2.24,2.24,0,0,0-.13-.89,82.47,82.47,0,0,1,7.7,5.14,84.15,84.15,0,0,1,11.79,10.77.19.19,0,0,0,.27,0,.2.2,0,0,0,0-.23,70.11,70.11,0,0,0-4.72-5.76c-1-1.07-2-2.09-3.07-3.11h.33c.93.16,1.82.29,2.78.42,1.82.25,3.63.44,5.45.64C542.21,1236.64,542.29,1236.42,542.12,1236.42Z"/><path class="cls-9" d="M528.23,1245.3h0l-.11-.67a5.11,5.11,0,0,0-.25-.87h0c-.4-1.82-.74-3.63-1.07-5.3,0-.13-.22-.09-.22,0a21.32,21.32,0,0,0,1.51,6.87h.15Z"/><path class="cls-9" d="M511.66,1244.88a.11.11,0,0,0-.11-.11c-.56-2.33-1.09-4.67-1.56-7-.25-1.24-.53-2.47-.76-3.63-.13-.65-.24-1.33-.36-2a5.57,5.57,0,0,0-.42-1.71c0-.09-.22,0-.22,0a10.52,10.52,0,0,0,.49,3.52c.24,1.29.49,2.58.76,3.85.58,2.59,1.24,5.17,2,7.74,0,.15.27.11.27,0Z"/><path class="cls-9" d="M540.32,1228.81c-3.63-.49-7.27-1-10.9-1.45-.15,0-.22.22,0,.24,3.63.53,7.27,1,10.9,1.45C540.42,1229.15,540.47,1228.83,540.32,1228.81Z"/><path class="cls-5" d="M478.09,1156.3s-12.1-53.09,45-74.58C523.11,1081.72,538.91,1151.61,478.09,1156.3Z"/><path class="cls-9" d="M490.46,1126.18c.2-.13.41-.25.62-.36l3.22-1.82,6.63-3.63c4.36-2.45,8.65-5,13-7.36.13,0,0-.29-.13-.22-4.4,2.4-8.86,4.63-13.3,7l-6.54,3.45-2.67,1.42a105.28,105.28,0,0,1,6.18-10.57c3-4.54,6.25-8.86,9.65-13.11a.21.21,0,0,0-.07-.27.23.23,0,0,0-.2,0,91.13,91.13,0,0,0-13.19,16.18v-.56c0-1.31.11-2.63.13-4v-7.77c0-.16-.25-.15-.25,0-.11,2.56-.42,5.1-.56,7.65-.07,1.21-.13,2.48-.16,3.81v2.23c-1.18,1.82-2.31,3.76-3.38,5.69a98.78,98.78,0,0,0-5.09,10.7c0-1.33-.15-2.65-.22-4-.18-2.91-.53-5.79-.65-8.7a.12.12,0,0,0-.15-.08h0a.12.12,0,0,0-.07.07v8.74a35.25,35.25,0,0,0,.18,4.36v1.62a96.54,96.54,0,0,0-4.3,14.53,159.21,159.21,0,0,0-2.13,16h0a87.16,87.16,0,0,1,3-14.3c.71-2.51,1.45-5,2.25-7.48,2.38-1.11,4.65-2.51,6.94-3.78s4.78-2.62,7.16-3.92c4.76-2.6,9.52-5.27,14.42-7.57.15,0,0-.27-.13-.2-5,2.25-10,4.4-14.86,6.85-2.43,1.22-4.83,2.52-7.27,3.87-2,1.11-4,2.23-5.92,3.51.56-1.65,1.14-3.29,1.82-4.92C486.34,1134.85,488.28,1130.45,490.46,1126.18Z"/><path class="cls-9" d="M485.65,1114.05c0-.16-.25-.16-.24,0,.2,3,.31,6.07.64,9.08,0,.16.27.16.25,0C486.21,1120.17,485.89,1117.06,485.65,1114.05Z"/><path class="cls-9" d="M513,1124.18c-3.63,1.43-7.27,2.8-10.72,4.29-.11,0,0,.2,0,.16,3.63-1.34,7.16-2.82,10.73-4.21C513.22,1124.37,513.15,1124.13,513,1124.18Z"/><path class="cls-9" d="M518.44,1099.7a95.17,95.17,0,0,0-10.15,5.45.17.17,0,0,0,0,.23.17.17,0,0,0,.17,0c3.31-1.94,6.68-3.8,10.12-5.45A.14.14,0,0,0,518.44,1099.7Z"/><rect class="cls-11" x="435.3" y="1271.13" width="82.28" height="86.73"/><rect class="cls-9" x="429.63" y="1301.81" width="4.21" height="148.55"/><rect class="cls-9" x="518.58" y="1301.81" width="4.21" height="148.55"/><rect class="cls-9" x="476.35" y="1301.81" width="4.21" height="148.55"/><rect class="cls-9" x="431.74" y="1352.29" width="88.95" height="12.01"/></g><g id="freepik--Character--inject-353"><path class="cls-12" d="M834.66,1518.44c4.11,1.33,125.21-.18,129.62-3.09,1.69-1-6.81-115-6.81-115l-78.25.78,8.32,76.29s-44.5,20.6-49,24.29S830.48,1517.13,834.66,1518.44Z"/><path class="cls-6" d="M834.66,1518.44c4.11,1.33,125.21-.2,129.62-3.09.78-.47-.6-24.92-2.31-51.15H886.1l1.43,13.15s-44.52,20.63-49,24.27S830.48,1517.13,834.66,1518.44Z"/><path class="cls-4" d="M833.33,1520.11c4.32,1.4,126.6.25,131.25-2.78,1.82-1.11-.78-41.45-.78-41.67H888.15V1477s-47,21.56-51.79,25.43S829,1518.71,833.33,1520.11Z"/><path class="cls-9" d="M833.66,1515.31c20.78-.71,104.66-1.58,125.33-.71.16,0,.16.13,0,.13-20.58,1.16-104.46,1.34-125.33.91C833.22,1515.64,833.22,1515.33,833.66,1515.31Z"/><path class="cls-9" d="M879.3,1476c8.16-1.6,18.16-.44,24.49,5.32.24.24,0,.58-.35.49a115.1,115.1,0,0,0-24.1-4.78.52.52,0,0,1-.44-.59h0A.52.52,0,0,1,879.3,1476Z"/><path class="cls-9" d="M873.44,1479.58c8.16-1.6,18.16-.44,24.49,5.32.24.24-.09.58-.35.49a115.1,115.1,0,0,0-24.1-4.78.52.52,0,0,1-.44-.59h0A.51.51,0,0,1,873.44,1479.58Z"/><path class="cls-9" d="M867.57,1483.2c8.16-1.6,18.16-.44,24.47,5.32.25.22,0,.56-.33.49a115.1,115.1,0,0,0-24.1-4.78.52.52,0,0,1-.44-.59h0A.51.51,0,0,1,867.57,1483.2Z"/><path class="cls-11" d="M879.63,1474.13h84.25s-14.08-195.37-13.57-198c.84-4.4,5.81-24.32,12.44-50.33,2.07-8.16,4.3-16.87,6.63-25.94,6.28-24.49,13.21-51.24,19.24-74.47,9.08-34.88,16.13-62,16.13-62h-71.4s-8.32,26.37-18.8,60.7c-17.09,55.78-40,132.6-42.18,151.22C869.62,1297.89,879.63,1474.13,879.63,1474.13Z"/><path class="cls-9" d="M883.54,1458.79c12.84-.27,9.08-.38,22-.51,6.28,0,47.59-.42,53.48.56a.13.13,0,1,1,0,.26h0c-5.89,1-47.23.62-53.48.56-12.86-.13-9.17-.24-22-.51a.18.18,0,1,1,0-.36Z"/><path class="cls-9" d="M991.76,1073.05l-13.08,46.12L966,1165.38c-4.25,15.4-8.36,30.88-12.46,46.3s-8.14,30.88-11.92,46.46c-.91,3.89-1.82,7.77-2.6,11.73-.22,1-.35,2-.53,3,0,.54-.11,1.16-.09,1.67l.13,1.51,11.19,170.18v.51l.94-.58-10.32-170.25-.11-1.49v-1.31c.18-1,.31-1.93.51-2.91.78-3.89,1.82-7.77,2.63-11.64,7.5-31,15.84-61.9,24-92.82Z"/><path class="cls-9" d="M935.05,1063.37c5,38.34,22.9,102.06,29.79,154.23,16.11-63.21,40-154.23,40-154.23Z"/><path class="cls-12" d="M1107.15,1517.84c-4.14,1.27-105.86,1.82-110.26-1.22-1.71-1.09-2.31-18.16-2.43-39V1477c0-4.27-9.86-76.11-9.86-76.11l76.83,1.56,8.81,75.45v1.29s28.7,18,33.2,21.8S1111.3,1516.57,1107.15,1517.84Z"/><path class="cls-6" d="M993,1464.2c.87,6.87,1.43,11.77,1.43,12.71v.65c.13,20.74.73,37.89,2.42,39,4.41,2.94,106.13,2.51,110.27,1.22s.78-13.19-3.63-16.91-33.2-21.8-33.2-21.8v-1.29l-1.62-13.7Z"/><path class="cls-4" d="M1112.17,1520.11c-4.32,1.4-113.71.25-118.38-2.78-1.82-1.11.8-41.45.8-41.67h75.65V1477s34.11,21.56,38.89,25.43S1116.49,1518.71,1112.17,1520.11Z"/><path class="cls-9" d="M1111.84,1515.31c-20.78-.71-91.77-1.58-112.36-.71-.16,0-.16.13,0,.13,20.58,1.16,91.58,1.34,112.36.91C1112.28,1515.64,1112.28,1515.33,1111.84,1515.31Z"/><path class="cls-9" d="M1064.09,1478.2c-10.35-2.87-23.25-2.85-31.66,2.85-.33.22,0,.65.42.58a163.1,163.1,0,0,1,31.13-2.27.58.58,0,0,0,.63-.53.57.57,0,0,0-.52-.63Z"/><path class="cls-9" d="M1071.41,1483c-10.37-2.87-23.27-2.85-31.68,2.85-.33.22,0,.65.42.58a163.1,163.1,0,0,1,31.13-2.27.58.58,0,1,0,.13-1.16Z"/><path class="cls-9" d="M1078.71,1487.87c-10.37-2.87-23.25-2.85-31.66,2.85-.33.22,0,.65.4.6a161.77,161.77,0,0,1,31.15-2.29.59.59,0,0,0,.64-.53.58.58,0,0,0-.53-.63Z"/><path class="cls-11" d="M935.05,1063.37s10.9,66,11.57,68.12c0,0,4,1.91,11.3,5.25l29.59,337,84.66.35-44.72-410.76h-92.4Z"/><path class="cls-9" d="M990.41,1458.73c12.93-.2,9.21-.33,22.14-.4,6.34,0,47.94-.22,53.84.78.13,0,.13.25,0,.27-5.92.94-47.5.42-53.84.33-12.93-.18-9.21-.27-22.14-.6C990.16,1459.11,990.18,1458.75,990.41,1458.73Z"/><path class="cls-9" d="M943.1,1129.43a155.49,155.49,0,0,1,24.21,12.71c.29.18,0,.65-.25.49-8.17-4-16.51-7.77-24.45-12.19a.55.55,0,0,1-.26-.75h0A.57.57,0,0,1,943.1,1129.43Z"/><path class="cls-9" d="M946.22,1091.63c1.33,7.9,2.07,15.91,3,23.87.22,1.82.44,3.81.64,5.72a11.25,11.25,0,0,0,1.38,5c1.82,2.65,4.8,3.91,7.57,5.12.33.15.2.65-.16.54a18.54,18.54,0,0,1-8-4.27c-2.52-2.69-2.45-6.74-2.85-10.21a224.34,224.34,0,0,1-1.82-25.77C945.86,1091.47,946.18,1091.42,946.22,1091.63Z"/><path class="cls-9" d="M955.81,1094.05c.29,5.69.93,11.39,1.4,17.06.24,2.8.44,5.61.6,8.41s.51,5.78.42,8.63a.17.17,0,0,1-.22.12h0a.18.18,0,0,1-.12-.12c-.47-2.69-.53-5.45-.76-8.23s-.42-5.76-.58-8.65c-.33-5.74-.49-11.53-1-17.26C955.52,1093.87,955.81,1093.87,955.81,1094.05Z"/><polygon class="cls-9" points="959.64 1145.2 964.17 1183.93 968.89 1222.63 978.64 1299.99 995.94 1451.07 980.44 1299.78 970.27 1222.45 965.04 1183.82 959.64 1145.2"/><path class="cls-12" d="M966.87,969c-15.37,10.54-63.19,42.18-85.83,37.55-14.95-3.07-59.83-24.38-69.79-32.95-4.12-3.63,24.83-40.83,30.3-38.29,10.17,4.69,48.63,28.35,53.17,29.37,5.76,1.31,28.19-6.38,66-13C980.21,948.23,980.13,959.91,966.87,969Z"/><path class="cls-12" d="M826.65,916.73c-7.27-3.23-15.19-7.5-23.43-8s-16,9.77-16.26,12.88,1.25,22.8,9.48,23.47,4.5-14.64,5-16.35.94-3.83,2.49-3.63,27.66,15.42,27.66,15.42Z"/><path class="cls-12" d="M826,917.86c-.47,0-21.8-10.57-30.06-11.1s-16,9.77-16.24,12.9,1.24,22.78,9.48,23.47,4.49-14.66,4.94-16.35.94-3.85,2.49-3.63,27.66,15.44,27.66,15.44Z"/><path class="cls-9" d="M792.08,942.31a9.83,9.83,0,0,0,1.82-4.74,16.77,16.77,0,0,0,.13-5.29,28.69,28.69,0,0,1-.62-4.61,9.22,9.22,0,0,1,1.51-4.27c.73-1.09,1.91-.6,2.92-.15a39.29,39.29,0,0,1,4.3,2.4c1.51.91,3,1.82,4.49,2.78a41.68,41.68,0,0,1,4.56,3c.11,0,0,.27-.11.2a43.3,43.3,0,0,1-4-2.22c-1.49-.85-3-1.71-4.52-2.54s-2.8-1.63-4.23-2.4c-.51-.25-1.51-.91-2.13-.82s-1.07,1.6-1.25,2.09a7.8,7.8,0,0,0,0,4.49,22.77,22.77,0,0,1,.49,4.58,12.2,12.2,0,0,1-.71,4.27,17,17,0,0,1-2.25,3.38C792.21,942.63,792,942.45,792.08,942.31Z"/><path class="cls-12" d="M850.35,941.62s-21.09-22.69-25.43-27.25c-8.85-9.08-47.63-28.79-53.18-29.84s-8.5,10.26,17.75,24.41c13.84,7.47,15.73,15.91,15.08,20.43s-5.7,12.71-13.35,11.84-11.7-12.44-18.64-14.28-3.36,11.48,1,19.34a47,47,0,0,0,19.29,17.8c6.43,3,26.21,13.57,26.21,13.57Z"/><path class="cls-9" d="M782.07,935.08c2.69,2.47,5.72,5.63,9.52,6.09s6.67-1.82,8.76-4.9a14.54,14.54,0,0,0,2.89-10.44,17.83,17.83,0,0,0-4.54-9.08,43.36,43.36,0,0,0-9.81-7.77c-.16,0,0-.33.18-.24,3.4,1.82,14,7.27,15.39,17.15a15,15,0,0,1-3,10.63c-1.94,2.91-4.67,5.65-8.41,5.65-4.56,0-8.16-4-11.17-7C781.69,935,781.93,934.9,782.07,935.08Z"/><path class="cls-5" d="M853,935.35,827.36,991.1s46.34,22.78,60.54,20.27,58.31-25.43,80.21-42.18c15.08-11.55,9.79-22.85-11.79-19C935.2,954,898.45,963.1,896.47,963.6S853,935.35,853,935.35Z"/><path class="cls-9" d="M852.58,970.15c1.63-4.21,8-21.09,9.32-25.43,0,0-.09-.13-.13,0-2,3.89-8.83,20.36-10.48,24.58a245.64,245.64,0,0,0-9.08,25.43c0,.15.2.27.27.11C846.41,986.88,849.37,978.49,852.58,970.15Z"/><path class="cls-10" d="M968.13,969.21c-21.92,16.78-66,39.67-80.23,42.16a28.32,28.32,0,0,1-10-.76l98.43-56C977.79,958.38,975.21,963.76,968.13,969.21Z"/><path class="cls-5" d="M918.1,1099.59s117.56,3.45,118.16,2.71c1.62-2-22.72-113-49.22-146.18-9.88-12.35-28.08-9.41-34.84,1.18C926.75,997.11,918,1098.68,918.1,1099.59Z"/><path class="cls-10" d="M1036.08,1099.19l-117.78-2.27c0-.84.16-1.82.27-3l117,2.27C1035.73,1097.32,1036,1098.37,1036.08,1099.19Zm-1.93-10.41-114.82-2.22c-.11,1-.22,2.07-.33,3l115.76,2.25c-.17-.94-.39-2-.61-3Zm-1.58-7.37-112.38-2.18q-.2,1.5-.36,3l113.42,2.2c-.25-1-.46-2-.68-3Zm-1.71-7.38-109.75-2.13c-.13,1-.25,2-.38,3l110.8,2.14c-.2-.94-.42-2-.67-3Zm-1.81-7.37-106.93-2.07-.44,3,108.13,2.09Zm-1.82-7.38-104-2c-.16,1-.33,2-.47,3l105.22,2c-.29-1-.54-2-.82-3Zm-1.94-7.37-100.87-2c-.18,1-.35,2-.49,3l102.17,2c-.3-1-.59-2-.85-3Zm-2-7.38-97.6-1.82c-.18,1-.35,2-.53,3l98.94,1.78-.85-3Zm-2-7.39-94.14-1.82c-.2,1-.38,2-.56,3l95.58,1.82a18.42,18.42,0,0,1-1-3Zm-2.2-7.37-90.6-1.77c-.2,1-.42,2-.6,3l92,1.82Zm-2.3-7.4L930,1020.7l-.65,3,88.3,1.71Zm-2.38-7.39-82.61-1.6c-.24,1-.49,2-.73,3l84.34,1.63a31.19,31.19,0,0,1-1.09-3.09Zm-2.55-7.37-78.27-1.53-.76,3,80.1,1.56c-.44-1-.73-2-1.16-3.12Zm-2.72-7.32-73.67-1.43c-.29,1-.56,2-.84,3l75.62,1.47Zm-2.85-7.41-68.66-1.33c-.33,1-.62,2-.91,3l70.84,1.38c-.47-1.11-.8-2.13-1.27-3.12h0Zm-3-7.4L940,984.26c-.35,1-.69,2-1,3l65.55,1.25c-.44-1.07-.85-2.11-1.29-3.11Zm-3.28-7.41L942.57,977c-.38,1-.76,2-1.13,3l59.81,1.16c-.45-1.09-.93-2.13-1.38-3.12Zm-3.64-7.41-50.55-1c-.45,1-.89,2-1.33,3l53.44,1c-.56-1.11-1.09-2.13-1.62-3.12ZM992,963.25l-42.72-.84c-.54,1-1,2-1.58,3l46.14.91c-.65-1.13-1.25-2.14-1.89-3.12Zm-4.92-7.08c-.11-.13-.2-.25-.31-.36l-32.88-.64a16.64,16.64,0,0,0-1.65,2.18c-.16.27-.35.54-.49.82l37.36.71c-.73-1-1.4-1.91-2.09-2.76Zm-14.53-8H968.9a23.14,23.14,0,0,0-9.74,2.83l22.63.44a21,21,0,0,0-9.3-3.32Z"/><path class="cls-12" d="M977.28,972.55c7.27,17.17,30.39,69.62,51.93,77.94,14.24,5.45,62.32,13.06,75.33,11.23,5.45-.76,2.38-49-3.63-49.82-11.1-1.53-54.67-1.07-60.61-4-5.29-2.62-20.27-20.6-48.52-46.66C977.3,947.85,971.05,957.71,977.28,972.55Z"/><path class="cls-12" d="M1098.6,1061.66c5.12.91,29.06,3,35.78,2.13s26.1-4.9,25.94-10.15-5.92-4.54-5.92-4.54,7.9-3,7.27-8.26-9.55-3.87-9.55-3.87,7.88-3.63,6.87-8.88-9.74-2.29-9.74-2.29,7.27-3,4.7-7c-3.2-4.74-16.13,2.33-23.61,2.76-1.73.09-34.93-.49-34.93-.49Z"/><path class="cls-9" d="M1150,1025.55c-9.52,5.18-14.53,5.79-25.25,5.09a.18.18,0,0,0-.21.12.18.18,0,0,0,.13.21h.08c10.37,1.63,16.84,1.82,25.58-5C1150.68,1025.72,1150.42,1025.3,1150,1025.55Z"/><path class="cls-9" d="M1152.85,1036.62c-10.37,4.5-15.86,5.23-27.08,5.3-.15,0-.16.27,0,.29,11,.84,17.46.82,27.25-5C1153.44,1036.83,1153.33,1036.32,1152.85,1036.62Z"/><path class="cls-9" d="M1153.8,1049.08c-10.35,3.63-16.35,4.69-27.25,3.38a.2.2,0,0,0,0,.4h0c10.9,2.42,18.45,1.16,27.37-3.45C1154.53,1049.09,1154.49,1048.84,1153.8,1049.08Z"/><path class="cls-12" d="M1093,1012.26s12.24-5.9,18.16-7.27,30,1.49,29.72,6.74c-.42,6.76-14.68,7.83-21.71,7.43,0,0-1,15.66-11,18.64S1093,1012.26,1093,1012.26Z"/><path class="cls-9" d="M1140.21,1013.49c-4.83,5.89-14.06,4.78-20.91,4.9a.64.64,0,0,0-.65.62.74.74,0,0,0,0,.21c-.85,6.54-3.94,15.51-10.12,18.71a.17.17,0,0,0-.12.21.16.16,0,0,0,.2.12l.05,0h0c7.08-2.54,10.9-11.12,11.32-18.33,7,0,16.35.67,20.25-6.39C1140.3,1013.49,1140.25,1013.46,1140.21,1013.49Z"/><path class="cls-5" d="M1091.13,1004.79l-8.63,60.72s-51.3-5.9-61.9-15.69S985.29,996.93,976,971c-6.43-17.87,4.14-24.52,20.2-9.61,15.71,14.53,41.78,42.18,43.09,43.59S1091.13,1004.79,1091.13,1004.79Z"/><path class="cls-9" d="M1072.61,1034.25c.91-4.43,4.63-22.11,5.9-26.41h.13c-.4,4.36-3.63,21.89-4.47,26.32a245.39,245.39,0,0,1-6.16,26.37c0,.15-.31.13-.29,0C1068.76,1051.65,1070.83,1043,1072.61,1034.25Z"/><path class="cls-9" d="M1048,1060a106.44,106.44,0,0,1-12.82-3,53.86,53.86,0,0,1-12.19-5.1,21.42,21.42,0,0,1-5.09-4.3c-1.53-1.6-2.92-3.31-4.29-5a129.36,129.36,0,0,1-7.65-10.81c-4.83-7.39-9.08-15.09-13.17-22.9S985,993,981.62,984.82c4.18,7.76,8.28,15.51,12.52,23.2,2.13,3.85,4.23,7.68,6.47,11.46s4.38,7.61,6.7,11.32,4.7,7.37,7.27,10.9c1.25,1.82,2.58,3.52,4,5.21a16.86,16.86,0,0,0,4.78,4.36,54.23,54.23,0,0,0,12,5.29A112.35,112.35,0,0,0,1048,1060Z"/><path class="cls-9" d="M981.4,989.59c1.05,1,1.94,2,2.85,3l1.34,1.54c.45.53.91,1,1.34,1.6a9.57,9.57,0,0,1-3.36-2.52A11.91,11.91,0,0,1,981.4,989.59Z"/><path class="cls-12" d="M959.28,967.86c6.28,2.18,18.35-6.54,23.52-14.06.35-.53.09-6.38.13-13.5,0-4.32.18-9.08.62-13.51.09-.89-28.15,3.89-28.15,3.89a69.44,69.44,0,0,1,.94,17.09,11.27,11.27,0,0,1-.36,1.82v.29C955,953.21,953.21,965.78,959.28,967.86Z"/><path class="cls-9" d="M981.86,926.74c-2,7.27-8.46,24.7-23.16,23.61a15.69,15.69,0,0,1-2.8-.44v-.29a12.52,12.52,0,0,0,.38-1.82,69.9,69.9,0,0,0-1-17.09S975.79,927.23,981.86,926.74Z"/><path class="cls-12" d="M986.69,891.61c3.34,9.68-.8,38.14-7.54,44.68-9.75,9.5-26.23,10.9-34.51-.87-8-11.48-1.91-48.46,5.67-54.49C961.51,872.1,981.73,877.32,986.69,891.61Z"/><path class="cls-9" d="M964.13,909.16s.15.11.13.18c-.33,1.82-.4,4.16,1.25,5v.11C963.4,913.88,963.51,910.9,964.13,909.16Z"/><path class="cls-9" d="M966.13,907.4c3.11.2,2.49,6.41-.4,6.23S963.51,907.21,966.13,907.4Z"/><path class="cls-9" d="M953.07,908s-.16,0-.16.15c-.15,1.93-.62,4.12-2.43,4.6v.11C952.63,912.79,953.25,909.88,953.07,908Z"/><path class="cls-9" d="M951.54,905.83c-3.07-.54-3.94,5.65-1.09,6.16S954.12,906.29,951.54,905.83Z"/><path class="cls-9" d="M968.87,904.8c-.79-.32-1.57-.69-2.33-1.09a4.22,4.22,0,0,1-2.16-1.58,1.32,1.32,0,0,1,.38-1.56,3.27,3.27,0,0,1,3.31,0,4.84,4.84,0,0,1,2.56,2.34,1.42,1.42,0,0,1-.76,1.85A1.38,1.38,0,0,1,968.87,904.8Z"/><path class="cls-9" d="M949.45,902.45a24.31,24.31,0,0,0,2.54-.38,4.24,4.24,0,0,0,2.51-.89,1.35,1.35,0,0,0,.09-1.62,3.29,3.29,0,0,0-3.2-.94,4.84,4.84,0,0,0-3.11,1.54,1.4,1.4,0,0,0,1.17,2.29Z"/><path class="cls-9" d="M963.33,927.19a3,3,0,0,1-1.82,1,5.11,5.11,0,0,1-2-.71h-.09a2.62,2.62,0,0,0,2.34,1.31,2.08,2.08,0,0,0,1.69-1.56C963.55,927.19,963.4,927.14,963.33,927.19Z"/><path class="cls-9" d="M961.9,921.24a6.64,6.64,0,0,1-4.69,2.47,8.5,8.5,0,0,1-2.36-.13,1.74,1.74,0,0,1-.45-.11l-.42-.11a.49.49,0,0,1-.35-.45h0a.67.67,0,0,1,0-.2h0v-.16c.11-1.49.47-3.72.47-3.72-.56.22-3.45,1.18-3.32.4a98.36,98.36,0,0,1,4.54-19.6.17.17,0,0,1,.22-.12h0a.18.18,0,0,1,.12.12c-.74,6.16-2.58,12.17-3.41,18.35a11.14,11.14,0,0,1,3.18-.62c.2,0-.8,4.3-.78,5h0a9.09,9.09,0,0,0,7-1.42C961.88,921,962,921.09,961.9,921.24Z"/><path class="cls-9" d="M955.81,923a7.85,7.85,0,0,0,3,2.6,3.39,3.39,0,0,0,2.13.25c1.56-.31,1.69-1.82,1.47-3a9.88,9.88,0,0,0-.58-1.82A10.2,10.2,0,0,1,955.81,923Z"/><path class="cls-13" d="M958.77,925.61a3.39,3.39,0,0,0,2.13.25c1.56-.31,1.69-1.82,1.47-3A3.65,3.65,0,0,0,958.77,925.61Z"/><path class="cls-9" d="M979.42,907.23c-1.91-5.65,1.33-15.08-1.49-17.6-6.08-5.45-18.56,5-27.14,5.07s-11.06-5.3-9.57-12,7.27-11.26,16.55-12.71a35.17,35.17,0,0,1,23.2,5.45s-2.11-3.36-1.33-4.41,4.85,2.2,6.1,3.63a12.52,12.52,0,0,1,2,4,13.13,13.13,0,0,1,3.8-.38,7.85,7.85,0,0,1,4.92,2.2c.15.49-2.87.87-5,1,0,0,4,5.25,3.87,9.74s-7.08,25.79-8.76,26C984.42,917.55,980.19,909.47,979.42,907.23Z"/><path class="cls-9" d="M990.65,881s-.18,0-.11.13a14,14,0,0,1,4.49,6.36,17.49,17.49,0,0,1,.09,9.25c-1.31,5.89-4.2,11.23-6.7,16.67,0,.15.2.29.27.13a62.73,62.73,0,0,0,7.27-18C996.92,890.14,995.66,884,990.65,881Z"/><path class="cls-9" d="M978.24,887.45a20.26,20.26,0,0,0-7.52.49,27.86,27.86,0,0,0-6.47,3.2,28.87,28.87,0,0,1-15.33,4.2m0,.1a25,25,0,0,0,14.26-3.05,63,63,0,0,1,6.7-3.54,26.11,26.11,0,0,1,8.34-1,.22.22,0,0,0,0-.44h0Z"/><path class="cls-9" d="M975.79,873.14a40,40,0,0,0-10.64-3.52,31.2,31.2,0,0,0-10.73-.36c-6.16,1-11.81,4.9-13.24,11.23a13.38,13.38,0,0,0,1.24,9.57.17.17,0,0,0,.31-.15h0a13.87,13.87,0,0,1,3.16-16.35c5.05-4.38,12.13-4.7,18.42-3.63a56.41,56.41,0,0,1,11.48,3.21Z"/><path class="cls-5" d="M962.86,919.55a8.07,8.07,0,0,1-5.36-10h0a8,8,0,1,1,7.26,10.35A7.17,7.17,0,0,1,962.86,919.55Zm-4.34-9.72a6.9,6.9,0,1,0,8.56-4.69,6.9,6.9,0,0,0-8.56,4.69Z"/><path class="cls-5" d="M946.11,916.73c-3.27-.54-5.34-4.52-4.63-8.92a9.52,9.52,0,0,1,2.6-5.27,5,5,0,0,1,7-.6,4.92,4.92,0,0,1,1.43,2,9.6,9.6,0,0,1,.76,5.83c-.67,4.14-3.63,7.16-6.67,7Zm-1.29-13.42a8.6,8.6,0,0,0-2.27,4.69c-.62,3.8,1.05,7.27,3.72,7.67s5.36-2.29,6-6.08a8.48,8.48,0,0,0-.67-5.18,4.28,4.28,0,0,0-3.05-2.49h-.42a4.51,4.51,0,0,0-3.2,1.43Z"/><path class="cls-5" d="M957.63,910.48l.82-.71c-1-1.22-3.63-3-5.89-1.27l.67.85C955.25,907.78,957.52,910.37,957.63,910.48Z"/><path class="cls-5" d="M992.67,918.28l1-.33c-.15-.47-1.58-4.69-3.89-5.45s-16.62-1.71-17.22-1.82v1.07c4.14.27,15.28,1.13,17,1.69S992.28,917.13,992.67,918.28Z"/><path class="cls-12" d="M981.46,914.92s6.25-9.25,10.44-7-.42,15.55-5.25,17.44a5,5,0,0,1-6.6-2.37,1.08,1.08,0,0,1-.08-.19Z"/><path class="cls-9" d="M990.49,911.63s.09,0,0,.13c-3.4,1.43-5.14,4.63-6.36,7.94a2.71,2.71,0,0,1,3.68-1.08,3.51,3.51,0,0,1,.4.27c.09,0,0,.2-.09.18a3,3,0,0,0-3.34,1.13,14.56,14.56,0,0,0-1.56,2.74c-.15.31-.71.15-.6-.2h0C982.53,918.28,985.82,912.14,990.49,911.63Z"/></g><g id="freepik--window-3--inject-353"><g class="cls-14"><rect class="cls-6" x="1093.8" y="978.36" width="439.83" height="278.26"/><path class="cls-4" d="M1534.08,1257.05H1093.35V977.91h440.73Zm-439.82-.9h438.92V978.82H1094.26Z"/><rect class="cls-5" x="1093.8" y="989.08" width="432.02" height="70.2"/><rect class="cls-8" x="1525.82" y="989.06" width="7.79" height="267.54"/><path class="cls-4" d="M1529.8,1081.83h0a2,2,0,0,1-2-2V992.62a2,2,0,0,1,2-2h0a2,2,0,0,1,2,2v87.19a2,2,0,0,1-2,2Z"/><rect class="cls-6" x="1398.27" y="1002.12" width="105.02" height="14.02"/><path class="cls-7" d="M1503.44,1016.29H1398.09V1002h105.35Zm-105-.29h104.75v-13.73H1398.42Z"/><rect class="cls-11" x="1489.15" y="1001.98" width="14.31" height="14.31"/><path class="cls-6" d="M1500.73,1013l-1.29,1-2.34-3.11-.87-1.16a1.86,1.86,0,0,0,.49-.29,2,2,0,0,0,.67-.85l.93,1.22Z"/><path class="cls-6" d="M1498.19,1005.61a3.52,3.52,0,1,0-1.14,5.26l.49-.33a3.29,3.29,0,0,0,.73-.76A3.51,3.51,0,0,0,1498.19,1005.61Zm-1.52,3.81a1.86,1.86,0,0,1-.49.29,2.1,2.1,0,1,1,.9-3.24,2.16,2.16,0,0,1,.27,2.11,2,2,0,0,1-.67.8h0Z"/><rect class="cls-7" x="1401.21" y="1004.88" width="0.74" height="8.5"/><rect class="cls-6" x="1151.09" y="1002.12" width="241.91" height="14.02"/><path class="cls-7" d="M1393.15,1016.29H1151V1002h242.18v14.31Zm-241.91-.29h241.58v-13.73H1151.24Z"/><rect class="cls-7" x="1154.04" y="1004.88" width="0.74" height="8.5"/><polygon class="cls-6" points="1124.65 1013.93 1119.54 1009.22 1124.63 1004.34 1125.43 1005.17 1121.21 1009.21 1125.41 1013.09 1124.65 1013.93"/><polygon class="cls-6" points="1136.96 1004.34 1142.07 1009.02 1136.98 1013.91 1136.18 1013.09 1140.39 1009.04 1136.2 1005.17 1136.96 1004.34"/><rect class="cls-5" x="1258.32" y="1074.74" width="111.38" height="85.46"/><path class="cls-15" d="M1269.4,1093.43a10.1,10.1,0,1,0,7.93-7.94A10.11,10.11,0,0,0,1269.4,1093.43Z"/><polygon class="cls-5" points="1295.04 1141.8 1369.7 1141.8 1332.37 1095.79 1295.04 1141.8"/><polygon class="cls-16" points="1295.04 1141.8 1369.7 1141.8 1332.37 1095.79 1295.04 1141.8"/><polygon class="cls-5" points="1258.3 1141.84 1324.49 1141.84 1291.39 1111.89 1258.3 1141.84"/><polygon class="cls-10" points="1258.3 1141.84 1324.49 1141.84 1291.39 1111.89 1258.3 1141.84"/><rect class="cls-5" x="1258.3" y="1141.79" width="111.38" height="18.42"/><rect class="cls-10" x="1258.3" y="1141.79" width="111.38" height="18.42"/><rect class="cls-4" x="1117.63" y="1172.03" width="58.91" height="4.96"/><rect class="cls-3" x="1117.63" y="1183.53" width="250.34" height="4.96"/><rect class="cls-3" x="1117.63" y="1194.44" width="250.34" height="4.96"/><rect class="cls-3" x="1117.63" y="1205.34" width="250.34" height="4.96"/><rect class="cls-3" x="1117.63" y="1216.24" width="250.34" height="4.96"/><rect class="cls-3" x="1117.63" y="1227.14" width="250.34" height="4.96"/><rect class="cls-4" x="1384.99" y="1075.49" width="58.91" height="4.96"/><rect class="cls-3" x="1384.99" y="1086.98" width="125.17" height="4.96"/><rect class="cls-3" x="1384.99" y="1097.88" width="125.17" height="4.96"/><rect class="cls-3" x="1384.99" y="1108.8" width="125.17" height="4.96"/><rect class="cls-3" x="1384.99" y="1119.7" width="125.17" height="4.96"/><rect class="cls-3" x="1384.99" y="1139.91" width="125.17" height="4.96"/><rect class="cls-3" x="1384.99" y="1150.81" width="125.17" height="4.96"/><rect class="cls-3" x="1384.99" y="1161.73" width="125.17" height="4.96"/><rect class="cls-3" x="1384.99" y="1172.63" width="125.17" height="4.96"/><rect class="cls-3" x="1384.99" y="1183.53" width="125.17" height="4.96"/><rect class="cls-3" x="1384.99" y="1205.34" width="125.17" height="4.96"/><rect class="cls-3" x="1384.99" y="1216.24" width="84.37" height="4.96"/><rect class="cls-9" x="1471.87" y="1213.12" width="0.54" height="11.21"/><rect class="cls-4" x="1117.63" y="1074.74" width="58.91" height="13.26"/><rect class="cls-3" x="1117.63" y="1097.14" width="124.99" height="4.96"/><rect class="cls-3" x="1117.63" y="1108.05" width="124.99" height="4.96"/><rect class="cls-3" x="1117.63" y="1118.95" width="124.99" height="4.96"/><rect class="cls-3" x="1117.63" y="1129.85" width="124.99" height="4.96"/><rect class="cls-3" x="1117.63" y="1144.36" width="124.99" height="4.96"/><rect class="cls-3" x="1117.63" y="1155.26" width="124.99" height="4.96"/><rect class="cls-9" x="1093.8" y="978.36" width="439.83" height="10.72"/><path class="cls-7" d="M1104.61,983.72a2.33,2.33,0,1,1-2.35-2.31h0a2.3,2.3,0,0,1,2.32,2.28h0Z"/><path class="cls-6" d="M1114,983.72a2.33,2.33,0,1,1-2.35-2.31h0a2.3,2.3,0,0,1,2.32,2.28h0Z"/><path class="cls-5" d="M1123.47,983.72a2.33,2.33,0,1,1-2.35-2.31h0a2.32,2.32,0,0,1,2.34,2.3Z"/></g></g><g id="freepik--window-2--inject-353"><g class="cls-17"><rect class="cls-6" x="792.84" y="1152.18" width="439.83" height="278.47"/><path class="cls-4" d="M1233.12,1431.1H792.33V1151.72h440.79Zm-439.82-.91h438.92V1152.62H793.3Z"/><rect class="cls-9" x="792.84" y="1152.18" width="439.83" height="10.72"/><circle class="cls-7" cx="801.34" cy="1157.53" r="2.31"/><circle class="cls-6" cx="810.77" cy="1157.53" r="2.31"/><path class="cls-5" d="M822.5,1157.53a2.31,2.31,0,1,1-2.31-2.31h0A2.33,2.33,0,0,1,822.5,1157.53Z"/><rect class="cls-11" x="792.84" y="1162.89" width="439.83" height="42.03"/><rect class="cls-6" x="843.23" y="1178.35" width="362.37" height="10.24"/><path class="cls-7" d="M1205.71,1188.68H843.19v-10.39h362.52Zm-362.37-.19h362.17v-10H843.34Z"/><path class="cls-3" d="M851.17,1185.67l-.74.54-1.11-1.47-.24-.31-.24-.31h0a1.64,1.64,0,0,0,.29-.16h0a2.23,2.23,0,0,0,.35-.4h0l.25.33.24.31Z"/><path class="cls-3" d="M850,1184.14l-.24-.31a1.07,1.07,0,0,0,.2-.36l-.27-.38h0a1.52,1.52,0,0,1-.16.42,1.48,1.48,0,0,1-.35.4h0l.24.29.24.31.89,1.16h-.11l-.87-1.14-.24-.31-.24-.31h0a1.18,1.18,0,0,1-.29.16h-.09a.71.71,0,0,1-.29,0h0l.25.33a.82.82,0,0,0,.36-.15l.24.31,1.11,1.47.74-.54Z"/><path class="cls-3" d="M849.73,1181.47a2,2,0,1,0-1,3.11.82.82,0,0,0,.36-.15l.27-.16h0l.09-.09a1.24,1.24,0,0,0,.27-.29,1.07,1.07,0,0,0,.2-.36A2,2,0,0,0,849.73,1181.47Zm-.12,1.82v.18a1.48,1.48,0,0,1-.35.4h0a1.18,1.18,0,0,1-.29.16h-.09a.71.71,0,0,1-.29,0h-.29a1.62,1.62,0,0,1-1.47-.29,1.58,1.58,0,1,1,2.51-1.93h0a1.57,1.57,0,0,1,.27,1.34v.15Z"/><path class="cls-3" d="M850,1183.47a1.9,1.9,0,1,0-1.18,1.11.82.82,0,0,0,.36-.15l.24.31a.8.8,0,0,0,.27-.18h0l.09-.09a1.06,1.06,0,0,0,.27-.29l-.24-.31A1,1,0,0,0,850,1183.47Zm-.51.15-.2.22h0a1,1,0,0,1-.22.13h0a1.07,1.07,0,0,1-.38.13,1.56,1.56,0,0,1-1.83-.35,1.6,1.6,0,0,1-.31-1.2,1.54,1.54,0,0,1,.6-1,1.71,1.71,0,0,1,1-.33,1.59,1.59,0,0,1,1.27.64,1.55,1.55,0,0,1,.27,1.36,1.57,1.57,0,0,1-.18.42Z"/><polygon class="cls-6" points="806.47 1186.98 802.72 1183.53 806.45 1179.97 807.03 1180.57 803.94 1183.53 807.03 1186.36 806.47 1186.98"/><polygon class="cls-6" points="815.46 1179.97 819.2 1183.4 815.47 1186.96 814.89 1186.36 817.98 1183.4 814.89 1180.57 815.46 1179.97"/><path class="cls-8" d="M1220.44,1187.67a5.23,5.23,0,0,1-1.42.6,4.92,4.92,0,0,1-3.78-.6,5.09,5.09,0,0,1-2.2-3,4.94,4.94,0,1,1,7.4,3Z"/><path class="cls-6" d="M1219.35,1182.91a1.51,1.51,0,1,1-1.51-1.51h0a1.52,1.52,0,0,1,1.51,1.51Z"/><path class="cls-6" d="M1220.44,1187.05v.62a5.23,5.23,0,0,1-1.42.6,4.92,4.92,0,0,1-3.78-.6v-.62a2.6,2.6,0,0,1,5.2,0Z"/><path class="cls-6" d="M830.33,1187.92a4.87,4.87,0,1,1,4.81-5.45l-.89.11a4,4,0,1,0-1,3.17l.65.6A4.76,4.76,0,0,1,830.33,1187.92Z"/><polygon class="cls-6" points="832.1 1181.29 832.4 1180.84 834.57 1182.31 835.87 1180.04 836.33 1180.31 834.75 1183.07 832.1 1181.29"/><rect class="cls-6" x="933.12" y="1295.11" width="167.2" height="22.81"/><path class="cls-7" d="M1101.23,1318.83h-169V1294.2h169ZM934,1317h165.38v-21H934Z"/><rect class="cls-5" x="1077.51" y="1295.11" width="22.81" height="22.81"/><path class="cls-6" d="M1096.15,1312.91l-2.11,1.6-3.81-5.16-1.42-1.82a3.63,3.63,0,0,0,.82-.45,3.51,3.51,0,0,0,1.07-1.4l1.53,2Z"/><path class="cls-6" d="M1092,1300.78a5.76,5.76,0,1,0-1.82,8.58,4.51,4.51,0,0,0,.8-.51,5.88,5.88,0,0,0,1.2-1.24A5.76,5.76,0,0,0,1092,1300.78Zm-2.47,6.23a3.3,3.3,0,1,1,1.11-3.8A3.31,3.31,0,0,1,1089.53,1307Z"/><rect class="cls-9" x="937.9" y="1299.59" width="1.22" height="13.84"/><rect class="cls-7" x="933.12" y="1326.82" width="38.62" height="12.24"/><rect class="cls-5" x="997.41" y="1326.82" width="38.62" height="12.24"/><rect class="cls-7" x="1062.18" y="1326.82" width="38.62" height="12.24"/><rect class="cls-18" x="963.4" y="1270.41" width="106.66" height="7.41"/></g></g><g id="freepik--window-1--inject-353"><g class="cls-14"><rect class="cls-6" x="432.48" y="800.86" width="439.83" height="278.49"/><path class="cls-4" d="M872.76,1079.79H432V800.48H872.76Zm-439.82-.91H871.86V801.32H432.94Z"/><rect class="cls-5" x="432.48" y="811.58" width="432.02" height="84.01"/><rect class="cls-9" x="432.48" y="800.86" width="439.83" height="10.72"/><path class="cls-7" d="M443.29,806.22a2.31,2.31,0,1,1-2.31-2.31h0A2.3,2.3,0,0,1,443.29,806.22Z"/><path class="cls-6" d="M452.66,806.22a2.31,2.31,0,1,1-2.31-2.31h0A2.3,2.3,0,0,1,452.66,806.22Z"/><path class="cls-5" d="M462.15,806.22a2.31,2.31,0,1,1-2.31-2.31h.09A2.31,2.31,0,0,1,462.15,806.22Z"/><rect class="cls-8" x="864.5" y="811.58" width="7.81" height="267.78"/><path class="cls-4" d="M868.41,904.4h0a2,2,0,0,1-2-2V815.19a2,2,0,0,1,2-2h0a2,2,0,0,1,2,2v87.19a2,2,0,0,1-2,2Z"/><rect class="cls-5" x="760.71" y="914.17" width="83.37" height="63.97"/><path class="cls-15" d="M769,928.18a7.53,7.53,0,1,0,5.9-6A7.56,7.56,0,0,0,769,928.18Z"/><polygon class="cls-5" points="788.21 964.36 844.08 964.36 816.15 929.94 788.21 964.36"/><polygon class="cls-16" points="788.21 964.36 844.08 964.36 816.15 929.94 788.21 964.36"/><polygon class="cls-5" points="760.71 964.39 810.26 964.39 785.49 941.98 760.71 964.39"/><polygon class="cls-10" points="760.71 964.39 810.26 964.39 785.49 941.98 760.71 964.39"/><rect class="cls-5" x="760.71" y="964.36" width="83.37" height="13.79"/><rect class="cls-10" x="760.71" y="964.36" width="83.37" height="13.79"/><path class="cls-7" d="M760.71,987.94c5.67-.29,11.32-.42,17-.53s11.33-.11,17-.16,11.33,0,17,.16,11.32.24,17,.53c-5.67.27-11.33.4-17,.51s-11.33.11-17,.16-11.32,0-17-.16S766.38,988.21,760.71,987.94Z"/><path class="cls-7" d="M760.71,995c4.25-.29,8.5-.42,12.71-.53s8.5-.11,12.71-.16,8.52,0,12.71.16,8.5.24,12.71.53c-4.25.27-8.5.42-12.71.53s-8.52,0-12.71.15-8.5,0-12.71-.16S765,995.26,760.71,995Z"/><rect class="cls-5" x="760.71" y="1003.79" width="83.37" height="75.54"/><rect class="cls-16" x="760.71" y="1003.79" width="83.37" height="75.54"/><path class="cls-15" d="M769,1032.22a7.55,7.55,0,1,0,5.91-5.94A7.57,7.57,0,0,0,769,1032.22Z"/><polygon class="cls-5" points="788.21 1068.42 844.08 1068.42 816.15 1033.98 788.21 1068.42"/><polygon class="cls-19" points="788.21 1068.42 844.08 1068.42 816.15 1033.98 788.21 1068.42"/><polygon class="cls-5" points="760.71 1068.44 810.26 1068.44 785.49 1046.02 760.71 1068.44"/><polygon class="cls-20" points="760.71 1068.44 810.26 1068.44 785.49 1046.02 760.71 1068.44"/><rect class="cls-10" x="760.71" y="1068.42" width="83.37" height="10.92"/><rect class="cls-5" x="657.41" y="1038.1" width="83.37" height="41.23"/><path class="cls-15" d="M665.71,1052.09a7.55,7.55,0,1,0,5.91-5.94A7.57,7.57,0,0,0,665.71,1052.09Z"/><polygon class="cls-5" points="733.52 1079.34 692.18 1079.34 694.23 1076.81 712.85 1053.87 733.52 1079.34"/><polygon class="cls-16" points="733.52 1079.34 692.18 1079.34 694.23 1076.81 712.85 1053.87 733.52 1079.34"/><polygon class="cls-5" points="697.04 1079.34 667.35 1079.34 682.19 1065.91 694.23 1076.81 697.04 1079.34"/><polygon class="cls-10" points="697.04 1079.34 667.35 1079.34 682.19 1065.91 694.23 1076.81 697.04 1079.34"/><rect class="cls-11" x="657.43" y="914.39" width="83.37" height="98.29"/><path class="cls-15" d="M665.71,942.82a7.53,7.53,0,1,0,5.9-6A7.56,7.56,0,0,0,665.71,942.82Z"/><polygon class="cls-9" points="684.93 979 740.78 979 712.85 944.58 684.93 979"/><polygon class="cls-18" points="657.41 979.03 706.96 979.03 682.19 956.62 657.41 979.03"/><rect class="cls-18" x="657.41" y="979" width="83.37" height="33.66"/><path class="cls-7" d="M657.41,1022.45c5.67-.27,11.33-.4,17-.51s11.32-.11,17-.16,11.32,0,17,.15,11.32.25,17,.53c-5.67.29-11.32.42-17,.53s-11.33.11-17,.16-11.33,0-17-.16S663.08,1022.74,657.41,1022.45Z"/><path class="cls-7" d="M657.41,1029.49c4.25-.27,8.52-.4,12.71-.51s8.5-.11,12.71-.16,8.52,0,12.71.16,8.5.24,12.71.51c-4.27.29-8.52.42-12.71.53s-8.5.11-12.71.16-8.5,0-12.71-.16S661.66,1029.79,657.41,1029.49Z"/><rect class="cls-5" x="554.46" y="914.17" width="83.37" height="63.97"/><path class="cls-15" d="M562.76,928.18a7.57,7.57,0,1,0,8.9-6,7.56,7.56,0,0,0-8.9,6Z"/><polygon class="cls-5" points="581.98 964.36 637.83 964.36 609.91 929.94 581.98 964.36"/><polygon class="cls-16" points="581.98 964.36 637.83 964.36 609.91 929.94 581.98 964.36"/><polygon class="cls-5" points="554.46 964.39 604.01 964.39 579.23 941.98 554.46 964.39"/><polygon class="cls-10" points="554.46 964.39 604.01 964.39 579.23 941.98 554.46 964.39"/><rect class="cls-5" x="554.47" y="964.36" width="83.37" height="13.79"/><rect class="cls-10" x="554.47" y="964.36" width="83.37" height="13.79"/><path class="cls-7" d="M554.47,987.94c5.65-.29,11.32-.42,17-.53s11.32-.11,17-.16,11.32,0,17,.16,11.33.24,17,.53c-5.65.27-11.32.4-17,.51s-11.32.11-17,.16-11.33,0-17-.16S560.12,988.21,554.47,987.94Z"/><path class="cls-7" d="M554.47,995c4.25-.29,8.5-.42,12.71-.53s8.5-.11,12.71-.16,8.5,0,12.71.16,8.52.24,12.71.53c-4.25.27-8.52.42-12.71.53s-8.5,0-12.71.15-8.52,0-12.71-.16S558.73,995.26,554.47,995Z"/><rect class="cls-5" x="554.46" y="1003.79" width="83.37" height="75.54"/><rect class="cls-16" x="554.46" y="1003.79" width="83.37" height="75.54"/><path class="cls-15" d="M562.76,1032.22a7.58,7.58,0,1,0,8.92-5.94h0a7.22,7.22,0,0,0-3,0A7.56,7.56,0,0,0,562.76,1032.22Z"/><polygon class="cls-5" points="581.98 1068.42 637.83 1068.42 609.91 1033.98 581.98 1068.42"/><polygon class="cls-19" points="581.98 1068.42 637.83 1068.42 609.91 1033.98 581.98 1068.42"/><polygon class="cls-5" points="554.46 1068.44 604.01 1068.44 579.23 1046.02 554.46 1068.44"/><polygon class="cls-20" points="554.46 1068.44 604.01 1068.44 579.23 1046.02 554.46 1068.44"/><rect class="cls-10" x="554.46" y="1068.42" width="83.37" height="10.92"/><rect class="cls-5" x="451.18" y="1038.1" width="83.37" height="41.23"/><path class="cls-15" d="M459.48,1052.09a7.59,7.59,0,1,0,5.91-5.94A7.58,7.58,0,0,0,459.48,1052.09Z"/><polygon class="cls-5" points="527.28 1079.34 485.94 1079.34 487.99 1076.81 506.61 1053.87 527.28 1079.34"/><polygon class="cls-16" points="527.28 1079.34 485.94 1079.34 487.99 1076.81 506.61 1053.87 527.28 1079.34"/><polygon class="cls-5" points="490.79 1079.34 461.09 1079.34 475.93 1065.91 487.99 1076.81 490.79 1079.34"/><polygon class="cls-10" points="490.79 1079.34 461.09 1079.34 475.93 1065.91 487.99 1076.81 490.79 1079.34"/><rect class="cls-11" x="451.18" y="914.39" width="83.37" height="98.29"/><path class="cls-15" d="M459.48,942.82a7.51,7.51,0,1,0,5.89-6A7.56,7.56,0,0,0,459.48,942.82Z"/><polygon class="cls-9" points="478.68 979 534.55 979 506.61 944.58 478.68 979"/><polygon class="cls-18" points="451.18 979.03 500.71 979.03 475.95 956.62 451.18 979.03"/><rect class="cls-18" x="451.18" y="979" width="83.37" height="33.66"/><path class="cls-7" d="M451.18,1022.45c5.67-.27,11.32-.4,17-.51s11.33-.11,17-.16,11.33,0,17,.15,11.33.25,17,.53c-5.67.29-11.33.42-17,.53s-11.32.11-17,.16-11.32,0-17-.16S456.84,1022.74,451.18,1022.45Z"/><path class="cls-7" d="M451.18,1029.49c4.25-.27,8.5-.4,12.71-.51s8.52-.11,12.71-.16,8.5,0,12.71.16,8.5.24,12.71.51c-4.25.29-8.5.42-12.71.53s-8.52.11-12.71.16-8.5,0-12.71-.16S455.43,1029.79,451.18,1029.49Z"/><path class="cls-6" d="M816.36,880.82v5.32h0a1.35,1.35,0,0,1-.94,1.05h-1.61a.14.14,0,0,0,0-.09v-2.78H815v-1.2h-1.24v-.58a.29.29,0,0,1,.22-.34.28.28,0,0,1,.18,0h.94V881h-.94a1.15,1.15,0,0,0-.74.24,1.52,1.52,0,0,0-.65,1.11,4,4,0,0,0,0,.69h-.91v1.22h.85v2.87h-2.63a1.28,1.28,0,0,1-.47-.18,1.41,1.41,0,0,1-.56-.73v-5.54h0a1.45,1.45,0,0,1,.18-.49,1.24,1.24,0,0,1,.71-.56h5.45a1.34,1.34,0,0,1,1,1Z"/><path class="cls-6" d="M829.1,879.7h-5.18a1.15,1.15,0,0,0-1.13,1.16h0v5.27a1.14,1.14,0,0,0,1.12,1.16h5.19a1.15,1.15,0,0,0,1.13-1.16h0v-5.27A1.15,1.15,0,0,0,829.1,879.7Zm.34,1.92h0a2.24,2.24,0,0,1-.49.53v.11a3.51,3.51,0,0,1-.42,1.82,3.28,3.28,0,0,1-2.16,1.82,3.77,3.77,0,0,1-2,0h-.09l-.35-.16-.24-.15a2.6,2.6,0,0,0,1.82-.53h-.25a1.16,1.16,0,0,1-.85-.73h0a1.09,1.09,0,0,0,.44,0h-.16a1.25,1.25,0,0,1-.78-1.05c0-.11,0-.11.09,0a1,1,0,0,0,.45.11,1.33,1.33,0,0,1-.29-.29,1.22,1.22,0,0,1-.11-1.31h0a3.42,3.42,0,0,0,2,1.18h.36a1.21,1.21,0,0,1,1-1.41h0a1.13,1.13,0,0,1,1,.33h.11a3.06,3.06,0,0,0,.58-.2l.11-.09a.86.86,0,0,1-.18.4l-.29.29a3.58,3.58,0,0,0,.64-.18Z"/><path class="cls-6" d="M844.08,883.4v-1.82a3.23,3.23,0,0,0,0-.44,1.62,1.62,0,0,0-1-1.33,2.53,2.53,0,0,0-.91-.11h-3.49a2.62,2.62,0,0,0-.56,0,1.54,1.54,0,0,0-1.27,1,2.47,2.47,0,0,0-.13.89v3.63a3,3,0,0,0,0,.6,1.48,1.48,0,0,0,.85,1.14,1.87,1.87,0,0,0,.93.18h3.63a2.62,2.62,0,0,0,.56,0,1.51,1.51,0,0,0,1.2-1,2.33,2.33,0,0,0,.13-.87v-1.93Zm-1,1.11a1.82,1.82,0,0,1-1.36,1.82h-2.39a1.69,1.69,0,0,1-1.69-1.4,1.09,1.09,0,0,1,0-.36v-2.09a1.72,1.72,0,0,1,1.29-1.71,1.69,1.69,0,0,1,.45,0h2.18a1.7,1.7,0,0,1,1.53,1.36,2.67,2.67,0,0,1,0,.4Z"/><path class="cls-6" d="M841.27,883.49a.89.89,0,1,1-1.78-.08.89.89,0,0,1,1.78,0Z"/><path class="cls-6" d="M841.38,881.15h-2.07a1.26,1.26,0,0,0-1.24,1.27h0v2.13a1.23,1.23,0,0,0,1.21,1.25h2.1a1.24,1.24,0,0,0,1.22-1.25h0v-2.13A1.26,1.26,0,0,0,841.38,881.15Zm-1,3.63a1.4,1.4,0,1,1,1.36-1.44h0a1.4,1.4,0,0,1-1.3,1.49h0Zm1.49-2.58a.35.35,0,0,1-.34-.35.34.34,0,0,1,.34-.34h0a.35.35,0,0,1,.33.36h0a.35.35,0,0,1-.29.35Z"/><path class="cls-9" d="M566.72,882.6h.82l.53,1.54.53-1.54h.84l-.8,2.11.6,1.49,1.31-3.63h1l-1.82,4.63H569l-.8-1.94-.8,1.94h-.76l-1.82-4.63h1L567,886.2l.58-1.49Z"/><path class="cls-9" d="M573.06,887.29a1.56,1.56,0,0,1-.74-.15,1.43,1.43,0,0,1-.56-.38,1.58,1.58,0,0,1-.36-.56,2.19,2.19,0,0,1-.11-.67,1.89,1.89,0,0,1,.11-.67,1.74,1.74,0,0,1,.36-.56,1.69,1.69,0,0,1,.56-.4,1.88,1.88,0,0,1,.74-.15,1.59,1.59,0,0,1,.74.15,1.77,1.77,0,0,1,.92,1,1.79,1.79,0,0,1,0,1.34,1.74,1.74,0,0,1-.36.56,1.36,1.36,0,0,1-.54.38A1.64,1.64,0,0,1,573.06,887.29Zm-.89-1.82a1,1,0,0,0,0,.42,1.06,1.06,0,0,0,.18.33,1,1,0,0,0,.29.2.69.69,0,0,0,.35,0,.73.73,0,0,0,.36,0,.76.76,0,0,0,.27-.2.86.86,0,0,0,.2-.33,1.48,1.48,0,0,0,0-.42,1.48,1.48,0,0,0,0-.42.86.86,0,0,0-.2-.33.82.82,0,0,0-.27-.22,1.09,1.09,0,0,0-.36,0,.69.69,0,0,0-.35,0,.72.72,0,0,0-.29.2,1.06,1.06,0,0,0-.18.33,1,1,0,0,0,0,.49Z"/><path class="cls-9" d="M577.47,884.56a1.45,1.45,0,0,0-.71.16.81.81,0,0,0-.45.44v2.07h-.87v-3.41h.74v.73a1.19,1.19,0,0,1,.22-.33,1.55,1.55,0,0,1,.27-.24.75.75,0,0,1,.29-.16.61.61,0,0,1,.27,0h.18Z"/><path class="cls-9" d="M580.29,887.23l-1-1.49-.47.47v1H578v-4.76h.87v2.89l1.36-1.54h.94l-1.27,1.45,1.36,2Z"/><g class="cls-21"><path d="M618.52,882.6h.38l1.93,4.63h-.47l-.58-1.38h-2.09l-.6,1.45h-.49Zm1.13,2.82-.94-2.29-.94,2.29Z"/><path d="M623.06,887.29a1.26,1.26,0,0,1-.73-.2,1.5,1.5,0,0,1-.53-.53v.67h-.4v-4.76h.44v2.07a2.22,2.22,0,0,1,.54-.56,1.31,1.31,0,0,1,.74-.22,1.33,1.33,0,0,1,.65.16,1.39,1.39,0,0,1,.47.4,1.82,1.82,0,0,1,.31.56,2.06,2.06,0,0,1,.11.65,1.7,1.7,0,0,1-.13.67,1.56,1.56,0,0,1-.35.56,1.58,1.58,0,0,1-.51.38A1.11,1.11,0,0,1,623.06,887.29Zm-.09-.38a1,1,0,0,0,.51-.13,1.41,1.41,0,0,0,.4-.29,1.73,1.73,0,0,0,.25-.44,1.46,1.46,0,0,0,0-.51,1.19,1.19,0,0,0,0-.53,1.15,1.15,0,0,0-1.13-.86.73.73,0,0,0-.36,0,1.06,1.06,0,0,0-.33.18.87.87,0,0,0-.27.27,1.38,1.38,0,0,0-.2.33V886a.82.82,0,0,0,.15.33,1.44,1.44,0,0,0,.62.44.92.92,0,0,0,.39.14Z"/><path d="M626.88,887.29a1.54,1.54,0,0,1-.67-.13,2.29,2.29,0,0,1-.54-.38,2.5,2.5,0,0,1-.35-.56,2.21,2.21,0,0,1-.13-.67,2.28,2.28,0,0,1,.13-.69,1.92,1.92,0,0,1,.36-.56,2.45,2.45,0,0,1,.53-.38,1.65,1.65,0,0,1,1.34,0,2.29,2.29,0,0,1,.54.38,2.5,2.5,0,0,1,.35.56,1.84,1.84,0,0,1-.35,1.92,2,2,0,0,1-.54.38A1.54,1.54,0,0,1,626.88,887.29Zm-1.24-1.82a1.6,1.6,0,0,0,.09.53,1.79,1.79,0,0,0,.27.44,1.17,1.17,0,0,0,1.34.29,1.28,1.28,0,0,0,.4-.29A1.76,1.76,0,0,0,628,886a1.65,1.65,0,0,0,.09-.54,1.6,1.6,0,0,0-.09-.53,1.79,1.79,0,0,0-.27-.44,1.17,1.17,0,0,0-1.34-.29,1.28,1.28,0,0,0-.4.29,1.79,1.79,0,0,0-.27.44,1.64,1.64,0,0,0-.09.62Z"/><path d="M630.36,887.29a.92.92,0,0,1-.82-.36,1.8,1.8,0,0,1-.27-1.11v-2h.44v1.82c0,.78.27,1.16.8,1.16a.81.81,0,0,0,.38,0,1.16,1.16,0,0,0,.35-.18,2,2,0,0,0,.29-.29,1.16,1.16,0,0,0,.2-.4V883.8h.45v2.82c0,.13,0,.18.15.18v.4h-.18a.27.27,0,0,1-.25-.11.39.39,0,0,1-.11-.27v-.4a1.62,1.62,0,0,1-.6.62A1.87,1.87,0,0,1,630.36,887.29Z"/><path d="M634.81,887.07a.21.21,0,0,0-.11,0h-.94a.61.61,0,0,1-.22-.13.45.45,0,0,1-.16-.2.71.71,0,0,1,0-.29V884h-.47v-.35h.47v-1.16h.44v1.16h.78V884h-.78v2.31a.33.33,0,0,0,.15.27.32.32,0,0,0,.27,0,.91.91,0,0,0,.33,0h.18Z"/></g><g class="cls-21"><path d="M673.87,883.47a1.14,1.14,0,0,0-.53-.36,1.88,1.88,0,0,0-.74-.15,1.28,1.28,0,0,0-.89.24.73.73,0,0,0-.29.64.62.62,0,0,0,0,.33.56.56,0,0,0,.22.24,1.44,1.44,0,0,0,.4.18l.58.13.67.18a2,2,0,0,1,.51.25,1,1,0,0,1,.42.88,1.09,1.09,0,0,1-.45.94,1.86,1.86,0,0,1-.54.24,3.75,3.75,0,0,1-.67,0,2.77,2.77,0,0,1-1.82-.67l.24-.38a1.16,1.16,0,0,0,.29.25,2.82,2.82,0,0,0,.84.35,2.17,2.17,0,0,0,.51,0,1.77,1.77,0,0,0,.87-.2.72.72,0,0,0,.31-.62.73.73,0,0,0,0-.36.72.72,0,0,0-.27-.25,3.38,3.38,0,0,0-.44-.18l-.6-.15-.64-.18a1.4,1.4,0,0,1-.47-.24.79.79,0,0,1-.27-.33.94.94,0,0,1,0-.47,1.36,1.36,0,0,1,.11-.56,1.18,1.18,0,0,1,.35-.42,1.52,1.52,0,0,1,.53-.25,2.36,2.36,0,0,1,.65,0,2.4,2.4,0,0,1,.84.15,2.22,2.22,0,0,1,.65.38Z"/><path d="M677.9,887.23h-.45v-1.91a1.4,1.4,0,0,0-.2-.87.65.65,0,0,0-.58-.27.73.73,0,0,0-.36,0,1.58,1.58,0,0,0-.36.2,1.14,1.14,0,0,0-.27.31.89.89,0,0,0-.18.38v2.09h-.44V882.4h.44v2.13a1.51,1.51,0,0,1,.6-.49,1.36,1.36,0,0,1,.78-.24.93.93,0,0,1,.49.11,1.08,1.08,0,0,1,.33.31,1.51,1.51,0,0,1,.2.45,3,3,0,0,1,0,.6Z"/><path d="M680.28,887.29a1.63,1.63,0,0,1-.69-.13,2.45,2.45,0,0,1-.53-.38,2,2,0,0,1-.35-.56,1.7,1.7,0,0,1-.13-.67,1.8,1.8,0,0,1,.13-.69,2.5,2.5,0,0,1,.35-.56,2.29,2.29,0,0,1,.54-.38,1.56,1.56,0,0,1,.67-.15,1.72,1.72,0,0,1,.67.15,1.81,1.81,0,0,1,.89.94,2.28,2.28,0,0,1,.13.69,2.21,2.21,0,0,1-.13.67,1.67,1.67,0,0,1-.89.94A1.65,1.65,0,0,1,680.28,887.29ZM679,885.47a1.6,1.6,0,0,0,.09.53,1.79,1.79,0,0,0,.27.44,1.33,1.33,0,0,0,.38.29,1.17,1.17,0,0,0,.49.11,1.12,1.12,0,0,0,.47-.11,2.27,2.27,0,0,0,.4-.29,1.29,1.29,0,0,0,.25-.44,1.41,1.41,0,0,0,.11-.54,1.59,1.59,0,0,0-.36-1,1.41,1.41,0,0,0-.4-.29,1.12,1.12,0,0,0-.47-.11,1.17,1.17,0,0,0-.49.11,1.1,1.1,0,0,0-.38.29,1.79,1.79,0,0,0-.27.44,1.64,1.64,0,0,0-.09.62Z"/><path d="M684.44,887.29a1.28,1.28,0,0,1-.76-.22,1.71,1.71,0,0,1-.53-.54v2.09h-.45v-4.78h.4v.65a2,2,0,0,1,.54-.53,1.44,1.44,0,0,1,1.38-.05,2.2,2.2,0,0,1,.51.4,2.12,2.12,0,0,1,.33.56,1.64,1.64,0,0,1,.13.65,2.31,2.31,0,0,1-.11.69,1.62,1.62,0,0,1-.82.94A1.48,1.48,0,0,1,684.44,887.29Zm-.13-.38a1,1,0,0,0,.51-.13,1,1,0,0,0,.38-.31,1.26,1.26,0,0,0,.24-.44,1.43,1.43,0,0,0,0-1,1.79,1.79,0,0,0-.27-.44,1.35,1.35,0,0,0-.4-.31,1.26,1.26,0,0,0-.51-.11,1,1,0,0,0-.35,0,1.34,1.34,0,0,0-.62.43.67.67,0,0,0-.15.33V886a1.38,1.38,0,0,0,.2.33.87.87,0,0,0,.27.27,1.06,1.06,0,0,0,.33.18A.72.72,0,0,0,684.31,886.91Z"/></g><g class="cls-21"><path d="M718.28,884.87a2.29,2.29,0,0,1,.15-.82,2.42,2.42,0,0,1,.44-.74,2.23,2.23,0,0,1,.69-.53,2,2,0,0,1,.93-.22,1.77,1.77,0,0,1,1.07.29,1.56,1.56,0,0,1,.64.73l-.35.22a2.6,2.6,0,0,0-.27-.38,1.72,1.72,0,0,0-.35-.25,2.5,2.5,0,0,0-.38-.15h-.38a1.57,1.57,0,0,0-.74.16,2.08,2.08,0,0,0-.53.45,2.25,2.25,0,0,0-.35.62,2.31,2.31,0,0,0-.11.69,1.83,1.83,0,0,0,.15.73,2,2,0,0,0,.36.64,1.39,1.39,0,0,0,.54.42,1.38,1.38,0,0,0,.69.16h.4a2,2,0,0,0,.4-.16,2.33,2.33,0,0,0,.35-.27,2.12,2.12,0,0,0,.29-.38l.36.2a1.17,1.17,0,0,1-.31.45,2.36,2.36,0,0,1-.45.33,2.7,2.7,0,0,1-.53.22,1.63,1.63,0,0,1-.54,0,1.79,1.79,0,0,1-.87-.22,2.07,2.07,0,0,1-.67-.54,2.69,2.69,0,0,1-.63-1.65Z"/><path d="M724.42,887.29a1.54,1.54,0,0,1-.67-.13,2.29,2.29,0,0,1-.54-.38,2.5,2.5,0,0,1-.35-.56,2.21,2.21,0,0,1-.13-.67,2.28,2.28,0,0,1,.13-.69,1.81,1.81,0,0,1,.89-.94,1.72,1.72,0,0,1,.67-.15,1.56,1.56,0,0,1,.67.15,2.29,2.29,0,0,1,.54.38,2.5,2.5,0,0,1,.35.56,1.84,1.84,0,0,1-.35,1.92,2.45,2.45,0,0,1-.53.38A1.79,1.79,0,0,1,724.42,887.29Zm-1.24-1.82a1.23,1.23,0,0,0,.11.53,1.48,1.48,0,0,0,.25.44,1.17,1.17,0,0,0,1.34.29,1.28,1.28,0,0,0,.4-.29,1.79,1.79,0,0,0,.27-.44,1.63,1.63,0,0,0,0-.54,1.57,1.57,0,0,0,0-.53,1.79,1.79,0,0,0-.27-.44,1.17,1.17,0,0,0-1.34-.29,1.41,1.41,0,0,0-.4.29,1.29,1.29,0,0,0-.25.44,1.48,1.48,0,0,0-.11.62Z"/><path d="M729.7,887.23h-.44v-1.91a1.56,1.56,0,0,0-.18-.87.62.62,0,0,0-.54-.27.9.9,0,0,0-.4,0,1,1,0,0,0-.36.2,1.42,1.42,0,0,0-.29.31,1.07,1.07,0,0,0-.2.38v2.09h-.35v-3.4h.4v.76a1.57,1.57,0,0,1,.6-.6,1.81,1.81,0,0,1,.85-.24,1.12,1.12,0,0,1,.47.11.86.86,0,0,1,.31.29,1.63,1.63,0,0,1,.16.47,3,3,0,0,1,0,.6Z"/><path d="M732.25,887.07h-1l-.24-.13a1,1,0,0,1-.15-.2.48.48,0,0,1,0-.29V884h-.45v-.35h.45v-1.16h.45v1.16h.78V884h-.78v2.31a.29.29,0,0,0,.13.27.42.42,0,0,0,.27,0,1,1,0,0,0,.35,0h.18Z"/><path d="M733.66,887.29a1.14,1.14,0,0,1-.45,0,.88.88,0,0,1-.36-.24,1,1,0,0,1-.24-.33,1,1,0,0,1,0-.42,1,1,0,0,1,0-.42,1.52,1.52,0,0,1,.31-.31,1.65,1.65,0,0,1,.44-.22,1.88,1.88,0,0,1,.58,0h.53a2.52,2.52,0,0,1,.47.13v-.29a.9.9,0,0,0-.77-1H734a1.57,1.57,0,0,0-.53,0,3.81,3.81,0,0,0-.56.31l-.15-.29a2.33,2.33,0,0,1,1.27-.45,1.45,1.45,0,0,1,1,.36,1.36,1.36,0,0,1,.36,1v1.53c0,.13,0,.18.16.18v.4h-.18a.36.36,0,0,1-.25,0A.29.29,0,0,1,735,887v-.27a1.39,1.39,0,0,1-.58.47A1.94,1.94,0,0,1,733.66,887.29Zm.11-.33a1.43,1.43,0,0,0,.64-.15,1.09,1.09,0,0,0,.44-.35.3.3,0,0,0,.09-.13.29.29,0,0,0,0-.13v-.54a2.54,2.54,0,0,0-.45-.13,2,2,0,0,0-.49,0,1.36,1.36,0,0,0-.76.2.58.58,0,0,0-.29.51.71.71,0,0,0,0,.29,1.14,1.14,0,0,0,.18.25,1.28,1.28,0,0,0,.25.15.54.54,0,0,0,.39.07Z"/><path d="M736.13,885.53a2,2,0,0,1,.11-.69,1.81,1.81,0,0,1,.89-.92,2,2,0,0,1,.69-.15,1.59,1.59,0,0,1,.85.22,1.34,1.34,0,0,1,.53.6l-.42.13a1.27,1.27,0,0,0-.4-.4,1.47,1.47,0,0,0-.58-.15,1.17,1.17,0,0,0-.49.11,1.46,1.46,0,0,0-.38.27,1.79,1.79,0,0,0-.27.44,1.63,1.63,0,0,0,0,.54,1.4,1.4,0,0,0,.11.53,1.24,1.24,0,0,0,.25.45,2.27,2.27,0,0,0,.4.29,1.12,1.12,0,0,0,.47.11.91.91,0,0,0,.33,0,.85.85,0,0,0,.31-.13l.24-.18a.61.61,0,0,0,.13-.22l.44.13a.94.94,0,0,1-.2.33,1.09,1.09,0,0,1-.33.27,1.57,1.57,0,0,1-.42.18,1.7,1.7,0,0,1-.45,0,1.63,1.63,0,0,1-.69-.13,1.52,1.52,0,0,1-.54-.4,3,3,0,0,1-.58-1.23Z"/><path d="M741.57,887.07h-1l-.24-.13a1,1,0,0,1-.15-.2.71.71,0,0,1,0-.29V884h-.49v-.35h.45v-1.16h.45v1.16h.78V884h-.78v2.31a.29.29,0,0,0,.13.27.42.42,0,0,0,.27,0,1,1,0,0,0,.35,0h.18Z"/></g><rect class="cls-9" x="564.63" y="888.61" width="16.58" height="0.71"/><rect class="cls-6" x="735.28" y="832.25" width="105.02" height="14.02"/><path class="cls-7" d="M840.45,846.42H735.1V832.11H840.45Zm-105-.29H840.16V832.4H735.43Z"/><rect class="cls-11" x="826.14" y="832.11" width="14.31" height="14.31"/><path class="cls-6" d="M837.74,843.19l-1.29,1L834.11,841l-.89-1.16a2.49,2.49,0,0,0,.51-.27,2.29,2.29,0,0,0,.67-.87l.93,1.24Z"/><path class="cls-6" d="M835.2,835.74a3.54,3.54,0,1,0-1.14,5.27l.49-.31a5.25,5.25,0,0,0,.73-.76A3.65,3.65,0,0,0,835.2,835.74Zm-1.52,3.83a1.67,1.67,0,0,1-.51.27,2.09,2.09,0,1,1,1.2-2.7h0a2.18,2.18,0,0,1,0,1.55A2.21,2.21,0,0,1,833.68,839.57Z"/><rect class="cls-7" x="738.2" y="835.01" width="0.74" height="8.5"/><rect class="cls-6" x="488.1" y="832.25" width="241.91" height="14.02"/><path class="cls-7" d="M730.16,846.42H488V832.11H730.2Zm-241.91-.29H729.83V832.4H488.25Z"/><rect class="cls-7" x="491.03" y="835.01" width="0.74" height="8.5"/><polygon class="cls-6" points="461.64 844.06 456.53 839.37 461.64 834.47 462.44 835.3 458.2 839.33 462.42 843.22 461.64 844.06"/><polygon class="cls-6" points="473.97 834.47 479.08 839.17 473.97 844.06 473.19 843.22 477.4 839.19 473.19 835.3 473.97 834.47"/></g></g><g class="cls-22"><g class="cls-22"><path d="M513.68,416.29l13.51,38.16,13.45-38.16h14.23V468.9H544V454.52l1.08-24.82-14.2,39.2h-7.44l-14.17-39.17,1.09,24.79V468.9H499.52V416.29Z"/></g><g class="cls-22"><path d="M594.73,458.06h-19l-3.61,10.84H560.58l19.59-52.61h10L609.9,468.9H598.38Zm-16.08-8.78H591.8l-6.61-19.69Z"/></g><g class="cls-22"><path d="M658.21,468.9H647.37l-21.1-34.62V468.9H615.43V416.29h10.84L647.4,451V416.29h10.81Z"/></g><g class="cls-22"><path d="M697.74,458.06h-19l-3.61,10.84H663.59l19.59-52.61h10l19.69,52.61H701.39Zm-16.08-8.78h13.15l-6.61-19.69Z"/></g><g class="cls-22"><path d="M759.31,462.25a18.81,18.81,0,0,1-8.27,5.44,34.66,34.66,0,0,1-11.85,1.93,23.43,23.43,0,0,1-12-3,19.93,19.93,0,0,1-8-8.65,30.31,30.31,0,0,1-2.87-13.34v-3.57A32.35,32.35,0,0,1,719,427.44a19.72,19.72,0,0,1,7.66-8.82,22.14,22.14,0,0,1,11.73-3.05q9.36,0,14.63,4.46t6.25,13H748.76q-.72-4.51-3.2-6.61a10.2,10.2,0,0,0-6.81-2.1,9.63,9.63,0,0,0-8.42,4.16q-2.88,4.15-2.92,12.35v3.36q0,8.28,3.14,12.51t9.21,4.22c4.07,0,7-.86,8.71-2.6v-9.07h-9.86v-8h20.7Z"/><path d="M799.75,446.1H778.93v14.09h24.43v8.71H768.09V416.29h35.2v8.78H778.93v12.54h20.82Z"/></g></g><g class="cls-22"><g class="cls-22"><path d="M517.66,524l10.94-23.7h11.86l-17.28,33.53v19.08h-11V533.86l-17.27-33.53h11.89Z"/></g><g class="cls-22"><path d="M588.15,527.83a31.75,31.75,0,0,1-2.74,13.62,20.67,20.67,0,0,1-7.86,9,23.24,23.24,0,0,1-23.4,0,20.92,20.92,0,0,1-7.95-9,30.76,30.76,0,0,1-2.85-13.42v-2.6a31.57,31.57,0,0,1,2.8-13.68,20.8,20.8,0,0,1,7.91-9.07,23.2,23.2,0,0,1,23.38,0,20.86,20.86,0,0,1,7.91,9.07,31.45,31.45,0,0,1,2.8,13.64Zm-11-2.39q0-8.27-3-12.57a10.48,10.48,0,0,0-16.88-.06q-3,4.25-3,12.45v2.57q0,8.05,3,12.5a10.39,10.39,0,0,0,16.92.16q2.92-4.28,3-12.48Z"/><path d="M635.85,500.33V535q0,8.64-5.4,13.66t-14.76,5q-9.23,0-14.64-4.88t-5.53-13.4V500.33h10.84v34.72q0,5.18,2.48,7.54a9.49,9.49,0,0,0,6.85,2.36q9.13,0,9.28-9.61v-35Z"/><path d="M664.21,533.68h-8.63v19.26H644.74V500.33h19.54q9.33,0,14.39,4.16t5.05,11.74a16.14,16.14,0,0,1-2.33,9,15.92,15.92,0,0,1-7.06,5.72l11.38,21.5v.51H674.08Zm-8.63-8.78h8.74a8.92,8.92,0,0,0,6.32-2.08,7.38,7.38,0,0,0,2.24-5.72,8,8,0,0,0-2.11-5.86q-2.12-2.13-6.49-2.13h-8.7Z"/><path d="M751.36,537.76l7.09-37.43h10.8l-11.67,52.61H746.67l-8.57-35.19-8.56,35.19H718.63L707,500.33h10.8l7.12,37.36,8.67-37.36h9.18Z"/><path d="M818.32,527.83a31.75,31.75,0,0,1-2.75,13.62,20.67,20.67,0,0,1-7.86,9,23.22,23.22,0,0,1-23.39,0,20.92,20.92,0,0,1-8-9,30.9,30.9,0,0,1-2.86-13.42v-2.6a31.71,31.71,0,0,1,2.8-13.68,20.88,20.88,0,0,1,7.92-9.07,23.2,23.2,0,0,1,23.38,0,20.92,20.92,0,0,1,7.91,9.07,31.59,31.59,0,0,1,2.8,13.64Zm-11-2.39q0-8.27-3-12.57a10.47,10.47,0,0,0-16.87-.06q-3,4.25-3,12.45v2.57q0,8.05,3,12.5a9.64,9.64,0,0,0,8.53,4.44,9.53,9.53,0,0,0,8.38-4.28q2.93-4.28,3-12.48Z"/><path d="M845.67,533.68H837v19.26H826.2V500.33h19.54q9.33,0,14.38,4.16t5.06,11.74a16.14,16.14,0,0,1-2.33,9,15.92,15.92,0,0,1-7.06,5.72l11.38,21.5v.51H855.54ZM837,524.9h8.74a8.92,8.92,0,0,0,6.32-2.08,7.38,7.38,0,0,0,2.24-5.72,8,8,0,0,0-2.11-5.86q-2.12-2.13-6.49-2.13H837Z"/><path d="M889.9,531.84l-5.64,6.07v15H873.42V500.33h10.84v23.85l4.77-6.54,13.41-17.31h13.33l-18.68,23.38,19.22,29.23h-12.9Z"/><path d="M947.67,539.14a5.58,5.58,0,0,0-2.16-4.72A28.81,28.81,0,0,0,937.7,531a54.58,54.58,0,0,1-8.92-3.59q-9-4.85-9-13.05a12.71,12.71,0,0,1,2.4-7.6,15.62,15.62,0,0,1,6.9-5.22,25.83,25.83,0,0,1,10.1-1.88,23.63,23.63,0,0,1,10,2,16,16,0,0,1,6.85,5.76,15.05,15.05,0,0,1,2.44,8.46H947.71a7.09,7.09,0,0,0-2.28-5.62,9.33,9.33,0,0,0-6.39-2,10,10,0,0,0-6.18,1.68,5.3,5.3,0,0,0-2.2,4.43,5.08,5.08,0,0,0,2.58,4.3,29,29,0,0,0,7.6,3.25q9.25,2.79,13.48,6.9a13.75,13.75,0,0,1,4.23,10.26,12.65,12.65,0,0,1-5.17,10.72q-5.16,3.88-13.91,3.88a26.83,26.83,0,0,1-11.05-2.22,17.47,17.47,0,0,1-7.61-6.09,15.56,15.56,0,0,1-2.62-9h10.88q0,8.72,10.4,8.71a10.2,10.2,0,0,0,6-1.57A5.12,5.12,0,0,0,947.67,539.14Z"/></g></g><g class="cls-22"><g class="cls-22"><path d="M540.49,621.79l7.08-37.43h10.81L546.71,637H535.79l-8.56-35.19L518.67,637H507.76l-11.68-52.61h10.81L514,621.72l8.67-37.36h9.18Z"/></g><g class="cls-22"><path d="M575.36,637H564.52V584.36h10.84Z"/></g><g class="cls-22"><path d="M624.72,593.14H608.6V637H597.76V593.14H581.87v-8.78h42.85Z"/><path d="M673.71,637H662.88V614.42H641.74V637H630.9V584.36h10.84v21.32h21.14V584.36h10.83Z"/></g></g><g class="cls-22"><g class="cls-22"><path class="cls-5" d="M741.44,619.45q-.62,8.49-6.27,13.36t-14.91,4.88q-10.11,0-15.91-6.81t-5.8-18.7V609a31.56,31.56,0,0,1,2.67-13.37,20,20,0,0,1,7.64-8.87,21.43,21.43,0,0,1,11.55-3.09q9.11,0,14.67,4.88t6.43,13.69H730.67c-.27-3.4-1.21-5.86-2.84-7.39s-4.1-2.29-7.42-2.29q-5.43,0-8.11,3.88t-2.77,12.05v4q0,8.52,2.59,12.46t8.14,3.94q5,0,7.5-2.29t2.84-7.1Z"/><path class="cls-5" d="M778.26,626.13h-19L755.64,637H744.11l19.58-52.61h10L793.43,637H781.91Zm-16.08-8.78h13.15l-6.61-19.69Z"/><path class="cls-5" d="M812.51,584.36,826,622.52l13.45-38.16H853.7V637H842.83V622.59l1.08-24.82L829.71,637h-7.44L808.1,597.8l1.09,24.79V637H798.35V584.36Z"/></g><g class="cls-22"><path class="cls-5" d="M874.81,618.43V637H864V584.36h20.52a23.71,23.71,0,0,1,10.43,2.17,16,16,0,0,1,6.91,6.16,17.12,17.12,0,0,1,2.43,9.09q0,7.72-5.3,12.19t-14.65,4.46Zm0-8.78h9.68c2.87,0,5-.67,6.56-2a7.39,7.39,0,0,0,2.26-5.78A8.66,8.66,0,0,0,891,595.6a8.51,8.51,0,0,0-6.29-2.46h-9.93Z"/></g><g class="cls-22"><path class="cls-5" d="M935.4,626.13h-19L912.78,637H901.25l19.59-52.61h10L950.57,637H939.05Zm-16.08-8.78h13.15l-6.61-19.69Z"/><path class="cls-5" d="M967,637H956.17V584.36H967Z"/><path class="cls-5" d="M1018.68,630.32a18.81,18.81,0,0,1-8.27,5.44,34.66,34.66,0,0,1-11.85,1.93,23.46,23.46,0,0,1-12-3,19.93,19.93,0,0,1-8-8.65,30.44,30.44,0,0,1-2.87-13.33v-3.58a32.35,32.35,0,0,1,2.65-13.64,19.78,19.78,0,0,1,7.66-8.82,22.14,22.14,0,0,1,11.73-3.05q9.36,0,14.63,4.46t6.25,13h-10.55q-.72-4.51-3.19-6.61a10.21,10.21,0,0,0-6.82-2.1,9.6,9.6,0,0,0-8.41,4.16q-2.9,4.15-2.93,12.35v3.37q0,8.26,3.14,12.5t9.22,4.22c4.07,0,7-.86,8.7-2.6v-9.07H998v-8h20.7Z"/><path class="cls-5" d="M1070.25,637h-10.84l-21.11-34.62V637h-10.84V584.36h10.84l21.14,34.69V584.36h10.81Z"/><path class="cls-5" d="M1107,623.17a5.58,5.58,0,0,0-2.16-4.72A28.81,28.81,0,0,0,1097,615a54.58,54.58,0,0,1-8.92-3.59q-9-4.85-9-13a12.71,12.71,0,0,1,2.41-7.6,15.62,15.62,0,0,1,6.9-5.22,26,26,0,0,1,10.1-1.88,23.63,23.63,0,0,1,10,2,16,16,0,0,1,6.85,5.76,15.05,15.05,0,0,1,2.44,8.46H1107a7.09,7.09,0,0,0-2.28-5.62,9.33,9.33,0,0,0-6.39-2,10,10,0,0,0-6.18,1.68,5.31,5.31,0,0,0-2.21,4.43,5.09,5.09,0,0,0,2.59,4.3,29,29,0,0,0,7.6,3.25q9.25,2.79,13.48,6.9a13.76,13.76,0,0,1,4.23,10.27,12.65,12.65,0,0,1-5.17,10.71q-5.16,3.88-13.91,3.88a26.91,26.91,0,0,1-11.06-2.22,17.5,17.5,0,0,1-7.6-6.09,15.54,15.54,0,0,1-2.62-9h10.87q0,8.72,10.41,8.71a10.2,10.2,0,0,0,6-1.57A5.12,5.12,0,0,0,1107,623.17Z"/></g></g><line class="cls-23" x1="494.82" y1="715.49" x2="633.93" y2="715.49"/></svg>