<svg id="Layer_1" data-name="Layer 1" xmlns="http://www.w3.org/2000/svg" viewBox="0 0 2000 2000"><defs><style>.cls-1,.cls-11{opacity:0.5;}.cls-2{fill:#fffbd4;}.cls-3{fill:#e7e7e7;}.cls-4{fill:#d5d5d5;}.cls-5{fill:#9b9b9b;}.cls-11,.cls-6{fill:#00a84b;}.cls-7{fill:#fff;}.cls-8{fill:#212c31;}.cls-9{opacity:0.4;}.cls-10{fill:#3b5059;}.cls-11,.cls-14,.cls-17{isolation:isolate;}.cls-12{fill:#2f3e45;}.cls-13{opacity:0.2;}.cls-14{opacity:0.1;}.cls-15{fill:#3db26c;}.cls-16{fill:#bfbfbf;}.cls-18{fill:none;stroke:#212c31;stroke-linecap:round;stroke-miterlimit:10;stroke-width:2px;}</style></defs><g class="cls-1"><path class="cls-2" d="M1295.22,593.05c0,259.59-288.25,565.28-547.83,565.28S347.68,852.64,347.68,593.05s140.12-331.7,399.71-331.7S1295.22,333.46,1295.22,593.05Z"/></g><g id="freepik--background-complete--inject-328"><path class="cls-3" d="M709.92,714.28a6.35,6.35,0,0,1,0,6.69l-1,1.73c-.3.58-.61,1.17-.89,1.78a6.48,6.48,0,0,1-5.54,3.72l-8.23.26.82,26.82,8.25-.26a6.38,6.38,0,0,1,5.78,3.36,37.54,37.54,0,0,0,2.16,3.4,6.48,6.48,0,0,1,.41,6.67l-3.87,7.23,23.55,12.77,3.92-7.32a6.5,6.5,0,0,1,5.78-3.33c1.34,0,2.66,0,4-.13a6.36,6.36,0,0,1,6,3l4.33,7,22.82-14.16-4.33-7a6.36,6.36,0,0,1,0-6.67l1-1.71c.3-.58.61-1.17.89-1.78a6.46,6.46,0,0,1,5.54-3.74l8.25-.24-.84-26.82-8.23.17a6.33,6.33,0,0,1-5.78-3.36,37.54,37.54,0,0,0-2.16-3.4,6.5,6.5,0,0,1-.43-6.67L776,705l-23.6-12.59-3.87,7.27a6.48,6.48,0,0,1-5.8,3.33,33.36,33.36,0,0,0-4,0,6.33,6.33,0,0,1-6-2.94l-4.33-6.88-22.79,14.09ZM752.26,721a22,22,0,1,1-29.77,9l0,0h0A22,22,0,0,1,752.26,721Z"/><path class="cls-4" d="M806.22,808.86a4.48,4.48,0,0,1,2.16,4.16v2.78a4.47,4.47,0,0,1-2.16,4.13l-5,2.88,9.39,16.28,5-2.88a4.44,4.44,0,0,1,4.68.17,24.24,24.24,0,0,0,2.42,1.41,4.47,4.47,0,0,1,2.47,4v5.76H844v-5.76a4.43,4.43,0,0,1,2.47-4,27.75,27.75,0,0,0,2.42-1.41,4.47,4.47,0,0,1,4.7-.17l5,2.88L868,822.81l-5-2.88a4.45,4.45,0,0,1-2.16-4.13V813a4.5,4.5,0,0,1,2.16-4.16l5-2.88-9.39-16.28-5,2.88a4.33,4.33,0,0,1-4.68-.15,23.89,23.89,0,0,0-2.45-1.41,4.47,4.47,0,0,1-2.47-4v-5.7H825.26v5.76a4.43,4.43,0,0,1-2.47,4,23.89,23.89,0,0,0-2.45,1.41,4.34,4.34,0,0,1-4.68.15l-5-2.88L801.29,806ZM834.6,799a15.41,15.41,0,1,1-15.39,15.43h0A15.41,15.41,0,0,1,834.6,799Z"/><path class="cls-3" d="M1463.61,1217.55a4.45,4.45,0,0,1,2.16,4.13v2.78a4.45,4.45,0,0,1-2.16,4.13l-5,2.9,9.37,16.28,5-2.9a4.5,4.5,0,0,1,4.7.17,25.42,25.42,0,0,0,2.42,1.41,4.47,4.47,0,0,1,2.47,4v5.76h18.79v-5.76a4.43,4.43,0,0,1,2.47-4,23.46,23.46,0,0,0,2.42-1.41,4.44,4.44,0,0,1,4.68-.17l5,2.9,9.39-16.28-5-2.9a4.45,4.45,0,0,1-2.16-4.13v-2.78a4.45,4.45,0,0,1,2.16-4.13l5.09-2.88-9.39-16.28-5,2.88a4.44,4.44,0,0,1-4.68-.17,25.89,25.89,0,0,0-2.45-1.41,4.47,4.47,0,0,1-2.47-4V1190h-18.79v5.76a4.33,4.33,0,0,1-2.49,4c-.82.43-1.65.91-2.42,1.41a4.44,4.44,0,0,1-4.68.17l-5-2.88-9.37,16.28Zm28.36-9.88a15.39,15.39,0,1,1-15.37,15.41h0a15.39,15.39,0,0,1,15.37-15.39Z"/><polygon class="cls-3" points="832.68 1376.73 830.51 1376.73 830.51 1210.08 765.68 1121.63 765.68 1043.46 767.84 1043.46 767.84 1120.92 832.68 1209.36 832.68 1376.73"/><path class="cls-3" d="M766.78,1044.65a6.84,6.84,0,1,1,6.84-6.84h0A6.84,6.84,0,0,1,766.78,1044.65Zm0-11.51a3.31,3.31,0,1,0,.09-.08h-.09Z"/><polygon class="cls-3" points="815.99 1376.73 813.82 1376.73 813.82 1220.77 748.99 1132.32 748.99 1088.92 751.16 1088.92 751.16 1131.61 815.99 1220.06 815.99 1376.73"/><path class="cls-3" d="M750.07,1090.11a6.84,6.84,0,1,1,6.88-6.84,6.84,6.84,0,0,1-6.88,6.84Zm0-11.51a3.36,3.36,0,1,0,.13-.09h-.13Z"/><rect class="cls-3" x="846.59" y="1110.94" width="2.16" height="265.82"/><path class="cls-3" d="M847.68,1112a6.84,6.84,0,1,1,6.84-6.84h0A6.84,6.84,0,0,1,847.68,1112Zm0-11.52a4.68,4.68,0,1,0,4.68,4.68,4.69,4.69,0,0,0-4.68-4.68Z"/><polygon class="cls-3" points="864.24 1375.28 862.07 1375.28 862.07 1236.36 862.2 1236.12 906.08 1153.34 906.08 983.18 908.24 983.18 908.24 1153.88 908.11 1154.12 864.24 1236.88 864.24 1375.28"/><path class="cls-3" d="M907.16,984.26a6.84,6.84,0,1,1,6.84-6.84,6.84,6.84,0,0,1-6.84,6.84Zm0-11.52a4.68,4.68,0,1,0,4.68,4.68h0A4.69,4.69,0,0,0,907.16,972.74Z"/><polygon class="cls-3" points="879.63 1375.57 877.46 1375.57 877.46 1245.19 877.61 1244.95 929.33 1153.45 929.33 1055.74 931.49 1055.74 931.49 1154.01 931.36 1154.27 879.63 1245.77 879.63 1375.57"/><path class="cls-3" d="M930.43,1056.86a6.84,6.84,0,1,1,6.84-6.84h0A6.84,6.84,0,0,1,930.43,1056.86Zm0-11.51a4.68,4.68,0,1,0,4.68,4.68,4.69,4.69,0,0,0-4.68-4.68Z"/><path class="cls-4" d="M1470.79,835.46a25.39,25.39,0,1,0,11.73,33.94A25.4,25.4,0,0,0,1470.79,835.46Zm9,32.58a22.29,22.29,0,1,1-10.31-29.8,22.29,22.29,0,0,1,10.31,29.8Zm-9-32.58a25.39,25.39,0,1,0,11.73,33.94A25.4,25.4,0,0,0,1470.79,835.46Zm9,32.58a22.29,22.29,0,1,1-10.31-29.8,22.29,22.29,0,0,1,10.31,29.8Zm-9-32.58a25.39,25.39,0,1,0,11.73,33.94A25.4,25.4,0,0,0,1470.79,835.46Zm9,32.58a22.29,22.29,0,1,1-10.31-29.8,22.29,22.29,0,0,1,10.31,29.8Zm3.33-57.95a53.53,53.53,0,1,0,24.68,71.57l.07-.14a53.57,53.57,0,0,0-24.78-71.43Zm3,61a29.33,29.33,0,1,1-13.59-39.19h0a29.4,29.4,0,0,1,13.57,39.25Zm-3.57-1.71a25.39,25.39,0,1,0-33.93,11.75h0a25.41,25.41,0,0,0,33.92-11.69Zm-2.77-1.37a22.3,22.3,0,1,1-10.37-29.78h.07a22.31,22.31,0,0,1,10.3,29.81Zm-9-32.57a54.88,54.88,0,1,1,0,.06Zm9,32.57a22.3,22.3,0,1,1-10.37-29.78h.07a22.31,22.31,0,0,1,10.3,29.81Zm-9-32.57a54.88,54.88,0,1,1,0,.06Zm9,32.57a22.3,22.3,0,1,1-10.37-29.78h.07a22.31,22.31,0,0,1,10.3,29.81Z"/><polygon class="cls-4" points="1446.55 908.95 1428.02 899.97 1422.7 913.58 1439.15 921.57 1446.55 908.95"/><polygon class="cls-4" points="1414.34 885.62 1407.59 866.18 1394.21 872 1400.18 889.3 1414.34 885.62"/><polygon class="cls-4" points="1408.06 846.33 1417.05 827.82 1403.45 822.47 1395.44 838.95 1408.06 846.33"/><polygon class="cls-4" points="1431.42 814.12 1450.86 807.39 1445.01 793.99 1427.72 799.98 1431.42 814.12"/><polygon class="cls-4" points="1470.71 807.84 1489.22 816.85 1494.54 803.23 1478.09 795.24 1470.71 807.84"/><polygon class="cls-4" points="1502.92 831.2 1509.65 850.64 1523.03 844.79 1517.05 827.5 1502.92 831.2"/><polygon class="cls-4" points="1509.17 870.49 1500.19 888.99 1513.79 894.34 1521.79 877.87 1509.17 870.49"/><polygon class="cls-4" points="1485.84 902.7 1466.38 909.43 1472.22 922.83 1489.52 916.83 1485.84 902.7"/><path class="cls-3" d="M1221.4,676.9a20,20,0,1,0,9.24,26.77h0a20,20,0,0,0-9.19-26.75Zm7.06,25.7a17.58,17.58,0,1,1-8.14-23.49h0a17.58,17.58,0,0,1,8.13,23.49Zm-7.06-25.7a20,20,0,1,0,9.24,26.77h0a20,20,0,0,0-9.19-26.75Zm7.06,25.7a17.58,17.58,0,1,1-8.14-23.49h0a17.58,17.58,0,0,1,8.13,23.49Zm-7.06-25.7a20,20,0,1,0,9.24,26.77h0a20,20,0,0,0-9.19-26.75Zm7.06,25.7a17.58,17.58,0,1,1-8.14-23.49h0a17.58,17.58,0,0,1,8.13,23.49Zm2.56-45.66a42.21,42.21,0,1,0,19.47,56.43h0A42.23,42.23,0,0,0,1231,656.94Zm2.36,48.08a23.14,23.14,0,1,1-10.71-30.92h0a23.16,23.16,0,0,1,10.8,30.9Zm-2.82-1.36a20,20,0,1,0-26.75,9.28h0a20,20,0,0,0,26.76-9.16h0l.06-.12h-.07Zm-2.16-1.06a17.58,17.58,0,1,1-8.14-23.49h0a17.58,17.58,0,0,1,8.19,23.47h0Zm-7.06-25.7a20,20,0,1,0,9.24,26.77h0a20.06,20.06,0,0,0-9.18-26.76Zm7.06,25.7a17.58,17.58,0,1,1-8.14-23.49h0a17.58,17.58,0,0,1,8.19,23.47h0Zm-7.06-25.7a20,20,0,1,0,9.24,26.77h0a20.06,20.06,0,0,0-9.18-26.76Zm7.06,25.7a17.58,17.58,0,1,1-8.14-23.49h0a17.58,17.58,0,0,1,8.19,23.47h0Z"/><polygon class="cls-3" points="1202.27 734.85 1187.68 727.77 1183.46 738.49 1196.45 744.81 1202.27 734.85"/><polygon class="cls-3" points="1176.88 716.45 1171.55 701.1 1160.99 705.71 1165.73 719.35 1176.88 716.45"/><polygon class="cls-3" points="1171.92 685.47 1179.02 670.86 1168.28 666.64 1161.99 679.63 1171.92 685.47"/><polygon class="cls-3" points="1190.34 660.06 1205.69 654.76 1201.08 644.19 1187.42 648.91 1190.34 660.06"/><polygon class="cls-3" points="1221.32 655.12 1235.93 662.2 1240.13 651.49 1227.14 645.17 1221.32 655.12"/><polygon class="cls-3" points="1246.73 673.52 1252.03 688.87 1262.6 684.26 1257.88 670.62 1246.73 673.52"/><polygon class="cls-3" points="1251.67 704.5 1244.59 719.11 1255.3 723.33 1261.62 710.34 1251.67 704.5"/><polygon class="cls-3" points="1233.27 729.91 1217.92 735.22 1222.53 745.78 1236.17 741.06 1233.27 729.91"/><path class="cls-5" d="M1441.53,753.81a82.09,82.09,0,1,0,0,.05Zm-40.74-16.54a69.93,69.93,0,1,1,0-.07Z"/><polygon class="cls-5" points="1350.05 801.93 1320.68 790 1313.86 811.46 1339.98 822.06 1350.05 801.93"/><polygon class="cls-5" points="1298.14 769.31 1285.8 740.11 1265.8 750.46 1276.78 776.43 1298.14 769.31"/><polygon class="cls-5" points="1284.5 709.54 1296.43 680.17 1274.96 673.35 1264.35 699.48 1284.5 709.54"/><polygon class="cls-5" points="1317.1 657.64 1346.33 645.3 1335.98 625.3 1309.98 636.27 1317.1 657.64"/><polygon class="cls-5" points="1376.87 644 1406.27 655.93 1413.09 634.47 1386.94 623.85 1376.87 644"/><polygon class="cls-5" points="1428.78 676.6 1441.12 705.82 1461.12 695.47 1450.14 669.48 1428.78 676.6"/><polygon class="cls-5" points="1442.44 736.36 1430.49 765.76 1451.96 772.58 1462.57 746.43 1442.44 736.36"/><polygon class="cls-5" points="1409.82 788.27 1380.62 800.61 1390.96 820.61 1416.94 809.64 1409.82 788.27"/><path class="cls-5" d="M1337.5,733.94,1360,751l26-11,3.46-28L1367,695l-26,11Zm29.33-19.27a8.94,8.94,0,1,1-11.65,4.92h0a8.92,8.92,0,0,1,11.61-4.93Z"/></g><g id="freepik--Shadow--inject-328"><ellipse class="cls-3" cx="1109.8" cy="1482.95" rx="415.55" ry="48.6"/></g><g id="freepik--Plants--inject-328"><path class="cls-6" d="M1309.29,1305c-7.21.24-15.28.65-21.26-4-5.52-4.33-10.43-10.82-9.72-18.16.22-2.16.71-3.4,3-2.51,3.44,1.39,6.1,5.17,8.49,7.84a71.89,71.89,0,0,0,10,9.5c2.55,2,5.33,3.68,7.94,5.58l1,.74.37.26h.19a.32.32,0,0,1,.3.15v.13a.39.39,0,0,1-.26.49h0Z"/><path class="cls-7" d="M1309.66,1304.52c-6.36-.11-13.2.17-18.29-4.13a30.06,30.06,0,0,1-5.89-7.16c-.74-1.19-2.92-4.76-2-6.17,1.65-2.58,9.2,7.88,10.26,8.9a30.82,30.82,0,0,0,14,7.27l1,.74a35.16,35.16,0,0,1-10.54-4c-4.5-2.68-7-6.67-10.52-10.37-.78-.8-3.07-3.51-3.94-1.82-.56,1.1,1.56,4.59,2,5.32a29.55,29.55,0,0,0,5.58,6.82c5,4.33,11.88,4.33,18.27,4.52Z"/><path class="cls-6" d="M1313.27,1309.39a3.91,3.91,0,0,1-.17.84h0a.24.24,0,0,1-.13.15.35.35,0,0,1-.39-.15.25.25,0,0,1,0-.17v-.37h0c-1.3-4.78-1.8-9.76-3.14-14.52s-2.88-9.05-3.81-13.7c-.58-2.94-2.62-17.66,3.87-15.82,2.88.8,4.85,5,5.93,7.47a29.69,29.69,0,0,1,2.38,10.59C1318.38,1292.62,1315.09,1300.78,1313.27,1309.39Z"/><path class="cls-7" d="M1315.44,1291.06a35.46,35.46,0,0,0-1-10c-.28-1.13-1.71-6.49-3.53-6.49-1.19,0-1.39,2.4-1.49,3.18a31.58,31.58,0,0,0,1.28,9.81,137,137,0,0,1,2.4,19.68c0,.43-.13.84-.17,1.26a3.76,3.76,0,0,1-.13,1v.65a.35.35,0,0,0,.39.15,2.06,2.06,0,0,1,.11-.82v.67h0l.13-.69v-1.25A154.22,154.22,0,0,0,1315.44,1291.06Zm-2.17,14.87c-.17-3.87-.56-7.71-1.1-11.54-.45-3.1-1-6.15-1.67-9.2a31.72,31.72,0,0,1-.84-5.22c0-1.34.15-6.3,2.71-3.23,1.84,2.16,2.29,7,2.51,9.74a49.73,49.73,0,0,1-.17,9.13c-.46,3.46-1,6.9-1.44,10.32Z"/><path class="cls-6" d="M1317.17,1329.2h-.28c-6.6-.32-15.39.28-20.89-4.09-4-3.23-8-9.59-6.75-15,1.45-6.1,9.7,1.21,11.88,3a201.87,201.87,0,0,1,16.17,15.74h0S1317.32,1329.18,1317.17,1329.2Z"/><path class="cls-7" d="M1317.39,1329l-1.13-.71c-4.33-2.75-8.66-5.67-12.64-8.79-1-.78-8.46-7.4-9.59-5-.67,1.45,1.78,4.33,2.58,5.35a20.25,20.25,0,0,0,5,4.46c4.33,2.75,9.74,3.33,14.72,4.65l.71.19h.11C1317.32,1329.18,1317.45,1329.11,1317.39,1329Zm-13-3.77a20.77,20.77,0,0,1-5.69-3.85c-1.13-1.06-5-5-4-6.62.54-.87,1-.41,2.16.11.48.24,1,.52,1.41.8,1.1.74,2.16,1.58,3.16,2.4q2.7,2.16,5.52,4.22c3.07,2.16,6.23,4.33,9.46,6.34a99.58,99.58,0,0,1-12.1-3.38Z"/><path class="cls-6" d="M1329.23,1315.6a39.13,39.13,0,0,1-11.32,19.76h-.13a.26.26,0,0,1-.32-.11.32.32,0,0,1,0-.39l.35-.32c1.08-9,2.29-17.9,3.23-26.91.22-2.16,1.86-15.63,6-13.42,2.55,1.34,2.73,6.88,2.94,9.37A39.46,39.46,0,0,1,1329.23,1315.6Z"/><path class="cls-7" d="M1326.82,1303.63c-.22-.74-.61-1.52-1.45-1-1.62,1-2.16,7.36-2.51,9.11-1.13,7.25-2.84,14.2-4.57,21.3l-.45,1.8-.39.54a.27.27,0,0,0,.32.11v-.17l.54-.71h0a46.25,46.25,0,0,0,6.49-12.73,45,45,0,0,0,1.93-8.88A25.45,25.45,0,0,0,1326.82,1303.63Zm-8.46,30.48-.26.35a2.83,2.83,0,0,1,.24-.71,131.29,131.29,0,0,0,4-16.47c.5-2.84.8-5.69,1.36-8.51.26-1.19.84-4.57,1.82-5.13s1,.78,1.06,1.54a14.16,14.16,0,0,1,0,2.06,45.57,45.57,0,0,1-8.25,26.82Z"/><path class="cls-6" d="M1319,1354.72h-1.41v-3.46c-.15-4.7-.35-9.39-.63-14.07-.15-2.68-.35-5.35-.63-8v-.91a1.58,1.58,0,0,0-.11-.71,57.17,57.17,0,0,0-4.52-17.32c-.84-1.82-1.75-3.59-2.73-5.37a3.53,3.53,0,0,0-.28-.5v-.15c0-.17-.19-.35-.3-.52s-.14-.26-.22-.39c-3-5.37-6.49-10.5-9.87-15.67l-2.81-4.46a1,1,0,0,1-.17-.28,1.66,1.66,0,0,1-.22-.32c-4.16-6.49-8.27-13.18-12.58-19.63-.17-.24.22-.45.37-.22,2.92,4.33,5.95,8.49,9,12.73l1.19,1.69c.8,1.1,1.58,2.16,2.36,3.33,1.56,2.16,3.12,4.48,4.63,6.75a190.16,190.16,0,0,1,12.14,19.68c.26.5.5,1,.76,1.54a9.71,9.71,0,0,1,.43,1c.13.32.35.76.52,1.15a60.54,60.54,0,0,1,4.46,20.78v2.21a2.29,2.29,0,0,0,0,.37,3.84,3.84,0,0,0,0,.48h0v1.65c.19,4.68.3,9.37.41,14.05C1318.9,1351.73,1318.94,1353.23,1319,1354.72Z"/><path class="cls-6" d="M1279.59,1269.76c-3.61-4.85-8.25-14.87-2.92-20.09a5.66,5.66,0,0,1,7.55-.56c2.81,2,4.07,5.89,5,9.07,2.42,8.51,4,17.17,7.1,25.5,0,0,.26.71.32.89s-.22.26-.28,0a6.21,6.21,0,0,0-.3-.82C1290.33,1279.65,1283.88,1275.49,1279.59,1269.76Z"/><path class="cls-7" d="M1296.37,1283.7a.38.38,0,0,0,0-.15,59.23,59.23,0,0,1-3.38-6.28,121.59,121.59,0,0,1-5.2-13.94c-.58-1.82-3.18-10.82-6.36-7.19a8.1,8.1,0,0,0-1,6,22.17,22.17,0,0,0,2.79,8.36,40.54,40.54,0,0,0,12,12.53l.63.5.15.22a.38.38,0,0,0,0,.15h0a.22.22,0,0,0,.28-.12h0Zm-1.41-1a47.3,47.3,0,0,1-10.17-10.2,25.37,25.37,0,0,1-3.31-6.75,21.06,21.06,0,0,1-.67-3.25,15,15,0,0,1-.15-2.51c0-1.84.82-3.83,1.9-4s1.8.54,2.68,2.16a17.19,17.19,0,0,1,.78,1.62,42.46,42.46,0,0,1,1.52,4.22c.74,2.36,1.49,4.72,2.36,7,.56,1.58,1.19,3.16,1.86,4.7a61.48,61.48,0,0,0,4,7.68Z"/><path class="cls-6" d="M913.35,1283.35c-.61,4.83-1.52,9.59-2.49,14.35-.56,2.68-1.15,5.37-1.69,8.07a19.88,19.88,0,0,0-.67,9h0a2.81,2.81,0,0,1,0,.41h0a.37.37,0,0,1-.52,0,.36.36,0,0,1-.11-.16v-.19h0a13.09,13.09,0,0,1-1-2.49,66.28,66.28,0,0,1-2.38-7,59.75,59.75,0,0,1-2.47-14.78,51.52,51.52,0,0,1,1.41-13.38c.87-3.51,2.16-8.66,4.7-11.41s4.33,1.47,5,3.42C914.65,1273.65,913.92,1278.78,913.35,1283.35Z"/><path class="cls-7" d="M909.05,1273.13c-1.78,0-3,5.67-3.66,8.12a48.56,48.56,0,0,0-1.52,11.82,63.36,63.36,0,0,0,3.64,21,2.66,2.66,0,0,0,.28.82h0v.19a.37.37,0,0,0,.47.22.33.33,0,0,0,.15-.11c-.11-.58-.19-1.17-.28-1.78a13.85,13.85,0,0,0-.15-1.58,83.69,83.69,0,0,1,1.08-17.32C910,1287.81,911.36,1273.13,909.05,1273.13Zm-1.28,39.9a12.19,12.19,0,0,0,.37,2.32c-.19-.56-.37-1.1-.54-1.67a71.15,71.15,0,0,1-3.31-18.53,50.77,50.77,0,0,1,.78-10.59,48.13,48.13,0,0,1,1.36-5.54c.24-.76,1.52-5.52,2.62-5.28.76.17.93,4.46,1,4.55v2.58c0,1.75-.15,3.53-.28,5.28-.35,3.81-.89,7.62-1.34,11.43a65.26,65.26,0,0,0-.66,15.42Z"/><path class="cls-6" d="M941,1296.66a45.75,45.75,0,0,1-14.27,15.15c-3,2.16-6.13,4.33-9.18,6.49a51.38,51.38,0,0,0-7.92,6.1l-.3.32a14.15,14.15,0,0,0-1.65,2.27.2.2,0,0,1-.15,0,1.31,1.31,0,0,1,0,.28h-.11a1.5,1.5,0,0,0,0-.3h0a.21.21,0,0,1,0-.24h0v-.32c.93-7.36,6.06-14.78,10.41-20.46a39.39,39.39,0,0,1,16.43-13.25c1.69-.65,5.54-2.45,7.25-1.06S941.71,1295.32,941,1296.66Z"/><path class="cls-7" d="M936,1296.69c-1.54-1.54-6,2.16-7.19,3.14a77.62,77.62,0,0,0-9.33,9.07,67.44,67.44,0,0,0-11.93,17.32h0l-.15.19v.32h0a.19.19,0,0,0,0,.26.78.78,0,0,1,.22-.26c.56-.69,1.15-1.36,1.75-2l.3-.32a145,145,0,0,1,14-12.32,69.94,69.94,0,0,0,9.29-9C933.61,1302.2,937.32,1298,936,1296.69Zm-1.41,3.37c-3.81,6.32-10.41,10.82-16,15.52A75.41,75.41,0,0,0,908,1325.67a71.58,71.58,0,0,1,11-15.52,103.21,103.21,0,0,1,7.58-7.79,38.94,38.94,0,0,1,4.61-3.68,15.43,15.43,0,0,1,3.12-1.69c2.14-.63,1,2,.32,3.07Z"/><path class="cls-6" d="M906.69,1342a.42.42,0,0,1-.32.19v.11m0,.16a.14.14,0,0,1-.17,0A64.11,64.11,0,0,1,891.51,1321a34,34,0,0,1-2.16-10.59c0-2.47-.19-7.45,1.93-9.26,4.33-3.61,8.14,11.75,8.66,14.07,1.06,4.33,1.75,8.66,2.73,12.79,1.06,4.65,2.47,9.2,3.85,13.77a.23.23,0,0,1,.17.24Z"/><path class="cls-7" d="M906.69,1342c-.24-.39-.45-.78-.67-1.19a71,71,0,0,1-7.68-20.65,62.21,62.21,0,0,0-2.84-10.82c-.35-.87-1.41-4.13-2.81-2.49-.71.87-.13,7.08.17,8.66a45.06,45.06,0,0,0,3.46,10.56,74.75,74.75,0,0,0,9.76,15.87,2.86,2.86,0,0,0,.35.43m0-.15v-.11a.47.47,0,0,0,.26-.11Zm-8.4-13.44a53.9,53.9,0,0,1-4.09-10.24,37.34,37.34,0,0,1-.89-4.33,21.73,21.73,0,0,1-.3-3.42c0-2.81.26-3.55.71-3.64s.69.24,1.54,1.93a19.3,19.3,0,0,1,1.19,3.4q.64,2.51,1.17,5c.74,3.36,1.41,6.73,2.38,10a55.63,55.63,0,0,0,5.93,13.44,86,86,0,0,1-7.64-12.14Z"/><path class="cls-6" d="M925.8,1327.25a20.75,20.75,0,0,1-3.9,8.12c-3.55,4.89-8.07,9-11.93,13.57-.58.69-1.15,1.41-1.69,2.16a9.29,9.29,0,0,1-.5,1A3.48,3.48,0,0,1,908,1351h0a86.65,86.65,0,0,1,5.2-18,43.46,43.46,0,0,1,5.65-8.83c1.08-1.23,3.66-3.92,5.61-3.33S926.1,1325.69,925.8,1327.25Z"/><path class="cls-7" d="M922.66,1325.28c-2.16-1.28-7.4,8.25-8.14,9.48a61.07,61.07,0,0,0-6.08,14.55c-.17.56-.3,1.15-.45,1.73a6.37,6.37,0,0,0-.19,1.06s.43-.93.5-1l.28-.37c.45-.61.93-1.19,1.41-1.73,2.32-3.49,4.7-6.93,7-10.43a57,57,0,0,0,4.33-7.94C921.47,1330,923.63,1325.82,922.66,1325.28Zm-.61,2.68c-2.94,8.31-8.94,14.85-13.53,22.21l-.24.35a4.84,4.84,0,0,0,.19-.65,67.28,67.28,0,0,1,9-18.94,35.57,35.57,0,0,1,2.55-3.53c.43-.48,1.65-1.73,2.16-1.52s.09,1.56-.11,2.06h0Z"/><path class="cls-6" d="M946.6,1258.78c-6.15,14.14-22.3,20.72-29.31,34.35h0c-.22.41-.41.84-.61,1.28a.3.3,0,0,1-.43,0h0a.21.21,0,0,1,0-.24,1.4,1.4,0,0,1,.15-.3,73.15,73.15,0,0,1,8.66-24.74,37.38,37.38,0,0,1,15.15-16c1.67-.84,4.89-2.64,6.73-1.23S947.45,1257.05,946.6,1258.78Z"/><path class="cls-7" d="M941.06,1259.39c-.78-.58-2,.13-2.64.48a24,24,0,0,0-4.68,3.18,40.21,40.21,0,0,0-7.45,8.85,81.13,81.13,0,0,0-8.66,17.79,43.43,43.43,0,0,0-1.21,4.33l-.13.54a.3.3,0,0,0,.43,0h0c.17-.42.37-.83.58-1.23v-.11a46.81,46.81,0,0,1,4.33-8,110.35,110.35,0,0,1,9.2-10.93C932.14,1272.77,943.77,1261.38,941.06,1259.39Zm-1,3.27a52,52,0,0,1-7.29,8.85c-2.55,2.86-5.13,5.67-7.64,8.66a54.7,54.7,0,0,0-5.39,7.36,42.12,42.12,0,0,0-3.36,6.8,59,59,0,0,1,2.4-7.08h0a104.49,104.49,0,0,1,6-11.91v-.13a49.19,49.19,0,0,1,6.82-9.5,27.27,27.27,0,0,1,5-4.29c2-1.3,3.79-2.16,4.33-1.49S940.63,1261.68,940.06,1262.66Z"/><path class="cls-6" d="M925.11,1275.36c-1.84,4-3.61,8-5.37,12.08-.82,1.9-1.65,3.79-2.45,5.69v.11l-.89,2.06a127.31,127.31,0,0,0-7.27,19.16,57.75,57.75,0,0,0-1.47,10.63v1.1h0v.61a1.71,1.71,0,0,0,0,.32c-.11,3.1,0,6.21,0,9.24,0,4.22.43,8.4.84,12.58a2.29,2.29,0,0,0,0,.37,5.23,5.23,0,0,1,0,.56v.3a4.86,4.86,0,0,0,0,.54c.13,1.34.26,2.68.37,4h-1.3a82.88,82.88,0,0,1-1.54-12.45,1.13,1.13,0,0,1,0-.26v-2.7c0-1.21,0-2.4-.11-3.59a90,90,0,0,1,1.47-20.85,5.12,5.12,0,0,0,.15-.56,1,1,0,0,1,0-.24v-.39l.17-.65.32-1.13.11-.35a137.75,137.75,0,0,1,7.1-17.14l1.43-3,.8-1.69,1.26-2.53h0c2-4,4-7.9,6-11.91C924.89,1275,925.19,1275.17,925.11,1275.36Z"/></g><g id="freepik--Floor--inject-328"><polygon class="cls-8" points="670.69 1354.87 780.46 1354.33 890.23 1354.14 1109.8 1353.79 1329.36 1354.14 1439.13 1354.33 1548.92 1354.87 1439.13 1355.39 1329.36 1355.59 1109.8 1355.95 890.23 1355.59 780.46 1355.39 670.69 1354.87"/></g><g id="freepik--screen-1--inject-328"><g class="cls-9"><path class="cls-6" d="M729.55,720.32c0-12.25,54.94-30.63,142.26-45.78,109.66-19,209.3-23.42,246.62-12.73l.45,244.43c-37.3-10.69-137-6.32-246.62,12.73C784.94,934.12,730,952.5,730,964.75,729.88,927,729.7,758.14,729.55,720.32Z"/></g><path class="cls-6" d="M808.37,908.71q-8.26,2.16-16.56,4.55V896.68q8.3-2.35,16.56-4.55Z"/><path class="cls-10" d="M1002.41,868.82a855,855,0,0,0-182.52,25.24v-4.91a856.26,856.26,0,0,1,182.52-25.26Z"/><path class="cls-10" d="M937.81,884.88a864.77,864.77,0,0,0-117.93,20.89v-4.91A865,865,0,0,1,937.81,880Z"/><path class="cls-10" d="M780.88,732.75a856.34,856.34,0,0,1,143.34-30.31,813.52,813.52,0,0,1,143.34-4.91,851.87,851.87,0,0,0-143.34,5.52A890.25,890.25,0,0,0,780.88,732.75Z"/><path class="cls-10" d="M780.88,761.08a857.33,857.33,0,0,1,143.34-30.31,814.45,814.45,0,0,1,143.34-4.83,848.73,848.73,0,0,0-143.34,5.52A890.27,890.27,0,0,0,780.88,761.08Z"/><path class="cls-10" d="M780.88,789.4a856.34,856.34,0,0,1,143.34-30.31,814.46,814.46,0,0,1,143.34-4.85,851.88,851.88,0,0,0-143.34,5.54A891.35,891.35,0,0,0,780.88,789.4Z"/><path class="cls-10" d="M780.88,817.73a857.33,857.33,0,0,1,143.34-30.31,814.45,814.45,0,0,1,143.34-4.83,848.73,848.73,0,0,0-143.34,5.52A890.27,890.27,0,0,0,780.88,817.73Z"/><path class="cls-10" d="M780.88,846.05a856.34,856.34,0,0,1,143.34-30.31,814.46,814.46,0,0,1,143.34-4.85,851.88,851.88,0,0,0-143.34,5.54A891.35,891.35,0,0,0,780.88,846.05Z"/><path class="cls-10" d="M838.39,699.26c.43,26.37.32,52.86.5,79.29-.17,26.5,0,53-.5,79.51-.41-26.37-.3-52.86-.48-79.29C838.09,752.27,838,725.82,838.39,699.26Z"/><path class="cls-10" d="M888.05,689.52c.43,26.41.32,52.88.5,79.33-.17,26.5,0,52.95-.5,79.46-.41-26.39-.32-52.86-.5-79.31C887.74,742.51,887.64,716.06,888.05,689.52Z"/><path class="cls-10" d="M937.81,682.77c.41,26.43.3,52.9.48,79.36-.17,26.47,0,52.93-.48,79.44-.43-26.41-.32-52.9-.5-79.33C937.49,735.74,937.38,709.28,937.81,682.77Z"/><path class="cls-10" d="M987.51,679c.43,26.45.32,52.93.5,79.38-.17,26.47,0,52.93-.5,79.42-.41-26.45-.3-52.93-.48-79.38C987.21,731.93,987.1,705.47,987.51,679Z"/><path class="cls-10" d="M1037.06,678.16c.43,26.47.32,53,.5,79.4-.17,26.47,0,53-.5,79.4-.41-26.47-.3-53-.48-79.4C1036.76,731.08,1036.65,704.61,1037.06,678.16Z"/><path class="cls-11" d="M788.06,823.4c8.66-2.49,13.88-32.73,26.24-35.93s13.66,17.6,24.09,15.15,10.11-39.14,24.16-42,10.82,12.86,25.5,10.35,9.16-36.26,24.55-38.44,9.18,46.61,25.22,44.79c10.13-1,14.07-16.62,26.17-17.56,8-.58,12.73,6.71,23.21,6.19s12.8-29.76,25.8-30,14.52,17.19,24.09,17.32,13-28.14,30.5-27.34V838a851.46,851.46,0,0,0-279.5,33.1Z"/><path class="cls-6" d="M788.06,824.79V822c2.62-.76,6.26-8.51,8.9-14.16,4.57-9.7,9.29-19.7,17.32-21.78s11.58,3.51,15,8.31c2.66,3.79,5.41,7.71,9.11,6.88,3.27-.76,6.1-10.22,8.16-17.14,3.38-11.32,6.88-23,16-24.85,8.14-1.6,11.34,2.16,14.16,5.43s5.09,5.95,11.34,4.91c5.65-.93,7.88-9.39,10-17.58,2.51-9.61,5.13-19.48,14.52-20.87s11.71,10.5,14.24,22.92c2,10,4.57,22.56,11,21.86,3.81-.39,6.93-3.85,10.24-7.51,4-4.46,8.66-9.5,15.93-10a21.14,21.14,0,0,1,11.19,2.94,23.33,23.33,0,0,0,12,3.25c3.61-.17,6.93-7.25,9.59-13,3.9-8.33,7.92-17,16.19-17.1s12.25,5.41,15.82,10.3c2.6,3.55,5,6.93,8.27,7,2.75,0,5.87-5.28,8.66-10,4.68-8,10.52-17.95,21.88-17.32v2.75c-8.66-.43-13.81,8.18-18.27,15.76-3.83,6.49-6.86,11.67-12.23,11.6s-8.66-4.16-11.75-8.49-6.49-8.88-12.34-8.79c-5.43,0-9.18,8-12.47,15.15-3.68,7.88-6.86,14.65-13.31,15a27.78,27.78,0,0,1-14.44-3.68,17.07,17.07,0,0,0-8.77-2.51c-5.28.39-9.07,4.52-12.71,8.66s-7.6,8.4-13.46,9c-9.83,1.06-12.27-11-14.89-23.81-2-9.7-4.33-21.8-10.33-21s-8.66,10-10.67,18c-2.55,9.76-5,18.94-13.88,20.41s-11.93-2.38-14.83-5.76-4.91-5.71-10.67-4.59-9.42,12.66-12.17,21.88c-3.12,10.43-5.58,18.66-12,20.09s-9.42-3-12.71-7.68c-3.07-4.33-6.23-8.81-11.39-7.49s-10,11.13-13.68,19C796.57,816.46,793.37,823.25,788.06,824.79Z"/><path class="cls-10" d="M788.06,714c.3,26,.58,52.19.61,78.36s.19,52.3.3,78.45l-.91-.39a872.2,872.2,0,0,1,139.79-28.14q35-4,70-5.2t69.66.93q-34.63-1.6-69.66-.22T928,843.16a869.38,869.38,0,0,0-139.79,28.51l-.93.26v-.65q.13-39.33.28-78.62C787.46,766.47,787.74,740.22,788.06,714Z"/></g><g id="freepik--Robot--inject-328"><path class="cls-12" d="M1076.52,1449.81c8.12-.78,107.5-4.94,108.88-4.94s5.35,15.74,4.33,17.84-79.51,24-95.24,25.24c-23.81,1.86-71.13-10-73.21-11.1s-.37-13.7,1.39-16C1023.62,1459.68,1068.43,1450.59,1076.52,1449.81Z"/><path class="cls-6" d="M1025.48,1463.82s13.9-28.14,31.13-38.49c6.78-4,42.38-12,42.38-12l61.78-14.83s16.39,20.69,17.92,26.56,4,26.58,4,26.58-70.65,24.11-92.41,24.14C1051.74,1475.79,1025.48,1463.82,1025.48,1463.82Z"/><path class="cls-6" d="M1083.6,1111.41c-9.18,13-25.41,122-21.28,132.46s49.79,22.3,61.17,13,21.65-137.3,13.59-146.61-19.35-14.68-28.42-13.64S1091.48,1100.33,1083.6,1111.41Z"/><g class="cls-13"><path d="M1121.05,1116.65a1.69,1.69,0,1,1-.8-2.34l.25.13A1.72,1.72,0,0,1,1121.05,1116.65Zm0,0a1.25,1.25,0,0,0-.46-1.71h0a.94.94,0,0,0-.23-.1,1.3,1.3,0,0,0-1.21,2.26,1.22,1.22,0,0,0,1.9-.45Z"/><path d="M1121.51,1132.47a1.67,1.67,0,0,1-2.16.8,1.73,1.73,0,0,1-1-2.25h0a1,1,0,0,1,.07-.15,1.69,1.69,0,0,1,2.28-.72h0l.21.13A1.67,1.67,0,0,1,1121.51,1132.47Zm0,0a1.25,1.25,0,0,0-.46-1.71h0a.94.94,0,0,0-.23-.1,1.3,1.3,0,0,0-1.21,2.26,1.29,1.29,0,0,0,1.79-.25A1.28,1.28,0,0,1,1121.51,1132.47Z"/><path d="M1121.92,1148.58a1.69,1.69,0,1,1-.8-2.34l.25.13A1.72,1.72,0,0,1,1121.92,1148.58Zm0,0a1.26,1.26,0,0,0-.47-1.73h0l-.22-.1a1.32,1.32,0,0,0-1.56.63,1.3,1.3,0,0,0,.35,1.65,1.29,1.29,0,0,0,1.79-.25Z"/><path d="M1120.73,1164.88a1.71,1.71,0,1,1-3.14-1.36,2,2,0,0,1,.13-.25,1.71,1.71,0,1,1,3.14,1.36h0A2,2,0,0,1,1120.73,1164.88Zm0,0a1.3,1.3,0,0,0-.53-1.76l-.18-.08a1.32,1.32,0,0,0-1.56.63,1.3,1.3,0,0,0,.42,1.79,1.29,1.29,0,0,0,1.69-.28C1120.63,1165.08,1120.68,1165,1120.73,1164.88Z"/><path d="M1120.08,1180.55a1.69,1.69,0,1,1-.69-2.29l.19.12A1.67,1.67,0,0,1,1120.08,1180.55Zm0,0a1.28,1.28,0,0,0-1.87-1.75h0a1.67,1.67,0,0,0,0,2.18,1.29,1.29,0,0,0,1.79-.35v0Z"/><path d="M1118.87,1194.86a1.69,1.69,0,1,1-.7-2.32l.21.13A1.7,1.7,0,0,1,1118.87,1194.86Zm0,0a1.28,1.28,0,0,0-1.87-1.75,1.67,1.67,0,0,0,0,2.18,1.29,1.29,0,0,0,1.79-.35v0Z"/><path d="M1117,1209.28a1.71,1.71,0,1,1-.73-2.31l.23.14A1.71,1.71,0,0,1,1117,1209.28Zm0,0a1.3,1.3,0,0,0-.53-1.76l-.18-.08a1.29,1.29,0,0,0-1.54.61,1.33,1.33,0,0,0,.32,1.65,1.3,1.3,0,0,0,1.82-.25A1,1,0,0,0,1117,1209.28Z"/><path d="M1115.19,1223.26a1.69,1.69,0,1,1-.69-2.29l.19.12A1.71,1.71,0,0,1,1115.19,1223.26Zm0,0a1.27,1.27,0,0,0-.5-1.72h0l-.2-.09a1.26,1.26,0,0,0-1.54.61,1.28,1.28,0,1,0,1.87,1.75h0a1.33,1.33,0,0,0,.3-.53h.08Z"/><path d="M1113.54,1236.23a1.71,1.71,0,0,1-3.21-1.17.69.69,0,0,1,.05-.13,2.68,2.68,0,0,1,.18-.33,1.75,1.75,0,0,1,2.36-.67l.13.08A1.74,1.74,0,0,1,1113.54,1236.23Zm0,0a1.31,1.31,0,0,0-.56-1.78l-.13-.06a1.32,1.32,0,0,0-1.56.63,1.28,1.28,0,1,0,1.87,1.75h0a1.33,1.33,0,0,0,.3-.53h.08Z"/><path d="M1110.94,1249.52a1.71,1.71,0,1,1-3.14-1.36,2,2,0,0,1,.13-.25,1.71,1.71,0,0,1,3,1.61Zm0,0a1.27,1.27,0,0,0-.5-1.72h0l-.2-.09a1.26,1.26,0,0,0-1.54.61,1.29,1.29,0,0,0,.32,1.65,1.3,1.3,0,0,0,1.82-.26C1110.87,1249.63,1110.91,1249.58,1110.94,1249.52Z"/><path d="M1125.6,1107.32a295.33,295.33,0,0,1,1.08,36.67c-.28,12.23-1.06,24.46-2.16,36.65-.63,6.08-1.26,12.17-2.16,18.25s-1.65,12.12-2.53,18.16-2,12.08-3,18.12l-3.57,18,3.16-18.07c.93-6,2-12.06,2.86-18.1s1.73-12.12,2.38-18.18,1.34-12.17,1.93-18.25c1.17-12.17,2-24.35,2.4-36.58.17-6.1.28-12.21.19-18.31S1126.12,1113.43,1125.6,1107.32Z"/></g><path class="cls-6" d="M1062.5,1269.19c-1.43,8.46,33.88,132.65,40,137.65s50.41-4.33,57.36-14.7.15-76.24-2-88.86-33.49-49.79-36.8-48C1092.74,1270.43,1063.75,1261.77,1062.5,1269.19Z"/><g class="cls-13"><path d="M1116.51,1274.37a1.71,1.71,0,1,1-1.39-2h.22A1.7,1.7,0,0,1,1116.51,1274.37Zm0,0a1.32,1.32,0,1,0-1.22,1.41,1.33,1.33,0,0,0,1.22-1.22A.25.25,0,0,1,1116.51,1274.37Z"/><path d="M1125.16,1285.34a1.69,1.69,0,0,1-1.75,1.41,1.71,1.71,0,0,1-1.6-1.81v-.18a1.69,1.69,0,1,1,3.33.58h0Zm0,0a1.28,1.28,0,1,0-1.69,1,1.26,1.26,0,0,0,1.62-.77h0A.79.79,0,0,0,1125.16,1285.34Z"/><path d="M1133.41,1296.06a1.74,1.74,0,0,1-1.75,1.43,1.71,1.71,0,1,1,.27-3.41l.31.05A1.71,1.71,0,0,1,1133.41,1296.06Zm0,0a1.32,1.32,0,1,0-.05.19A1.32,1.32,0,0,0,1133.41,1296.06Z"/><path d="M1139.75,1307a1.71,1.71,0,1,1-1.36-2h.2A1.73,1.73,0,0,1,1139.75,1307Zm0,0a1.34,1.34,0,1,0,0,.17A.49.49,0,0,0,1139.75,1307Z"/><path d="M1142.7,1321.21a1.69,1.69,0,1,1-3.33-.59h0a1.69,1.69,0,0,1,3.33.59Zm0,0a1.28,1.28,0,0,0-2.48-.6v.18a1.28,1.28,0,1,0,2.43.8,1.17,1.17,0,0,0,0-.2Z"/><path d="M1146,1351a1.75,1.75,0,1,1,0-.07S1146,1351,1146,1351Zm0,0a1.28,1.28,0,0,0-2.48-.6v.18a1.28,1.28,0,1,0,2.43.8,1.17,1.17,0,0,0,0-.2Z"/><path d="M1149.86,1382a1.69,1.69,0,1,1-3.31-.68,1.68,1.68,0,0,1,2-1.32h.18A1.71,1.71,0,0,1,1149.86,1382Zm0,0a1.32,1.32,0,1,0-1.22,1.41,1.33,1.33,0,0,0,1.22-1.22A.61.61,0,0,0,1149.86,1382Z"/><path d="M1144.43,1335.87a1.71,1.71,0,1,1-1.39-2h.21A1.73,1.73,0,0,1,1144.43,1335.87Zm0,0a1.28,1.28,0,1,0-2.53-.43h0a1.3,1.3,0,0,0,.82,1.45,1.33,1.33,0,0,0,1.67-.84Z"/><path d="M1147.4,1366.19a1.74,1.74,0,0,1-1.75,1.43,1.71,1.71,0,1,1,.27-3.41h.31A1.73,1.73,0,0,1,1147.4,1366.19Zm0,0a1.28,1.28,0,0,0-2.48-.6v.18a1.27,1.27,0,0,0,2.46.62Z"/><path d="M1116.61,1265.17c6.82,8.38,13.49,16.91,19.76,25.72,1.58,2.16,3.12,4.33,4.57,6.73.74,1.13,1.43,2.32,2.16,3.51.35.61.61,1.28.91,1.9a14.06,14.06,0,0,1,.63,2,115.92,115.92,0,0,1,3,16c1.39,10.82,2.34,21.52,3.25,32.3l1.26,16.17c.41,5.37.8,10.82,1.34,16.15-.74-5.35-1.34-10.82-2-16.11l-1.71-16.08c-1.08-10.82-2-21.52-3.51-32.21a119.93,119.93,0,0,0-2.86-15.85c-.22-.63-.37-1.28-.61-1.9a14.34,14.34,0,0,0-.82-1.78c-.63-1.17-1.3-2.32-2-3.46-1.41-2.27-2.92-4.5-4.33-6.75-3-4.46-6.21-8.83-9.39-13.2S1119.86,1269.48,1116.61,1265.17Z"/></g><path class="cls-12" d="M1061.52,1257.29c.74-7,3.53-35.72,5.2-36.52s8.66-2.27,10,.76,4.33,32.34,7.34,33.64,28.79,4.91,41.5-2.64c2.38-1.41,3.2,9.35.91,11.17s-22.27,9.5-40.61,6.93c-2-.28-6.49,35.09-9,36.56s-9,1.3-10.54-.39S1060,1270.9,1061.52,1257.29Z"/><ellipse class="cls-10" cx="1072.1" cy="1262.89" rx="25.52" ry="18.36" transform="translate(-220.41 2299.08) rotate(-88.39)"/><path class="cls-12" d="M1102.48,1406.84c-6.73-1.19-4.07,9.39,9.16,11.26,20.07,2.81,50.24-11.21,52.51-17.79s-2.16-12.62-3.27-10.39S1126.55,1411.11,1102.48,1406.84Z"/><path class="cls-8" d="M1087.78,1098.53c-4.7,11.19,8.66,23.81,19.27,28.14,18.12,7.58,28.62,5.26,33.51-3.12,4.33-7.53,1.17-28-16.26-35C1105.92,1081.32,1090,1093.34,1087.78,1098.53Z"/><path class="cls-6" d="M1195.17,1445.33l7.92-41.37,59.12-8.31s29.31,45.46,29.18,45.31S1195.17,1445.33,1195.17,1445.33Z"/><path class="cls-14" d="M1195.17,1445.33l7.92-41.37,59.12-8.31s29.31,45.46,29.18,45.31S1195.17,1445.33,1195.17,1445.33Z"/><path class="cls-12" d="M1179.06,1471.16s53.23-4.33,62-5.43,70.55,5.43,70.55,5.43,2.88,14.24,2.53,15.59-56.09,20.74-80.09,19.72-59.92-15.65-59.87-16.67S1179.06,1471.16,1179.06,1471.16Z"/><path class="cls-6" d="M1180.21,1479.79s32.32,12.75,50.24,13,78.56-17.32,78.56-17.32-11.45-33.66-30.31-48.19-55.24-11-69.14-1.47S1180.21,1479.79,1180.21,1479.79Z"/><path class="cls-6" d="M1201.06,1107c10.72,11.65,40.52,117.87,37.71,128.73s-46.61,28.36-59,20.65-38.77-133.49-31.89-143.75,17.32-17,26.47-17.1S1191.84,1097,1201.06,1107Z"/><g class="cls-13"><path d="M1158.74,1118a1.74,1.74,0,0,1,2.44.14.76.76,0,0,1,.11.14,1.72,1.72,0,0,1-.39,2.39h0l-.16.1a1.69,1.69,0,0,1-2.16-.52A1.72,1.72,0,0,1,1158.74,1118Zm1.73,2.45a1.3,1.3,0,0,0,.13-1.67,1.27,1.27,0,0,0-1.6-.43,1.31,1.31,0,0,0,1.47,2.17h0Z"/><path d="M1160.28,1133.75a1.71,1.71,0,1,1,2.3,2.53,1.29,1.29,0,0,1-.3.22,1.67,1.67,0,0,1-2.16-.5A1.71,1.71,0,0,1,1160.28,1133.75Zm1.73,2.43a1.32,1.32,0,1,0-1.69-2,1.31,1.31,0,0,0-.31,1.65l.09.14a1.3,1.3,0,0,0,1.8.35l.14-.12Z"/><path d="M1161.9,1149.77a1.71,1.71,0,1,1,2.42,2.42l-.15.13a1.65,1.65,0,0,1-2.33-.12l-.14-.18A1.71,1.71,0,0,1,1161.9,1149.77Zm1.73,2.42a1.3,1.3,0,1,0-1.88-.09,1.32,1.32,0,0,0,1.87,0h0v.09Z"/><path d="M1165.15,1165.79a1.71,1.71,0,1,1,2.42,2.42l-.15.13a1.65,1.65,0,0,1-2.33-.12l-.14-.18A1.7,1.7,0,0,1,1165.15,1165.79Zm1.73,2.42a1.3,1.3,0,0,0,.11-1.67,1.26,1.26,0,0,0-1.6-.41,1.3,1.3,0,0,0-.57,1.75h0a.86.86,0,0,0,.1.16,1.31,1.31,0,0,0,1.81.31Z"/><path d="M1167.74,1181.27a1.72,1.72,0,1,1,0,2.43,1.72,1.72,0,0,1,0-2.43Zm1.73,2.42a1.13,1.13,0,1,0-.17.18l.17-.11Z"/><path d="M1170.73,1195.4a1.74,1.74,0,0,1,2.44.14.76.76,0,0,1,.11.14,1.72,1.72,0,0,1-.39,2.39h0l-.16.1a1.69,1.69,0,0,1-2.16-.52A1.72,1.72,0,0,1,1170.73,1195.4Zm1.73,2.43a1.26,1.26,0,0,0,.13-1.65,1.31,1.31,0,1,0-2.17,1.47,1.26,1.26,0,0,0,1.74.43h0a1.15,1.15,0,0,0,.39-.37Z"/><path d="M1174.41,1209.34a1.74,1.74,0,0,1,2.44.14.76.76,0,0,1,.11.14,1.72,1.72,0,0,1-.39,2.39h0l-.16.1a1.69,1.69,0,0,1-2.16-.52A1.72,1.72,0,0,1,1174.41,1209.34Zm1.73,2.43a1.4,1.4,0,1,0-1.76-2.17,1.39,1.39,0,0,0-.21,2,1.41,1.41,0,0,0,1.83.31A.71.71,0,0,0,1176.14,1211.77Z"/><path d="M1178,1223a1.72,1.72,0,1,1,0,2.43,1.72,1.72,0,0,1,0-2.43Zm1.73,2.43a1.33,1.33,0,1,0-.14.11Z"/><path d="M1181.23,1235.66a1.73,1.73,0,1,1,0,2.45,1.23,1.23,0,0,1-.23-.28A1.74,1.74,0,0,1,1181.23,1235.66Zm1.73,2.43a1.53,1.53,0,1,0-1.73-2.52,1.53,1.53,0,0,0,1.6,2.6l.11-.09h0Z"/><path d="M1185.56,1248.56A1.71,1.71,0,0,1,1188,1251l-.15.13a1.73,1.73,0,0,1-.31.22,1.67,1.67,0,0,1-2.16-.52A1.71,1.71,0,0,1,1185.56,1248.56Zm1.73,2.45a1.3,1.3,0,0,0-1.84-1.84,1.31,1.31,0,0,0-.16,1.64,1.29,1.29,0,0,0,1.81.24h0Z"/><path d="M1152.85,1111.54a296.19,296.19,0,0,0,3.53,36.52c1.82,12.1,4.11,24.14,6.71,36.08,1.39,6,2.77,11.93,4.33,17.84s3.16,11.82,4.81,17.71,3.51,11.73,5.24,17.6l5.8,17.32-5.41-17.53c-1.67-5.87-3.51-11.71-5.09-17.62s-3.25-11.78-4.65-17.73-2.86-11.88-4.2-17.84c-2.68-11.93-5.09-23.92-7-36-.93-6-1.8-12.08-2.47-18.16S1153.09,1117.65,1152.85,1111.54Z"/></g><path class="cls-6" d="M1244.65,1248c2,3.18,12.17,28.51,16.08,57.86,5,37.36,3.48,80.48,1.45,84.42-3.64,7-48,16-58.45,9.13s-21.65-67.6-24-82.45c-2.06-12.64-1-58.45,2.75-58.12C1214.39,1261.57,1240.58,1241.68,1244.65,1248Z"/><g class="cls-13"><path d="M1190,1263.44a1.73,1.73,0,0,1,2.43.29h0l.1.14a1.71,1.71,0,0,1-2.88,1.82A1.75,1.75,0,0,1,1190,1263.44Zm1.6,2.53a1.28,1.28,0,0,0,.22-1.65,1.25,1.25,0,0,0-1.58-.52,1.33,1.33,0,0,0-.66,1.75.54.54,0,0,0,.07.13,1.3,1.3,0,0,0,1.79.4l.18-.08Z"/><path d="M1190.62,1279.28a1.71,1.71,0,1,1-.17,2.41h0a1.44,1.44,0,0,1-.18-.25A1.69,1.69,0,0,1,1190.62,1279.28Zm1.61,2.51a1.3,1.3,0,0,0,.09-1.83,1.28,1.28,0,0,0-1.45-.33,1.33,1.33,0,0,0-.66,1.75.54.54,0,0,0,.07.13,1.3,1.3,0,0,0,1.79.4Z"/><path d="M1191.29,1295.36a1.71,1.71,0,0,1,2.41.24h0l.13.17a1.71,1.71,0,0,1-2.71,2.09,1.24,1.24,0,0,1-.17-.27A1.7,1.7,0,0,1,1191.29,1295.36Zm1.61,2.52a1.28,1.28,0,0,0,.22-1.65,1.33,1.33,0,0,0-1.58-.52,1.3,1.3,0,1,0,1,2.4A1.38,1.38,0,0,0,1192.9,1297.88Z"/><path d="M1193.59,1311.53a1.73,1.73,0,0,1,2.43.29h0l.1.14a1.71,1.71,0,1,1-2.53-.43Zm1.6,2.54a1.28,1.28,0,0,0,.22-1.65,1.25,1.25,0,0,0-1.58-.52,1.3,1.3,0,0,0,1,2.4,1.05,1.05,0,0,0,.36-.23Z"/><path d="M1195.28,1327.14a1.73,1.73,0,0,1,2.43.29h0l.1.14a1.69,1.69,0,1,1-2.53-.43Zm1.6,2.53a1.32,1.32,0,0,0,0-1.87,1.33,1.33,0,0,0-1.32-.3,1.28,1.28,0,0,0-.7,1.67h0a1.51,1.51,0,0,0,.11.22,1.32,1.32,0,0,0,1.84.3l.11-.08Z"/><path d="M1197.44,1341.34a1.71,1.71,0,0,1,2.41.24h0l.13.17a1.71,1.71,0,0,1-2.71,2.09,1.24,1.24,0,0,1-.17-.27A1.68,1.68,0,0,1,1197.44,1341.34Zm1.6,2.51a1.3,1.3,0,0,0,.09-1.83,1.28,1.28,0,0,0-1.45-.33,1.3,1.3,0,1,0,1,2.4,1.08,1.08,0,0,0,.32-.24Z"/><path d="M1200.3,1355.59a1.7,1.7,0,0,1,2.38.23,1.27,1.27,0,0,1,.13.19,1.71,1.71,0,0,1-.52,2.36l-.19.11a1.72,1.72,0,0,1-1.8-2.89Zm1.58,2.51a1.26,1.26,0,1,0-.15.12Z"/><path d="M1203,1369.42a1.73,1.73,0,0,1,2.43.29h0l.1.14a1.72,1.72,0,0,1-.55,2.36l-.17.09a1.68,1.68,0,0,1-2.16-.63A1.74,1.74,0,0,1,1203,1369.42Zm1.58,2.53a1.26,1.26,0,1,0-.17.13A1.09,1.09,0,0,0,1204.58,1372Z"/><path d="M1205.54,1382.25a1.7,1.7,0,0,1,2.38.23,1.27,1.27,0,0,1,.13.19,1.71,1.71,0,1,1-2.51-.42Zm1.58,2.52a1.3,1.3,0,0,0,.09-1.83,1.28,1.28,0,0,0-1.45-.33,1.33,1.33,0,0,0-.66,1.75.54.54,0,0,0,.07.13,1.3,1.3,0,0,0,1.77.48,1,1,0,0,0,.26-.2Z"/><path d="M1209,1395.39a1.71,1.71,0,0,1,2.41.24h0l.13.17a1.71,1.71,0,0,1-2.71,2.09,1.24,1.24,0,0,1-.17-.27A1.7,1.7,0,0,1,1209,1395.39Zm1.6,2.51a1.29,1.29,0,1,0-.16.12.57.57,0,0,0,.18-.12Z"/><path d="M1184.78,1260.56a281.78,281.78,0,0,0,1.3,35.7c1.08,11.86,2.66,23.66,4.52,35.44,1,5.87,2,11.73,3.25,17.58s2.42,11.67,3.72,17.47,2.77,11.6,4.16,17.32l4.74,17.32-4.33-17.32c-1.34-5.8-2.81-11.58-4-17.32s-2.51-11.65-3.57-17.49-2.16-11.71-3.12-17.58q-3-17.6-4.78-35.37c-.56-5.91-1.06-11.84-1.36-17.79S1184.67,1266.51,1184.78,1260.56Z"/></g><path class="cls-12" d="M1230.52,1242.68c-3-6.49-15.15-32.6-16.91-32.79s-9,.71-9.22,4,6.49,31.95,4.11,34.18a36,36,0,0,1-28.72,7.21c-2.71-.56,0,9.89,2.79,10.82s12.84,5.61,29.31-2.88c1.75-.89,15.52,33.68,18.4,34.24s8.9-1.73,9.83-3.85S1236.34,1255.06,1230.52,1242.68Z"/><path class="cls-10" d="M1196.38,1261.31a25.52,25.52,0,1,0,14.81-32.92,25.52,25.52,0,0,0-14.81,32.92Z"/><path class="cls-12" d="M1262,1388.83c5.65-3.85,7.55,6.93-3.74,14-17.17,10.82-50.41,10.37-55.18,5.3s-3.14-12.43-1.28-10.82S1241.84,1402.6,1262,1388.83Z"/><path class="cls-8" d="M1197.2,1098.51c4.22,10.82-8.94,22.56-19,26.52-17.49,6.8-27.47,4.33-31.93-3.77-4-7.29-.48-26.8,16.34-33C1180.3,1081.65,1195.26,1093.49,1197.2,1098.51Z"/><path class="cls-6" d="M1022.52,985c-5.63,8.33-2.16,49.53,7.92,54.72s74.53-37.19,77.52-43.9,12-47.47,4.76-47.17S1034,967.83,1022.52,985Z"/><g class="cls-13"><path d="M1100,986.9a1.81,1.81,0,0,1-2-1.39,1.85,1.85,0,0,1,3.56-1,1.69,1.69,0,0,1,.06.55A1.83,1.83,0,0,1,1100,986.9Zm0,0a1.37,1.37,0,0,0,1.21-1.53h0v-.21a1.39,1.39,0,0,0-2.72.33,1.41,1.41,0,0,0,1.38,1.44h0Z"/><path d="M1084.94,995.84a1.82,1.82,0,1,1,1.61-2h0v.21A1.81,1.81,0,0,1,1084.94,995.84Zm0,0a1.36,1.36,0,0,0,1.21-1.49h0a.86.86,0,0,0-.05-.23,1.4,1.4,0,0,0-1.49-1,1.37,1.37,0,1,0,.33,2.73Z"/><path d="M1070.83,1004.91a1.82,1.82,0,1,1,1.64-2,.61.61,0,0,1,0,.19A1.85,1.85,0,0,1,1070.83,1004.91Zm0,0a1.37,1.37,0,1,0-1.54-1.43,1.39,1.39,0,0,0,1.35,1.43h.19Z"/><path d="M1057.45,1012.64a1.82,1.82,0,1,1,1.6-2v0a1.81,1.81,0,0,1-1.6,2Zm0,0a1.37,1.37,0,1,0-1.52-1.21A1.39,1.39,0,0,0,1057.45,1012.64Z"/><path d="M1043.64,1019.83a1.86,1.86,0,1,1,1.57-2.35,1.69,1.69,0,0,1,.06.55A1.85,1.85,0,0,1,1043.64,1019.83Zm0,0a1.41,1.41,0,0,0,1.23-1.57h0v-.19a1.38,1.38,0,0,0-1.49-1,1.36,1.36,0,0,0-1.23,1.3,1.39,1.39,0,0,0,1.33,1.44Z"/><path d="M1030.24,1026.84a1.82,1.82,0,1,1-.61-3.59l.18,0h0a1.82,1.82,0,0,1,.43,3.61Zm0,0a1.36,1.36,0,1,0-1.56-1.43,1.41,1.41,0,0,0,1.38,1.44h.18Z"/><path d="M1106.83,988.89c-5.82,4.11-11.73,8.07-17.69,12s-12,7.64-18.1,11.32-12.27,7.25-18.53,10.65-12.62,6.49-19.14,9.48c6.49-3.18,12.6-6.6,18.79-10.09s12.32-7.12,18.4-10.82,12.14-7.4,18.18-11.15S1100.83,992.72,1106.83,988.89Z"/></g><path class="cls-6" d="M1006.37,1038.64c-16.3,0-83-53.36-82.13-65.63s30-38.49,41.13-36.93,47.38,38.14,52,46.24S1023.75,1038.64,1006.37,1038.64Z"/><g class="cls-13"><path d="M979.31,1007.92a1.82,1.82,0,1,1,2.47.72h0l-.18.08A1.88,1.88,0,0,1,979.31,1007.92Zm0,0a1.38,1.38,0,0,0,2.5-1.18h0a1.62,1.62,0,0,0-.1-.18,1.38,1.38,0,1,0-2.5,1.18h0A1.62,1.62,0,0,0,979.31,1007.92Z"/><path d="M967.27,998.05a1.84,1.84,0,1,1,2.52.67h0l-.22.11A1.86,1.86,0,0,1,967.27,998.05Zm0,0a1.38,1.38,0,0,0,2.4-1.38,1.37,1.37,0,0,0-1.68-.6,1.41,1.41,0,0,0-.72,2Z"/><path d="M955.56,988.48a1.82,1.82,0,1,1,3.16-1.82h0a1.82,1.82,0,0,1-3.16,1.82Zm0,0a1.38,1.38,0,0,0,1.89.5h0a.91.91,0,0,0,.16-.11,1.39,1.39,0,0,0-1.71-2.19,1.4,1.4,0,0,0-.44,1.6Z"/><path d="M944.7,979.65a1.82,1.82,0,1,1,3.16-1.82h0a1.82,1.82,0,0,1-3.16,1.82Zm0,0a1.36,1.36,0,1,0,.69-2,1.37,1.37,0,0,0-.79,1.78h0A2,2,0,0,0,944.7,979.65Z"/><path d="M975.82,1009.24a66.68,66.68,0,0,1-10.82-6.8c-3.42-2.53-6.67-5.28-9.85-8.1s-6.21-5.8-9.2-8.81l-4.33-4.61-4.22-4.76,9.09,8.88c3.1,2.9,6.13,5.84,9.33,8.66s6.36,5.58,9.65,8.23q2.49,2,5.07,3.83A55.93,55.93,0,0,0,975.82,1009.24Z"/></g><path class="cls-12" d="M1017,1043.53c-19.63-3.1-36.8-18.59-37.34-20.17s3.7-6.06,6.49-7,23.7,8.31,25.17,5.69,9.22-30,3.55-43c-1-2.34,10.82-1.49,12.27.76s2.92,26.65-1.15,43.14c-.43,1.75,29.33-3.74,30.46-1.3s3.94,6.1,2.16,7.38S1037.24,1046.71,1017,1043.53Z"/><path class="cls-10" d="M1021,1013.57c12.84,1.69,22.27,10.52,21.06,19.76s-12.6,15.35-25.43,13.66-22.25-10.52-21-19.74S1008.16,1011.92,1021,1013.57Z"/><path class="cls-12" d="M920.93,970.28c5,5,18.85-.17,28.14-8s19-20.56,16.3-26.26c-1.86-4-11.58-6.32-30,7.25S918.5,967.83,920.93,970.28Z"/><path class="cls-6" d="M923.14,965.71c8.29,2.16,34-19.05,35.15-28.14.37-3-23-43-30.76-43s-38.16,35-33.55,43.29S918.76,964.54,923.14,965.71Z"/><path class="cls-12" d="M893.63,937.16c2.77,1.62,8.38-1.26,11.36-5.87,4.18-6.49,3.83-11,1.88-13-1.39-1.39-7.53-1.26-12.43,6.3C890.49,930.66,891.45,935.86,893.63,937.16Z"/><path class="cls-12" d="M911,901.58c.59,2.78,5.89,4.27,10.62,2.93,6.62-1.89,9.23-5.25,9.34-7.78.06-1.8-3.77-5.47-11.52-3.3C913.2,895.19,910.51,899.36,911,901.58Z"/><path class="cls-6" d="M929.87,895.34c-.69-5.69-4.59-21.42-6.57-22.51-5.74-3.15-12.1,2-12.54,5.24-.28,1.93-1,20.29,2.42,22.6C918.38,904,930.26,899,929.87,895.34Z"/><path class="cls-12" d="M910.27,877.84c1.16,2.35,5.36,2.22,8.83.83,4.56-1.83,5.87-5.38,4.77-7.35-.71-1.29-4.29-2.82-8.61-.2C912.1,873,909.38,875.92,910.27,877.84Z"/><path class="cls-6" d="M910.14,876.87c-4-3-12.12-10.7-13.65-17-1-4.2,1.92-5.74,4.75-4.81s20,11.76,21,16.15S913.36,879.33,910.14,876.87Z"/><path class="cls-12" d="M910.81,905c1.32,2.74,7.23,3,11.83.41,6.43-3.59,8.3-7.73,7.78-10.38-.4-1.88-5.33-4.74-12.86-.58C911.48,897.85,909.73,902.85,910.81,905Z"/><path class="cls-6" d="M928.92,893.88c-2.17-5.72-10.23-21.08-12.58-21.72-6.79-1.84-12.13,5-11.76,8.54.2,2.07,4.08,21.29,8.27,22.83C919.13,905.74,930.24,897.54,928.92,893.88Z"/><path class="cls-12" d="M904,880.59c1.81,2.15,6.16,1,9.43-1.32,4.29-3,4.76-7,3.11-8.8-1.07-1.16-5.2-1.86-9,1.92C904.7,875.15,902.59,878.82,904,880.59Z"/><path class="cls-6" d="M903.63,879.62c-5-2.16-15.37-8.1-18.56-14.23-2.13-4.1.54-6.42,3.74-6.16s23.89,7.24,26,11.55S907.62,881.37,903.63,879.62Z"/><path class="cls-12" d="M912.4,909c2.16,2.29,8.42,1,12.51-2.71,5.71-5.15,6.49-9.63,5.2-12.06-1-1.71-6.93-3.18-13.64,2.81C911.06,901.9,910.65,907.18,912.4,909Z"/><path class="cls-6" d="M928.2,893.5c-3.9-5-16.71-17.66-19.35-17.66-7.64,0-11.28,8-9.89,11.32.8,2,10.33,19.48,15.15,19.87C921.32,907.5,930.63,896.68,928.2,893.5Z"/><path class="cls-6" d="M891.51,933.48c-2.79-5.74-9.16-21.13-7.64-25.74s5.15-7.58,7.64-7,14.85,14.78,15.15,19.48S893.83,938.35,891.51,933.48Z"/><path class="cls-12" d="M898.33,887.2c2.51,1.6,6.73-.67,9.5-3.74,3.64-4.05,3-8,.76-9.31-1.45-.84-6-.43-8.92,4.22C897.51,881.76,896.34,885.86,898.33,887.2Z"/><path class="cls-12" d="M883.46,909.3c.78,2.4,5.56,2.32,8.66.26s4.68-5.5,3.16-7.29a6.27,6.27,0,0,0-8.66.43C884,905.06,882.77,907.24,883.46,909.3Z"/><path class="cls-6" d="M897.66,886.35c-5.82-.78-18.4-3.79-23.49-8.88-3.4-3.4-1.26-6.34,2.16-6.93s27.08.74,30.54,4.33S902.33,887,897.66,886.35Z"/><path class="cls-6" d="M884.3,908.32c-2-1.8-.43-16,1.3-19.29s5.52-4.48,6.93-2.16,2.64,15.28,2,17.21C893.76,906.27,887.12,910.84,884.3,908.32Z"/><path class="cls-12" d="M1086.37,1055.5c0,4.65,2.16,41.6,6.49,45.74s21.65,11.69,34.79,14.18c17.56,3.33,41.58-1.17,51-6.91s23-56.28,20.43-58.45-57.15-12.68-77.86-10.52S1086.29,1051.3,1086.37,1055.5Z"/><path class="cls-8" d="M1093.19,1099.16a181.37,181.37,0,0,0,20.22,8.83,73.12,73.12,0,0,0,21.65,4.78,110.27,110.27,0,0,0,21.93-1.41,206.62,206.62,0,0,0,21.3-4.48,167.32,167.32,0,0,1-21.21,4.83,111.79,111.79,0,0,1-22,1.58,73.61,73.61,0,0,1-21.65-5A147.08,147.08,0,0,1,1093.19,1099.16Z"/><path class="cls-8" d="M1092.3,1094a185.92,185.92,0,0,0,21.08,9.2,75.15,75.15,0,0,0,22.38,5,116.62,116.62,0,0,0,22.86-1.45,212.92,212.92,0,0,0,22.19-4.7,174,174,0,0,1-22.1,5,115.86,115.86,0,0,1-23,1.69,76,76,0,0,1-22.58-5.2A154.75,154.75,0,0,1,1092.3,1094Z"/><path class="cls-8" d="M1091.59,1089.33a197,197,0,0,0,21.84,9.55,78.83,78.83,0,0,0,23.27,5.17,119.4,119.4,0,0,0,23.66-1.52,217.59,217.59,0,0,0,23-5,179.4,179.4,0,0,1-22.9,5.22,121,121,0,0,1-23.81,1.69,78.7,78.7,0,0,1-23.38-5.39A160.67,160.67,0,0,1,1091.59,1089.33Z"/><path class="cls-8" d="M1092.48,1085a193.28,193.28,0,0,0,21.84,9.55,79.19,79.19,0,0,0,23.27,5.2,120.92,120.92,0,0,0,23.66-1.52,225.42,225.42,0,0,0,23-4.87,179.33,179.33,0,0,1-22.9,5.2,120.23,120.23,0,0,1-23.81,1.71,79.4,79.4,0,0,1-23.38-5.39A165.41,165.41,0,0,1,1092.48,1085Z"/><path class="cls-8" d="M1091.7,1079.85a199.78,199.78,0,0,0,22.6,9.89,81.65,81.65,0,0,0,24.09,5.37,124.84,124.84,0,0,0,24.5-1.56,230.11,230.11,0,0,0,23.81-5.07,184.64,184.64,0,0,1-23.81,5.39,123.55,123.55,0,0,1-24.59,1.75,81.73,81.73,0,0,1-24.18-5.56A165.84,165.84,0,0,1,1091.7,1079.85Z"/><path class="cls-8" d="M1090.51,1074.29a204.34,204.34,0,0,0,23.21,10.15,83.45,83.45,0,0,0,24.74,5.52,127.06,127.06,0,0,0,25.17-1.62,229.22,229.22,0,0,0,24.46-5.2,189.68,189.68,0,0,1-24.37,5.54,128.75,128.75,0,0,1-25.26,1.8,84.73,84.73,0,0,1-24.87-5.71A177.48,177.48,0,0,1,1090.51,1074.29Z"/><path class="cls-8" d="M1089.6,1069a211.16,211.16,0,0,0,24.09,10.54,87.2,87.2,0,0,0,25.69,5.74,131.61,131.61,0,0,0,26.15-1.69,236.25,236.25,0,0,0,25.39-5.39,199.09,199.09,0,0,1-25.3,5.74,132.53,132.53,0,0,1-26.24,1.86,87.16,87.16,0,0,1-25.82-5.93A181.17,181.17,0,0,1,1089.6,1069Z"/><path class="cls-8" d="M1089.14,1063.9a213.94,213.94,0,0,0,24.74,10.82,89.73,89.73,0,0,0,26.41,5.91,138,138,0,0,0,26.86-1.73,245.37,245.37,0,0,0,26-5.56,204.52,204.52,0,0,1-26,5.89,137.18,137.18,0,0,1-27,1.93,90.45,90.45,0,0,1-26.54-6.1A188,188,0,0,1,1089.14,1063.9Z"/><path class="cls-8" d="M1090.12,1058.64a215,215,0,0,0,24.76,10.82,89.6,89.6,0,0,0,26.39,5.91,139.63,139.63,0,0,0,26.86-1.73,244.26,244.26,0,0,0,26.08-5.54,206.65,206.65,0,0,1-26,5.89,137.18,137.18,0,0,1-27,1.93,90.71,90.71,0,0,1-26.54-6.06A189.32,189.32,0,0,1,1090.12,1058.64Z"/><path class="cls-8" d="M1091.11,1053.38a213.94,213.94,0,0,0,24.74,10.82,89.41,89.41,0,0,0,26.41,5.91,137.23,137.23,0,0,0,26.86-1.75,247.81,247.81,0,0,0,26-5.54,204.52,204.52,0,0,1-26,5.89,136.68,136.68,0,0,1-26.95,1.93,90.77,90.77,0,0,1-26.54-6.1A191.3,191.3,0,0,1,1091.11,1053.38Z"/><path class="cls-8" d="M1092.09,1048.2a215,215,0,0,0,24.76,10.82,88.87,88.87,0,0,0,26.39,5.89,136.45,136.45,0,0,0,26.86-1.73,242.83,242.83,0,0,0,26-5.54,204.52,204.52,0,0,1-26,5.89,133.74,133.74,0,0,1-26.95,1.9,89.91,89.91,0,0,1-26.52-6.08A186.87,186.87,0,0,1,1092.09,1048.2Z"/><path class="cls-8" d="M1093.08,1042.86a213.94,213.94,0,0,0,24.74,10.82,88.76,88.76,0,0,0,26.41,5.89,136.3,136.3,0,0,0,26.84-1.73,244.26,244.26,0,0,0,26.08-5.54,206.65,206.65,0,0,1-26,5.89,135.7,135.7,0,0,1-26.93,1.9,90.11,90.11,0,0,1-26.54-6.08A189.55,189.55,0,0,1,1093.08,1042.86Z"/><path class="cls-12" d="M1120.62,948.63c-8.66-3.79-19.89,3.33-25.87,11.17-9.2,12-15.15,45.89-6.06,48.77S1131.14,953.26,1120.62,948.63Z"/><path class="cls-6" d="M1154.34,937.53c-20.09,0-47.28,11.8-56.09,33.73-7.12,17.69-18.38,76.78-14.09,101.24a14.29,14.29,0,0,0,7,9c8,0,16.06-28.14,30.46-30.31,17-2.51,21.84,48.68,51.69,44.44,6-.84,19.22-9.78,23.51-19,3.61-7.77,20.39-82.26,13.23-105.59C1204.52,953,1176,937.61,1154.34,937.53Z"/><g class="cls-13"><path d="M1188.65,1015.89a2.17,2.17,0,1,1-.6-3h0l.14.11A2.14,2.14,0,0,1,1188.65,1015.89Zm0,0a1.65,1.65,0,0,0-.5-2.29h0a1,1,0,0,0-.23-.12,1.64,1.64,0,0,0-2.06.65,1.65,1.65,0,0,0,2.63,2h0A.83.83,0,0,0,1188.65,1015.89Z"/><path d="M1184.84,1034.33a2.17,2.17,0,1,1-.6-3h0l.14.11A2.15,2.15,0,0,1,1184.84,1034.33Zm0,0a1.67,1.67,0,1,0-2.52.37,1.69,1.69,0,0,0,2.38-.19Z"/><path d="M1181.23,1052.25a2.16,2.16,0,1,1-.59-3l.14.1A2.16,2.16,0,0,1,1181.23,1052.25Zm0,0a1.68,1.68,0,0,0-2.71-2,1.74,1.74,0,0,0-.11.18,1.68,1.68,0,1,0,2.71,2h0A1.74,1.74,0,0,0,1181.23,1052.25Z"/><path d="M1177.85,1068.85a2.16,2.16,0,0,1-2.81.82,2.21,2.21,0,0,1,2.38-3.72A2.16,2.16,0,0,1,1177.85,1068.85Zm0,0a1.67,1.67,0,1,0-2.52.37,1.69,1.69,0,0,0,2.38-.19A.62.62,0,0,0,1177.85,1068.85Z"/><path d="M1173.22,1085.87a2.21,2.21,0,1,1-.73-3l.06,0A2.2,2.2,0,0,1,1173.22,1085.87Zm0,0a1.68,1.68,0,0,0-.51-2.32h0l-.22-.12a1.67,1.67,0,1,0-1.52,3,.72.72,0,0,0,.2.09A1.66,1.66,0,0,0,1173.22,1085.87Z"/><path d="M1194.22,1011.21a161.18,161.18,0,0,1-2.86,20.63c-1.3,6.82-2.86,13.59-4.5,20.33s-3.53,13.44-5.48,20.09l-3,10-3.25,9.87,5.48-20.07c1.78-6.71,3.59-13.4,5.22-20.13s3.27-13.46,4.76-20.22q1.11-5.1,2-10.2C1193.22,1018.09,1193.78,1014.67,1194.22,1011.21Z"/></g><path class="cls-12" d="M1194.76,956.49c9.37-.41,17.32,10.3,20.09,19.76,4.33,14.55-2.47,48.27-12,47.62S1183.26,957,1194.76,956.49Z"/><path class="cls-12" d="M1115.75,988.37c-3.2,11.84,1.71,23.44,11,26s19.35-5,22.56-16.88-1.71-23.44-11-26S1119,976.55,1115.75,988.37Z"/><path class="cls-6" d="M1117,988.63c-2.71,10,1.45,19.78,9.24,21.88s16.34-4.33,19-14.22-1.43-19.76-9.24-21.88S1119.73,978.68,1117,988.63Z"/><path class="cls-6" d="M1300.72,1053c10.54,12.43,10.72,83.3.76,90.55s-48.7,2.16-54.7-7.4-1.6-60.78,1.67-69.44S1289.46,1039.72,1300.72,1053Z"/><g class="cls-13"><path d="M1293.62,1078.79a1.82,1.82,0,1,1-1.15-2.3h0l.31.13A1.87,1.87,0,0,1,1293.62,1078.79Zm0,0a1.38,1.38,0,0,0-.8-1.78h0l-.2-.06a1.35,1.35,0,0,0-1.56.89,1.39,1.39,0,0,0,.58,1.69,1.41,1.41,0,0,0,1.91-.56Z"/><path d="M1293.79,1094.38a1.84,1.84,0,1,1-1.08-2.37l.21.1A1.83,1.83,0,0,1,1293.79,1094.38Zm0,0a1.38,1.38,0,0,0-2.46-1.26,1.39,1.39,0,1,0,2.38,1.42Z"/><path d="M1293.79,1109.51a1.82,1.82,0,1,1-1-2.37h0l.18.08A1.83,1.83,0,0,1,1293.79,1109.51Zm0,0a1.37,1.37,0,1,0-2,.71,1.4,1.4,0,0,0,1.89-.53A1.74,1.74,0,0,0,1293.79,1109.51Z"/><path d="M1293.9,1123.51a1.84,1.84,0,1,1-1.08-2.37l.21.1A1.84,1.84,0,0,1,1293.9,1123.51Zm0,0a1.38,1.38,0,1,0-2.46-1.26,1.39,1.39,0,1,0,2.38,1.42A.8.8,0,0,0,1293.9,1123.51Z"/><path d="M1296.82,1080.67a69,69,0,0,1,1.62,12.64c.22,4.33.17,8.49,0,12.73s-.52,8.49-.93,12.73l-.76,6.32-1,6.28,1-12.66c.28-4.33.61-8.46.71-12.68s.24-8.46.17-12.68c0-2.16-.11-4.33-.26-6.34A49.92,49.92,0,0,0,1296.82,1080.67Z"/></g><path class="cls-6" d="M1252.86,1059.18c9.72,2.55,47.45-14.35,49.07-25.5s-85.07-73.25-98.79-73.88c-7.34-.32-2.81,28.14,1.56,42.67C1206.79,1009.35,1232.81,1053.88,1252.86,1059.18Z"/><g class="cls-13"><path d="M1205.19,971.94a1.84,1.84,0,0,1-2.83,2.36,2.2,2.2,0,0,1-.17-.25,1.35,1.35,0,0,1-.15-.26,1.84,1.84,0,0,1,2.83-2.36,2.2,2.2,0,0,1,.17.25A1.35,1.35,0,0,1,1205.19,971.94Zm0,0a1.38,1.38,0,1,0-2.46,1.26.17.17,0,0,0,.08.14,1.38,1.38,0,0,0,1.92.37h0A1.37,1.37,0,0,0,1205.19,971.94Z"/><path d="M1219.46,982.12a1.84,1.84,0,0,1-3,2.11,1.35,1.35,0,0,1-.15-.26,1.84,1.84,0,0,1,3-2.11Zm0,0A1.4,1.4,0,1,0,1219,984a1.39,1.39,0,0,0,.61-1.7A2,2,0,0,0,1219.46,982.12Z"/><path d="M1233.46,991.43a1.81,1.81,0,1,1-2.48-.66l.19-.1A1.83,1.83,0,0,1,1233.46,991.43Zm0,0a1.41,1.41,0,0,0-1.91-.55,1.44,1.44,0,0,0-.25.18,1.4,1.4,0,1,0,2.27.6A1.63,1.63,0,0,0,1233.46,991.43Z"/><path d="M1245.91,1000.58a1.82,1.82,0,1,1-2.49-.67h0l.17-.08A1.85,1.85,0,0,1,1245.91,1000.58Zm0,0a1.41,1.41,0,0,0-1.91-.55,1.44,1.44,0,0,0-.25.18,1.4,1.4,0,1,0,2.27.61A2.56,2.56,0,0,0,1245.91,1000.58Z"/><path d="M1258.05,1010.24a1.82,1.82,0,0,1-3.11,1.9l0-.06h0a1.82,1.82,0,0,1,3.14-1.84Zm0,0a1.37,1.37,0,1,0-2.45,1.22.83.83,0,0,0,.09.16,1.37,1.37,0,0,0,2.46-1.17h0A1.24,1.24,0,0,0,1258.05,1010.24Z"/><path d="M1270,1019.67a1.82,1.82,0,1,1-2.49-.67h0l.17-.08A1.83,1.83,0,0,1,1270,1019.67Zm0,0a1.38,1.38,0,0,0-1.87-.57h0a1.94,1.94,0,0,0-.29.21,1.4,1.4,0,1,0,2.27.61A1.89,1.89,0,0,0,1270,1019.67Z"/><path d="M1204.26,964.91c6.1,3.66,12.12,7.47,18.07,11.36s11.82,7.92,17.66,12,11.58,8.29,17.32,12.66,11.15,8.88,16.41,13.66c-5.5-4.55-11.15-8.85-16.84-13.12s-11.47-8.4-17.32-12.47-11.67-8.14-17.53-12.14S1210.19,968.85,1204.26,964.91Z"/></g><path class="cls-12" d="M1309.94,1045.17c3.55,19.48-.54,40.78-1.86,41.84s-8.33-1.23-10.17-3.64-3.42-25.35-6.49-25.87-29.35,1-43.7,10.82c-2.16,1.43-3-9.72-1.39-11.82s24.2-11.52,41.13-13.1c1.82-.17-11.08-25.65-11.23-28.34-.22-3.85,5-7.06,6.73-5.89S1306.28,1025,1309.94,1045.17Z"/><path class="cls-10" d="M1280.35,1051.19c-2.64-12.68,2.62-24.48,11.73-26.39s18.64,6.84,21.28,19.48-2.62,24.48-11.73,26.39S1283,1063.85,1280.35,1051.19Z"/><path class="cls-12" d="M1302.58,1140c-.8-7-14.94-11.52-27-11.06s-27.62,4.46-29,10.59c-1,4.33,5.2,12.12,28,12.79S1303,1143.45,1302.58,1140Z"/><path class="cls-6" d="M1296,1139.12c-6.08-6.08-39-.67-44.55,6.67-1.86,2.42-4.16,49.79,2.58,53.64s58-10.48,58.27-20S1299.05,1142.19,1296,1139.12Z"/><path class="cls-12" d="M1273,1194.71c-.58-3.16-6.49-5.54-11.86-4.78-7.64,1.06-10.82,4.33-11.1,7.06-.15,2,4,6.49,12.88,5.33C1270,1201.33,1273.4,1197.22,1273,1194.71Z"/><path class="cls-6" d="M1251.17,1198.67c.43,6.28,3.9,24,6.1,25.48,6.3,4.33,13.83-.32,14.55-3.81.41-2.06,2.42-22-1.36-24.92C1264.7,1191.07,1250.89,1194.75,1251.17,1198.67Z"/><path class="cls-12" d="M1272.34,1220.64c-1.17-2.71-5.93-3.23-10-2.16-5.28,1.3-7,5-5.84,7.29.74,1.49,4.7,3.7,9.74,1.49C1270,1225.71,1273.29,1222.81,1272.34,1220.64Z"/><path class="cls-6" d="M1271.45,1223.41c3.81,4.48,11.19,15.15,11.6,22.3.26,4.78-3.29,5.56-6.26,3.7s-19.7-18.62-19.87-23.59S1268.33,1219.77,1271.45,1223.41Z"/><path class="cls-12" d="M1290.11,1190.14c-.67-3.14-6.6-5.33-12-4.33-7.6,1.32-10.72,4.63-10.82,7.42,0,2,4.18,6.39,13,4.89C1287.47,1196.85,1290.65,1192.63,1290.11,1190.14Z"/><path class="cls-6" d="M1268.49,1194.84c.65,6.26,4.72,23.81,7,25.26,6.49,4.09,13.83-.78,14.42-4.33.35-2.16,1.69-22.06-2.16-24.87C1281.76,1186.74,1268.07,1190.92,1268.49,1194.84Z"/><path class="cls-12" d="M1290.39,1216.07c-1.26-2.66-6-3-10-1.88-5.22,1.47-6.8,5.2-5.58,7.49.78,1.47,4.83,3.53,9.81,1.17C1288.18,1221.12,1291.41,1218.22,1290.39,1216.07Z"/><path class="cls-6" d="M1289.59,1218.89c4,4.33,11.71,14.7,12.34,21.88.43,4.76-3.1,5.65-6.13,3.92s-20.3-18-20.65-22.9S1286.37,1215.34,1289.59,1218.89Z"/><path class="cls-12" d="M1304,1181.92c-1.28-2.81-7.27-3.68-12.19-1.71-6.91,2.77-9.18,6.49-8.66,9.18.3,1.86,5.2,5.17,13.27,2C1302.82,1188.78,1305,1184.14,1304,1181.92Z"/><path class="cls-6" d="M1284.53,1190.68c1.88,5.78,9.24,21.52,11.65,22.4,6.91,2.55,12.86-3.53,12.71-6.95,0-2-2.84-21.13-7.08-23C1295.39,1180.25,1283.36,1187.07,1284.53,1190.68Z"/><path class="cls-12" d="M1309.44,1206.22c-1.73-2.27-6.3-1.65-9.83.22-4.63,2.45-5.37,6.28-3.77,8.18,1,1.23,5.24,2.36,9.46-.87C1308.38,1211.51,1310.83,1208.11,1309.44,1206.22Z"/><path class="cls-6" d="M1309.27,1209.1c4.59,3.29,14,11.49,16,18.14,1.36,4.33-1.8,6-5,4.91s-22.73-12.81-24-17.43S1305.5,1206.42,1309.27,1209.1Z"/><path class="cls-12" d="M1314.59,1172.41c-1.82-2.16-7.38-1.47-11.26,1.52-5.45,4.18-6.49,8.07-5.48,10.33.74,1.58,5.91,3.31,12.3-1.54C1315.29,1178.8,1316.07,1174.14,1314.59,1172.41Z"/><path class="cls-6" d="M1299.51,1185c3.1,4.68,13.57,16.84,15.91,17,6.78.56,10.56-6.34,9.57-9.35-.56-1.78-7.77-18.07-12-18.68C1306.58,1173.13,1297.58,1182.11,1299.51,1185Z"/><path class="cls-12" d="M1323.62,1189.38c-2.4-1.1-5.84,1.43-7.9,4.5-2.68,4-1.6,7.45.54,8.29,1.39.54,5.3-.39,7.32-4.87C1325,1194.06,1325.52,1190.23,1323.62,1189.38Z"/><path class="cls-6" d="M1324.7,1191.72c5.17.67,16.39,3.23,21,7.71,3,3,1.17,5.63-1.9,6.19s-24.09-.43-27.19-3.59S1320.46,1191.2,1324.7,1191.72Z"/><path class="cls-6" d="M1138.11,962.61c8.85,1.49,24.81-14.07,30-25.28.35-.76-1.3-8.51-2.86-18-.93-5.76-1.82-12.21-2.16-18.14,0-1.21-4.09,1.3-4.09,1.3l-7.55,2.36-25,7.84a94.93,94.93,0,0,1,5,22.58,14.32,14.32,0,0,1,0,2.45,2.81,2.81,0,0,0,0,.41C1130.94,942.79,1129.54,961.16,1138.11,962.61Z"/><path class="cls-8" d="M1131.44,937.81a2.81,2.81,0,0,0,0,.41,24.74,24.74,0,0,0,3.85,0c25-2.16,26.08-34.31,26.08-34.31l-9.89,1.08-25,7.84a95.31,95.31,0,0,1,5,22.43A15.51,15.51,0,0,1,1131.44,937.81Z"/><path class="cls-12" d="M1131.44,938.11c-3.07,4.33-7.25,24.87,5.84,28.14,15.59,3.85,31-17.32,32.6-26,1.17-6.17-2.16-7.66-2.16-7.66-5.39,13.27-15.91,30.31-29.2,27.9C1130,959,1131.44,938.11,1131.44,938.11Z"/><path class="cls-12" d="M1067.41,867.48c-2.16.39-15.15,14.57-15,16.26s6.26,23.81,6.71,25.13,18.25,4.76,18.9,4.13S1069.75,867,1067.41,867.48Z"/><path class="cls-6" d="M1057.11,817.8c-1.3,3.72,15.85,91.5,17.08,94.73s18.94,12.23,23,11.19,89.27-9.81,93.51-11.19,31.11-15.15,33-18.27-6.21-97.41-6.49-100.07-35.44-14.61-38-15-104.6,14.81-107.76,17.1S1058.6,813.58,1057.11,817.8Z"/><path class="cls-8" d="M1144.7,842.42c12.19-2.45,16.19,22.12,4.89,24.37S1134.48,844.46,1144.7,842.42Z"/><path class="cls-8" d="M1091.57,846.8c-12.4,1.06-9.37,25.76,2.16,24.79S1101.94,845.94,1091.57,846.8Z"/><path class="cls-8" d="M1111.87,888.56c7.31.4,22.63-1.3,29.19-5.53-7.87,10.51-14.53,12.08-23.28,8.6Z"/><path class="cls-6" d="M1072.52,912.74c.93,1,10.56-.61,11-1s-13.68-77.54-13.4-79.79,89.29-13,91.82-12.66,13.42,83.1,15.39,83.73,53-8.2,53.23-9.7-9.89-98.9-11-100.16-38.55-15.74-41.13-16S1074,793.32,1071,794.81s-14.37,20.37-15.15,22.71S1071.31,911.46,1072.52,912.74Z"/><path class="cls-15" d="M1072.52,912.74c.93,1,9.46,1.24,11-1,8.43-12.19-5.62-34.94-9.69-58.48a20.91,20.91,0,0,1,17.07-24.15l.71-.11,50.2-6.92a20.89,20.89,0,0,1,23.47,17.26c4.11,24.63-1.21,54.43,12.09,63.68,11.1,7.72,53-8.2,53.23-9.7s-9.89-98.9-10.95-100.16-38.55-15.74-41.13-16S1074,793.31,1071,794.8s-14.37,20.37-15.15,22.71S1071.31,911.46,1072.52,912.74Z"/><path class="cls-12" d="M1197.46,896.68c-2.16-1.32-6.65-35.65-5.54-36.8.76-.84,21.65-6.49,32.47-6.08a52.26,52.26,0,0,1,12.68,3.57c1.47.67,5.09,27.77,4,29.44a106.52,106.52,0,0,1-26,9.55A81.65,81.65,0,0,1,1197.46,896.68Z"/><path class="cls-10" d="M1208.35,863.54c.24-1.1,26.37-6.88,28.72-6.3s6.73,27.32,4,29.44-25.35,11-26.76,9.33S1207,869.49,1208.35,863.54Z"/></g><g id="freepik--screen-2--inject-328"><g class="cls-1"><path class="cls-5" d="M1477.79,1331c0-3.48-3.74-6.49-11.6-9l-.48-262.1c7.86,2.49,11.6,5.56,11.6,9C1477.46,1110.74,1477.66,1289.15,1477.79,1331Z"/><path class="cls-16" d="M1000.55,1391.09l-.48-262.12c0,3.49,3.77,6.49,11.62,9,38.57,12.21,205.1.48,318.51-19.63,90.31-16,147.2-35.89,147.2-49.51l.39,262.12c0,13.59-56.8,33.49-147.2,49.51-113.41,20.11-279.93,31.82-318.51,19.61C1004.31,1397.62,1000.57,1394.55,1000.55,1391.09Z"/><path class="cls-10" d="M1420.12,1134.31a1339.62,1339.62,0,0,1-181.18,35.07,1328.34,1328.34,0,0,1-181.18,10.24,1261.06,1261.06,0,0,0,181.18-9.42A1342.24,1342.24,0,0,0,1420.12,1134.31Z"/><path class="cls-10" d="M1420.12,1146.93A1344.27,1344.27,0,0,1,1238.94,1182a1325.13,1325.13,0,0,1-181.18,10.22,1259.6,1259.6,0,0,0,181.18-9.39A1347.24,1347.24,0,0,0,1420.12,1146.93Z"/><path class="cls-10" d="M1420.12,1159.53a1336.23,1336.23,0,0,1-181.18,35.07,1322,1322,0,0,1-181.18,10.24,1256.75,1256.75,0,0,0,181.18-9.42A1342.24,1342.24,0,0,0,1420.12,1159.53Z"/><path class="cls-10" d="M1420.12,1172.15a1344.27,1344.27,0,0,1-181.18,35.07,1328.34,1328.34,0,0,1-181.18,10.24,1261.06,1261.06,0,0,0,181.18-9.42A1342.24,1342.24,0,0,0,1420.12,1172.15Z"/><path class="cls-10" d="M1420.12,1184.77a1342.72,1342.72,0,0,1-181.18,35.07,1325.55,1325.55,0,0,1-181.1,10.2,1253.89,1253.89,0,0,0,181.18-9.42A1342.54,1342.54,0,0,0,1420.12,1184.77Z"/><path class="cls-10" d="M1420.12,1197.37a1336.23,1336.23,0,0,1-181.18,35.07,1322,1322,0,0,1-181.18,10.24,1256.75,1256.75,0,0,0,181.18-9.42A1342.24,1342.24,0,0,0,1420.12,1197.37Z"/><path class="cls-10" d="M1420.12,1210a1342.72,1342.72,0,0,1-181.18,35.07,1325.13,1325.13,0,0,1-181.18,10.22,1259.6,1259.6,0,0,0,181.18-9.39A1344.13,1344.13,0,0,0,1420.12,1210Z"/><path class="cls-10" d="M1420.12,1222.61a1344.27,1344.27,0,0,1-181.18,35.07,1325.13,1325.13,0,0,1-181.18,10.22,1256.75,1256.75,0,0,0,181.18-9.42A1344,1344,0,0,0,1420.12,1222.61Z"/><path class="cls-10" d="M1420.12,1235.21a1336.23,1336.23,0,0,1-181.18,35.07,1322,1322,0,0,1-181.18,10.24,1256.75,1256.75,0,0,0,181.18-9.42A1342.24,1342.24,0,0,0,1420.12,1235.21Z"/><path class="cls-10" d="M1420.12,1247.83a1344.27,1344.27,0,0,1-181.18,35.07,1325.13,1325.13,0,0,1-181.18,10.22,1259.6,1259.6,0,0,0,181.18-9.39A1344.13,1344.13,0,0,0,1420.12,1247.83Z"/><path class="cls-10" d="M1420.12,1260.45a1342.72,1342.72,0,0,1-181.18,35.07,1324,1324,0,0,1-181.1,10.28,1256.75,1256.75,0,0,0,181.18-9.42A1342.76,1342.76,0,0,0,1420.12,1260.45Z"/><path class="cls-10" d="M1420.12,1273.05a1336.23,1336.23,0,0,1-181.18,35.07,1320.81,1320.81,0,0,1-181.1,10.24,1256.75,1256.75,0,0,0,181.18-9.42A1344.2,1344.2,0,0,0,1420.12,1273.05Z"/><path class="cls-10" d="M1420.12,1285.67a1342.72,1342.72,0,0,1-181.18,35.07A1325.17,1325.17,0,0,1,1057.76,1331a1259.6,1259.6,0,0,0,181.18-9.39A1345.48,1345.48,0,0,0,1420.12,1285.67Z"/><path class="cls-10" d="M1420.12,1298.29a1341,1341,0,0,1-181.18,35,1322,1322,0,0,1-181.18,10.24,1256.75,1256.75,0,0,0,181.18-9.42A1343.9,1343.9,0,0,0,1420.12,1298.29Z"/><path class="cls-10" d="M1420.12,1310.89A1336.34,1336.34,0,0,1,1238.94,1346a1322,1322,0,0,1-181.18,10.24,1261.06,1261.06,0,0,0,181.18-9.42A1345.77,1345.77,0,0,0,1420.12,1310.89Z"/><path class="cls-12" d="M1354.4,1238.46q13.72-2.94,27.45-6.21v103q-13.74,3.24-27.45,6.21Z"/><path class="cls-7" d="M1303.49,1204.84q13.73-2.4,27.49-5.11v146.55c-9.16,1.82-18.33,3.51-27.49,5.13Z"/><path class="cls-5" d="M1252.4,1244.15q13.77-1.86,27.53-4v115.16q-13.77,2.16-27.53,4Z"/><path class="cls-12" d="M1201.3,1211.77q13.77-1.3,27.56-2.92V1362.3q-13.77,1.58-27.56,2.92Z"/><path class="cls-7" d="M1150.25,1236.2c9.16-.5,18.33-1.13,27.51-1.82v132.87q-13.77,1-27.51,1.82Z"/><path class="cls-5" d="M1099.3,1313.31c9.16-.13,18.29-.39,27.45-.71v57.58q-13.73.52-27.45.74Z"/><path class="cls-10" d="M1410.31,1128.06q-.35,25.11-.74,50.22l-.52,50.16c-.35,33.44-.45,66.82-.52,100.2.61-.65,1.19-1.32,1.78-2q-43.86,11.38-88,19.72t-88.32,13.9q-44.16,5.58-88.3,8.16t-87.86,2.47q43.83,1.17,88-.67t88.3-7.14q44.2-5.22,88.32-13.53t87.91-19.94l1.8-.45v-1.54q0-50-.52-99.92-.24-24.93-.5-49.79T1410.31,1128.06Z"/><path class="cls-10" d="M1354.4,1354.14q13.72-2.94,27.45-6.21v-2.16q-13.63,3.33-27.45,6.26Z"/><path class="cls-10" d="M1303.49,1364.09q13.73-2.4,27.49-5.11v-2.16q-13.74,2.7-27.49,5.11Z"/><path class="cls-10" d="M1252.4,1372q13.77-1.85,27.53-4v-2.16q-13.77,2.16-27.53,4Z"/><path class="cls-10" d="M1201.3,1377.9q13.77-1.31,27.56-2.92v-2.16q-13.77,1.62-27.56,2.92Z"/><path class="cls-10" d="M1150.25,1381.78q13.74-.78,27.51-1.84v-2.16q-13.77,1.08-27.51,1.84Z"/><path class="cls-10" d="M1099.3,1383.6q13.73-.21,27.45-.74v-2.16q-13.73.52-27.45.74Z"/></g></g><g class="cls-17"><g class="cls-17"><path d="M513.41,400.51l13.51,38.16,13.45-38.16H554.6v52.61H543.73V438.74l1.08-24.82-14.2,39.2h-7.44L509,414l1.09,24.79v14.38H499.25V400.51Z"/></g><g class="cls-17"><path d="M594.46,442.28h-19l-3.61,10.84H560.31l19.59-52.61h10l19.69,52.61H598.11Zm-16.08-8.78h13.15l-6.61-19.69Z"/></g><g class="cls-17"><path d="M650.43,409.29H634.31v43.83H623.47V409.29H607.58v-8.78h42.85Z"/></g><g class="cls-17"><path d="M697.76,435.6q-.62,8.49-6.27,13.36t-14.91,4.88q-10.11,0-15.91-6.81t-5.8-18.7v-3.21a31.56,31.56,0,0,1,2.67-13.37,20,20,0,0,1,7.64-8.87,21.43,21.43,0,0,1,11.55-3.09q9.1,0,14.67,4.88t6.43,13.69H687c-.27-3.4-1.21-5.86-2.84-7.39s-4.1-2.29-7.42-2.29q-5.43,0-8.11,3.88t-2.77,12.05v4q0,8.52,2.59,12.46t8.14,3.94q5,0,7.5-2.29t2.84-7.1Z"/><path d="M747.69,453.12H736.85V430.57H715.71v22.55H704.88V400.51h10.83v21.32h21.14V400.51h10.84Z"/></g></g><g class="cls-17"><g class="cls-17"><path d="M517.39,508.25l10.94-23.7h11.86l-17.28,33.53v19.08h-11V518.08l-17.27-33.53h11.89Z"/></g><g class="cls-17"><path d="M587.88,512.05a31.75,31.75,0,0,1-2.74,13.62,20.74,20.74,0,0,1-7.86,9,23.24,23.24,0,0,1-23.4,0,20.92,20.92,0,0,1-8-9,30.76,30.76,0,0,1-2.85-13.42v-2.6a31.57,31.57,0,0,1,2.8-13.68,20.8,20.8,0,0,1,7.91-9.07,23.2,23.2,0,0,1,23.38,0,20.86,20.86,0,0,1,7.91,9.07,31.45,31.45,0,0,1,2.8,13.64Zm-11-2.39q0-8.27-3-12.57a10.46,10.46,0,0,0-16.87,0c-2,2.83-3,7-3,12.44v2.57q0,8.06,3,12.5a9.64,9.64,0,0,0,8.53,4.44,9.52,9.52,0,0,0,8.38-4.28c2-2.85,2.94-7,3-12.48Z"/><path d="M635.58,484.55V519.2q0,8.64-5.4,13.66t-14.76,5q-9.23,0-14.64-4.88t-5.53-13.4V484.55h10.84v34.72q0,5.18,2.48,7.54a9.49,9.49,0,0,0,6.85,2.36q9.14,0,9.28-9.61v-35Z"/><path d="M663.94,517.9h-8.63v19.26H644.47V484.55H664q9.33,0,14.38,4.16t5.06,11.74a16.14,16.14,0,0,1-2.33,9,15.94,15.94,0,0,1-7.06,5.73l11.38,21.49v.51H673.81Zm-8.63-8.78h8.74a8.92,8.92,0,0,0,6.32-2.08,7.38,7.38,0,0,0,2.24-5.72,8,8,0,0,0-2.11-5.86q-2.12-2.13-6.49-2.13h-8.7Z"/><path d="M751.42,519.64q-.61,8.49-6.27,13.36t-14.9,4.88q-10.12,0-15.92-6.81t-5.8-18.7v-3.21a31.56,31.56,0,0,1,2.67-13.37,20,20,0,0,1,7.65-8.87,21.39,21.39,0,0,1,11.54-3.09q9.11,0,14.67,4.88t6.43,13.69H740.65c-.26-3.4-1.21-5.86-2.83-7.39s-4.11-2.29-7.43-2.29c-3.61,0-6.32,1.29-8.11,3.88s-2.72,6.61-2.77,12v4q0,8.52,2.59,12.46t8.15,3.94q5,0,7.49-2.29t2.84-7.1Z"/><path d="M788.24,526.32h-19l-3.61,10.84H754.09l19.59-52.61h10l19.69,52.61H791.89Zm-16.08-8.78h13.15l-6.61-19.69Z"/><path d="M851.11,537.16H840.27l-21.1-34.62v34.62H808.33V484.55h10.84l21.14,34.69V484.55h10.8Z"/><path d="M860.58,537.16V484.55h16.18a24.54,24.54,0,0,1,12.42,3.13,21.83,21.83,0,0,1,8.54,8.88,27.42,27.42,0,0,1,3.07,13.1v2.42a27.54,27.54,0,0,1-3,13,21.73,21.73,0,0,1-8.51,8.85,24.73,24.73,0,0,1-12.4,3.18Zm10.84-43.83v35.12h5.24q6.35,0,9.72-4.15t3.43-11.89v-2.78q0-8-3.33-12.16t-9.72-4.14Z"/><path d="M920.2,537.16H909.36V484.55H920.2Z"/></g><g class="cls-17"><path d="M932.74,537.16V484.55h16.18a24.54,24.54,0,0,1,12.42,3.13,21.76,21.76,0,0,1,8.54,8.88,27.42,27.42,0,0,1,3.07,13.1v2.42a27.54,27.54,0,0,1-3,13,21.73,21.73,0,0,1-8.51,8.85,24.7,24.7,0,0,1-12.4,3.18Zm10.84-43.83v35.12h5.24q6.36,0,9.72-4.15T962,512.41v-2.78q0-8-3.33-12.16t-9.72-4.14Z"/></g><g class="cls-17"><path d="M1009.52,526.32h-19l-3.61,10.84H975.37L995,484.55h10l19.69,52.61h-11.52Zm-16.08-8.78h13.15L1000,497.85Z"/></g><g class="cls-17"><path d="M1065.49,493.33h-16.12v43.83h-10.84V493.33h-15.89v-8.78h42.85Z"/><path d="M1103.32,514.36h-20.81v14.09h24.42v8.71h-35.26V484.55h35.19v8.78h-24.35v12.54h20.81Z"/></g></g><g class="cls-17"><g class="cls-17"><path d="M540.22,606l7.08-37.43h10.81l-11.67,52.61H535.52L527,586l-8.56,35.19H507.49l-11.68-52.61h10.81l7.12,37.36,8.67-37.36h9.18Z"/></g><g class="cls-17"><path d="M575.09,621.19H564.25V568.58h10.84Z"/></g><g class="cls-17"><path d="M624.45,577.36H608.33v43.83H597.49V577.36H581.6v-8.78h42.85Z"/><path d="M673.44,621.19H662.6V598.64H641.47v22.55H630.63V568.58h10.84V589.9H662.6V568.58h10.84Z"/></g></g><g class="cls-17"><path class="cls-6" d="M729.57,610.35h-19L707,621.19H695.42L715,568.58h10l19.69,52.61H733.22Zm-16.08-8.78h13.15L720,581.88Z"/><path class="cls-6" d="M761.18,621.19H750.34V568.58h10.84Z"/></g><line class="cls-18" x1="494.55" y1="699" x2="633.66" y2="699"/></svg>