<svg id="Layer_1" data-name="Layer 1" xmlns="http://www.w3.org/2000/svg" viewBox="0 0 2000 2000"><defs><style>.cls-1{fill:#fffbd4;opacity:0.5;}.cls-1,.cls-15,.cls-3{isolation:isolate;}.cls-2{fill:#212c31;}.cls-4{fill:#00a84b;}.cls-5{fill:#fff;}.cls-17,.cls-6,.cls-7{fill:none;stroke-miterlimit:10;}.cls-6,.cls-7{stroke:#e7e7e7;stroke-width:3px;}.cls-7{stroke-dasharray:12.06 12.06;}.cls-8{opacity:0.3;}.cls-9{fill:#e7e7e7;}.cls-10{fill:#d5d5d5;}.cls-11{fill:#bfbfbf;}.cls-12{fill:#2f3e45;}.cls-13{fill:#3b5059;}.cls-14{fill:#ffc9ad;}.cls-15{opacity:0.1;}.cls-16{fill:#ff8aae;}.cls-17{stroke:#212c31;stroke-linecap:round;stroke-width:2px;}</style></defs><path class="cls-1" d="M1499.31,521.32C1259.72,267.48,850.36,196.7,562.37,324.47,274,452.41,225.51,642.32,254.9,821.42c51.88,316.14,914.05,324.18,886.93,574.06-11.46,105.6-164.3,113.52-141.27,159.2,44.23,87.72,384.46,154.78,539.76-15.2C1736.8,1324.42,1795.1,834.69,1499.31,521.32Z"/><g id="freepik--Floor--inject-293"><polygon class="cls-2" points="1665.24 1148.12 1564.79 1148.28 1363.89 1148.59 1162.98 1148.28 1062.54 1148.12 962.1 1147.68 1062.54 1147.22 1162.98 1147.08 1363.89 1146.77 1564.79 1147.08 1665.24 1147.24 1765.68 1147.68 1665.24 1148.12"/></g><g class="cls-3"><g class="cls-3"><path d="M557.53,433.81H541.41v43.83H530.57V433.81H514.68V425h42.85Z"/><path d="M583.18,458.38h-8.63v19.26H563.71V425h19.55q9.32,0,14.38,4.16t5.05,11.74a16.14,16.14,0,0,1-2.33,9,15.88,15.88,0,0,1-7.06,5.73l11.38,21.49v.51H593.05Zm-8.63-8.78h8.74a8.92,8.92,0,0,0,6.32-2.08,7.38,7.38,0,0,0,2.24-5.72,8,8,0,0,0-2.11-5.86q-2.12-2.13-6.48-2.13h-8.71Z"/></g><g class="cls-3"><path d="M642.55,466.8h-19l-3.61,10.84H608.4L628,425h10l19.69,52.61H646.2ZM626.47,458h13.15L633,438.33Z"/></g><g class="cls-3"><path d="M703.8,460.12q-.62,8.49-6.27,13.36t-14.91,4.88q-10.11,0-15.91-6.81t-5.8-18.7v-3.21a31.56,31.56,0,0,1,2.67-13.37,20,20,0,0,1,7.64-8.87,21.43,21.43,0,0,1,11.55-3.09q9.11,0,14.67,4.88t6.43,13.69H693c-.27-3.4-1.21-5.86-2.84-7.39s-4.1-2.29-7.42-2.29q-5.43,0-8.11,3.88t-2.77,12.05v4q0,8.52,2.59,12.46t8.14,3.94q5,0,7.5-2.29t2.84-7.1Z"/><path d="M727.39,456.54l-5.64,6.07v15H710.92V425h10.83v23.85l4.77-6.54L739.93,425h13.33l-18.68,23.38,19.22,29.23H740.91Z"/></g></g><g class="cls-3"><g class="cls-3"><path d="M536.07,532.77,547,509.07h11.86L541.59,542.6v19.08h-11V542.6L513.3,509.07h11.89Z"/></g><g class="cls-3"><path d="M606.56,536.57a31.75,31.75,0,0,1-2.74,13.62,20.74,20.74,0,0,1-7.86,9,23.24,23.24,0,0,1-23.4,0,20.92,20.92,0,0,1-7.95-9,30.76,30.76,0,0,1-2.85-13.42v-2.6a31.57,31.57,0,0,1,2.8-13.68,20.8,20.8,0,0,1,7.91-9.07,23.2,23.2,0,0,1,23.38,0,20.86,20.86,0,0,1,7.91,9.07,31.45,31.45,0,0,1,2.8,13.64Zm-11-2.39q0-8.26-3-12.57a10.46,10.46,0,0,0-16.87-.05q-3,4.25-3,12.44v2.57q0,8.05,3,12.5a9.64,9.64,0,0,0,8.53,4.44,9.52,9.52,0,0,0,8.38-4.28c2-2.85,2.94-7,3-12.48Z"/><path d="M654.26,509.07v34.65q0,8.64-5.4,13.66t-14.76,5q-9.23,0-14.64-4.88t-5.53-13.4V509.07h10.84v34.72q0,5.18,2.48,7.54a9.49,9.49,0,0,0,6.85,2.36q9.14,0,9.28-9.61v-35Z"/><path d="M682.62,542.42H674v19.26H663.15V509.07h19.54q9.33,0,14.38,4.16T702.13,525a16.14,16.14,0,0,1-2.33,9,15.94,15.94,0,0,1-7.06,5.73l11.38,21.49v.51H692.49ZM674,533.64h8.74a8.92,8.92,0,0,0,6.32-2.08,7.38,7.38,0,0,0,2.24-5.72,8,8,0,0,0-2.11-5.86q-2.11-2.13-6.49-2.13H674Z"/><path d="M760.45,540.18H739.64v21.5H728.8V509.07h34.25v8.78H739.64v13.59h20.81Z"/><path d="M809.16,509.07v34.65q0,8.64-5.4,13.66t-14.76,5q-9.22,0-14.64-4.88t-5.53-13.4V509.07h10.84v34.72q0,5.18,2.48,7.54a9.49,9.49,0,0,0,6.85,2.36q9.13,0,9.28-9.61v-35Z"/><path d="M860.83,561.68H850l-21.1-34.62v34.62H818.05V509.07h10.84L850,543.76V509.07h10.81Z"/><path d="M913.08,561.68H902.24l-21.1-34.62v34.62H870.3V509.07h10.84l21.13,34.69V509.07h10.81Z"/><path d="M954.2,538.88H933.38V553h24.43v8.71H922.54V509.07h35.2v8.78H933.38v12.54H954.2Z"/><path d="M975,553h23v8.71H964.17V509.07H975Z"/></g></g><g class="cls-3"><g class="cls-3"><path d="M558.9,630.53,566,593.1h10.81l-11.67,52.61H554.2l-8.56-35.19-8.56,35.19H526.17L514.49,593.1H525.3l7.12,37.36,8.67-37.36h9.18Z"/></g><g class="cls-3"><path d="M593.77,645.71H582.93V593.1h10.84Z"/></g><g class="cls-3"><path d="M643.13,601.88H627v43.83H616.17V601.88H600.28V593.1h42.85Z"/><path d="M692.12,645.71H681.29V623.16H660.15v22.55H649.31V593.1h10.84v21.32h21.14V593.1h10.83Z"/></g></g><g class="cls-3"><g class="cls-3"><path class="cls-4" d="M738,626.45h-8.63v19.26H718.55V593.1H738.1q9.31,0,14.38,4.16t5,11.74a16.14,16.14,0,0,1-2.33,9,16,16,0,0,1-7.06,5.73l11.38,21.49v.51H747.89Zm-8.63-8.78h8.74a8.92,8.92,0,0,0,6.32-2.08,7.38,7.38,0,0,0,2.24-5.72,8,8,0,0,0-2.11-5.86q-2.12-2.13-6.48-2.13h-8.71Z"/><path class="cls-4" d="M797.43,622.91H776.61V637H801v8.71H765.77V593.1H801v8.78H776.61v12.54h20.82Z"/><path class="cls-4" d="M818.24,627.17v18.54H807.4V593.1h20.52a23.71,23.71,0,0,1,10.43,2.17,16,16,0,0,1,6.92,6.16,17.21,17.21,0,0,1,2.42,9.09q0,7.72-5.3,12.19t-14.65,4.46Zm0-8.78h9.68c2.87,0,5.05-.67,6.56-2a7.39,7.39,0,0,0,2.26-5.78,8.66,8.66,0,0,0-2.28-6.25,8.51,8.51,0,0,0-6.29-2.46h-9.93Z"/><path class="cls-4" d="M898.34,620.6a31.75,31.75,0,0,1-2.74,13.62,20.67,20.67,0,0,1-7.86,9,23.24,23.24,0,0,1-23.4,0,20.92,20.92,0,0,1-8-9,30.9,30.9,0,0,1-2.85-13.42v-2.6a31.57,31.57,0,0,1,2.8-13.68,20.86,20.86,0,0,1,7.91-9.07,23.2,23.2,0,0,1,23.38,0,20.8,20.8,0,0,1,7.91,9.07,31.45,31.45,0,0,1,2.8,13.64Zm-11-2.39q0-8.26-3-12.57a10.48,10.48,0,0,0-16.88-.06q-3,4.24-3,12.45v2.57q0,8.05,3,12.5a10.38,10.38,0,0,0,16.91.16q2.93-4.28,3-12.48Z"/></g><g class="cls-3"><path class="cls-4" d="M927,626.45h-8.63v19.26H907.49V593.1H927q9.32,0,14.38,4.16T946.47,609a16.14,16.14,0,0,1-2.33,9,16,16,0,0,1-7.06,5.73l11.38,21.49v.51H936.83Zm-8.63-8.78h8.74a8.92,8.92,0,0,0,6.32-2.08,7.38,7.38,0,0,0,2.24-5.72,8,8,0,0,0-2.11-5.86q-2.12-2.13-6.48-2.13h-8.71Z"/></g><g class="cls-3"><path class="cls-4" d="M993.56,601.88H977.44v43.83H966.6V601.88H950.71V593.1h42.85Z"/></g><g class="cls-3"><path class="cls-4" d="M1027.3,631.91a5.56,5.56,0,0,0-2.17-4.72,28.87,28.87,0,0,0-7.8-3.47,54.74,54.74,0,0,1-8.93-3.59q-9-4.85-9-13a12.71,12.71,0,0,1,2.4-7.6,15.62,15.62,0,0,1,6.9-5.22,25.86,25.86,0,0,1,10.1-1.88,23.68,23.68,0,0,1,10.05,2,15.93,15.93,0,0,1,6.84,5.76,15.05,15.05,0,0,1,2.44,8.46h-10.84a7.09,7.09,0,0,0-2.27-5.62,9.35,9.35,0,0,0-6.4-2,10,10,0,0,0-6.18,1.68,5.3,5.3,0,0,0-2.2,4.43,5.08,5.08,0,0,0,2.58,4.3,29,29,0,0,0,7.61,3.25q9.24,2.79,13.48,6.9a13.78,13.78,0,0,1,4.22,10.26,12.67,12.67,0,0,1-5.16,10.72q-5.17,3.88-13.91,3.88a26.88,26.88,0,0,1-11.06-2.22,17.47,17.47,0,0,1-7.61-6.09,15.64,15.64,0,0,1-2.62-9h10.88q0,8.72,10.41,8.71a10.19,10.19,0,0,0,6-1.57A5.11,5.11,0,0,0,1027.3,631.91Z"/></g></g><g id="freepik--Device--inject-18"><path class="cls-2" d="M897.54,794.1H551.15a35.39,35.39,0,0,0-35,35.7v713a35.38,35.38,0,0,0,35,35.7H897.54a35.4,35.4,0,0,0,35.07-35.7v-713A35.41,35.41,0,0,0,897.54,794.1Zm13.18,726.62c0,.69,0,1.35-.06,2-1,17.83-14.7,31.92-31.34,31.92H569.42c-17.36,0-31.42-15.18-31.42-34V856.82c0-17.91,3.11-27.84,8.18-33.33l.52-.52c5.73-5.73,13.81-6.22,22.71-6.22h62.07a5.32,5.32,0,0,1,3.65,1.55,8.46,8.46,0,0,1,1.78,2.46,10.84,10.84,0,0,1,.61,1.55,12.86,12.86,0,0,1,.5,3.59v2.2c0,4.83,1.07,7.69,2.89,9.41,2.65,2.5,6.89,2.52,11.65,2.52H796.07c5,0,9.47,0,12.07-2.91a10.23,10.23,0,0,0,.73-1,9.23,9.23,0,0,0,.87-1.82,18.62,18.62,0,0,0,.87-6.24v-2.2a10.32,10.32,0,0,1,2.42-7c.16-.18.34-.36.5-.52a5.37,5.37,0,0,1,3.67-1.53h62.15a59.32,59.32,0,0,1,8.1.5c.42.06.83.12,1.23.2s1,.18,1.45.28a24.06,24.06,0,0,1,2.65.71,29,29,0,0,1,2.85,1.11c9.07,4.22,15.12,14.29,15.12,37.27Z"/><path class="cls-5" d="M743.91,825.19H704.76a2.42,2.42,0,0,1-2.42-2.42h0a2.42,2.42,0,0,1,2.42-2.42h39.15a2.42,2.42,0,0,1,2.42,2.42h0a2.42,2.42,0,0,1-2.42,2.42Z"/><path class="cls-4" d="M895.64,819.6a29,29,0,0,0-2.85-1.11c-.87-.26-1.74-.5-2.65-.71l-1.45-.28-1.23-.2a59.32,59.32,0,0,0-8.1-.5H817.21a5.37,5.37,0,0,0-3.67,1.53,6.14,6.14,0,0,0-.5.52,12,12,0,0,0-.89,1.23,12.18,12.18,0,0,0-1.51,5.81v2.2a18.08,18.08,0,0,1-.89,6.24,8.23,8.23,0,0,1-.87,1.82,8,8,0,0,1-.73,1c-2.6,2.91-7,2.91-12.07,2.91H652.57c-4.76,0-9,0-11.65-2.52-1.82-1.72-2.89-4.58-2.89-9.41v-2.2a11.26,11.26,0,0,0-1.11-5.14,8.33,8.33,0,0,0-1.78-2.46,5.28,5.28,0,0,0-3.65-1.55H569.42c-8.9,0-17,.48-22.71,6.22l-.52.52c-5.07,5.48-8.19,15.4-8.19,33.3v663.9c0,18.78,14,34,31.42,34h309.9c16.64,0,30.37-14.09,31.34-31.92v-666C910.66,833.9,904.62,823.82,895.64,819.6ZM608.13,831a10.42,10.42,0,0,1,1.76-1.11,9.63,9.63,0,0,1,2.32-.79l1.15-.14h1.82a9.25,9.25,0,0,1,2.14.5,10.94,10.94,0,0,1,1.43.67,9.61,9.61,0,0,1,1.37,1l.65.57h0l-.61.61-.34.34a8.07,8.07,0,0,0-11.41-.14,1.07,1.07,0,0,1-.16.14l-.32-.34a8.21,8.21,0,0,0-.59-.59Zm-14.72,2.48a2.5,2.5,0,0,1,5,0h0A2.48,2.48,0,0,1,596,836h0a2.46,2.46,0,0,1-2.48-2.44h0Zm-31,0a2.5,2.5,0,0,1,5,0h0A2.48,2.48,0,0,1,565,836h0a2.46,2.46,0,0,1-2.48-2.44h0ZM572.59,836a2.46,2.46,0,1,1,2.46-2.46,2.46,2.46,0,0,1-2.46,2.46h0Zm7.77,0a2.46,2.46,0,1,1,2.46-2.46,2.43,2.43,0,0,1-2.43,2.43h-.07Zm7.74-5a2.47,2.47,0,1,1,0,4.94h0a2.47,2.47,0,0,1,0-4.94Zm25,.53a6.79,6.79,0,0,1,5.79,2l-1,1a5.43,5.43,0,0,0-7.68,0h-.07l-.95-1a7,7,0,0,1,3.9-2ZM612,836.3h0l-.93-1a4.05,4.05,0,0,1,5.71-.18,1.89,1.89,0,0,1,.2.2l-1,.93A2.82,2.82,0,0,0,612,836.3Zm2.83.91a.83.83,0,0,1-.81.85h0a.85.85,0,0,1-.85-.83v0a.86.86,0,0,1,.81-.85h0a.84.84,0,0,1,.93.75v.1Zm247.74,1.62v-9.29H882.7v9.29Zm21.9-2.14h-1.8v-5h1.8Z"/><path class="cls-4" d="M562.37,833.47h0a2.5,2.5,0,0,1,5,0,2.48,2.48,0,0,1-2.44,2.5h0a2.47,2.47,0,0,1-2.54-2.38Z"/><path class="cls-4" d="M570.09,833.45a2.46,2.46,0,1,1,4.92,0h0a2.46,2.46,0,1,1-4.92,0Z"/><path class="cls-4" d="M577.86,833.45a2.46,2.46,0,1,1,4.92,0h0a2.46,2.46,0,1,1-4.92,0Z"/><path class="cls-4" d="M585.63,833.45a2.48,2.48,0,1,1,2.5,2.46h0a2.45,2.45,0,0,1-2.5-2.4Z"/><path class="cls-4" d="M593.41,833.47h0a2.5,2.5,0,0,1,5,0A2.48,2.48,0,0,1,596,836h0a2.46,2.46,0,0,1-2.54-2.36Z"/><path class="cls-4" d="M614,836.36a.85.85,0,0,1,.85.83v0a.83.83,0,0,1-.81.85h0a.85.85,0,0,1-.85-.83v0a.86.86,0,0,1,.81-.85Z"/><path class="cls-4" d="M616,836.34a2.84,2.84,0,0,0-4,0h0l-.93-1a4.05,4.05,0,0,1,5.71-.18l.2.2Z"/><path class="cls-4" d="M617.94,834.46a5.43,5.43,0,0,0-7.68,0h-.07l-1-1a6.66,6.66,0,0,1,9.65,0Z"/><path class="cls-4" d="M607.94,832.24a8.21,8.21,0,0,0-.59-.59l.77-.69a10.42,10.42,0,0,1,1.76-1.11,9.63,9.63,0,0,1,2.32-.79l1.15-.14h1.82a9.25,9.25,0,0,1,2.14.5,10.94,10.94,0,0,1,1.43.67,9.61,9.61,0,0,1,1.37,1l.65.57h0l-.61.61-.34.34a8.07,8.07,0,0,0-11.41-.14,1.07,1.07,0,0,1-.16.14Z"/><path class="cls-4" d="M636.92,820.75a8.33,8.33,0,0,0-1.78-2.46A7.76,7.76,0,0,1,636.92,820.75Z"/><path class="cls-4" d="M638,825.9a12.86,12.86,0,0,0-.5-3.59,12.1,12.1,0,0,1,.53,3.59v2.2c0,4.81,1.07,7.67,2.87,9.41-1.82-1.72-2.89-4.58-2.89-9.41v-2.2Z"/><rect class="cls-4" x="862.61" y="829.54" width="20.09" height="9.29"/><rect class="cls-4" x="882.72" y="831.7" width="1.8" height="4.99"/><g id="freepik--u5Zjqx--inject-18"><path class="cls-5" d="M620.79,831.64l-.61.61-.34.34a8.07,8.07,0,0,0-11.41-.14,1.07,1.07,0,0,1-.16.14l-.32-.34a8.21,8.21,0,0,0-.59-.59l.77-.69a10.42,10.42,0,0,1,1.76-1.11,9.63,9.63,0,0,1,2.32-.79l1.15-.14h1.82a9.25,9.25,0,0,1,2.14.5,10.94,10.94,0,0,1,1.43.67,9.61,9.61,0,0,1,1.37,1l.65.57Z"/><path class="cls-5" d="M618.89,833.52l-.95,1a5.43,5.43,0,0,0-7.68,0h-.07l-1-1a6.85,6.85,0,0,1,3.86-2A6.76,6.76,0,0,1,618.89,833.52Z"/><path class="cls-5" d="M617,835.41l-1,.93a2.84,2.84,0,0,0-4,0h0l-.93-1a4.05,4.05,0,0,1,5.71-.18A1.31,1.31,0,0,1,617,835.41Z"/><path class="cls-5" d="M614.87,837.21a.83.83,0,0,1-.81.85h0a.85.85,0,0,1-.85-.83v0a.86.86,0,0,1,.81-.85h0a.85.85,0,0,1,.89.79Z"/></g><path class="cls-5" d="M567.34,833.41a2.48,2.48,0,0,1-2.44,2.5h0a2.46,2.46,0,0,1-2.48-2.44h0a2.5,2.5,0,0,1,5,0Z"/><path class="cls-5" d="M575,833.45a2.46,2.46,0,1,1-4.92,0h0a2.46,2.46,0,1,1,4.92,0Z"/><path class="cls-5" d="M582.79,833.45a2.46,2.46,0,1,1-4.92,0h0a2.46,2.46,0,1,1,4.92,0Z"/><path class="cls-5" d="M590.6,833.43a2.46,2.46,0,0,1-2.44,2.48h0a2.47,2.47,0,1,1,2.5-2.48Z"/><path class="cls-5" d="M598.37,833.41a2.48,2.48,0,0,1-2.44,2.5h0a2.46,2.46,0,0,1-2.48-2.44h0a2.5,2.5,0,0,1,5,0Z"/><path class="cls-5" d="M862.61,829.54v9.29H882.7v-9.29Zm19.08,8.28H863.62v-7.27h18.07Z"/><rect class="cls-5" x="864.27" y="831.12" width="12.96" height="6.16"/><rect class="cls-5" x="882.72" y="831.7" width="1.8" height="4.99"/></g><path class="cls-6" d="M805.41,1434s-2.14,0-6-.21"/><path class="cls-7" d="M787.4,1432.78c-52.4-5.57-200.79-37.34-199.4-218.33,1.14-145.29,129.6-200.66,169.17-214.27"/><path class="cls-6" d="M762.93,998.29c3.69-1.16,5.75-1.69,5.75-1.69"/><g id="freepik--background-complete--inject-293" class="cls-8"><path class="cls-9" d="M637.89,1484.69l5-8.06-2.47-1.54a2.3,2.3,0,0,1-1-2.14c0-.47,0-.94,0-1.42a2.23,2.23,0,0,1,1.18-2l2.57-1.38-4.5-8.37-2.57,1.38a2.27,2.27,0,0,1-2.37-.15c-.39-.28-.8-.53-1.21-.77a2.31,2.31,0,0,1-1.19-2l.09-2.92-9.51-.29-.09,2.92a2.28,2.28,0,0,1-1.33,2c-.21.1-.41.2-.62.32s-.41.22-.61.35a2.25,2.25,0,0,1-2.37,0l-2.5-1.54-5,8.09,2.48,1.54a2.23,2.23,0,0,1,1,2.13v1.42a2.26,2.26,0,0,1-1.18,2l-2.57,1.38,4.5,8.39,2.57-1.38a2.32,2.32,0,0,1,2.37.15c.39.27.77.51,1.21.77a2.26,2.26,0,0,1,1.2,2l-.09,2.92,9.52.3.08-2.93a2.26,2.26,0,0,1,1.33-2l.63-.32c.22-.12.41-.22.61-.35a2.29,2.29,0,0,1,2.37,0Zm-8.06-6a7.8,7.8,0,1,1,3.2-10.56h0a7.79,7.79,0,0,1-3.19,10.54Z"/><path class="cls-9" d="M608.28,1451.28l5.78-3.33-1-1.77a1.59,1.59,0,0,1,.06-1.67c.18-.28.34-.57.49-.86a1.61,1.61,0,0,1,1.41-.88h2v-6.68h-2a1.56,1.56,0,0,1-1.41-.88,9.25,9.25,0,0,0-.49-.87,1.58,1.58,0,0,1-.06-1.66l1-1.77-5.78-3.33-1,1.77a1.58,1.58,0,0,1-1.47.77h-1a1.59,1.59,0,0,1-1.47-.77l-1-1.78-5.78,3.33,1,1.77a1.6,1.6,0,0,1,0,1.66,9.17,9.17,0,0,0-.5.86,1.61,1.61,0,0,1-1.41.88h-2v6.68h2a1.56,1.56,0,0,1,1.41.88,9,9,0,0,0,.5.85,1.57,1.57,0,0,1,0,1.67l-1,1.77,5.79,3.34,1-1.77a1.58,1.58,0,0,1,1.47-.77h1a1.56,1.56,0,0,1,1.47.77Zm-3-6.39a5.46,5.46,0,1,1,5.46-5.46h0a5.45,5.45,0,0,1-5.45,5.45h0Z"/><path class="cls-9" d="M658.47,988.13l-3.33-5.77-1.77,1a1.59,1.59,0,0,1-1.67-.06,9.17,9.17,0,0,0-.86-.5,1.56,1.56,0,0,1-.88-1.41v-2h-6.68v2a1.53,1.53,0,0,1-.88,1.41,9.17,9.17,0,0,0-.86.5,1.59,1.59,0,0,1-1.67.06l-1.77-1-3.33,5.77,1.78,1a1.59,1.59,0,0,1,.77,1.47v1a1.56,1.56,0,0,1-.77,1.47l-1.78,1,3.33,5.77,1.77-1a1.58,1.58,0,0,1,1.66.06c.28.18.57.35.86.5a1.56,1.56,0,0,1,.88,1.41v2H650v-2a1.53,1.53,0,0,1,.88-1.41,9.17,9.17,0,0,0,.86-.5,1.58,1.58,0,0,1,1.66-.06l1.77,1,3.33-5.77-1.77-1a1.58,1.58,0,0,1-.77-1.47v-1a1.61,1.61,0,0,1,.77-1.48Zm-6.38,3a5.47,5.47,0,1,1-5.48-5.46h0a5.47,5.47,0,0,1,5.46,5.43h0Z"/><path class="cls-9" d="M646.7,949.79a30.45,30.45,0,1,1-30.12-34.92v30.46Z"/><path class="cls-10" d="M653.22,939.12a30.33,30.33,0,0,1-.33,4.46l-30.13-4.46V908.66A30.43,30.43,0,0,1,653.22,939Z"/><rect class="cls-11" x="632.02" y="961.8" width="32.39" height="0.77"/><path class="cls-11" d="M666.68,964.85a2.66,2.66,0,1,1,2.66-2.66h0A2.66,2.66,0,0,1,666.68,964.85Zm0-4.54a1.89,1.89,0,1,0,1.89,1.89h0a1.88,1.88,0,0,0-1.88-1.88h0Z"/><rect class="cls-11" x="674.92" y="960.49" width="25.16" height="1.14"/><rect class="cls-11" x="674.92" y="962.76" width="14.24" height="1.14"/></g><g id="freepik--chart-3--inject-293"><rect class="cls-5" x="382.3" y="1101.77" width="341.09" height="285.71"/><path class="cls-9" d="M724.38,1388.47H381.3v-287.7H724.38Zm-341.09-2h339.1V1102.76H383.29Z"/><path class="cls-12" d="M407.37,1115a6,6,0,1,1-6-6h0A6,6,0,0,1,407.37,1115Z"/><path class="cls-9" d="M431.74,1115a6,6,0,1,1-6-6h0A6,6,0,0,1,431.74,1115Z"/><path class="cls-4" d="M456.11,1115a6,6,0,1,1-6-6h0A6,6,0,0,1,456.11,1115Z"/><rect class="cls-9" x="382.3" y="1127.1" width="341.09" height="1.99"/><path class="cls-12" d="M453.36,1284.31a80.72,80.72,0,0,1,80.71-80.71h0V1365a80.72,80.72,0,0,1-80.71-80.71Z"/><path class="cls-13" d="M464.74,1284.31a69.33,69.33,0,0,1,117.38-50l-48,50v69.35a69.33,69.33,0,0,1-69.33-69.33Z"/><path class="cls-2" d="M475.92,1284.31a58.17,58.17,0,1,1,116.34,0v0H534.09v58.19a58.17,58.17,0,0,1-58.17-58.17h0Z"/><path class="cls-4" d="M488,1284.31a46.14,46.14,0,1,1,79.14,32.24l-33-32.24v46.13A46.1,46.1,0,0,1,488,1284.36h0Z"/><rect class="cls-9" x="534.07" y="1284.07" width="75.27" height="0.5"/><circle class="cls-2" cx="607.01" cy="1284.31" r="2.89"/><path class="cls-2" d="M624.36,1282.32l-2.21,5.28a.47.47,0,0,1-.46.28h-.2a.52.52,0,0,1-.26-.66l2-4.56h-2.31a.5.5,0,1,1,0-1h3.15a.28.28,0,0,1,.18,0h0v.28Z"/><path class="cls-2" d="M628.69,1284.11a2.24,2.24,0,0,1,.64,1.57,2.2,2.2,0,0,1-.64,1.55,2.24,2.24,0,0,1-1.57.64h0a2.13,2.13,0,0,1-1.53-.64.48.48,0,0,1,0-.68h0a.5.5,0,0,1,.68,0h0a1.21,1.21,0,0,0,1.72,0,1.26,1.26,0,0,0,.36-.84,1.11,1.11,0,0,0-.36-.86,1.21,1.21,0,0,0-1.72,0,.52.52,0,0,1-.7,0l-.1-.12h0v-.2h0a.17.17,0,0,1,0-.14l.26-2.31a.51.51,0,0,1,.22-.36h0a.49.49,0,0,1,.24,0h2.63a.53.53,0,0,1,.41.61.51.51,0,0,1-.41.41h-2.25l-.12.88a3,3,0,0,1,.6,0A2.3,2.3,0,0,1,628.69,1284.11Z"/><path class="cls-2" d="M630.7,1283.19h0a1.47,1.47,0,1,1,2.94,0h0a1.51,1.51,0,0,1-1.43,1.59h-.06a1.5,1.5,0,0,1-1.46-1.53A.35.35,0,0,0,630.7,1283.19Zm2.15,0h0c0-.5-.3-.92-.7-.92s-.66.42-.66.9h0c0,.5.28.92.68.92s.68-.42.68-.9Zm-1.13,4.17,4.11-5.6a.37.37,0,0,1,.3-.16.36.36,0,0,1,.36.36.41.41,0,0,1,0,.22l-4.09,5.6a.4.4,0,0,1-.32.16.36.36,0,0,1-.36-.36.41.41,0,0,1,0-.22Zm2.75-1h0a1.47,1.47,0,0,1,2.94,0h0A1.52,1.52,0,0,1,636,1288h-.1a1.5,1.5,0,0,1-1.38-1.59Zm2.15,0h0c0-.5-.28-.92-.7-.92s-.66.42-.66.9h0c0,.5.28.92.68.92s.6-.42.6-.9Z"/><rect class="cls-11" x="620.28" y="1292.7" width="32.04" height="0.76"/><rect class="cls-11" x="620.28" y="1294.77" width="32.04" height="0.76"/><rect class="cls-11" x="620.28" y="1296.86" width="32.04" height="0.76"/><rect class="cls-11" x="620.28" y="1298.96" width="32.04" height="0.76"/><rect class="cls-11" x="620.28" y="1301.05" width="32.04" height="0.76"/><rect class="cls-11" x="620.28" y="1303.14" width="32.04" height="0.76"/><rect class="cls-11" x="620.28" y="1305.23" width="32.04" height="0.76"/><polygon class="cls-9" points="609.36 1331.08 581.52 1331.08 581.44 1331.02 534.05 1284.49 534.39 1284.13 581.72 1330.58 609.36 1330.58 609.36 1331.08"/><path class="cls-4" d="M609.9,1330.84A2.89,2.89,0,1,1,607,1328h0a2.89,2.89,0,0,1,2.89,2.89h0Z"/><path class="cls-2" d="M624.58,1332.34a2.14,2.14,0,1,1-3.31-1.77,1.38,1.38,0,0,1-.28-.88,1.48,1.48,0,0,1,1.68-1.25,1.46,1.46,0,0,1,1.25,1.25,1.34,1.34,0,0,1-.3.88A2.1,2.1,0,0,1,624.58,1332.34Zm-1,0a1.17,1.17,0,0,0-2.33,0,1.16,1.16,0,0,0,1.15,1.17h0a1.15,1.15,0,0,0,1.12-1.16Zm-1.68-2.65a.52.52,0,0,0,.52.52h0a.53.53,0,0,0,.41-.61.51.51,0,0,0-.41-.41.52.52,0,0,0-.56.46Z"/><path class="cls-2" d="M629.29,1330.64a2.2,2.2,0,0,1,.66,1.57,2.25,2.25,0,0,1-2.21,2.21h0a2.14,2.14,0,0,1-1.55-.66.51.51,0,0,1,0-.72.52.52,0,0,1,.68,0,1.22,1.22,0,0,0,.86.36,1.24,1.24,0,0,0,1.2-1.2,1.22,1.22,0,0,0-.36-.86,1.16,1.16,0,0,0-.84-.36,1.22,1.22,0,0,0-.86.36.49.49,0,0,1-.69,0h0l-.1-.12h0a.22.22,0,0,1,0-.16l.26-2.31a.56.56,0,0,1,.24-.42h2.85a.5.5,0,0,1,0,1h-2.19l-.1.9a2,2,0,0,1,.6,0A2.18,2.18,0,0,1,629.29,1330.64Z"/><path class="cls-2" d="M631.32,1329.73h0a1.48,1.48,0,0,1,2.93-.35,1.93,1.93,0,0,1,0,.34h0a1.5,1.5,0,0,1-1.39,1.59h-.08a1.48,1.48,0,0,1-1.46-1.49Zm2.13,0h0c0-.5-.28-.9-.68-.9s-.68.4-.68.88h0c0,.52.3.92.7.92S633.45,1330.2,633.45,1329.73Zm-1.11,4.16,4.09-5.58a.34.34,0,0,1,.3-.18.36.36,0,0,1,.36.36.49.49,0,0,1,0,.24l-4.09,5.58a.39.39,0,0,1-.32.16.34.34,0,0,1-.34-.34h0A.33.33,0,0,1,632.34,1333.89Zm2.75-1h0a1.49,1.49,0,0,1,1.38-1.59h.09a1.48,1.48,0,0,1,1.46,1.49v.08h0a1.49,1.49,0,0,1-1.38,1.59h-.09a1.48,1.48,0,0,1-1.46-1.49A.11.11,0,0,1,635.09,1332.89Zm2.13,0h0c0-.5-.28-.9-.68-.9s-.68.4-.68.88h0c0,.52.3.92.7.92S637.22,1333.37,637.22,1332.89Z"/><rect class="cls-11" x="620.28" y="1339.23" width="32.04" height="0.76"/><rect class="cls-11" x="620.28" y="1341.32" width="32.04" height="0.76"/><rect class="cls-11" x="620.28" y="1343.4" width="32.04" height="0.76"/><rect class="cls-11" x="620.28" y="1345.49" width="32.04" height="0.76"/><rect class="cls-11" x="620.28" y="1347.58" width="32.04" height="0.76"/><rect class="cls-11" x="620.28" y="1349.67" width="32.04" height="0.76"/><rect class="cls-11" x="620.28" y="1351.77" width="32.04" height="0.76"/><polygon class="cls-9" points="534.33 1284.31 533.83 1284.31 533.83 1181 609.36 1181 609.36 1181.5 534.33 1181.5 534.33 1284.31"/><circle class="cls-12" cx="607.01" cy="1181.26" r="2.89"/><path class="cls-2" d="M623.67,1181.06a2.2,2.2,0,0,1,.66,1.57,2.26,2.26,0,0,1-.66,1.55,2.17,2.17,0,0,1-1.55.66h0a2.14,2.14,0,0,1-1.55-.66.51.51,0,0,1,0-.72.52.52,0,0,1,.68,0,1.22,1.22,0,0,0,.86.36,1.24,1.24,0,0,0,1.2-1.2,1.13,1.13,0,0,0-.36-.86,1.16,1.16,0,0,0-.84-.36,1.22,1.22,0,0,0-.86.36.49.49,0,0,1-.69,0h0l-.1-.12h0a.17.17,0,0,1,0-.14l.26-2.31a.6.6,0,0,1,.24-.36h2.85a.5.5,0,1,1,0,1h-2.19l-.1.88a3,3,0,0,1,.6,0A2.16,2.16,0,0,1,623.67,1181.06Z"/><path class="cls-2" d="M625.78,1181.72a3.93,3.93,0,0,1,.6-2.13,1.9,1.9,0,0,1,3.31,0,4.08,4.08,0,0,1,0,4.26,1.87,1.87,0,0,1-2.53.77h0a1.9,1.9,0,0,1-.77-.77A3.83,3.83,0,0,1,625.78,1181.72Zm3.53,0a2.81,2.81,0,0,0-.44-1.57,1.11,1.11,0,0,0-.84-.56,1.12,1.12,0,0,0-.84.56,3.16,3.16,0,0,0,0,3.15,1.11,1.11,0,0,0,.84.56,1.09,1.09,0,0,0,.84-.56,2.84,2.84,0,0,0,.44-1.58Z"/><path class="cls-2" d="M632,1180.14h0a1.5,1.5,0,0,1,1.39-1.59h.08A1.48,1.48,0,0,1,635,1180v.12h0a1.51,1.51,0,0,1-1.43,1.59h0a1.5,1.5,0,0,1-1.48-1.51S632,1180.17,632,1180.14Zm2.15,0h0c0-.5-.28-.92-.68-.92s-.68.42-.68.9h0c0,.52.28.92.68.92a.82.82,0,0,0,.7-.9Zm-1.12,4.17,4.09-5.6a.37.37,0,0,1,.3-.16.36.36,0,0,1,.36.36.41.41,0,0,1,0,.22l-4,5.6a.4.4,0,0,1-.32.16.34.34,0,0,1-.34-.34h0a.34.34,0,0,1-.07-.24Zm2.73-1h0a1.47,1.47,0,0,1,2.94,0h0a1.51,1.51,0,0,1-1.43,1.59h0a1.5,1.5,0,0,1-1.48-1.51.13.13,0,0,0,0-.06Zm2.15,0h0c0-.5-.28-.92-.68-.92s-.68.42-.68.9h0c0,.52.28.92.7.92S637.91,1183.79,637.91,1183.31Z"/><rect class="cls-11" x="620.28" y="1189.65" width="32.04" height="0.76"/><rect class="cls-11" x="620.28" y="1191.74" width="32.04" height="0.76"/><rect class="cls-11" x="620.28" y="1193.82" width="32.04" height="0.76"/><rect class="cls-11" x="620.28" y="1195.91" width="32.04" height="0.76"/><rect class="cls-11" x="620.28" y="1198" width="32.04" height="0.76"/><rect class="cls-11" x="620.28" y="1200.09" width="32.04" height="0.76"/><rect class="cls-11" x="620.28" y="1202.19" width="32.04" height="0.76"/><polygon class="cls-9" points="534.37 1284.49 534.01 1284.15 588.13 1227.95 609.36 1227.95 609.36 1228.45 588.33 1228.45 534.37 1284.49"/><path class="cls-13" d="M609.9,1228.21a2.89,2.89,0,1,1-2.89-2.89,2.89,2.89,0,0,1,2.89,2.89Z"/><path class="cls-2" d="M624.7,1229.65a2.15,2.15,0,1,1-4.3.22h0v-.52a5.06,5.06,0,0,1,.3-1.81,3,3,0,0,1,1.16-1.53,2.75,2.75,0,0,1,1.34-.42.5.5,0,0,1,.52.48h0a.52.52,0,0,1-.48.52,1.55,1.55,0,0,0-.84.24,1.65,1.65,0,0,0-.56.64.94.94,0,0,0-.12.22,2.49,2.49,0,0,1,.86-.18,2.13,2.13,0,0,1,2.12,2.14Zm-1,0a1.18,1.18,0,1,0-1.18,1.18,1.18,1.18,0,0,0,1.18-1.18Z"/><path class="cls-2" d="M629.39,1228a2.2,2.2,0,0,1,.66,1.57,2.25,2.25,0,0,1-2.21,2.21h0a2.17,2.17,0,0,1-1.55-.66.5.5,0,0,1,0-.68h0a.49.49,0,0,1,.69,0h0a1.26,1.26,0,0,0,1.72,0,1.31,1.31,0,0,0,.36-.86,1.22,1.22,0,0,0-.36-.86,1.26,1.26,0,0,0-1.72,0,.49.49,0,0,1-.69,0h0v-.12h0v-.16l.28-2.31a.55.55,0,0,1,.22-.36h0a.49.49,0,0,1,.24,0h2.63a.5.5,0,0,1,0,1h-2.19l-.12.9a2,2,0,0,1,.6,0A2.22,2.22,0,0,1,629.39,1228Z"/><path class="cls-2" d="M631.42,1227.1h0a1.51,1.51,0,0,1,1.43-1.59h0a1.5,1.5,0,0,1,1.46,1.53h0a1.48,1.48,0,0,1-2.9.58.85.85,0,0,1,0-.23,1.93,1.93,0,0,1,0-.34Zm2.15,0h0a.8.8,0,0,0-.69-.9h0c-.42,0-.66.4-.66.88h0c0,.52.28.92.68.92a.82.82,0,0,0,.68-.9Zm-1.14,4.16,4.11-5.58a.31.31,0,0,1,.3-.16.34.34,0,0,1,.36.32h0a.49.49,0,0,1,0,.24l-4.11,5.58a.37.37,0,0,1-.3.16.34.34,0,0,1-.36-.32h0A.49.49,0,0,1,632.43,1231.26Zm2.75-1h0a1.51,1.51,0,0,1,1.43-1.59h0a1.5,1.5,0,0,1,1.46,1.53v.06h0a1.48,1.48,0,0,1-2.93.35,1.86,1.86,0,0,1,0-.33Zm2.16,0h0a.8.8,0,0,0-.69-.9h0c-.42,0-.66.4-.66.9h0c0,.52.28.92.68.92s.68-.5.68-.92Z"/><rect class="cls-11" x="620.28" y="1236.6" width="32.04" height="0.76"/><rect class="cls-11" x="620.28" y="1238.69" width="32.04" height="0.76"/><rect class="cls-11" x="620.28" y="1240.79" width="32.04" height="0.76"/><rect class="cls-11" x="620.28" y="1242.88" width="32.04" height="0.76"/><rect class="cls-11" x="620.28" y="1244.95" width="32.04" height="0.76"/><rect class="cls-11" x="620.28" y="1247.04" width="32.04" height="0.76"/><rect class="cls-11" x="620.28" y="1249.14" width="32.04" height="0.76"/><circle class="cls-9" cx="534.1" cy="1284.26" r="35.51"/><rect class="cls-11" x="442.34" y="1147.4" width="221" height="5.76"/><rect class="cls-11" x="480.12" y="1159.4" width="145.42" height="5.76"/></g><g id="freepik--chart-1--inject-293"><rect class="cls-5" x="804.93" y="1346.35" width="163.8" height="137.21"/><path class="cls-9" d="M969.21,1484H804.46V1345.87H969.22V1484Zm-163.8-1H968.26V1346.83H805.41Z"/><path class="cls-12" d="M817,1352.69a2.87,2.87,0,1,1-2.87-2.87h0A2.86,2.86,0,0,1,817,1352.69Z"/><path class="cls-9" d="M828.68,1352.69a2.87,2.87,0,1,1-2.87-2.87h0A2.86,2.86,0,0,1,828.68,1352.69Z"/><path class="cls-4" d="M840.39,1352.69a2.87,2.87,0,1,1-2.87-2.87h0A2.86,2.86,0,0,1,840.39,1352.69Z"/><rect class="cls-9" x="804.93" y="1358.51" width="163.8" height="0.96"/><path class="cls-10" d="M928.5,1393a.89.89,0,1,1-.9.89.89.89,0,0,1,.9-.89Z"/><path class="cls-10" d="M928.5,1400.1a.89.89,0,1,1,.89-.89h0a.89.89,0,0,1-.89.89Z"/><path class="cls-10" d="M928.5,1405.49a.9.9,0,1,1,.89-.91h0a.89.89,0,0,1-.87.91Z"/><path class="cls-10" d="M928.5,1410.85a.9.9,0,1,1,.89-.91h0a.89.89,0,0,1-.87.91Z"/><path class="cls-10" d="M928.5,1416.21a.9.9,0,1,1,.89-.91h0a.89.89,0,0,1-.87.91Z"/><path class="cls-10" d="M928.5,1421.57a.9.9,0,1,1,.89-.91h0a.89.89,0,0,1-.87.91Z"/><path class="cls-10" d="M928.5,1426.9a.9.9,0,1,1,.89-.91h0a.89.89,0,0,1-.87.91Z"/><path class="cls-10" d="M928.5,1432.29a.89.89,0,1,1,.89-.89h0A.91.91,0,0,1,928.5,1432.29Z"/><path class="cls-10" d="M928.5,1437.65a.89.89,0,1,1,.89-.89h0A.91.91,0,0,1,928.5,1437.65Z"/><path class="cls-10" d="M928.5,1443a.89.89,0,1,1,.89-.89h0A.91.91,0,0,1,928.5,1443Z"/><path class="cls-10" d="M928.5,1448.37a.89.89,0,1,1,.89-.89h0a.89.89,0,0,1-.89.89Z"/><path class="cls-10" d="M928.5,1453.7a.89.89,0,1,1,.89-.89h0a.89.89,0,0,1-.89.89Z"/><path class="cls-10" d="M928.5,1459.09a.9.9,0,1,1,.89-.91h0a.89.89,0,0,1-.87.91Z"/><path class="cls-10" d="M928.5,1464.45a.9.9,0,1,1,.89-.91h0a.89.89,0,0,1-.87.91Z"/><path class="cls-10" d="M928.5,1469.81a.9.9,0,1,1,.89-.91h0a.89.89,0,0,1-.87.91Z"/><path class="cls-10" d="M930.35,1471.39a.87.87,0,0,1,1-.67.86.86,0,0,1,.67.67Z"/><path class="cls-10" d="M933.86,1394.76a.89.89,0,1,1,.89-.89h0a.89.89,0,0,1-.89.89Z"/><circle class="cls-10" cx="931.18" cy="1391.19" r="0.89"/><path class="cls-10" d="M933.86,1400.1a.89.89,0,1,1,.89-.89h0a.89.89,0,0,1-.89.89Z"/><circle class="cls-10" cx="931.18" cy="1396.55" r="0.89"/><path class="cls-10" d="M933.86,1405.49a.9.9,0,1,1,.89-.91h0a.89.89,0,0,1-.87.91Z"/><path class="cls-10" d="M931.18,1402.8a.89.89,0,1,1,.89-.89h0a.89.89,0,0,1-.89.89Z"/><path class="cls-10" d="M933.86,1410.85a.9.9,0,1,1,.89-.91h0a.89.89,0,0,1-.87.91Z"/><path class="cls-10" d="M931.18,1408.17a.9.9,0,1,1,.89-.91h0a.89.89,0,0,1-.87.91Z"/><path class="cls-10" d="M933.86,1416.21a.9.9,0,1,1,.89-.91h0a.89.89,0,0,1-.87.91Z"/><circle class="cls-10" cx="931.18" cy="1412.63" r="0.89"/><path class="cls-10" d="M933.86,1421.57a.9.9,0,1,1,.89-.91h0a.89.89,0,0,1-.87.91Z"/><path class="cls-10" d="M931.18,1418.89a.9.9,0,1,1,.89-.91h0a.89.89,0,0,1-.87.91Z"/><path class="cls-10" d="M933.86,1426.9a.9.9,0,1,1,.89-.91h0a.89.89,0,0,1-.87.91Z"/><path class="cls-10" d="M931.18,1424.25a.9.9,0,1,1,.89-.91h0a.9.9,0,0,1-.89.91Z"/><path class="cls-10" d="M933.86,1432.29a.89.89,0,1,1,.89-.89h0A.91.91,0,0,1,933.86,1432.29Z"/><path class="cls-10" d="M931.18,1429.61a.9.9,0,1,1,.89-.91h0a.9.9,0,0,1-.89.91Z"/><path class="cls-10" d="M933.86,1437.65a.89.89,0,1,1,.89-.89h0A.91.91,0,0,1,933.86,1437.65Z"/><circle class="cls-10" cx="931.18" cy="1434.08" r="0.89"/><path class="cls-10" d="M933.86,1443a.89.89,0,1,1,.89-.89h0A.91.91,0,0,1,933.86,1443Z"/><circle class="cls-10" cx="931.18" cy="1439.44" r="0.89"/><path class="cls-10" d="M933.86,1448.37a.89.89,0,1,1,.89-.89h0a.89.89,0,0,1-.89.89Z"/><path class="cls-10" d="M931.18,1445.69a.89.89,0,1,1,.89-.89h0a.89.89,0,0,1-.89.89Z"/><path class="cls-10" d="M933.86,1453.7a.89.89,0,1,1,.89-.89h0a.89.89,0,0,1-.89.89Z"/><circle class="cls-10" cx="931.18" cy="1450.16" r="0.89"/><path class="cls-10" d="M933.86,1459.09a.9.9,0,1,1,.89-.91h0a.89.89,0,0,1-.87.91Z"/><circle class="cls-10" cx="931.18" cy="1455.52" r="0.89"/><path class="cls-10" d="M933.86,1464.45a.9.9,0,1,1,.89-.91h0a.89.89,0,0,1-.87.91Z"/><path class="cls-10" d="M931.18,1461.77a.9.9,0,1,1,.89-.91h0a.89.89,0,0,1-.87.91Z"/><path class="cls-10" d="M933.86,1469.81a.9.9,0,1,1,.89-.91h0a.89.89,0,0,1-.87.91Z"/><path class="cls-10" d="M935.69,1471.39a.87.87,0,0,1,1-.67.86.86,0,0,1,.67.67Z"/><path class="cls-10" d="M931.18,1467.1a.9.9,0,1,1,.89-.91h0a.9.9,0,0,1-.89.91Z"/><path class="cls-10" d="M939.22,1394.76a.89.89,0,1,1,.89-.89.89.89,0,0,1-.89.89Z"/><path class="cls-10" d="M936.54,1392.08a.89.89,0,1,1,.89-.89h0a.87.87,0,0,1-.85.89h0Z"/><path class="cls-10" d="M939.22,1400.1a.89.89,0,1,1,.89-.89.89.89,0,0,1-.89.89Z"/><path class="cls-10" d="M936.54,1397.44a.89.89,0,1,1,.89-.89.89.89,0,0,1-.89.89Z"/><path class="cls-10" d="M939.22,1405.49a.9.9,0,1,1,.89-.91h0a.89.89,0,0,1-.88.9h0Z"/><path class="cls-10" d="M936.54,1402.8a.89.89,0,1,1,.89-.89.89.89,0,0,1-.89.89Z"/><path class="cls-10" d="M939.22,1410.85a.9.9,0,1,1,.89-.91h0a.89.89,0,0,1-.88.9h0Z"/><path class="cls-10" d="M936.54,1408.17a.9.9,0,1,1,.89-.91h0a.89.89,0,0,1-.88.9h0Z"/><path class="cls-10" d="M939.22,1416.21a.9.9,0,1,1,.89-.91h0a.89.89,0,0,1-.88.9h0Z"/><path class="cls-10" d="M936.54,1413.5a.9.9,0,1,1,.89-.91h0a.89.89,0,0,1-.88.9h0Z"/><path class="cls-10" d="M939.22,1421.57a.9.9,0,1,1,.89-.91h0a.89.89,0,0,1-.87.91Z"/><path class="cls-10" d="M936.54,1418.89a.9.9,0,1,1,.89-.91h0a.89.89,0,0,1-.87.91Z"/><path class="cls-10" d="M939.22,1426.9a.9.9,0,1,1,.89-.91h0a.89.89,0,0,1-.87.91Z"/><path class="cls-10" d="M936.54,1424.25a.9.9,0,1,1,.89-.91h0a.89.89,0,0,1-.87.91Z"/><path class="cls-10" d="M939.22,1432.29a.89.89,0,1,1,.89-.89h0a.89.89,0,0,1-.89.89Z"/><path class="cls-10" d="M936.54,1429.61a.9.9,0,1,1,.89-.91h0a.89.89,0,0,1-.87.91Z"/><path class="cls-10" d="M939.22,1437.65a.89.89,0,1,1,.89-.89h0a.89.89,0,0,1-.89.89Z"/><path class="cls-10" d="M936.54,1435a.89.89,0,1,1,.89-.89h0a.89.89,0,0,1-.89.89Z"/><path class="cls-10" d="M939.22,1443a.89.89,0,1,1,.89-.89h0a.89.89,0,0,1-.89.89Z"/><path class="cls-10" d="M936.54,1440.3a.89.89,0,1,1,.89-.89h0a.89.89,0,0,1-.89.89Z"/><path class="cls-10" d="M939.22,1448.37a.89.89,0,1,1,.89-.89.89.89,0,0,1-.89.89Z"/><path class="cls-10" d="M936.54,1445.69a.89.89,0,1,1,.89-.89.89.89,0,0,1-.89.89Z"/><path class="cls-10" d="M939.22,1453.7a.89.89,0,1,1,.89-.89.89.89,0,0,1-.89.89Z"/><path class="cls-10" d="M936.54,1451.05a.89.89,0,1,1,.89-.89.89.89,0,0,1-.89.89Z"/><path class="cls-10" d="M939.22,1459.09a.9.9,0,1,1,.89-.91h0a.88.88,0,0,1-.86.9h0Z"/><path class="cls-10" d="M936.54,1456.41a.89.89,0,1,1,.89-.89.89.89,0,0,1-.89.89Z"/><path class="cls-10" d="M939.22,1464.45a.9.9,0,1,1,.89-.91h0a.88.88,0,0,1-.86.9h0Z"/><path class="cls-10" d="M936.54,1461.77a.9.9,0,1,1,.89-.91h0a.88.88,0,0,1-.86.9h0Z"/><path class="cls-10" d="M939.22,1469.81a.9.9,0,1,1,.89-.91h0a.88.88,0,0,1-.86.9h0Z"/><path class="cls-10" d="M936.54,1467.1a.9.9,0,1,1,.89-.91h0a.89.89,0,0,1-.88.9h0Z"/><rect class="cls-4" x="927.6" y="1409.79" width="12.51" height="61.6"/><path class="cls-10" d="M909.69,1393a.89.89,0,1,1-.89.89h0A.91.91,0,0,1,909.69,1393Z"/><path class="cls-10" d="M909.69,1400.1a.89.89,0,1,1,.9-.89.89.89,0,0,1-.9.89Z"/><path class="cls-10" d="M909.69,1405.49a.9.9,0,1,1,.9-.9.9.9,0,0,1-.9.9Z"/><path class="cls-10" d="M909.69,1410.85a.9.9,0,1,1,.9-.9.9.9,0,0,1-.9.9Z"/><path class="cls-10" d="M909.69,1416.21a.9.9,0,1,1,.9-.9.9.9,0,0,1-.9.9Z"/><path class="cls-10" d="M909.69,1421.57a.9.9,0,1,1,.9-.9h0a.89.89,0,0,1-.89.89h0Z"/><path class="cls-10" d="M909.69,1426.9a.9.9,0,1,1,.9-.9h0a.89.89,0,0,1-.89.89h0Z"/><path class="cls-10" d="M909.69,1432.29a.89.89,0,1,1,.9-.89.89.89,0,0,1-.9.89Z"/><path class="cls-10" d="M909.69,1437.65a.89.89,0,1,1,.9-.89.89.89,0,0,1-.9.89Z"/><path class="cls-10" d="M909.69,1443a.89.89,0,1,1,.9-.89.89.89,0,0,1-.9.89Z"/><path class="cls-10" d="M909.69,1448.37a.89.89,0,1,1,.9-.89.89.89,0,0,1-.9.89Z"/><path class="cls-10" d="M909.69,1453.7a.89.89,0,1,1,.9-.89.89.89,0,0,1-.9.89Z"/><path class="cls-10" d="M909.69,1459.09a.9.9,0,1,1,.9-.9.9.9,0,0,1-.9.9Z"/><path class="cls-10" d="M909.69,1464.45a.9.9,0,1,1,.9-.9.9.9,0,0,1-.9.9Z"/><path class="cls-10" d="M909.69,1469.81a.9.9,0,1,1,.9-.9.9.9,0,0,1-.9.9Z"/><path class="cls-10" d="M911.52,1471.39a.87.87,0,0,1,1-.67.86.86,0,0,1,.67.67Z"/><path class="cls-10" d="M915,1394.76a.89.89,0,1,1,.9-.89.89.89,0,0,1-.9.89Z"/><circle class="cls-10" cx="912.37" cy="1391.19" r="0.89"/><path class="cls-10" d="M915,1400.1a.89.89,0,1,1,.9-.89.89.89,0,0,1-.9.89Z"/><circle class="cls-10" cx="912.37" cy="1396.55" r="0.89"/><path class="cls-10" d="M915,1405.49a.9.9,0,1,1,.9-.9.9.9,0,0,1-.9.9Z"/><path class="cls-10" d="M912.37,1402.8a.89.89,0,1,1,.9-.89.89.89,0,0,1-.9.89Z"/><path class="cls-10" d="M915,1410.85a.9.9,0,1,1,.9-.9.9.9,0,0,1-.9.9Z"/><path class="cls-10" d="M912.37,1408.17a.9.9,0,1,1,.9-.9.9.9,0,0,1-.9.9Z"/><path class="cls-10" d="M915,1416.21a.9.9,0,1,1,.9-.9.9.9,0,0,1-.9.9Z"/><circle class="cls-10" cx="912.37" cy="1412.63" r="0.89"/><path class="cls-10" d="M915,1421.57a.9.9,0,1,1,.9-.9h0a.89.89,0,0,1-.89.89h0Z"/><path class="cls-10" d="M912.37,1418.89a.9.9,0,1,1,.9-.9h0a.89.89,0,0,1-.89.89h0Z"/><path class="cls-10" d="M915,1426.9a.9.9,0,1,1,.9-.9h0a.89.89,0,0,1-.89.89h0Z"/><path class="cls-10" d="M912.37,1424.25a.9.9,0,1,1,.9-.9h0a.89.89,0,0,1-.89.89h0Z"/><path class="cls-10" d="M915,1432.29a.89.89,0,1,1,.9-.89.89.89,0,0,1-.9.89Z"/><path class="cls-10" d="M912.37,1429.61a.9.9,0,1,1,.9-.9h0a.89.89,0,0,1-.89.89h0Z"/><path class="cls-10" d="M915,1437.65a.89.89,0,1,1,.9-.89.89.89,0,0,1-.9.89Z"/><circle class="cls-10" cx="912.37" cy="1434.08" r="0.89"/><path class="cls-10" d="M915,1443a.89.89,0,1,1,.9-.89.89.89,0,0,1-.9.89Z"/><circle class="cls-10" cx="912.37" cy="1439.44" r="0.89"/><path class="cls-10" d="M915,1448.37a.89.89,0,1,1,.9-.89.89.89,0,0,1-.9.89Z"/><path class="cls-10" d="M912.37,1445.69a.89.89,0,1,1,.9-.89.89.89,0,0,1-.9.89Z"/><path class="cls-10" d="M915,1453.7a.89.89,0,1,1,.9-.89.89.89,0,0,1-.9.89Z"/><circle class="cls-10" cx="912.37" cy="1450.16" r="0.89"/><path class="cls-10" d="M915,1459.09a.9.9,0,1,1,.9-.9.9.9,0,0,1-.9.9Z"/><circle class="cls-10" cx="912.37" cy="1455.52" r="0.89"/><path class="cls-10" d="M915,1464.45a.9.9,0,1,1,.9-.9.9.9,0,0,1-.9.9Z"/><path class="cls-10" d="M912.37,1461.77a.9.9,0,1,1,.9-.9.9.9,0,0,1-.9.9Z"/><path class="cls-10" d="M915,1469.81a.9.9,0,1,1,.9-.9.9.9,0,0,1-.9.9Z"/><path class="cls-10" d="M916.89,1471.39a.87.87,0,0,1,1-.69.88.88,0,0,1,.69.69Z"/><path class="cls-10" d="M912.37,1467.1a.9.9,0,1,1,.9-.9.9.9,0,0,1-.9.9Z"/><path class="cls-10" d="M920.41,1394.76a.89.89,0,1,1,.9-.89.89.89,0,0,1-.9.89Z"/><circle class="cls-10" cx="917.73" cy="1391.19" r="0.89"/><circle class="cls-10" cx="920.41" cy="1399.23" r="0.89"/><circle class="cls-10" cx="917.73" cy="1396.55" r="0.89"/><path class="cls-10" d="M920.41,1405.49a.9.9,0,1,1,.9-.9.9.9,0,0,1-.9.9Z"/><path class="cls-10" d="M917.73,1402.8a.89.89,0,1,1,.9-.89.89.89,0,0,1-.9.89Z"/><path class="cls-10" d="M920.41,1410.85a.9.9,0,1,1,.9-.9.9.9,0,0,1-.9.9Z"/><path class="cls-10" d="M917.73,1408.17a.9.9,0,1,1,.9-.9.9.9,0,0,1-.9.9Z"/><circle class="cls-10" cx="920.41" cy="1415.31" r="0.89"/><circle class="cls-10" cx="917.73" cy="1412.63" r="0.89"/><path class="cls-10" d="M920.41,1421.57a.9.9,0,1,1,.9-.9h0a.89.89,0,0,1-.89.89h0Z"/><path class="cls-10" d="M917.73,1418.89a.9.9,0,1,1,.9-.9h0a.89.89,0,0,1-.89.89h0Z"/><path class="cls-10" d="M920.41,1426.9a.9.9,0,1,1,.9-.9h0a.89.89,0,0,1-.89.89h0Z"/><path class="cls-10" d="M917.73,1424.25a.9.9,0,1,1,.9-.9h0a.89.89,0,0,1-.89.89h0Z"/><circle class="cls-10" cx="920.41" cy="1431.4" r="0.89"/><path class="cls-10" d="M917.73,1429.61a.9.9,0,1,1,.9-.9h0a.89.89,0,0,1-.89.89h0Z"/><path class="cls-10" d="M920.41,1437.65a.89.89,0,1,1,.9-.89.89.89,0,0,1-.9.89Z"/><circle class="cls-10" cx="917.73" cy="1434.08" r="0.89"/><path class="cls-10" d="M920.41,1443a.89.89,0,1,1,.9-.89.89.89,0,0,1-.9.89Z"/><circle class="cls-10" cx="917.73" cy="1439.44" r="0.89"/><path class="cls-10" d="M920.41,1448.37a.89.89,0,1,1,.9-.89.89.89,0,0,1-.9.89Z"/><path class="cls-10" d="M917.73,1445.69a.89.89,0,1,1,.9-.89.89.89,0,0,1-.9.89Z"/><path class="cls-10" d="M920.41,1453.7a.89.89,0,1,1,.9-.89.89.89,0,0,1-.9.89Z"/><circle class="cls-10" cx="917.73" cy="1450.16" r="0.89"/><circle class="cls-10" cx="920.41" cy="1458.2" r="0.89"/><circle class="cls-10" cx="917.73" cy="1455.52" r="0.89"/><path class="cls-10" d="M920.41,1464.45a.9.9,0,1,1,.9-.9.9.9,0,0,1-.9.9Z"/><path class="cls-10" d="M917.73,1461.77a.9.9,0,1,1,.9-.9.9.9,0,0,1-.9.9Z"/><circle class="cls-10" cx="920.41" cy="1468.91" r="0.89"/><path class="cls-10" d="M917.73,1467.1a.9.9,0,1,1,.9-.9.9.9,0,0,1-.9.9Z"/><rect class="cls-13" x="908.8" y="1417.99" width="12.51" height="53.39"/><path class="cls-10" d="M890.88,1393a.89.89,0,1,1-.89.89.89.89,0,0,1,.89-.89Z"/><path class="cls-10" d="M890.88,1400.1a.89.89,0,1,1,.89-.89.89.89,0,0,1-.89.89Z"/><path class="cls-10" d="M890.88,1405.49a.9.9,0,1,1,.89-.91h0a.89.89,0,0,1-.88.9h0Z"/><path class="cls-10" d="M890.88,1410.85a.9.9,0,1,1,.89-.91h0a.89.89,0,0,1-.88.9h0Z"/><path class="cls-10" d="M890.88,1416.21a.9.9,0,1,1,.89-.91h0a.89.89,0,0,1-.88.9h0Z"/><path class="cls-10" d="M890.88,1421.57a.9.9,0,1,1,.89-.91h0a.89.89,0,0,1-.87.91Z"/><path class="cls-10" d="M890.88,1426.9a.9.9,0,1,1,.89-.91h0a.89.89,0,0,1-.87.91Z"/><path class="cls-10" d="M890.88,1432.29a.89.89,0,1,1,.89-.89h0a.89.89,0,0,1-.89.89Z"/><path class="cls-10" d="M890.88,1437.65a.89.89,0,1,1,.89-.89h0a.89.89,0,0,1-.89.89Z"/><path class="cls-10" d="M890.88,1443a.89.89,0,1,1,.89-.89h0a.89.89,0,0,1-.89.89Z"/><path class="cls-10" d="M890.88,1448.37a.89.89,0,1,1,.89-.89.89.89,0,0,1-.89.89Z"/><path class="cls-10" d="M890.88,1453.7a.89.89,0,1,1,.89-.89.89.89,0,0,1-.89.89Z"/><path class="cls-10" d="M890.88,1459.09a.9.9,0,1,1,.89-.91h0a.88.88,0,0,1-.86.9h0Z"/><path class="cls-10" d="M890.88,1464.45a.9.9,0,1,1,.89-.91h0a.88.88,0,0,1-.86.9h0Z"/><path class="cls-10" d="M890.88,1469.81a.9.9,0,1,1,.89-.91h0a.88.88,0,0,1-.86.9h0Z"/><path class="cls-10" d="M892.71,1471.39a.87.87,0,0,1,1-.67.86.86,0,0,1,.67.67Z"/><path class="cls-10" d="M896.24,1394.76a.89.89,0,1,1,.89-.89h0a.89.89,0,0,1-.89.89Z"/><circle class="cls-10" cx="893.56" cy="1391.19" r="0.89"/><path class="cls-10" d="M896.24,1400.1a.89.89,0,1,1,.89-.89h0a.89.89,0,0,1-.89.89Z"/><circle class="cls-10" cx="893.56" cy="1396.55" r="0.89"/><path class="cls-10" d="M896.24,1405.49a.9.9,0,1,1,.89-.91h0a.89.89,0,0,1-.87.91Z"/><path class="cls-10" d="M893.56,1402.8a.89.89,0,1,1,.89-.89.89.89,0,0,1-.89.89Z"/><path class="cls-10" d="M896.24,1410.85a.9.9,0,1,1,.89-.91h0a.89.89,0,0,1-.87.91Z"/><path class="cls-10" d="M893.56,1408.17a.9.9,0,1,1,.89-.91h0a.89.89,0,0,1-.88.9h0Z"/><path class="cls-10" d="M896.24,1416.21a.9.9,0,1,1,.89-.91h0a.89.89,0,0,1-.87.91Z"/><circle class="cls-10" cx="893.56" cy="1412.63" r="0.89"/><path class="cls-10" d="M896.24,1421.57a.9.9,0,1,1,.89-.91h0a.89.89,0,0,1-.87.91Z"/><path class="cls-10" d="M893.56,1418.89a.9.9,0,1,1,.89-.91h0a.89.89,0,0,1-.87.91Z"/><path class="cls-10" d="M896.24,1426.9a.9.9,0,1,1,.89-.91h0a.89.89,0,0,1-.87.91Z"/><path class="cls-10" d="M893.56,1424.25a.9.9,0,1,1,.89-.91h0a.89.89,0,0,1-.87.91Z"/><path class="cls-10" d="M896.24,1432.29a.89.89,0,1,1,.89-.89.89.89,0,0,1-.89.89Z"/><path class="cls-10" d="M893.56,1429.61a.9.9,0,1,1,.89-.91h0a.89.89,0,0,1-.87.91Z"/><path class="cls-10" d="M896.24,1437.65a.89.89,0,1,1,.89-.89.89.89,0,0,1-.89.89Z"/><circle class="cls-10" cx="893.56" cy="1434.08" r="0.89"/><path class="cls-10" d="M896.24,1443a.89.89,0,1,1,.89-.89.89.89,0,0,1-.89.89Z"/><circle class="cls-10" cx="893.56" cy="1439.44" r="0.89"/><path class="cls-10" d="M896.24,1448.37a.89.89,0,1,1,.89-.89h0a.89.89,0,0,1-.89.89Z"/><path class="cls-10" d="M893.56,1445.69a.89.89,0,1,1,.89-.89.89.89,0,0,1-.89.89Z"/><path class="cls-10" d="M896.24,1453.7a.89.89,0,1,1,.89-.89h0a.89.89,0,0,1-.89.89Z"/><circle class="cls-10" cx="893.56" cy="1450.16" r="0.89"/><path class="cls-10" d="M896.24,1459.09a.9.9,0,1,1,.89-.91h0a.89.89,0,0,1-.87.91Z"/><circle class="cls-10" cx="893.56" cy="1455.52" r="0.89"/><path class="cls-10" d="M896.24,1464.45a.9.9,0,1,1,.89-.91h0a.89.89,0,0,1-.87.91Z"/><path class="cls-10" d="M893.56,1461.77a.9.9,0,1,1,.89-.91h0a.88.88,0,0,1-.86.9h0Z"/><path class="cls-10" d="M896.24,1469.81a.9.9,0,1,1,.89-.91h0a.89.89,0,0,1-.87.91Z"/><path class="cls-10" d="M898.07,1471.39a.87.87,0,0,1,1-.67.86.86,0,0,1,.67.67Z"/><path class="cls-10" d="M893.56,1467.1a.9.9,0,1,1,.89-.91h0a.89.89,0,0,1-.88.9h0Z"/><path class="cls-10" d="M901.64,1394.76a.89.89,0,1,1,.89-.89h0a.89.89,0,0,1-.89.89Z"/><path class="cls-10" d="M898.92,1392.08a.89.89,0,1,1,.89-.89h0a.89.89,0,0,1-.89.89Z"/><path class="cls-10" d="M901.64,1400.1a.89.89,0,1,1,.89-.89h0a.89.89,0,0,1-.89.89Z"/><path class="cls-10" d="M898.92,1397.44a.89.89,0,1,1,.89-.89h0a.89.89,0,0,1-.89.89Z"/><path class="cls-10" d="M901.64,1405.49a.9.9,0,1,1,.89-.91h0a.89.89,0,0,1-.87.91Z"/><path class="cls-10" d="M898.92,1402.8a.89.89,0,1,1,.89-.89h0a.89.89,0,0,1-.89.89Z"/><path class="cls-10" d="M901.64,1410.85a.9.9,0,1,1,.89-.91h0a.89.89,0,0,1-.87.91Z"/><path class="cls-10" d="M898.92,1408.17a.9.9,0,1,1,.89-.91h0a.89.89,0,0,1-.87.91Z"/><path class="cls-10" d="M901.64,1416.21a.9.9,0,1,1,.89-.91h0a.9.9,0,0,1-.89.91Z"/><path class="cls-10" d="M898.92,1413.5a.9.9,0,1,1,.89-.91h0a.89.89,0,0,1-.87.91Z"/><path class="cls-10" d="M901.64,1421.57a.9.9,0,1,1,.89-.91h0a.89.89,0,0,1-.87.91Z"/><path class="cls-10" d="M898.92,1418.89a.9.9,0,1,1,.89-.91h0a.89.89,0,0,1-.87.91Z"/><path class="cls-10" d="M901.64,1426.9a.9.9,0,1,1,.89-.91h0a.89.89,0,0,1-.87.91Z"/><path class="cls-10" d="M898.92,1424.25a.9.9,0,1,1,.89-.91h0a.89.89,0,0,1-.87.91Z"/><path class="cls-10" d="M901.64,1432.29a.89.89,0,1,1,.89-.89.89.89,0,0,1-.89.89Z"/><path class="cls-10" d="M898.92,1429.61a.9.9,0,1,1,.89-.91h0a.89.89,0,0,1-.87.91Z"/><path class="cls-10" d="M901.64,1437.65a.89.89,0,1,1,.89-.89.89.89,0,0,1-.89.89Z"/><path class="cls-10" d="M898.92,1435a.89.89,0,1,1,.89-.89.89.89,0,0,1-.89.89Z"/><path class="cls-10" d="M901.64,1443a.89.89,0,1,1,.89-.89.89.89,0,0,1-.89.89Z"/><path class="cls-10" d="M898.92,1440.3a.89.89,0,1,1,.89-.89.89.89,0,0,1-.89.89Z"/><path class="cls-10" d="M901.64,1448.37a.89.89,0,1,1,.89-.89h0a.89.89,0,0,1-.89.89Z"/><path class="cls-10" d="M898.92,1445.69a.89.89,0,1,1,.89-.89h0a.89.89,0,0,1-.89.89Z"/><path class="cls-10" d="M901.64,1453.7a.89.89,0,1,1,.89-.89h0a.89.89,0,0,1-.89.89Z"/><path class="cls-10" d="M898.92,1451.05a.89.89,0,1,1,.89-.89h0a.89.89,0,0,1-.89.89Z"/><path class="cls-10" d="M901.64,1459.09a.9.9,0,1,1,.89-.91h0a.89.89,0,0,1-.87.91Z"/><path class="cls-10" d="M898.92,1456.41a.89.89,0,1,1,.89-.89h0a.89.89,0,0,1-.89.89Z"/><path class="cls-10" d="M901.64,1464.45a.9.9,0,1,1,.89-.91h0a.89.89,0,0,1-.87.91Z"/><path class="cls-10" d="M898.92,1461.77a.9.9,0,1,1,.89-.91h0a.89.89,0,0,1-.87.91Z"/><path class="cls-10" d="M901.64,1469.81a.9.9,0,1,1,.89-.91h0a.89.89,0,0,1-.87.91Z"/><path class="cls-10" d="M898.92,1467.1a.9.9,0,1,1,.89-.91h0a.9.9,0,0,1-.89.91Z"/><rect class="cls-4" x="889.98" y="1446.71" width="12.51" height="24.67"/><path class="cls-10" d="M872.08,1393a.89.89,0,1,1-.9.89.89.89,0,0,1,.9-.89Z"/><path class="cls-10" d="M872.08,1400.1a.89.89,0,1,1,.89-.89h0a.89.89,0,0,1-.89.89Z"/><path class="cls-10" d="M872.08,1405.49a.9.9,0,1,1,.89-.91h0a.89.89,0,0,1-.87.91Z"/><path class="cls-10" d="M872.08,1410.85a.9.9,0,1,1,.89-.91h0a.89.89,0,0,1-.87.91Z"/><path class="cls-10" d="M872.08,1416.21a.9.9,0,1,1,.89-.91h0a.9.9,0,0,1-.89.91Z"/><path class="cls-10" d="M872.08,1421.57a.9.9,0,1,1,.89-.91h0a.9.9,0,0,1-.89.91Z"/><path class="cls-10" d="M872.08,1426.9a.9.9,0,1,1,.89-.91h0a.9.9,0,0,1-.89.91Z"/><path class="cls-10" d="M872.08,1432.29a.89.89,0,1,1,.89-.89h0A.91.91,0,0,1,872.08,1432.29Z"/><path class="cls-10" d="M872.08,1437.65a.89.89,0,1,1,.89-.89h0A.91.91,0,0,1,872.08,1437.65Z"/><path class="cls-10" d="M872.08,1443a.89.89,0,1,1,.89-.89h0A.91.91,0,0,1,872.08,1443Z"/><path class="cls-10" d="M872.08,1448.37a.89.89,0,1,1,.89-.89h0a.89.89,0,0,1-.89.89Z"/><path class="cls-10" d="M872.08,1453.7a.89.89,0,1,1,.89-.89h0a.89.89,0,0,1-.89.89Z"/><path class="cls-10" d="M872.08,1459.09a.9.9,0,1,1,.89-.91h0a.89.89,0,0,1-.87.91Z"/><path class="cls-10" d="M872.08,1464.45a.9.9,0,1,1,.89-.91h0a.89.89,0,0,1-.87.91Z"/><path class="cls-10" d="M872.08,1469.81a.9.9,0,1,1,.89-.91h0a.89.89,0,0,1-.87.91Z"/><path class="cls-10" d="M873.89,1471.39a.87.87,0,0,1,1-.69.88.88,0,0,1,.69.69Z"/><path class="cls-10" d="M877.44,1394.76a.89.89,0,1,1,.89-.89h0a.89.89,0,0,1-.89.89Z"/><path class="cls-10" d="M874.76,1392.08a.89.89,0,1,1,.89-.89h0a.89.89,0,0,1-.89.89Z"/><circle class="cls-10" cx="877.44" cy="1399.23" r="0.89"/><path class="cls-10" d="M874.76,1397.44a.89.89,0,1,1,.89-.89h0a.89.89,0,0,1-.89.89Z"/><path class="cls-10" d="M877.44,1405.49a.9.9,0,1,1,.89-.91h0a.89.89,0,0,1-.87.91Z"/><path class="cls-10" d="M874.76,1402.8a.89.89,0,1,1,.89-.89h0a.89.89,0,0,1-.89.89Z"/><path class="cls-10" d="M877.44,1410.85a.9.9,0,1,1,.89-.91h0a.89.89,0,0,1-.87.91Z"/><path class="cls-10" d="M874.76,1408.17a.9.9,0,1,1,.89-.91h0a.89.89,0,0,1-.87.91Z"/><circle class="cls-10" cx="877.44" cy="1415.31" r="0.89"/><path class="cls-10" d="M874.76,1413.5a.9.9,0,1,1,.89-.91h0a.89.89,0,0,1-.87.91Z"/><path class="cls-10" d="M877.44,1421.57a.9.9,0,1,1,.89-.91h0a.9.9,0,0,1-.89.91Z"/><path class="cls-10" d="M874.76,1418.89a.9.9,0,1,1,.89-.91h0a.9.9,0,0,1-.89.91Z"/><path class="cls-10" d="M877.44,1426.9a.9.9,0,1,1,.89-.91h0a.9.9,0,0,1-.89.91Z"/><path class="cls-10" d="M874.76,1424.25a.9.9,0,1,1,.89-.91h0A.92.92,0,0,1,874.76,1424.25Z"/><circle class="cls-10" cx="877.44" cy="1431.4" r="0.89"/><path class="cls-10" d="M874.76,1429.61a.9.9,0,1,1,.89-.91h0A.92.92,0,0,1,874.76,1429.61Z"/><path class="cls-10" d="M877.44,1437.65a.89.89,0,1,1,.89-.89h0A.91.91,0,0,1,877.44,1437.65Z"/><path class="cls-10" d="M874.76,1435a.89.89,0,1,1,.89-.89h0A.91.91,0,0,1,874.76,1435Z"/><path class="cls-10" d="M877.44,1443a.89.89,0,1,1,.89-.89h0A.91.91,0,0,1,877.44,1443Z"/><path class="cls-10" d="M874.76,1440.3a.89.89,0,1,1,.89-.89h0A.91.91,0,0,1,874.76,1440.3Z"/><path class="cls-10" d="M877.44,1448.37a.89.89,0,1,1,.89-.89h0a.89.89,0,0,1-.89.89Z"/><path class="cls-10" d="M874.76,1445.69a.89.89,0,1,1,.89-.89h0a.89.89,0,0,1-.89.89Z"/><path class="cls-10" d="M877.44,1453.7a.89.89,0,1,1,.89-.89h0a.89.89,0,0,1-.89.89Z"/><path class="cls-10" d="M874.76,1451.05a.89.89,0,1,1,.89-.89h0a.89.89,0,0,1-.89.89Z"/><circle class="cls-10" cx="877.44" cy="1458.2" r="0.89"/><path class="cls-10" d="M874.76,1456.41a.89.89,0,1,1,.89-.89h0a.89.89,0,0,1-.89.89Z"/><path class="cls-10" d="M877.44,1464.45a.9.9,0,1,1,.89-.91h0a.89.89,0,0,1-.87.91Z"/><path class="cls-10" d="M874.76,1461.77a.9.9,0,1,1,.89-.91h0a.89.89,0,0,1-.87.91Z"/><circle class="cls-10" cx="877.44" cy="1468.91" r="0.89"/><path class="cls-10" d="M879.26,1471.39a.87.87,0,0,1,1-.67.86.86,0,0,1,.67.67Z"/><path class="cls-10" d="M874.76,1467.1a.9.9,0,1,1,.89-.91h0A.92.92,0,0,1,874.76,1467.1Z"/><path class="cls-10" d="M882.8,1394.76a.89.89,0,1,1,.89-.89.89.89,0,0,1-.89.89Z"/><circle class="cls-10" cx="880.12" cy="1391.19" r="0.89"/><path class="cls-10" d="M882.8,1400.1a.89.89,0,1,1,.89-.89.89.89,0,0,1-.89.89Z"/><circle class="cls-10" cx="880.12" cy="1396.55" r="0.89"/><path class="cls-10" d="M882.8,1405.49a.9.9,0,1,1,.89-.91h0a.89.89,0,0,1-.88.9h0Z"/><path class="cls-10" d="M880.12,1402.8a.89.89,0,1,1,.89-.89h0a.89.89,0,0,1-.89.89Z"/><path class="cls-10" d="M882.8,1410.85a.9.9,0,1,1,.89-.91h0a.89.89,0,0,1-.88.9h0Z"/><path class="cls-10" d="M880.12,1408.17a.9.9,0,1,1,.89-.91h0a.89.89,0,0,1-.87.91Z"/><path class="cls-10" d="M882.8,1416.21a.9.9,0,1,1,.89-.91h0a.89.89,0,0,1-.88.9h0Z"/><circle class="cls-10" cx="880.12" cy="1412.63" r="0.89"/><path class="cls-10" d="M882.8,1421.57a.9.9,0,1,1,.89-.91h0a.89.89,0,0,1-.87.91Z"/><path class="cls-10" d="M880.12,1418.89a.9.9,0,1,1,.89-.91h0a.9.9,0,0,1-.89.91Z"/><path class="cls-10" d="M882.8,1426.9a.9.9,0,1,1,.89-.91h0a.89.89,0,0,1-.87.91Z"/><path class="cls-10" d="M880.12,1424.25a.9.9,0,1,1,.89-.91h0A.92.92,0,0,1,880.12,1424.25Z"/><path class="cls-10" d="M882.8,1432.29a.89.89,0,1,1,.89-.89h0a.89.89,0,0,1-.89.89Z"/><path class="cls-10" d="M880.12,1429.61a.9.9,0,1,1,.89-.91h0A.92.92,0,0,1,880.12,1429.61Z"/><path class="cls-10" d="M882.8,1437.65a.89.89,0,1,1,.89-.89h0a.89.89,0,0,1-.89.89Z"/><circle class="cls-10" cx="880.12" cy="1434.08" r="0.89"/><path class="cls-10" d="M882.8,1443a.89.89,0,1,1,.89-.89h0a.89.89,0,0,1-.89.89Z"/><circle class="cls-10" cx="880.12" cy="1439.44" r="0.89"/><path class="cls-10" d="M882.8,1448.37a.89.89,0,1,1,.89-.89.89.89,0,0,1-.89.89Z"/><path class="cls-10" d="M880.12,1445.69a.89.89,0,1,1,.89-.89h0a.89.89,0,0,1-.89.89Z"/><path class="cls-10" d="M882.8,1453.7a.89.89,0,1,1,.89-.89.89.89,0,0,1-.89.89Z"/><circle class="cls-10" cx="880.12" cy="1450.16" r="0.89"/><path class="cls-10" d="M882.8,1459.09a.9.9,0,1,1,.89-.91h0a.89.89,0,0,1-.88.9h0Z"/><circle class="cls-10" cx="880.12" cy="1455.52" r="0.89"/><path class="cls-10" d="M882.8,1464.45a.9.9,0,1,1,.89-.91h0a.89.89,0,0,1-.88.9h0Z"/><path class="cls-10" d="M880.12,1461.77a.9.9,0,1,1,.89-.91h0a.89.89,0,0,1-.87.91Z"/><path class="cls-10" d="M882.8,1469.81a.9.9,0,1,1,.89-.91h0a.89.89,0,0,1-.88.9h0Z"/><path class="cls-10" d="M880.12,1467.1a.9.9,0,1,1,.89-.91h0A.92.92,0,0,1,880.12,1467.1Z"/><rect class="cls-13" x="871.18" y="1403.69" width="12.51" height="67.69"/><path class="cls-10" d="M853.26,1393a.89.89,0,1,1-.89.89h0a.89.89,0,0,1,.89-.89Z"/><path class="cls-10" d="M853.26,1400.1a.89.89,0,1,1,.89-.89h0a.89.89,0,0,1-.89.89Z"/><path class="cls-10" d="M853.26,1405.49a.9.9,0,1,1,.89-.91h0a.89.89,0,0,1-.87.91Z"/><path class="cls-10" d="M853.26,1410.85a.9.9,0,1,1,.89-.91h0a.89.89,0,0,1-.87.91Z"/><path class="cls-10" d="M853.26,1416.21a.9.9,0,1,1,.89-.91h0a.89.89,0,0,1-.87.91Z"/><path class="cls-10" d="M853.26,1421.57a.9.9,0,1,1,.89-.91h0a.89.89,0,0,1-.87.91Z"/><path class="cls-10" d="M853.26,1426.9a.9.9,0,1,1,.89-.91h0a.89.89,0,0,1-.87.91Z"/><path class="cls-10" d="M853.26,1432.29a.89.89,0,1,1,.89-.89.89.89,0,0,1-.89.89Z"/><path class="cls-10" d="M853.26,1437.65a.89.89,0,1,1,.89-.89.89.89,0,0,1-.89.89Z"/><path class="cls-10" d="M853.26,1443a.89.89,0,1,1,.89-.89.89.89,0,0,1-.89.89Z"/><path class="cls-10" d="M853.26,1448.37a.89.89,0,1,1,.89-.89h0a.89.89,0,0,1-.89.89Z"/><path class="cls-10" d="M853.26,1453.7a.89.89,0,1,1,.89-.89h0a.89.89,0,0,1-.89.89Z"/><path class="cls-10" d="M853.26,1459.09a.9.9,0,1,1,.89-.91h0a.89.89,0,0,1-.87.91Z"/><path class="cls-10" d="M853.26,1464.45a.9.9,0,1,1,.89-.91h0a.89.89,0,0,1-.87.91Z"/><path class="cls-10" d="M853.26,1469.81a.9.9,0,1,1,.89-.91h0a.89.89,0,0,1-.87.91Z"/><path class="cls-10" d="M855.09,1471.39a.87.87,0,0,1,1-.67.86.86,0,0,1,.67.67Z"/><path class="cls-10" d="M858.62,1394.76a.89.89,0,1,1,.9-.89.89.89,0,0,1-.9.89Z"/><circle class="cls-10" cx="855.94" cy="1391.19" r="0.89"/><path class="cls-10" d="M858.62,1400.1a.89.89,0,1,1,.9-.89.89.89,0,0,1-.9.89Z"/><circle class="cls-10" cx="855.94" cy="1396.55" r="0.89"/><path class="cls-10" d="M858.62,1405.49a.9.9,0,1,1,.9-.9.9.9,0,0,1-.9.9Z"/><path class="cls-10" d="M855.94,1402.8a.89.89,0,1,1,.9-.89.89.89,0,0,1-.9.89Z"/><path class="cls-10" d="M858.62,1410.85a.9.9,0,1,1,.9-.9.9.9,0,0,1-.9.9Z"/><path class="cls-10" d="M855.94,1408.17a.9.9,0,1,1,.9-.9.9.9,0,0,1-.9.9Z"/><path class="cls-10" d="M858.62,1416.21a.9.9,0,1,1,.9-.9.9.9,0,0,1-.9.9Z"/><circle class="cls-10" cx="855.94" cy="1412.63" r="0.89"/><path class="cls-10" d="M858.62,1421.57a.9.9,0,1,1,.9-.9h0a.89.89,0,0,1-.89.89h0Z"/><path class="cls-10" d="M855.94,1418.89a.9.9,0,1,1,.9-.9h0a.89.89,0,0,1-.89.89h0Z"/><path class="cls-10" d="M858.62,1426.9a.9.9,0,1,1,.9-.9h0a.89.89,0,0,1-.89.89h0Z"/><path class="cls-10" d="M855.94,1424.25a.9.9,0,1,1,.9-.9h0a.89.89,0,0,1-.89.89h0Z"/><path class="cls-10" d="M858.62,1432.29a.89.89,0,1,1,.9-.89.89.89,0,0,1-.9.89Z"/><path class="cls-10" d="M855.94,1429.61a.9.9,0,1,1,.9-.9h0a.89.89,0,0,1-.89.89h0Z"/><path class="cls-10" d="M858.62,1437.65a.89.89,0,1,1,.9-.89.89.89,0,0,1-.9.89Z"/><circle class="cls-10" cx="855.94" cy="1434.08" r="0.89"/><path class="cls-10" d="M858.62,1443a.89.89,0,1,1,.9-.89.89.89,0,0,1-.9.89Z"/><circle class="cls-10" cx="855.94" cy="1439.44" r="0.89"/><path class="cls-10" d="M858.62,1448.37a.89.89,0,1,1,.9-.89.89.89,0,0,1-.9.89Z"/><path class="cls-10" d="M855.94,1445.69a.89.89,0,1,1,.9-.89.89.89,0,0,1-.9.89Z"/><path class="cls-10" d="M858.62,1453.7a.89.89,0,1,1,.9-.89.89.89,0,0,1-.9.89Z"/><circle class="cls-10" cx="855.94" cy="1450.16" r="0.89"/><path class="cls-10" d="M858.62,1459.09a.9.9,0,1,1,.9-.9.9.9,0,0,1-.9.9Z"/><circle class="cls-10" cx="855.94" cy="1455.52" r="0.89"/><path class="cls-10" d="M858.62,1464.45a.9.9,0,1,1,.9-.9.9.9,0,0,1-.9.9Z"/><path class="cls-10" d="M855.94,1461.77a.9.9,0,1,1,.9-.9.9.9,0,0,1-.9.9Z"/><path class="cls-10" d="M858.62,1469.81a.9.9,0,1,1,.9-.9.9.9,0,0,1-.9.9Z"/><path class="cls-10" d="M860.49,1471.39a.87.87,0,0,1,1-.67.86.86,0,0,1,.67.67Z"/><path class="cls-10" d="M855.94,1467.1a.9.9,0,1,1,.9-.9.9.9,0,0,1-.9.9Z"/><path class="cls-10" d="M864,1394.76a.89.89,0,1,1,.9-.89.89.89,0,0,1-.9.89Z"/><path class="cls-10" d="M861.3,1392.08a.89.89,0,1,1,.9-.89.89.89,0,0,1-.9.89Z"/><path class="cls-10" d="M864,1400.1a.89.89,0,1,1,.9-.89.89.89,0,0,1-.9.89Z"/><path class="cls-10" d="M861.3,1397.44a.89.89,0,1,1,.9-.89.89.89,0,0,1-.9.89Z"/><path class="cls-10" d="M864,1405.49a.9.9,0,1,1,.9-.9.9.9,0,0,1-.9.9Z"/><path class="cls-10" d="M861.3,1402.8a.89.89,0,1,1,.9-.89.89.89,0,0,1-.9.89Z"/><path class="cls-10" d="M864,1410.85a.9.9,0,1,1,.9-.9.9.9,0,0,1-.9.9Z"/><path class="cls-10" d="M861.3,1408.17a.9.9,0,1,1,.9-.9.9.9,0,0,1-.9.9Z"/><path class="cls-10" d="M864,1416.21a.9.9,0,1,1,.9-.9.9.9,0,0,1-.9.9Z"/><path class="cls-10" d="M861.3,1413.5a.9.9,0,1,1,.9-.9.9.9,0,0,1-.9.9Z"/><path class="cls-10" d="M864,1421.57a.9.9,0,1,1,.9-.9h0a.89.89,0,0,1-.89.89h0Z"/><path class="cls-10" d="M861.3,1418.89a.9.9,0,1,1,.9-.9h0a.89.89,0,0,1-.89.89h0Z"/><path class="cls-10" d="M864,1426.9a.9.9,0,1,1,.9-.9h0a.89.89,0,0,1-.89.89h0Z"/><path class="cls-10" d="M861.3,1424.25a.9.9,0,1,1,.9-.9h0a.89.89,0,0,1-.89.89h0Z"/><path class="cls-10" d="M864,1432.29a.89.89,0,1,1,.9-.89.89.89,0,0,1-.9.89Z"/><path class="cls-10" d="M861.3,1429.61a.9.9,0,1,1,.9-.9h0a.89.89,0,0,1-.89.89h0Z"/><path class="cls-10" d="M864,1437.65a.89.89,0,1,1,.9-.89.89.89,0,0,1-.9.89Z"/><path class="cls-10" d="M861.3,1435a.89.89,0,1,1,.9-.89.89.89,0,0,1-.9.89Z"/><path class="cls-10" d="M864,1443a.89.89,0,1,1,.9-.89.89.89,0,0,1-.9.89Z"/><path class="cls-10" d="M861.3,1440.3a.89.89,0,1,1,.9-.89.89.89,0,0,1-.9.89Z"/><path class="cls-10" d="M864,1448.37a.89.89,0,1,1,.9-.89.89.89,0,0,1-.9.89Z"/><path class="cls-10" d="M861.3,1445.69a.89.89,0,1,1,.9-.89.89.89,0,0,1-.9.89Z"/><path class="cls-10" d="M864,1453.7a.89.89,0,1,1,.9-.89.89.89,0,0,1-.9.89Z"/><path class="cls-10" d="M861.3,1451.05a.89.89,0,1,1,.9-.89.89.89,0,0,1-.9.89Z"/><path class="cls-10" d="M864,1459.09a.9.9,0,1,1,.9-.9.9.9,0,0,1-.9.9Z"/><path class="cls-10" d="M861.3,1456.41a.89.89,0,1,1,.9-.89.89.89,0,0,1-.9.89Z"/><path class="cls-10" d="M864,1464.45a.9.9,0,1,1,.9-.9.9.9,0,0,1-.9.9Z"/><path class="cls-10" d="M861.3,1461.77a.9.9,0,1,1,.9-.9.9.9,0,0,1-.9.9Z"/><path class="cls-10" d="M864,1469.81a.9.9,0,1,1,.9-.9.9.9,0,0,1-.9.9Z"/><path class="cls-10" d="M861.3,1467.1a.9.9,0,1,1,.9-.9.9.9,0,0,1-.9.9Z"/><rect class="cls-4" x="852.37" y="1398.33" width="12.51" height="73.05"/><path class="cls-10" d="M834.46,1393a.89.89,0,0,1,0,1.78h0a.89.89,0,0,1,0-1.78Z"/><path class="cls-10" d="M834.46,1400.1a.89.89,0,1,1,.89-.89.89.89,0,0,1-.89.89Z"/><path class="cls-10" d="M834.46,1405.49a.9.9,0,1,1,.89-.91h0a.89.89,0,0,1-.88.9h0Z"/><path class="cls-10" d="M834.46,1410.85a.9.9,0,1,1,.89-.91h0a.89.89,0,0,1-.88.9h0Z"/><path class="cls-10" d="M834.46,1416.21a.9.9,0,1,1,.89-.91h0a.89.89,0,0,1-.88.9h0Z"/><path class="cls-10" d="M834.46,1421.57a.9.9,0,1,1,.89-.91h0a.89.89,0,0,1-.87.91Z"/><path class="cls-10" d="M834.46,1426.9a.9.9,0,1,1,.89-.91h0a.89.89,0,0,1-.87.91Z"/><path class="cls-10" d="M834.46,1432.29a.89.89,0,1,1,.89-.89h0a.89.89,0,0,1-.89.89Z"/><path class="cls-10" d="M834.46,1437.65a.89.89,0,1,1,.89-.89h0a.89.89,0,0,1-.89.89Z"/><path class="cls-10" d="M834.46,1443a.89.89,0,1,1,.89-.89h0a.89.89,0,0,1-.89.89Z"/><path class="cls-10" d="M834.46,1448.37a.89.89,0,1,1,.89-.89.89.89,0,0,1-.89.89Z"/><path class="cls-10" d="M834.46,1453.7a.89.89,0,1,1,.89-.89.89.89,0,0,1-.89.89Z"/><path class="cls-10" d="M834.46,1459.09a.9.9,0,1,1,.89-.91h0a.89.89,0,0,1-.88.9h0Z"/><path class="cls-10" d="M834.46,1464.45a.9.9,0,1,1,.89-.91h0a.89.89,0,0,1-.88.9h0Z"/><path class="cls-10" d="M834.46,1469.81a.9.9,0,1,1,.89-.91h0a.89.89,0,0,1-.88.9h0Z"/><path class="cls-10" d="M836.29,1471.39a.87.87,0,0,1,1-.67.86.86,0,0,1,.67.67Z"/><path class="cls-10" d="M839.82,1394.76a.89.89,0,1,1,.89-.89.89.89,0,0,1-.89.89Z"/><path class="cls-10" d="M837.14,1392.08a.89.89,0,1,1,.89-.89h0a.87.87,0,0,1-.85.89h0Z"/><circle class="cls-10" cx="839.82" cy="1399.23" r="0.89"/><path class="cls-10" d="M837.14,1397.44a.89.89,0,1,1,.89-.89.89.89,0,0,1-.89.89Z"/><path class="cls-10" d="M839.82,1405.49a.9.9,0,1,1,.89-.91h0a.89.89,0,0,1-.88.9h0Z"/><path class="cls-10" d="M837.14,1402.8a.89.89,0,1,1,.89-.89.89.89,0,0,1-.89.89Z"/><path class="cls-10" d="M839.82,1410.85a.9.9,0,1,1,.89-.91h0a.89.89,0,0,1-.88.9h0Z"/><path class="cls-10" d="M837.14,1408.17a.9.9,0,1,1,.89-.91h0a.89.89,0,0,1-.88.9h0Z"/><circle class="cls-10" cx="839.82" cy="1415.31" r="0.89"/><path class="cls-10" d="M837.14,1413.5a.9.9,0,1,1,.89-.91h0a.89.89,0,0,1-.88.9h0Z"/><path class="cls-10" d="M839.82,1421.57a.9.9,0,1,1,.89-.91h0a.89.89,0,0,1-.87.91Z"/><path class="cls-10" d="M837.14,1418.89a.9.9,0,1,1,.89-.91h0a.89.89,0,0,1-.87.91Z"/><path class="cls-10" d="M839.82,1426.9a.9.9,0,1,1,.89-.91h0a.89.89,0,0,1-.87.91Z"/><path class="cls-10" d="M837.14,1424.25a.9.9,0,1,1,.89-.91h0a.89.89,0,0,1-.87.91Z"/><circle class="cls-10" cx="839.82" cy="1431.4" r="0.89"/><path class="cls-10" d="M837.14,1429.61a.9.9,0,1,1,.89-.91h0a.89.89,0,0,1-.87.91Z"/><path class="cls-10" d="M839.82,1437.65a.89.89,0,1,1,.89-.89h0a.89.89,0,0,1-.89.89Z"/><path class="cls-10" d="M837.14,1435a.89.89,0,1,1,.89-.89h0a.89.89,0,0,1-.89.89Z"/><path class="cls-10" d="M839.82,1443a.89.89,0,1,1,.89-.89h0a.89.89,0,0,1-.89.89Z"/><path class="cls-10" d="M837.14,1440.3a.89.89,0,1,1,.89-.89h0a.89.89,0,0,1-.89.89Z"/><path class="cls-10" d="M839.82,1448.37a.89.89,0,1,1,.89-.89.89.89,0,0,1-.89.89Z"/><path class="cls-10" d="M837.14,1445.69a.89.89,0,1,1,.89-.89.89.89,0,0,1-.89.89Z"/><path class="cls-10" d="M839.82,1453.7a.89.89,0,1,1,.89-.89.89.89,0,0,1-.89.89Z"/><path class="cls-10" d="M837.14,1451.05a.89.89,0,1,1,.89-.89.89.89,0,0,1-.89.89Z"/><circle class="cls-10" cx="839.82" cy="1458.2" r="0.89"/><path class="cls-10" d="M837.14,1456.41a.89.89,0,1,1,.89-.89.89.89,0,0,1-.89.89Z"/><path class="cls-10" d="M839.82,1464.45a.9.9,0,1,1,.89-.91h0a.89.89,0,0,1-.88.9h0Z"/><path class="cls-10" d="M837.14,1461.77a.9.9,0,1,1,.89-.91h0a.89.89,0,0,1-.88.9h0Z"/><circle class="cls-10" cx="839.82" cy="1468.91" r="0.89"/><path class="cls-10" d="M841.64,1471.39a.87.87,0,0,1,1-.67.86.86,0,0,1,.67.67Z"/><path class="cls-10" d="M837.14,1467.1a.9.9,0,1,1,.89-.91h0a.91.91,0,0,1-.89.9Z"/><path class="cls-10" d="M845.18,1394.76a.89.89,0,1,1,.89-.89h0a.89.89,0,0,1-.89.89Z"/><circle class="cls-10" cx="842.5" cy="1391.19" r="0.89"/><path class="cls-10" d="M845.18,1400.1a.89.89,0,1,1,.89-.89h0a.89.89,0,0,1-.89.89Z"/><circle class="cls-10" cx="842.5" cy="1396.55" r="0.89"/><path class="cls-10" d="M845.18,1405.49a.9.9,0,1,1,.89-.91h0a.89.89,0,0,1-.87.91Z"/><path class="cls-10" d="M842.5,1402.8a.89.89,0,1,1,.89-.89h0a.87.87,0,0,1-.85.89h0Z"/><path class="cls-10" d="M845.18,1410.85a.9.9,0,1,1,.89-.91h0a.89.89,0,0,1-.87.91Z"/><path class="cls-10" d="M842.5,1408.17a.9.9,0,1,1,.89-.91h0a.89.89,0,0,1-.88.9h0Z"/><path class="cls-10" d="M845.18,1416.21a.9.9,0,1,1,.89-.91h0a.9.9,0,0,1-.89.91Z"/><circle class="cls-10" cx="842.5" cy="1412.63" r="0.89"/><path class="cls-10" d="M845.18,1421.57a.9.9,0,1,1,.89-.91h0a.89.89,0,0,1-.87.91Z"/><path class="cls-10" d="M842.5,1418.89a.9.9,0,1,1,.89-.91h0a.89.89,0,0,1-.87.91Z"/><path class="cls-10" d="M845.18,1426.9a.9.9,0,1,1,.89-.91h0a.89.89,0,0,1-.87.91Z"/><path class="cls-10" d="M842.5,1424.25a.9.9,0,1,1,.89-.91h0a.89.89,0,0,1-.87.91Z"/><path class="cls-10" d="M845.18,1432.29a.89.89,0,1,1,.89-.89.89.89,0,0,1-.89.89Z"/><path class="cls-10" d="M842.5,1429.61a.9.9,0,1,1,.89-.91h0a.89.89,0,0,1-.87.91Z"/><path class="cls-10" d="M845.18,1437.65a.89.89,0,1,1,.89-.89.89.89,0,0,1-.89.89Z"/><circle class="cls-10" cx="842.5" cy="1434.08" r="0.89"/><path class="cls-10" d="M845.18,1443a.89.89,0,1,1,.89-.89.89.89,0,0,1-.89.89Z"/><circle class="cls-10" cx="842.5" cy="1439.44" r="0.89"/><path class="cls-10" d="M845.18,1448.37a.89.89,0,1,1,.89-.89h0a.89.89,0,0,1-.89.89Z"/><path class="cls-10" d="M842.5,1445.69a.89.89,0,1,1,.89-.89h0a.87.87,0,0,1-.85.89h0Z"/><path class="cls-10" d="M845.18,1453.7a.89.89,0,1,1,.89-.89h0a.89.89,0,0,1-.89.89Z"/><circle class="cls-10" cx="842.5" cy="1450.16" r="0.89"/><path class="cls-10" d="M845.18,1459.09a.9.9,0,1,1,.89-.91h0a.89.89,0,0,1-.87.91Z"/><circle class="cls-10" cx="842.5" cy="1455.52" r="0.89"/><path class="cls-10" d="M845.18,1464.45a.9.9,0,1,1,.89-.91h0a.89.89,0,0,1-.87.91Z"/><path class="cls-10" d="M842.5,1461.77a.9.9,0,1,1,.89-.91h0a.89.89,0,0,1-.88.9h0Z"/><path class="cls-10" d="M845.18,1469.81a.9.9,0,1,1,.89-.91h0a.89.89,0,0,1-.87.91Z"/><path class="cls-10" d="M842.5,1467.1a.9.9,0,1,1,.89-.91h0a.91.91,0,0,1-.89.9Z"/><rect class="cls-13" x="833.56" y="1425.1" width="12.51" height="46.28"/><polygon class="cls-9" points="825.23 1390.3 825.41 1410.57 825.55 1430.84 825.67 1471.39 825.23 1470.95 856.04 1470.92 886.83 1470.98 917.64 1471.12 948.45 1471.39 917.64 1471.65 886.83 1471.8 856.04 1471.85 825.23 1471.83 824.79 1471.83 824.79 1471.39 824.92 1430.84 825.05 1410.57 825.23 1390.3"/><path class="cls-9" d="M823.42,1390.3a7.37,7.37,0,0,1,3.73,0A7.37,7.37,0,0,1,823.42,1390.3Z"/><path class="cls-9" d="M823.42,1398.34a7.37,7.37,0,0,1,3.73,0A7.37,7.37,0,0,1,823.42,1398.34Z"/><path class="cls-9" d="M823.42,1406.38a7.72,7.72,0,0,1,3.82,0,7.37,7.37,0,0,1-3.73,0Z"/><path class="cls-9" d="M823.42,1414.46a7.37,7.37,0,0,1,3.73,0A7.37,7.37,0,0,1,823.42,1414.46Z"/><path class="cls-9" d="M823.42,1422.46a7.37,7.37,0,0,1,3.73,0A7.37,7.37,0,0,1,823.42,1422.46Z"/><path class="cls-9" d="M823.42,1430.51a6.86,6.86,0,0,1,1.91-.24,6.15,6.15,0,0,1,1.91.24,6.49,6.49,0,0,1-1.91.23A7.24,7.24,0,0,1,823.42,1430.51Z"/><path class="cls-9" d="M823.42,1438.55a7.37,7.37,0,0,1,3.73,0A7.37,7.37,0,0,1,823.42,1438.55Z"/><path class="cls-9" d="M823.42,1446.59a7.37,7.37,0,0,1,3.73,0A7.37,7.37,0,0,1,823.42,1446.59Z"/><path class="cls-9" d="M823.42,1454.65a7.37,7.37,0,0,1,3.73,0,6.86,6.86,0,0,1-1.91.24A7,7,0,0,1,823.42,1454.65Z"/><path class="cls-9" d="M823.42,1462.66a7.37,7.37,0,0,1,3.73,0A7.37,7.37,0,0,1,823.42,1462.66Z"/><rect class="cls-11" x="833.78" y="1370.24" width="106.13" height="2.77"/><rect class="cls-11" x="851.92" y="1376.01" width="69.83" height="2.77"/></g><g id="freepik--Plant--inject-292"><path class="cls-4" d="M1571.62,1050.38a407.32,407.32,0,0,0-.6-43.08,546.73,546.73,0,0,0-13.49-87.77c-3.71-16.25-8.33-32.16-13.21-48.17-.15-.47-.91-.35-.78.16,14.94,56.23,27.19,114.25,26.35,172.7-.24,16.38-2.13,32.43-3.64,48.68,0,.44.67.6.78.16A244.74,244.74,0,0,0,1571.62,1050.38Z"/><path class="cls-4" d="M1543.58,871.53S1521,929,1526,942.5s15.51,16.38,15.51,16.38-13.85,19.76-4.17,38.31,31.16,17.65,32.58,38.67C1570,1035.79,1571.15,947.9,1543.58,871.53Z"/><path class="cls-2" d="M1567.49,999.5a.42.42,0,0,0,0-.31,526.37,526.37,0,0,0-22-115.45.09.09,0,0,0-.18,0q6.72,25.2,11.88,50.65a25.13,25.13,0,0,0-10.81-6s-.11,0,0,.11a28.88,28.88,0,0,1,11.16,7.44c.66,3.33,1.31,6.66,1.82,10-5-5.64-12.07-8.44-19.07-11.12m0,.17c7.28,3,14.56,6.81,19.53,13.1q2.67,14.26,4.5,28.68a27.33,27.33,0,0,0-13.49-7.73c-.16,0-.25.2-.09.24a28.7,28.7,0,0,1,13.69,8.77h0c.45,3.38.89,6.75,1.29,10.14a35.08,35.08,0,0,0-9.46-5.7s-.15.11,0,.15a32.83,32.83,0,0,1,9.48,6.26h.11c.38,3.22.76,6.42,1.07,9.65a45.75,45.75,0,0,0-19.18-13.69c-.15,0-.22.16,0,.22a50.39,50.39,0,0,1,18.91,14.56.41.41,0,0,0,.47.15q.74,7.4,1.29,14.85m.11,0c-.29-5-.56-10-1.06-15.1Z"/><path class="cls-2" d="M1549.31,922.66a28.44,28.44,0,0,0-13.58-4.24.09.09,0,0,0,0,.18,52.58,52.58,0,0,1,13.43,4.39.18.18,0,0,0,.22-.13h0A.2.2,0,0,0,1549.31,922.66Z"/><path class="cls-2" d="M1552.06,983.45a28.35,28.35,0,0,0-10.19-3.48.09.09,0,0,0,0,.18A37.9,37.9,0,0,1,1552,983.7C1552.08,983.83,1552.2,983.54,1552.06,983.45Z"/><path class="cls-4" d="M1631.15,943.37A154.43,154.43,0,0,0,1605,966.26a94,94,0,0,0-18.36,31.14,233.31,233.31,0,0,0-13.69,74.47,181.15,181.15,0,0,0,4,41.86.41.41,0,0,0,.5.27.38.38,0,0,0,.28-.41,235.28,235.28,0,0,1,.4-73.21c3.89-23.66,10-49.59,25.1-68.9,8.23-10.52,18.47-18.78,28.61-27.3C1632.37,943.79,1631.68,943,1631.15,943.37Z"/><path class="cls-4" d="M1576.24,1054.8a140,140,0,0,1,19-24.42c11.32-11.32,20.86-19.35,22.31-26.84s-11.34-13-11.34-13,15.67,2.82,20-3.75,6.37-44.64,6.37-44.64-28.5,20.35-41.86,48.84S1576.24,1054.8,1576.24,1054.8Z"/><path class="cls-2" d="M1622.76,951.91c-12,11.77-24.06,24.33-31.12,39.78a151.48,151.48,0,0,0-6.28,16.38h0c-.36,1.13-.73,2.26-1.07,3.38a.28.28,0,0,0,0,.18,325.86,325.86,0,0,0-8.1,35.18s.11.11.13,0c1.22-6,2.57-11.94,4.09-17.93h.16A25.14,25.14,0,0,1,1588,1027c.16,0,.15-.31,0-.29a27.52,27.52,0,0,0-7.41,1.35c1.38-5.46,2.89-10.77,4.57-16.07a80.32,80.32,0,0,1,16.91-2.22h0a64.46,64.46,0,0,0-16.62,1.42c.29-.91.6-1.82.91-2.73a87.29,87.29,0,0,1,11.25-1.82v-.13a54.34,54.34,0,0,0-11,1.35c1.55-4.59,3.22-9.1,5.08-13.52a82.33,82.33,0,0,1,5.46-10.45,66.69,66.69,0,0,1,9.1-1.62m0-.14a24,24,0,0,0-8.52.84c1.49-2.43,3.08-4.79,4.75-7.1h0c6.39-1.4,12.87-2.73,19.4-1.49a.11.11,0,0,0,.06-.14.09.09,0,0,0-.06-.06c-6.21-1.64-12.39-.69-18.58.53.67-.89,1.36-1.82,2.07-2.66a42,42,0,0,1,11.94-1.82v-.15a31.6,31.6,0,0,0-11.12,1c5.28-6.57,11.1-12.74,16.87-18.84.2-.49,0-.66-.29-.38Z"/><path class="cls-2" d="M1622.43,977.86a25.51,25.51,0,0,0-5.66-.2c-.22,0-.2.4,0,.4h5.62a.1.1,0,0,0,.14,0h0a.1.1,0,0,0,0-.14h0a.07.07,0,0,0-.1,0Z"/><path class="cls-2" d="M1601.94,1014.77a25.51,25.51,0,0,0-8.79,1.82v.13c2.91-.69,5.84-1,8.77-1.46C1602.19,1015.18,1602.18,1014.77,1601.94,1014.77Z"/><path class="cls-2" d="M1595.79,1002a17.82,17.82,0,0,0-3.64.35.11.11,0,0,0,0,.22,17.88,17.88,0,0,0,3.73-.18.21.21,0,0,0,.1-.27A.18.18,0,0,0,1595.79,1002Z"/><path class="cls-4" d="M1492.73,983.83a129.11,129.11,0,0,1,26.48,12.47,79.08,79.08,0,0,1,22.06,21,196.1,196.1,0,0,1,28.28,57.11,151.7,151.7,0,0,1,6.42,34.83.36.36,0,0,1-.42.26.35.35,0,0,1-.26-.26,197.42,197.42,0,0,0-17.25-59.15c-8.63-18.33-19.55-37.83-36.23-50-9.1-6.61-19.29-10.92-29.46-15.51A.42.42,0,1,1,1492.73,983.83Z"/><path class="cls-4" d="M1562.9,1061.25a119.26,119.26,0,0,0-21.07-15.34c-11.77-6.53-21.35-10.92-24.28-16.56s6.17-13.14,6.17-13.14-12,5.9-17,1.58-15.47-34.67-15.47-34.67,27.75,9.81,45.1,29.83S1562.9,1061.25,1562.9,1061.25Z"/><path class="cls-2" d="M1561.47,1055c-13.89-26.06-32.41-49.63-57.8-65.19h0a125.07,125.07,0,0,1,18.58,14.56,29.45,29.45,0,0,0-14.92,3.15m0,.15a41.06,41.06,0,0,1,15.36-2.58.28.28,0,0,0,.18,0l2.66,2.6a46.88,46.88,0,0,0-8,1.06v.11a41.07,41.07,0,0,1,8.43-.69,172.8,172.8,0,0,1,13.1,14.87,13.2,13.2,0,0,0-5.59.4c-.13,0,0,.22,0,.22a28.65,28.65,0,0,1,6-.09c.75,1,1.53,1.93,2.27,2.91a53.44,53.44,0,0,0-16.85,1.64c-.09,0,0,.15,0,.13a68.38,68.38,0,0,1,17.31-1.13c.71,1,1.38,1.82,2.07,2.86a36.63,36.63,0,0,0-10,1.15c-.13,0,0,.24,0,.2a38,38,0,0,1,10.37-.8c3,4.11,5.86,8.32,8.61,12.58a9.37,9.37,0,0,0-4.4.25v.13a19.56,19.56,0,0,1,4.77.22q3.7,5.79,7.15,11.65c.4.25.93,0,.75-.33Z"/><path class="cls-2" d="M1539.86,1033.37a21.58,21.58,0,0,0-8.06,1v.13a61.44,61.44,0,0,1,8-.82.15.15,0,0,0,.11-.18.15.15,0,0,0-.11-.11Z"/><path class="cls-2" d="M1515.66,1001.61a14.33,14.33,0,0,0-3.64.22c-.15,0-.09.24,0,.22,1.22-.13,2.42,0,3.64-.11a.16.16,0,0,0,.16-.16h0a.16.16,0,0,0-.16-.16Z"/><polygon class="cls-13" points="1598.7 1147.42 1536.04 1147.42 1544.98 1081.97 1547.27 1065.19 1587.49 1065.19 1589.77 1081.97 1598.7 1147.42"/><polygon class="cls-2" points="1589.77 1081.97 1544.98 1081.97 1547.27 1065.19 1587.49 1065.19 1589.77 1081.97"/><rect class="cls-13" x="1541.52" y="1059.37" width="51.72" height="14.21"/></g><g id="freepik--chart-2--inject-293"><rect class="cls-5" x="761.36" y="941.03" width="239.63" height="213.17"/><path class="cls-9" d="M1001.73,1155h-241V940.29h241Zm-239.56-1.49h238.07V941.77H762.17Z"/><path class="cls-12" d="M780,950.89a4.46,4.46,0,1,1-4.46-4.46,4.46,4.46,0,0,1,4.46,4.46Z"/><path class="cls-9" d="M798.23,950.89a4.46,4.46,0,1,1-4.46-4.46,4.46,4.46,0,0,1,4.46,4.46Z"/><path class="cls-4" d="M816.43,950.89a4.46,4.46,0,1,1-4.46-4.46,4.46,4.46,0,0,1,4.46,4.46Z"/><rect class="cls-9" x="761.36" y="959.93" width="239.63" height="1.49"/><rect class="cls-11" x="799.76" y="978.14" width="164.9" height="4.3"/><rect class="cls-11" x="827.95" y="987.11" width="108.5" height="4.3"/><rect class="cls-9" x="809.03" y="1016.86" width="170.01" height="16.58"/><rect class="cls-4" x="814.56" y="1021.56" width="84.54" height="7.17"/><rect class="cls-9" x="809.03" y="1041.19" width="170.01" height="16.58"/><rect class="cls-13" x="814.56" y="1045.89" width="131.93" height="7.17"/><rect class="cls-9" x="809.03" y="1065.51" width="170.01" height="16.58"/><rect class="cls-4" x="814.56" y="1070.21" width="33.07" height="7.17"/><rect class="cls-9" x="809.03" y="1089.84" width="170.01" height="16.58"/><rect class="cls-13" x="814.56" y="1094.54" width="104.8" height="7.17"/><rect class="cls-9" x="809.03" y="1114.16" width="170.01" height="16.58"/><rect class="cls-4" x="814.56" y="1118.86" width="120.35" height="7.17"/><path class="cls-2" d="M787.67,1025.66a1.94,1.94,0,0,1-3.87.21h0v-.46a4.6,4.6,0,0,1,.28-1.64,2.69,2.69,0,0,1,1-1.35,2.2,2.2,0,0,1,1.19-.37.43.43,0,0,1,.46.4h0a.47.47,0,0,1-.43.46,1.63,1.63,0,0,0-.74.22,1.56,1.56,0,0,0-.51.57.51.51,0,0,0-.1.21,1.82,1.82,0,0,1,.76-.16,1.92,1.92,0,0,1,2,1.86Zm-.89,0a1.06,1.06,0,1,0-1.06,1.06h0a1,1,0,0,0,1.06-.94v-.12Z"/><path class="cls-2" d="M788.94,1024.82a3.47,3.47,0,0,1,.54-1.9,1.69,1.69,0,0,1,2.28-.72,1.67,1.67,0,0,1,.72.72,3.61,3.61,0,0,1,0,3.8,1.7,1.7,0,0,1-3,0A3.55,3.55,0,0,1,788.94,1024.82Zm3.15,0a2.63,2.63,0,0,0-.39-1.49,1,1,0,0,0-.74-.48.94.94,0,0,0-.76.48,2.61,2.61,0,0,0-.37,1.49,2.65,2.65,0,0,0,.37,1.4,1,1,0,0,0,.76.51,1,1,0,0,0,.74-.51,2.64,2.64,0,0,0,.36-1.4Z"/><path class="cls-2" d="M794.48,1023.4h0a1.34,1.34,0,0,1,1.18-1.48h.14a1.33,1.33,0,0,1,1.32,1.33v.16h0a1.36,1.36,0,0,1-1.21,1.48h-.11a1.34,1.34,0,0,1-1.32-1.36h0A.29.29,0,0,0,794.48,1023.4Zm1.92,0h0c0-.45-.25-.82-.61-.82s-.59.37-.59.8h0c0,.45.25.8.61.8s.57-.36.57-.79h0Zm-1,3.72,3.64-5a.35.35,0,0,1,.28-.15.33.33,0,0,1,.31.31.31.31,0,0,1-.07.21l-3.66,5a.33.33,0,0,1-.27.15.31.31,0,0,1-.31-.31h0a.29.29,0,0,1,.09-.21Zm2.45-.86h0a1.31,1.31,0,0,1,2.62,0h0a1.36,1.36,0,0,1-1.21,1.48h-.11a1.32,1.32,0,0,1-1.3-1.34h0a.33.33,0,0,1,0-.14Zm1.92,0h0c0-.43-.25-.8-.62-.8s-.59.37-.59.79h0c0,.46.25.82.61.82s.61-.39.61-.81Z"/><path class="cls-2" d="M783.81,1048.34a1.93,1.93,0,0,1,3.85-.2h0v.46a5.09,5.09,0,0,1-.28,1.64,2.69,2.69,0,0,1-1,1.35,2.54,2.54,0,0,1-1.19.39.44.44,0,0,1-.46-.42h0a.46.46,0,0,1,.42-.46,1.46,1.46,0,0,0,.76-.22,1.62,1.62,0,0,0,.49-.55l.1-.21a1.94,1.94,0,0,1-2.69-1.77Zm.88,0a1,1,0,1,0,1-1A1.06,1.06,0,0,0,784.69,1048.34Z"/><path class="cls-2" d="M788.94,1049.14a3.47,3.47,0,0,1,.54-1.9,1.69,1.69,0,0,1,2.28-.72,1.67,1.67,0,0,1,.72.72,3.61,3.61,0,0,1,0,3.8,1.7,1.7,0,0,1-3,0A3.55,3.55,0,0,1,788.94,1049.14Zm3.15,0a2.63,2.63,0,0,0-.39-1.49,1,1,0,0,0-.74-.48.94.94,0,0,0-.76.48,2.61,2.61,0,0,0-.37,1.49,2.65,2.65,0,0,0,.37,1.4,1,1,0,0,0,.76.51,1,1,0,0,0,.74-.51,2.64,2.64,0,0,0,.36-1.4Z"/><path class="cls-2" d="M794.48,1047.73h0a1.34,1.34,0,0,1,1.18-1.48h.14a1.32,1.32,0,0,1,1.31,1.33h0v.08h0a1.36,1.36,0,0,1-1.21,1.48h-.11a1.34,1.34,0,0,1-1.31-1.37h0Zm1.92,0h0c0-.45-.25-.82-.61-.82s-.59.37-.59.8h0c0,.45.25.8.61.8s.57-.36.57-.79h0Zm-1,3.72,3.64-5a.35.35,0,0,1,.28-.15.33.33,0,0,1,.31.31.31.31,0,0,1-.07.21l-3.66,5a.28.28,0,0,1-.27.15.31.31,0,0,1-.31-.31h0a.33.33,0,0,1,.09-.21Zm2.45-.88h0a1.31,1.31,0,0,1,2.62,0h0a1.36,1.36,0,0,1-1.21,1.48h-.11a1.32,1.32,0,0,1-1.3-1.34h0a.33.33,0,0,1,0-.14Zm1.92,0h0c0-.45-.25-.8-.62-.8s-.59.36-.59.79h0c0,.46.25.82.61.82s.61-.38.61-.81Z"/><path class="cls-2" d="M786.81,1072.86a2,2,0,1,1-2.4,3.2,1.9,1.9,0,0,1-.4-.4.45.45,0,0,1,.64-.64h0a1.06,1.06,0,1,0,1.48-1.51,1,1,0,0,0-.74-.31.39.39,0,0,1-.33-.15h0a.47.47,0,0,1,0-.64l.82-.83h-1.29a.44.44,0,0,1-.45-.42h0a.44.44,0,0,1,.42-.46h2.38a.45.45,0,0,1,.45.45h0a.38.38,0,0,1,0,.21l-.09.1-1,1A1.34,1.34,0,0,1,786.81,1072.86Z"/><path class="cls-2" d="M788.66,1073.45a3.41,3.41,0,0,1,.54-1.89,1.69,1.69,0,0,1,2.28-.72,1.67,1.67,0,0,1,.72.72,3.41,3.41,0,0,1,.54,1.89,3.36,3.36,0,0,1-.54,1.9,1.79,1.79,0,0,1-1.49.89,1.87,1.87,0,0,1-1.49-.89A3.46,3.46,0,0,1,788.66,1073.45Zm3.15,0a2.59,2.59,0,0,0-.39-1.41,1,1,0,0,0-.74-.48.94.94,0,0,0-.76.48,2.7,2.7,0,0,0-.39,1.41,2.53,2.53,0,0,0,.39,1.49,1,1,0,0,0,.76.49.94.94,0,0,0,.74-.49A2.63,2.63,0,0,0,791.81,1073.45Z"/><path class="cls-2" d="M794.23,1072.13h0a1.34,1.34,0,0,1,1.18-1.48h.14a1.33,1.33,0,0,1,1.32,1.33v.16h0a1.33,1.33,0,0,1-1.25,1.41h-.07a1.32,1.32,0,0,1-1.31-1.33h0Zm1.92,0h0c0-.45-.25-.82-.61-.82s-.59.37-.59.8h0c0,.45.25.8.61.8s.59-.42.59-.78Zm-1,3.72,3.66-5a.33.33,0,0,1,.27-.15.34.34,0,0,1,.33.31.37.37,0,0,1,0,.21l-3.66,5a.35.35,0,0,1-.28.15.29.29,0,0,1-.3-.3h0a.45.45,0,0,1,0-.28v.08Zm2.45-.88h0a1.36,1.36,0,0,1,1.21-1.48h.11a1.34,1.34,0,0,1,1.32,1.36h0v.13h0a1.36,1.36,0,0,1-1.21,1.48h-.11a1.35,1.35,0,0,1-1.33-1.35V1075Zm1.92,0h0c0-.45-.25-.8-.61-.8s-.59.36-.59.79h0c0,.46.25.82.61.82s.59-.45.59-.88Z"/><path class="cls-2" d="M787.36,1095.61l-2,4.77a.4.4,0,0,1-.4.27h-.16a.46.46,0,0,1-.24-.58l1.71-4.09h-2a.46.46,0,0,1-.36-.52.47.47,0,0,1,.36-.36H787l.18.07h0v.25S787.45,1095.58,787.36,1095.61Z"/><path class="cls-2" d="M788.31,1097.78a3.38,3.38,0,0,1,.54-1.9,1.86,1.86,0,0,1,1.49-.88,1.81,1.81,0,0,1,1.49.88,3.47,3.47,0,0,1,.54,1.9,3.36,3.36,0,0,1-.54,1.9,1.79,1.79,0,0,1-1.49.89,1.87,1.87,0,0,1-1.49-.89A3.47,3.47,0,0,1,788.31,1097.78Zm3.16,0a2.59,2.59,0,0,0-.39-1.41,1,1,0,0,0-.74-.49,1,1,0,0,0-.76.49,2.7,2.7,0,0,0-.39,1.41,2.59,2.59,0,0,0,.39,1.41,1,1,0,0,0,.76.49.94.94,0,0,0,.74-.49A2.67,2.67,0,0,0,791.47,1097.78Z"/><path class="cls-2" d="M793.89,1096.38h0a1.34,1.34,0,0,1,1.18-1.48h.14a1.32,1.32,0,0,1,1.3,1.32v.09h0a1.31,1.31,0,1,1-2.62,0h0Zm1.92,0h0c0-.45-.25-.82-.61-.82s-.61.37-.61.8h0a.71.71,0,0,0,.61.8h0C795.58,1097.17,795.81,1096.81,795.81,1096.38Zm-1,3.72,3.66-5a.28.28,0,0,1,.27-.15.31.31,0,0,1,.33.29h0a.38.38,0,0,1-.07.21l-3.66,5a.32.32,0,0,1-.58-.24.34.34,0,0,1,0-.14Zm2.45-.88h0a1.36,1.36,0,0,1,1.21-1.48h.11a1.34,1.34,0,0,1,1.31,1.37h0v.05h0a1.36,1.36,0,0,1-1.21,1.48h-.11a1.34,1.34,0,0,1-1.31-1.37h0Zm1.92,0h0c0-.45-.25-.8-.61-.8s-.59.36-.59.79h0c0,.46.25.82.61.82s.58-.38.58-.81Z"/><path class="cls-2" d="M787.53,1123a1.91,1.91,0,0,1-3.81.28,1.31,1.31,0,0,1,0-.28h0a1.89,1.89,0,0,1,.85-1.58,1.31,1.31,0,1,1,2.11,0A1.89,1.89,0,0,1,787.53,1123Zm-.87,0a1,1,0,0,0-1-1h0a1.06,1.06,0,0,0-1.06,1,1.08,1.08,0,0,0,1.06,1,1,1,0,0,0,1-1Zm-1.48-2.37a.45.45,0,0,0,.45.45h0a.45.45,0,1,0-.46-.48h0Z"/><path class="cls-2" d="M788.82,1122.1a3.33,3.33,0,0,1,.54-1.89,1.66,1.66,0,0,1,2.25-.71h0a1.69,1.69,0,0,1,.7.7,3.41,3.41,0,0,1,.54,1.89,3.36,3.36,0,0,1-.54,1.9,1.66,1.66,0,0,1-2.25.71h0a1.69,1.69,0,0,1-.7-.7A3.29,3.29,0,0,1,788.82,1122.1Zm3.14,0a2.61,2.61,0,0,0-.37-1.49.83.83,0,0,0-1.11-.38.82.82,0,0,0-.38.38,2.71,2.71,0,0,0-.39,1.49,2.5,2.5,0,0,0,.39,1.41.8.8,0,0,0,1.07.4h0a.78.78,0,0,0,.4-.4,2.58,2.58,0,0,0,.33-1.41Z"/><path class="cls-2" d="M794.39,1120.71h0a1.31,1.31,0,0,1,2.62,0h0a1.31,1.31,0,1,1-2.62,0Zm1.92,0h0c0-.45-.25-.82-.62-.82s-.59.37-.59.8h0c0,.45.25.8.61.8a.71.71,0,0,0,.67-.74v0h-.07Zm-1,3.71,3.66-5a.33.33,0,0,1,.27-.15.31.31,0,0,1,.33.29h0a.38.38,0,0,1-.07.21l-3.66,5a.35.35,0,0,1-.28.15.31.31,0,0,1-.31-.31h0a.29.29,0,0,1,.06-.22Zm2.46-.87h0a1.33,1.33,0,0,1,2.62-.45,1,1,0,0,1,0,.17,1.31,1.31,0,0,1,0,.28h0a1.36,1.36,0,0,1-1.21,1.48h-.11a1.33,1.33,0,0,1-1.32-1.33.43.43,0,0,1,0-.16Zm1.91,0h0c0-.45-.25-.8-.61-.8s-.59.36-.59.79h0c0,.46.25.82.61.82s.59-.38.59-.81Z"/></g><g id="freepik--Character--inject-244"><path class="cls-14" d="M1294.09,856.27C1284,909.71,1236.65,1077.35,1185,1096s-51.64-74.78-51.64-74.78c7.22-4.27,99.93-147.14,130.79-179.24C1289.38,815.8,1299.41,828.05,1294.09,856.27Z"/><path class="cls-4" d="M1298.9,866c14.66-54.86-.84-58.93-32.47-30-30.33,27.8-89,105.66-89,105.66L1272,952.44S1284.17,921.18,1298.9,866Z"/><path class="cls-5" d="M1272.49,893.55a32.47,32.47,0,0,0,6,15.5,29.75,29.75,0,0,0-2-8.15A28.2,28.2,0,0,0,1272.49,893.55ZM1223.34,903a28.2,28.2,0,0,0-7.35,4,32.16,32.16,0,0,0,15.48-6A29.61,29.61,0,0,0,1223.34,903Zm11.73,44.84a27.79,27.79,0,0,0,4.34-7.15,29.45,29.45,0,0,0,2.41-8,29.86,29.86,0,0,0-4.38,7.13,29.46,29.46,0,0,0-2.37,8ZM1293,821.29a29.82,29.82,0,0,0-2.39,8.06,29.09,29.09,0,0,0,4.36-7.15c.55-1.28,1-2.55,1.48-3.88a11.13,11.13,0,0,0-2,0c-.55,1-1,2-1.5,3ZM1182.7,934.81c.71.38,1.42.73,2.15,1.06a29.77,29.77,0,0,0,8,2.39,30,30,0,0,0-7.17-4.36l-1.82-.73ZM1256.9,858a29.25,29.25,0,0,0-8.08-2.39A29.69,29.69,0,0,0,1256,860a29,29,0,0,0,8,2.37,29.52,29.52,0,0,0-7.15-4.34Zm6.35.17a1,1,0,0,1,0,.24h.33l-.31-.24Z"/><path class="cls-2" d="M1267.53,935.48a.14.14,0,0,1-.07.16h0c-2.74,0-5.49-.38-8.21-.62l-7.77-.66c-9.3-.82-18.59-1.88-27.85-2.88-4.71-.53-9.43-1.08-14.12-1.68-2.39-.29-4.85-.62-7.17-1s-4.61-.89-6.93-1.24a.13.13,0,0,1,0-.26c2.74.2,5.62.2,8.21.4s5.2.46,7.79.71c9.43.93,18.84,2.08,28.25,3.17,4.71.58,9.41,1.17,14.1,1.82l7,1c2.24.31,4.56.51,6.77,1C1267.51,935.44,1267.53,935.46,1267.53,935.48Z"/><path class="cls-15" d="M1302.33,822.22c3.57,6.37,2.79,20.5-3.43,43.77-14.76,55.19-26.88,86.45-26.88,86.45l-45.89-5.22Z"/><path class="cls-12" d="M1262.59,1088.4c1.73-5.89,3.36-11.62,4.85-16.83,7.39-25.64,12-41.55,12-41.55h140.1l-.33,1.3a1,1,0,0,0-.11.44l-.26,1a3.12,3.12,0,0,0-.18.73l-.29,1.15c-.11.36-.2.77-.31,1.19-.26,1-.57,2.21-.89,3.52l-.4,1.53c-.49,2-1.08,4.25-1.71,6.73-.16.69-.34,1.4-.55,2.13-.29,1.19-.6,2.39-.91,3.65-.2.73-.38,1.48-.58,2.24q-1.1,4.33-2.37,9.3c-.2.8-.4,1.62-.62,2.46-.31,1.26-.64,2.54-1,3.85-.2.8-.42,1.62-.62,2.44-.47,1.88-1,3.81-1.48,5.78-.33,1.33-.67,2.7-1,4.09-.18.73-.36,1.46-.57,2.21h0l-.55,2.13-.44,1.82c-.15.53-.27,1.08-.42,1.62-.53,2.06-1.09,4.21-1.62,6.33s-1.08,4.25-1.62,6.42q-1.37,5.31-2.79,10.94c-.27,1.08-.57,2.17-.84,3.26-1.24,4.91-2.54,9.94-3.85,15.1-1.15,4.56-2.3,9-3.48,13.68h-144C1252,1125.46,1257.68,1105.51,1262.59,1088.4Z"/><path class="cls-2" d="M1383.86,1080.88q2.4-8.7,4.83-17.38a2.13,2.13,0,0,0,.15-.49.22.22,0,0,1,.23-.13.21.21,0,0,1,.19.23h0l-.33,1.51q-1.83,8.08-3.65,16.16-7.5,33.2-15.49,66.26h-3.65Q1374.61,1113.89,1383.86,1080.88Z"/><path class="cls-2" d="M1419.54,1030l-.33,1.3a1,1,0,0,0-.11.44l-.26,1a3.12,3.12,0,0,0-.18.73l-.29,1.15c-.11.36-.2.77-.31,1.19-.26,1-.57,2.21-.89,3.52l-.4,1.53c-.49,2-1.08,4.25-1.71,6.73-.16.69-.34,1.4-.55,2.13-.29,1.19-.6,2.39-.91,3.65-.2.73-.38,1.48-.58,2.24q-1.1,4.34-2.37,9.3c-.2.8-.4,1.62-.62,2.46-.31,1.26-.64,2.54-1,3.85-.2.8-.4,1.61-.62,2.44-.47,1.88-1,3.81-1.48,5.78-.33,1.33-.67,2.7-1,4.09-.18.73-.36,1.46-.57,2.21h0l-.55,2.13-.44,1.82c-.15.53-.27,1.08-.42,1.62-.53,2.06-1.09,4.21-1.62,6.33s-1.08,4.25-1.62,6.42q-1.37,5.31-2.79,10.94c-.27,1.08-.57,2.17-.84,3.26-1.24,4.91-2.54,9.94-3.85,15.1-1.13,4.56-2.3,9-3.47,13.68h-82.35l-1.15-5.54-1.48-7.39-.89-4.43-8.63-43.26-5.07-25.39-6.18-31Z"/><path class="cls-12" d="M1310.72,1029.92h164s1.48,17.31,3.65,45c1.55,19.64,3.5,44.58,5.64,72.14h-180.8c-1.51-5.23-2.94-10.51-4.23-16-3.65-15-6.46-30.33-8.61-44.39-1.28-8-2.28-15.69-3.1-22.6-.53-4.38-1-8.54-1.37-12.18-1.35-12.77-1.93-21.12-1.93-21.89h0Z"/><path class="cls-2" d="M1285,1046.49l.88,5.47q.93,5.85,1.82,11.71,1.79,11.49,3.43,23h0q1.27,9.28,2.92,18.4a102.81,102.81,0,0,0,3.56,16.74,14.21,14.21,0,0,0,6.22,7.86,6.79,6.79,0,0,0,4.54.57c6.64-1.44,3.79-9.78,3-14.43-1.71-10-3.17-20.06-4.58-30.11-.31-2.08-.6-4.16-.89-6.24-.86-6.11-1.46-12.26-2.33-18.37q-1-7.78-1.82-15.65c-.11-.93-.2-1.84-.29-2.75,0-.36.53-.66.66-.09s.26,1.13.36,1.7c3,13.64,5.58,27.41,8,41.18l.55,3.08c1.22,6.77,2.59,13.5,3.65,20.3.57,3.7,1.11,7.46,1.68,11.11a16.77,16.77,0,0,1-.15,8.5,9.64,9.64,0,0,1-9.34,5.85.43.43,0,0,1,.15.2c.49,2.13,1.22,4.23,1.73,6.29s1,4.12,1.51,6.16v.11h-3.1c-.35-1.86-.69-3.78-.91-5.6v-.27a54.76,54.76,0,0,1-.26-6.53.37.37,0,0,1,.2-.38h-.31a6.58,6.58,0,0,1-1.08-.18,12.51,12.51,0,0,1-5.78-3,17.75,17.75,0,0,1-4.23-5.71c-2.66-5.65-3.45-12.18-4.49-18.24q-1.66-9.74-2.94-19.53a2.5,2.5,0,0,1-.09-.77c-.91-7-1.55-13.93-2-20.92-.42-6.44-.69-12.9-.89-19.37C1284.35,1046.21,1285,1046.1,1285,1046.49Z"/><path class="cls-2" d="M1444.81,1095.05a.4.4,0,0,1-.37.43h0a94.05,94.05,0,0,1-24.29.33c-7.2-.88-15.1-2.85-20.45-7.48s-7.79-12-9.61-18.62a82.12,82.12,0,0,1-3-24c0-.33.6-.46.6-.11a167.69,167.69,0,0,0,5.82,21.1c2.21,6.13,4.56,13,9.63,17.38a25.88,25.88,0,0,0,9,4.52c3.3,1.08,6.62,2.15,10,3a91.31,91.31,0,0,0,22.31,3A.42.42,0,0,1,1444.81,1095.05Z"/><path class="cls-2" d="M1457,1045.87a.44.44,0,0,1,.88,0q1.18,15.14,2.3,30.3,2.57,35.44,4.91,70.91h-3.39q-1.86-35.4-3.41-70.8-.7-15.22-1.29-30.39Z"/><path class="cls-4" d="M1286.9,825.9c12.28-13.73,39.54-25.52,64.46-7.15,97.45,71.92,146.81,267.53,146.81,267.53l-245.34,18.6C1252.1,1104.1,1255.71,860.88,1286.9,825.9Z"/><path class="cls-5" d="M1336,820.36a30.35,30.35,0,0,0,2,8.13,29.15,29.15,0,0,0,4,7.3,30.35,30.35,0,0,0-2-8.13A29.47,29.47,0,0,0,1336,820.36Zm26.65,105.47a32.58,32.58,0,0,0,5.95,15.5,28.62,28.62,0,0,0-1.95-8.15,30,30,0,0,0-4-7.35Zm87.66,45.25a32.47,32.47,0,0,0,6,15.5,29.75,29.75,0,0,0-2-8.15,30.83,30.83,0,0,0-4-7.35Zm-70.74,66.65a32.57,32.57,0,0,0,6,15.5,28.16,28.16,0,0,0-2-8.13,28.78,28.78,0,0,0-4-7.37ZM1276.49,900.9a28.43,28.43,0,0,0-4-7.39,32.47,32.47,0,0,0,6,15.5,29.75,29.75,0,0,0-2-8.15Zm39.69,125.36a29.61,29.61,0,0,0,2,8.13,29.15,29.15,0,0,0,4,7.3A32.42,32.42,0,0,0,1316.18,1026.26Zm88.4-137.73a32,32,0,0,0,6,15.5,29.61,29.61,0,0,0-2-8.13A28.78,28.78,0,0,0,1404.58,888.53Zm-101.35-23.67a28.62,28.62,0,0,0,8.15-2,29.15,29.15,0,0,0,7.3-4,32.15,32.15,0,0,0-15.45,6Zm-20.49,84a28.88,28.88,0,0,0-7.3,3.92,29.26,29.26,0,0,0,8.13-2,28.5,28.5,0,0,0,7.3-4,28.91,28.91,0,0,0-8.13,2ZM1275.28,1054a29.89,29.89,0,0,0-7.3,3.92,29.61,29.61,0,0,0,8.13-2,28.83,28.83,0,0,0,7.3-4,29.61,29.61,0,0,0-8.13,2Zm174.64-8.64a29.36,29.36,0,0,0-7.35,3.92,32.29,32.29,0,0,0,15.49-6,29.26,29.26,0,0,0-8.13,2v.07Zm-63.12-67.51a29.44,29.44,0,0,0-7.3,3.94,30.35,30.35,0,0,0,8.13-2,29.15,29.15,0,0,0,7.3-4,29.26,29.26,0,0,0-8.13,2ZM1293,821.29a29.77,29.77,0,0,0-2.39,8,29.09,29.09,0,0,0,4.36-7.15,37.65,37.65,0,0,0,1.64-4.49c-1,.64-1.93,1.29-2.83,2h0c-.27.53-.53,1.06-.78,1.61ZM1362.27,886a32.13,32.13,0,0,0,6.75-15.17,29.09,29.09,0,0,0-4.36,7.15A28.43,28.43,0,0,0,1362.27,886ZM1299,1101.37h.29a30.77,30.77,0,0,0,4-6.71,29,29,0,0,0,2.37-8,32.92,32.92,0,0,0-6.66,14.71Zm23.24-126.67a32.83,32.83,0,0,0,6.73-15.17,29.91,29.91,0,0,0-4.36,7.15,29.2,29.2,0,0,0-2.34,8Zm169.48,89a14.47,14.47,0,0,0-.33,1.86c.22-.26.44-.53.67-.78-.13-.36-.24-.75-.35-1.13v0Zm-72.88-48.7a29.52,29.52,0,0,0-2.44,8,32,32,0,0,0,6.75-15.16,29.79,29.79,0,0,0-4.36,7.13Zm-15.65,70.24a28.73,28.73,0,0,0-2.44,8,32.68,32.68,0,0,0,6.75-15.19,29.91,29.91,0,0,0-4.36,7.15Zm-122.69-84.51a29.15,29.15,0,0,0-8.1-2.44,32.72,32.72,0,0,0,15.2,6.75,29.91,29.91,0,0,0-7.15-4.36Zm193.5,10.65a22.65,22.65,0,0,0-4.6-1.09,26,26,0,0,0,5.47,3.56l-.93-2.52Zm-125.09,60.77a28.34,28.34,0,0,0-8.1-2.46,32,32,0,0,0,15.19,6.75,29.33,29.33,0,0,0-7.15-4.34Zm111.86,16.27a29.25,29.25,0,0,0-8.08-2.44,25.26,25.26,0,0,0,5,3.32l4.29-.33-1.26-.6Zm-43-150a29.47,29.47,0,0,0-8.1-2.43,32.75,32.75,0,0,0,15.19,6.73,31,31,0,0,0-7.15-4.36Zm-62.89,69.85a29.81,29.81,0,0,0-8.1-2.43,32.54,32.54,0,0,0,15.19,6.75,29.79,29.79,0,0,0-7.15-4.38Zm-32.77-96a29.67,29.67,0,0,0-8.13-2.43,32.27,32.27,0,0,0,15.18,6.73,30.77,30.77,0,0,0-7.15-4.36Z"/><path class="cls-14" d="M1275.32,831.39c-6-15.38-18.73-31.65-18.73-31.65s49.17-37.14,49.88-35.31c3.45,8.77,25.5,50.85,25.33,52.2-2.48,19.48-16.85,48-31,50.14C1287.12,868.78,1275.74,832.67,1275.32,831.39Z"/><path class="cls-2" d="M1306.4,764.43c1.42,3.56,5.87,12.55,10.65,22.12-4.16,15.05-14.46,37.85-39.74,50.61-1.2-3.23-1.93-5.49-2-5.8-6-15.36-18.75-31.63-18.75-31.63S1305.69,762.63,1306.4,764.43Z"/><path class="cls-14" d="M1214.07,703.77c-10.34,18,7,96.63,32.06,113.21,25.75,17.09,57.58,1,69.53-25.72,8.23-18.46-6.16-78.52-20.56-95.17C1273.88,671.51,1229.28,677.21,1214.07,703.77Z"/><path class="cls-2" d="M1254.76,744a3,3,0,0,1,.09-4.24l0,0a10.31,10.31,0,0,1,7.08-2.26,7,7,0,0,1,6.46,3,2.85,2.85,0,0,1-.69,3.39,8.81,8.81,0,0,1-5.6,1.09c-1.82,0-3.65.15-5.47,0A3,3,0,0,1,1254.76,744Z"/><path class="cls-2" d="M1264.78,763.56a.12.12,0,1,0,0-.24c-4-.62-5.44-5.22-6.11-9.32,0-.18-.4-.47-.4-.31C1258.27,757.7,1260.16,763.81,1264.78,763.56Z"/><path class="cls-2" d="M1264.72,761.64c6-1.66,2.83-14.77-3.65-12.95C1255.66,750.21,1258.76,763.3,1264.72,761.64Z"/><path class="cls-2" d="M1232.93,770.34c-.09,0-.2-.22-.09-.22,3.34-2.13,2.75-6.93,1.66-10.94,0-.16.24-.58.24-.44C1236.42,762.39,1237.25,768.74,1232.93,770.34Z"/><path class="cls-2" d="M1232.22,768.65c-6.15,1-8.75-12.2-2.12-13.26C1235.67,754.49,1238.37,767.66,1232.22,768.65Z"/><path class="cls-2" d="M1221.12,748.92a3,3,0,0,1-1.77-3.85l0-.09a10.45,10.45,0,0,1,5.23-5.33c2.3-1.13,4.89-1.81,7.13-.35a2.84,2.84,0,0,1,1,3.34,8.92,8.92,0,0,1-4.47,3.65,49.78,49.78,0,0,1-4.89,2.61A3,3,0,0,1,1221.12,748.92Z"/><path class="cls-2" d="M1272.27,788.88a4.4,4.4,0,0,1-2.33,4.34,5.59,5.59,0,0,1-5.65-1,.14.14,0,0,1,0-.2.15.15,0,0,1,.14,0,10.86,10.86,0,0,0,4.61,0c1.44-.47,2.1-2,2.83-3.19C1272,788.62,1272.27,788.64,1272.27,788.88Z"/><path class="cls-2" d="M1264.18,777.42c-4.25,4.72-7.75,7.26-13.22,7.84v-.15c-.49-1.35-1.46-10.69-1.93-10.69a24.77,24.77,0,0,0-5.89,3.57c-2.66-13.17-3.19-26.65-6-39.71h0a.38.38,0,0,0-.76,0c-.47,14.14,2.21,29.35,4.63,43,.31,1.66,5.49-2.35,6.49-3.19,0,0,.84,4.82,1.66,7.92v.36h0a3.23,3.23,0,0,0,0,.44h0a1,1,0,0,0,1,.71,7.21,7.21,0,0,0,.93,0,4.79,4.79,0,0,0,1-.11A18.29,18.29,0,0,0,1257,786a14.22,14.22,0,0,0,7.75-8.34C1264.85,777.31,1264.45,777.11,1264.18,777.42Z"/><path class="cls-2" d="M1264.61,777.58a18.48,18.48,0,0,1,2.39,3.54c1.2,2.41,1.82,5.4-1.2,7a7.51,7.51,0,0,1-4.54.78,16.86,16.86,0,0,1-7.77-3.5A21.69,21.69,0,0,0,1264.61,777.58Z"/><path class="cls-16" d="M1267,781.12c1.2,2.41,1.82,5.4-1.2,7a7.51,7.51,0,0,1-4.54.78C1260.75,785.5,1263.61,782.31,1267,781.12Z"/><path class="cls-2" d="M1190.54,670.34c3.7-4.45,11.45-3.83,17.29,1.82a16.09,16.09,0,0,0-1.39,11.09c2,10.09,11.09,8.21,7-2.52a22.78,22.78,0,0,0-5.6-8.57l.21-.4a9.58,9.58,0,0,1,13-3.67h0a34,34,0,0,1,11.76,10.49s33.56-18.18,45.6-12.38c10.91,5.23,13.48,12.91,13.48,12.91s13.5,0,20.37,9.12,13,61.79-2.24,65c-10,2.23-22.25-34.75-22.25-34.75a24.88,24.88,0,0,1-27.91-10.25s-25.83,29.57-51.36,18.88C1187.32,718.29,1183.74,678.49,1190.54,670.34Z"/><path class="cls-4" d="M1267,774.79a17.65,17.65,0,0,1-18.74-16.47h0a17.62,17.62,0,1,1,23,15.67A17.15,17.15,0,0,1,1267,774.79Zm-16.37-16.44A15.3,15.3,0,1,0,1264.8,742h0a15.62,15.62,0,0,0-3.65.71,15.3,15.3,0,0,0-10.53,15.64Z"/><path class="cls-4" d="M1231.13,781.71c-7,1.75-14.63-4.51-17-13.92a21.1,21.1,0,0,1,.64-12.86A10.94,10.94,0,0,1,1233,750.4a20.93,20.93,0,0,1,6.58,11.05c2.3,9-1,17.53-7.3,19.9A5.78,5.78,0,0,1,1231.13,781.71Zm-14-25.88a18.67,18.67,0,0,0-.55,11.4c2,8.15,8.34,13.62,14.12,12.2s8.79-9.23,6.77-17.4a18.63,18.63,0,0,0-5.82-9.81,9.38,9.38,0,0,0-8.3-2.39l-.86.26a9.66,9.66,0,0,0-5.39,5.74Z"/><path class="cls-4" d="M1239.32,761.22l-2-1.24c3.34-5.27,10-3.52,13-1.82l-1.13,2.06C1248.93,760.06,1242.29,756.5,1239.32,761.22Z"/><path class="cls-4" d="M1316.8,742.15c-3.85.13-27.34,6.89-36.06,9.48l-.67-2.26c1.3-.46,31.68-9.39,36.66-9.58,5.31-.18,11.45,7.35,12.15,8.21l-1.82,1.46C1325.39,747.38,1320.33,742,1316.8,742.15Z"/><path class="cls-14" d="M1307,766.66l.33.31a10.65,10.65,0,0,0,15-.68c8.12-7.72,6.4-37.94-3.74-38.94s-15,22.49-15,22.49Z"/><path class="cls-2" d="M1312.38,764.2a.54.54,0,0,1,0,.18.68.68,0,0,0,1.35,0,32.32,32.32,0,0,1,.89-6.71,6.51,6.51,0,0,1,5.73-4.94c.16-.05.22-.44,0-.44-4.38-1-6.53,1.59-7.48,4.94-.27-7.55.58-15.34,6.18-21,.11-.13,0-.33-.16-.24C1310,740.85,1308.48,755.77,1312.38,764.2Z"/><path class="cls-14" d="M1195.36,1089.44c-10.51,11-39.32,15.1-53.81-3.14-11-13.93-54.7-74.89-70.37-143.1-4.27-18.62,102.72-40.62,107.34-28.47S1210.59,1073.41,1195.36,1089.44Z"/><path class="cls-2" d="M1185.47,948.43c.51,4,1.4,7.84,2.19,11.75s1.45,7.53,2.13,11.31c2.46,13.48,4.38,27,6.11,40.64.89,6.91,1.59,13.93,2.15,20.83s1,13.86,1,20.77c0,.16.29.18.29,0,0-7.81.2-15.59,0-23.4a305,305,0,0,0-3.65-41.69c-1.09-6.82-2.44-13.61-4-20.35a137.94,137.94,0,0,0-5.64-20.06C1185.93,947.88,1185.47,948.14,1185.47,948.43Z"/><path class="cls-14" d="M1207.21,696.66c11.55-20.12,39-28.93,61.92-22.76a94.13,94.13,0,0,1,26.59,62.69c.49.91,1.06,1.88,1.51,2.64s.93,1.5,1.39,2.21l-2.92.8a94.18,94.18,0,0,1-46.7,78.52,45.69,45.69,0,0,1-7.75-4.2c-9.63-6.38-18.18-21.43-24.66-38.92q-.81-2.13-1.53-4.32c-2.12-6-3.94-12.31-5.47-18.55-.38-1.57-.77-3.16-1.11-4.71a190.54,190.54,0,0,1-4.16-27.6C1203.55,711,1204.41,701.64,1207.21,696.66Z"/><path class="cls-2" d="M1250.28,739.13a3.21,3.21,0,0,1,.27-4.53,11,11,0,0,1,7.5-2.39c2.7,0,5.44.69,6.84,3.17a3,3,0,0,1-.73,3.65c-1.92,1.33-3.7,1.17-6,1.17a56.49,56.49,0,0,1-5.82,0A3.25,3.25,0,0,1,1250.28,739.13Z"/><path class="cls-2" d="M1261,760.08a.13.13,0,0,0,0-.26c-4.19-.66-5.76-5.53-6.47-9.89,0-.16-.42-.47-.42-.31C1254.09,753.78,1256.1,760.26,1261,760.08Z"/><path class="cls-2" d="M1260.89,758c6.35-1.77,3-15.63-3.83-13.72C1251.32,745.85,1254.55,759.73,1260.89,758Z"/><path class="cls-2" d="M1227.19,767.26c-.09,0-.2-.24-.09-.24,3.65-2.35,3-7.42,1.82-11.67-.05-.18.24-.62.24-.47C1230.94,758.74,1231.82,765.46,1227.19,767.26Z"/><path class="cls-2" d="M1226.51,765.38c-6.51,1-9.28-12.93-2.26-14.06C1230.14,750.37,1233,764.34,1226.51,765.38Z"/><path class="cls-2" d="M1214.92,744.46a3.2,3.2,0,0,1-1.94-4.1h0a10.94,10.94,0,0,1,5.47-5.64c2.43-1.2,5.16-1.92,7.55-.36a3,3,0,0,1,1,3.52,9.57,9.57,0,0,1-4.74,3.81c-1.75.93-3.34,2-5.16,2.75A3.14,3.14,0,0,1,1214.92,744.46Z"/><path class="cls-2" d="M1268.92,786.8a4.72,4.72,0,0,1-2.46,4.6,5.92,5.92,0,0,1-6-1,.21.21,0,0,1,0-.11.17.17,0,0,1,.17-.16,11.12,11.12,0,0,0,4.87,0c1.53-.51,2.23-2.13,3-3.37C1268.59,786.54,1268.94,786.54,1268.92,786.8Z"/><path class="cls-2" d="M1260.42,774.7c-4.49,5-8.28,7.7-14,8.32a.38.38,0,0,1,0-.15c-.51-1.44-1.55-11.33-2-11.33a26.37,26.37,0,0,0-6.4,3.65c-2.75-13.84-3.37-28.12-6.4-42a.4.4,0,1,0-.8,0h0c-.55,15,2.35,31,4.92,45.6.31,1.75,5.8-2.5,6.86-3.39,0,0,1,5.11,1.82,8.39v.38h0a1.62,1.62,0,0,0,0,.44h0a1.08,1.08,0,0,0,1.09.75,8.34,8.34,0,0,0,1,0,4.81,4.81,0,0,0,1-.13,18.8,18.8,0,0,0,5.2-1.5,15.08,15.08,0,0,0,8.19-8.85C1261.06,774.54,1260.64,774.34,1260.42,774.7Z"/><path class="cls-2" d="M1260.8,774.78a19.45,19.45,0,0,1,2.52,3.76c1.28,2.54,2,5.71-1.28,7.42a7.84,7.84,0,0,1-4.8.84,17.78,17.78,0,0,1-8.23-3.65A23.17,23.17,0,0,0,1260.8,774.78Z"/><path class="cls-16" d="M1263.34,778.59c1.28,2.54,2,5.71-1.28,7.42a7.84,7.84,0,0,1-4.8.84C1256.72,783.2,1259.76,779.85,1263.34,778.59Z"/><path class="cls-2" d="M1182.35,661.49c3.85-4.8,12.06-4.14,18.24,1.82a17,17,0,0,0-1.46,11.76c2.13,10.67,11.73,8.68,7.39-2.66a24.66,24.66,0,0,0-5.93-9.12l.22-.42a10.14,10.14,0,0,1,13.82-3.87h0a36.19,36.19,0,0,1,12.48,11.11,181.16,181.16,0,0,1,24.22-10.54,94.26,94.26,0,0,1,44.43,77.06,171,171,0,0,1-10.38-24.28,26.33,26.33,0,0,1-29.55-10.94s-25.41,29.15-51.53,21.05c-1-.29-1.92-.64-2.88-1C1178.93,712,1175.17,669.92,1182.35,661.49Z"/><path class="cls-4" d="M1243.38,753.25a11.81,11.81,0,0,0,0,1.19c0,.55.16,1.08.16,1.61a18.69,18.69,0,0,0,18.51,15.85h1.17a19.13,19.13,0,0,0,4.56-.86,18.71,18.71,0,0,0,12.9-18.93,17.77,17.77,0,0,0-1.11-5.25,16.15,16.15,0,0,0-1-2.3,18.67,18.67,0,0,0-35,6.44,21.25,21.25,0,0,0-.15,2.25Zm19.7,16.15a16.16,16.16,0,0,1-6-31.5,16.53,16.53,0,0,1,3.94-.75,15.88,15.88,0,0,1,4.07.26,16.16,16.16,0,0,1-2,32Z"/><path class="cls-4" d="M1207.45,764.45a21.24,21.24,0,0,0,9.12,13.19,11.63,11.63,0,0,0,8.88,1.57c.4-.11.78-.22,1.17-.36a13.27,13.27,0,0,0,7.5-8.52,22.58,22.58,0,0,0,.33-12.57,2,2,0,0,0-.16-.57,20.46,20.46,0,0,0-.91-2.74,21.46,21.46,0,0,0-2-3.94,19.23,19.23,0,0,0-3.87-4.47,13.71,13.71,0,0,0-7.13-3.26A10.42,10.42,0,0,0,1214,744a13,13,0,0,0-5.47,6.07l-.33.78A22.2,22.2,0,0,0,1207.45,764.45Zm2.46-.6a21.07,21.07,0,0,1-.24-9.08,15.64,15.64,0,0,1,.88-3,10.3,10.3,0,0,1,5.69-6.09,7,7,0,0,1,.89-.27,10,10,0,0,1,8.81,2.54,19.85,19.85,0,0,1,6.15,10.4c2.15,8.65-1,16.91-7.17,18.42a10.39,10.39,0,0,1-9.81-3.47,20.37,20.37,0,0,1-5.13-9.47h-.07Z"/><path class="cls-4" d="M1234,757.58l-2.12-1.31c3.52-5.65,10.56-3.83,13.79-2l-1.19,2.19C1244.19,756.28,1237.16,752.51,1234,757.58Z"/><path class="cls-4" d="M1278.55,744.55c2.92-.86,10-2.92,17.27-4.92l1.48-.42c.46.77.93,1.5,1.39,2.21l-2.92.8c-6,1.68-12.09,3.43-16.2,4.63l-1.66.49-.71-2.39Z"/><g class="cls-8"><path class="cls-5" d="M1181.51,831.31a94.06,94.06,0,0,1-71.62-112.09h0a94.08,94.08,0,1,1,71.65,112.11h0Z"/><path class="cls-9" d="M1157.31,822.38a94.15,94.15,0,0,0,127-37.77Z"/><path class="cls-9" d="M1247.09,657l-128.37,38.21a92.24,92.24,0,0,0-8.85,24,94.4,94.4,0,0,0-2.19,22.23l173.89-51.74A94.14,94.14,0,0,0,1247.09,657Z"/><path class="cls-9" d="M1295.51,731.91,1119.14,784.4a95.29,95.29,0,0,0,10.38,15.27l165.63-49.25A90.89,90.89,0,0,0,1295.51,731.91Z"/><path class="cls-9" d="M1286.17,698l-177.8,52.89c.13,1.13.29,2.26.47,3.39l178.74-53.2C1287.16,700,1286.66,699,1286.17,698Z"/><path class="cls-9" d="M1208.89,645.66l-64.44,19.15c-2.24,1.82-4.41,3.56-6.47,5.47l79.34-23.6Q1213.14,646,1208.89,645.66Z"/></g><rect class="cls-9" x="1113.82" y="879.47" width="108.76" height="24.73" transform="translate(45.98 1840.89) rotate(-77.58)"/><path class="cls-13" d="M1179.25,841.59A104.59,104.59,0,1,0,1099.6,717v0A104.58,104.58,0,0,0,1179.25,841.59Zm2.27-10.27a94.07,94.07,0,0,1-71.62-112.1h0a94.08,94.08,0,1,1,71.62,112.13h0Z"/><polygon class="cls-2" points="1179.34 928.19 1179.34 928.19 1142.79 920.14 1122.07 1014.31 1122.07 1014.31 1158.61 1022.36 1179.34 928.19"/><path class="cls-5" d="M1142.74,727.24a6.37,6.37,0,0,1-7.11,5.18,6.24,6.24,0,0,1-5.18-7.11,64.65,64.65,0,0,1,2.66-8,85.73,85.73,0,0,1,21-30.77,78.43,78.43,0,0,1,50.27-20.3h0a6.23,6.23,0,0,1,1.41,12.37c-2.92.12-5.84.39-8.74.8-1.39.2-2.74.44-4.1.71l-2.1.46-.51.11h-.24a73.67,73.67,0,0,0-13.61,5.11l-1.44.73c-1,.51.93-.55-.42.24-.78.44-1.55.89-2.32,1.37-1.66,1-3.39,2.24-4.85,3.34s-2.86,2.24-4.23,3.43l-1.06,1c-1.06,1,.6-.6-.16.15l-1.68,1.68a76.39,76.39,0,0,0-6.44,7.59c-.89,1.15-1.75,2.39-2.59,3.65l-.64,1c-.8,1.15.11-.31,0-.13-.31.55-.66,1.09-1,1.64a80.09,80.09,0,0,0-5.84,12.22c-.46,1.19-.93,2.63-1.26,3.65s.58-2.06.15-.49a2,2,0,0,1-.09.33Z"/><path class="cls-5" d="M1135,738.46h0a6.13,6.13,0,1,0,5.12,7,6.14,6.14,0,0,0-5.12-7h0Z"/><path class="cls-14" d="M1120.54,981.52c40.47-10,51.73-42.44,51.73-42.44,4.18.62,9.32-3,9.32-3,3.92-14.12,4.45-29,5.16-35.73,1.6-15.19-23.22-33.89-23.22-33.89,10-5,23-2.83,41.06-8.08,25.43-7.39,4.47-19.59-10.74-20.59-64.09-4.21-95.68,26-109.07,42.86-32.52,41-6.4,83.9-6.4,83.9Z"/><path class="cls-14" d="M1169.48,942.19c14.7-7.44,35.44,5.84,40.13-5.62,3.9-9.52-6.37-15-6.37-15s13.24,1.17,15.3-9.12c2.28-11.29-15.67-17.22-15.67-17.22s17.14.42,16.93-12c-.27-17-44.76-22-67.76-21.32-20.7.58-43.06,9-53.53,13.22C1098.51,875.11,1166.08,943.94,1169.48,942.19Z"/><path class="cls-2" d="M1148.7,886.51a226.79,226.79,0,0,1,54,8.86c.47.13.42-.31,0-.53-18.28-10-43.46-10.85-54-8.55C1148.54,886.42,1148.54,886.51,1148.7,886.51Z"/><path class="cls-2" d="M1149.85,909.58a.11.11,0,0,0,.09.13h0a241.8,241.8,0,0,1,53.39,12.06c.44.15.42-.29,0-.53-18.17-10.74-44.08-12.8-53.35-11.75a.11.11,0,0,0-.13.09Z"/><path class="cls-2" d="M1112.77,984.65a90.72,90.72,0,0,0,16.42-3,66.56,66.56,0,0,0,25.53-14.15,59.32,59.32,0,0,0,9.74-11.58,84.56,84.56,0,0,0,7.77-14.46c.11-.16-.24-.35-.38-.16-1.88,2.41-3.63,5.16-5.22,7.59s-3.41,4.8-5.23,7.08a74.19,74.19,0,0,1-22.09,18.24,111.52,111.52,0,0,1-26.67,10.09C1112.39,984.36,1112.5,984.73,1112.77,984.65Z"/><path class="cls-14" d="M1342.11,855.72c10.74,73.56,87.44,275.32,92.11,290.61,3.63,11.93,89.41-31.3,81.58-47.71-11.53-24.19-89.94-188.61-136.92-251.7C1362.63,825.08,1336.24,815.39,1342.11,855.72Z"/><path class="cls-14" d="M1511.55,1088.91a163.07,163.07,0,0,0,17.64,17.13c8.66,6.88,91.91,24.19,90.08,40-1.35,11.42-42-8.35-42-8.35s53,6.86,52.67,20.9c-.2,6.26-8.68,4.56-8.68,4.56s10.78,4.21,8.34,11.89c-2.17,6.73-15.72,2.77-15.72,2.77s8.85,5.31,6.75,10.56c-4.74,11.62-37,3.54-51.07.86s-69.8-18.59-69.8-18.59,41.84,1.31,42.08,8.15-3.57,12.4-23.47,12.4-59.39.93-66.9-3.65-17.62-34.53-19.61-49.39Z"/><path class="cls-2" d="M1540.77,1176a15.87,15.87,0,0,0-4.91-4.2,44.88,44.88,0,0,0-11.73-4.49,98.2,98.2,0,0,0-24.51-2.74c8,2.08,16.05,3.48,23.89,5.47a64.14,64.14,0,0,1,11.4,3.65,17.41,17.41,0,0,1,4.85,3.14,6.16,6.16,0,0,1,1.82,5.33A6.32,6.32,0,0,0,1540.77,1176Z"/><path class="cls-2" d="M1597.44,1171c-5.51-2-11.09-4-16.73-5.69s-11.29-3.36-17-4.67a131.89,131.89,0,0,0-17.42-3.12c5.65,1.7,11.25,3.37,16.85,5.2l16.8,5.25c5.62,1.7,11.24,3.41,16.87,5s11.29,3.25,17,4.65C1608.51,1175.22,1603,1173.07,1597.44,1171Z"/><path class="cls-2" d="M1575.35,1147.88q7.74,2.26,15.41,4.63c5.13,1.57,10.2,3.28,15.28,5s10.09,3.65,15.21,5.47a110.52,110.52,0,0,0-14.43-7.44,145.16,145.16,0,0,0-15.23-5.69,146.86,146.86,0,0,0-15.74-4,109.07,109.07,0,0,0-16.09-2.23C1565,1145.05,1570.19,1146.36,1575.35,1147.88Z"/><path class="cls-2" d="M1592.61,1138.43c8.19,2.74,16.21,5.84,24.46,8.77a109.05,109.05,0,0,0-49.08-16.89C1576.3,1133,1584.42,1135.69,1592.61,1138.43Z"/><path class="cls-4" d="M1339.52,866.61c-9.9-55.9,5.89-58.62,34.91-27.07,27.8,30.3,79.69,112.88,79.69,112.88l-95.21,2.63S1349.5,922.9,1339.52,866.61Z"/><path class="cls-5" d="M1409.78,936.07A32.75,32.75,0,0,0,1425,942.8a31,31,0,0,0-7.15-4.36A28.81,28.81,0,0,0,1409.78,936.07ZM1364.66,878a28.73,28.73,0,0,0-2.39,8,32.13,32.13,0,0,0,6.75-15.17,28.26,28.26,0,0,0-4.36,7.14Zm43.9,17.94a28.78,28.78,0,0,0-4-7.37,32,32,0,0,0,6,15.5A29.61,29.61,0,0,0,1408.56,895.94Zm-41.92,37.28a29.45,29.45,0,0,0-4-7.35,32.57,32.57,0,0,0,6,15.5A28.62,28.62,0,0,0,1366.64,933.22Zm-27.9-108.43a18.53,18.53,0,0,0-1,3c.07.24.15.46.24.69a29.15,29.15,0,0,0,4,7.3,30.35,30.35,0,0,0-2-8.13c-.4-1-.82-1.95-1.28-2.9h0Z"/><path class="cls-2" d="M1364.84,938.78c2.74.24,5.49.09,8.21.09h8c9.32,0,18.66-.27,28-.49q7.11-.17,14.23-.46c2.41-.09,4.85-.24,7.2-.38s4.69-.49,7-.64c.15,0,.16-.26,0-.26-2.74,0-5.6-.29-8.21-.29h-7.82c-9.47.13-18.93.46-28.42.75-4.75.15-9.49.33-14.21.57l-7,.38c-2.26.11-4.58.11-6.84.44A.16.16,0,0,0,1364.84,938.78Z"/><path class="cls-2" d="M1346.09,906.76c3.32,15.89,11.31,49.06,11.73,49.06,3.3.2,7-.51,10.18-.6.18,0,.26-.46,0-.46-3-.38-6.51,0-9.27-.38-1.13-5.14-2.13-11.58-3.25-16.74-2-9.34-4.25-18.64-6.44-27.94s-5-18.44-7.51-27.67a.17.17,0,0,0-.1-.1.17.17,0,0,0-.21.1c1.06,5.36,2,10.76,3,16.12.31,1.68.69,3.34,1,5A70.49,70.49,0,0,0,1340.7,893c-.09-.18-.31-.07-.31.11C1342.15,897.71,1344,902.23,1346.09,906.76Z"/><path class="cls-2" d="M1272.64,841.44c1.29,5.13,2.72,10.25,4.41,15.25a51.2,51.2,0,0,0,6,12.9c4.41,6.35,11.27,10.56,19.28,9.79s14.7-5.44,19.63-11.6c5.2-6.53,8.44-14.54,11.33-22.29,1.57-4.23,5.49-20.87,6.84-26.12,0-.16-.35-.18-.35,0-.8,2.28-1.37,4.63-2,7s-1.44,4.63-2.19,6.93c-1.46,4.54-3.28,9-5.11,13.42-3,7.11-6.44,14.5-11.55,20.39-4.67,5.4-11.34,9.63-18.64,9.63-7.68,0-13.73-5.13-17.67-11.34a70.78,70.78,0,0,1-5.31-10.94c-1.73-4.21-3.25-8.52-4.58-12.88C1272.73,841.5,1272.57,841.51,1272.64,841.44Z"/></g><line class="cls-17" x1="513.23" y1="724.23" x2="652.34" y2="724.23"/></svg>